<?xml version="1.0" standalone="no"?>
<!DOCTYPE svg PUBLIC "-//W3C//DTD SVG 20010904//EN"
 "http://www.w3.org/TR/2001/REC-SVG-20010904/DTD/svg10.dtd">
<svg version="1.0" xmlns="http://www.w3.org/2000/svg"
 width="1618.000000pt" height="1214.000000pt" viewBox="0 0 1618.000000 1214.000000"
 preserveAspectRatio="xMidYMid meet">

<g transform="translate(0.000000,1214.000000) scale(0.100000,-0.100000)"
fill="#000000" stroke="none">
<path d="M12834 11583 c-29 -67 -30 -68 -64 -65 -35 3 -82 -36 -99 -81 -10
-27 2 -91 19 -102 5 -3 -8 -41 -30 -85 -43 -86 -47 -100 -27 -100 7 0 30 36
52 79 35 73 41 80 74 86 42 8 83 28 101 50 18 22 15 71 -7 103 -18 27 -24 52
-13 62 12 11 38 78 33 84 -13 13 -24 4 -39 -31z m-85 -165 c-32 -63 -49 -67
-49 -13 0 38 31 74 60 72 16 -1 15 -7 -11 -59z m91 -3 c0 -26 -10 -39 -37 -54
-50 -26 -55 -14 -22 50 28 56 31 60 44 43 8 -11 14 -28 15 -39z"/>
<path d="M14693 11553 c-11 -15 -23 -36 -27 -47 -5 -15 -13 -17 -46 -12 -31 5
-40 3 -40 -8 0 -9 -11 -32 -25 -52 -27 -40 -32 -79 -14 -118 10 -21 7 -32 -25
-85 -40 -65 -51 -116 -26 -116 8 0 17 12 20 27 3 15 21 54 40 87 30 51 39 61
63 61 42 0 87 27 88 53 2 46 -3 93 -13 110 -7 14 -3 29 17 64 31 52 21 84 -12
36z m-85 -157 c-31 -64 -48 -75 -48 -33 0 28 26 67 44 67 8 0 16 7 20 15 3 8
8 15 11 15 2 0 -9 -29 -27 -64z m62 -11 c0 -39 -4 -47 -25 -57 -14 -6 -28 -9
-31 -6 -6 6 43 108 51 108 3 0 5 -20 5 -45z"/>
<path d="M15035 11534 c-26 -31 -38 -55 -37 -75 0 -16 -4 -29 -9 -29 -6 0 -21
-11 -34 -25 -20 -19 -25 -34 -25 -75 0 -56 23 -90 63 -90 35 0 94 46 123 96
25 42 26 50 16 88 -7 25 -7 45 -1 51 25 25 -8 105 -44 105 -8 0 -32 -21 -52
-46z m69 -17 c13 -21 -6 -41 -46 -51 -34 -8 -36 6 -5 44 24 31 35 33 51 7z
m-1 -99 c9 -31 -15 -79 -57 -116 -40 -34 -55 -39 -74 -20 -13 13 -16 76 -4 94
12 19 55 37 84 36 18 0 28 4 28 14 0 22 17 17 23 -8z"/>
<path d="M14874 11533 c-4 -15 -33 -79 -65 -142 -45 -87 -56 -117 -48 -127 13
-16 29 -9 29 12 0 8 27 66 61 130 33 64 59 123 57 132 -5 27 -27 24 -34 -5z"/>
<path d="M13647 11532 c-10 -10 -17 -25 -17 -33 0 -9 -6 -24 -14 -35 -14 -18
-15 -18 -21 -1 -11 28 -53 21 -91 -17 -41 -41 -47 -97 -14 -139 l21 -26 -36
-53 c-19 -29 -35 -61 -35 -70 0 -25 27 -22 41 5 7 12 11 22 9 22 -2 0 9 19 23
43 22 34 33 42 58 42 61 0 101 80 69 140 -8 15 -3 30 20 70 28 47 31 70 11 70
-4 0 -15 -8 -24 -18z m-69 -101 c11 -7 8 -19 -13 -62 -35 -68 -34 -68 -51 -45
-20 28 -17 73 6 96 22 22 37 25 58 11z m26 -112 c-34 -38 -43 -21 -16 29 26
46 27 46 30 19 2 -17 -4 -37 -14 -48z"/>
<path d="M12998 11513 c-17 -3 -28 -11 -28 -20 0 -13 8 -15 45 -10 53 8 59 -3
13 -24 -35 -15 -51 -49 -23 -49 34 0 75 -30 75 -55 0 -30 -25 -55 -53 -55 -27
1 -65 21 -66 35 -1 17 -36 11 -39 -7 -4 -22 65 -58 112 -58 73 0 104 98 46
142 l-31 22 36 19 c88 45 39 79 -87 60z"/>
<path d="M13792 11494 c-64 -45 -39 -110 29 -74 28 16 25 -11 -11 -82 -34 -67
-39 -101 -13 -96 10 2 20 16 23 33 4 17 16 48 28 71 11 23 24 63 27 90 7 47 5
51 -19 62 -34 15 -37 15 -64 -4z m24 -40 c-11 -7 -22 -11 -25 -8 -3 3 3 12 13
20 11 7 22 11 25 8 3 -3 -3 -12 -13 -20z"/>
<path d="M14359 11487 c-36 -24 -51 -57 -25 -57 8 0 19 6 23 14 10 17 53 40
60 32 20 -19 -55 -110 -116 -140 -59 -31 -89 -62 -73 -78 9 -9 23 -4 59 21 26
19 48 30 50 25 2 -5 12 -24 23 -42 15 -24 27 -32 42 -30 29 4 34 25 8 33 -12
4 -28 21 -35 38 -13 31 -12 33 21 68 36 37 66 103 57 126 -8 20 -57 15 -94
-10z"/>
<path d="M13155 11281 c-3 -5 -1 -12 5 -16 12 -7 30 2 30 16 0 12 -27 12 -35
0z"/>
<path d="M13940 11274 c-9 -10 -10 -18 -2 -26 12 -12 32 -2 32 17 0 21 -16 26
-30 9z"/>
<path d="M9678 11208 c-6 -13 -28 -66 -48 -118 -30 -77 -40 -95 -56 -93 -10 1
-30 3 -44 5 -36 4 -32 -23 5 -35 17 -5 31 -11 33 -12 2 -2 -6 -21 -17 -44 -25
-47 -27 -81 -6 -81 8 0 15 6 15 13 0 6 11 36 25 65 23 50 26 52 65 52 36 0 40
2 40 25 0 18 -5 25 -19 25 -11 0 -21 -6 -24 -12 -2 -7 -7 -10 -11 -7 -4 4 9
49 29 100 44 113 51 139 37 139 -6 0 -17 -10 -24 -22z"/>
<path d="M5115 11180 c-3 -5 -4 -14 -1 -19 3 -4 -10 -46 -28 -92 -28 -68 -38
-85 -57 -87 -13 -2 -30 -9 -38 -15 -12 -9 -13 -9 -7 1 6 10 0 12 -25 10 -52
-6 -35 -23 26 -26 31 -2 53 -7 50 -12 -14 -22 -22 -105 -13 -136 8 -31 12 -34
48 -34 21 0 45 3 54 6 31 12 16 24 -29 24 l-45 0 0 41 c0 23 5 59 11 79 10 34
16 38 51 43 43 6 74 25 61 38 -5 5 -23 3 -41 -3 -17 -7 -34 -10 -37 -7 -2 3
11 45 30 93 20 48 33 91 30 97 -8 12 -32 12 -40 -1z"/>
<path d="M3105 11156 c-25 -7 -41 -19 -43 -30 -3 -16 0 -18 22 -12 16 4 26 2
26 -5 0 -12 -19 -83 -51 -191 -21 -70 -19 -98 7 -77 8 6 14 18 14 26 0 8 9 46
21 83 l21 69 40 -15 c23 -8 47 -19 55 -25 20 -18 15 -61 -12 -102 -53 -78
-142 -90 -205 -27 -13 13 -15 21 -7 29 19 19 -6 33 -28 17 -49 -35 37 -116
123 -116 72 0 141 52 167 125 18 55 7 86 -42 111 l-41 21 35 27 c73 59 66 107
-16 105 -25 0 -64 -6 -86 -13z m119 -30 c-3 -7 -26 -28 -51 -46 -36 -26 -44
-29 -40 -14 4 10 9 31 13 47 5 24 11 27 45 27 28 0 37 -4 33 -14z"/>
<path d="M4685 11158 c-2 -7 -9 -44 -15 -83 -15 -98 -18 -104 -40 -98 -11 3
-31 -4 -47 -17 -69 -54 -72 -140 -6 -140 52 0 98 90 124 243 6 37 15 69 20 72
12 8 -1 35 -17 35 -8 0 -16 -6 -19 -12z m-60 -257 c-17 -35 -41 -55 -55 -46
-27 17 16 87 50 78 18 -5 18 -7 5 -32z"/>
<path d="M10324 11143 c-3 -10 -12 -29 -20 -43 -8 -14 -27 -46 -42 -72 l-27
-48 -58 0 c-71 0 -76 -23 -6 -28 l44 -3 -4 -50 c-4 -59 18 -92 58 -87 35 4 38
26 4 30 -25 3 -28 7 -31 44 -4 50 16 74 61 74 18 0 38 4 46 9 24 15 2 30 -34
24 -19 -3 -35 -2 -35 3 0 5 20 40 45 78 25 38 42 73 39 77 -9 15 -34 10 -40
-8z"/>
<path d="M11540 11118 c0 -7 -14 -42 -30 -78 -27 -61 -31 -65 -67 -70 -25 -3
-39 -11 -41 -22 -3 -15 2 -17 28 -11 30 6 32 5 25 -18 -4 -13 -14 -35 -22 -48
-10 -16 -12 -26 -4 -34 15 -15 36 6 50 52 16 54 36 73 68 65 19 -5 24 -3 21 7
-3 8 -14 15 -26 17 -12 2 -22 5 -22 6 0 2 14 33 30 69 17 37 30 69 30 72 0 11
-40 4 -40 -7z"/>
<path d="M12990 11107 c0 -7 -19 -44 -42 -82 -30 -52 -41 -81 -42 -114 -1 -49
21 -74 50 -56 19 12 16 30 -6 30 -27 1 -14 57 30 132 24 41 40 79 36 88 -7 18
-26 20 -26 2z"/>
<path d="M13705 11038 c-15 -46 -37 -102 -51 -125 -39 -67 -94 -96 -94 -50 0
29 18 47 47 47 26 0 30 12 9 29 -21 18 -62 -5 -81 -46 -15 -31 -15 -36 -1 -59
49 -74 145 21 202 199 12 39 21 54 28 47 15 -15 26 -12 26 9 0 18 -18 31 -45
31 -8 0 -24 -33 -40 -82z"/>
<path d="M14150 11098 c0 -7 -18 -42 -40 -78 -35 -58 -44 -66 -77 -70 -48 -7
-57 -30 -11 -30 30 0 33 -3 34 -32 2 -38 43 -78 80 -78 21 0 25 4 22 23 -2 12
-9 21 -17 19 -32 -7 -51 9 -51 44 0 31 3 34 30 34 24 0 28 3 23 18 -4 9 -11
20 -16 23 -5 3 8 32 28 63 20 31 33 61 30 66 -9 14 -35 12 -35 -2z"/>
<path d="M8636 11091 c-3 -5 1 -14 8 -20 16 -13 32 2 21 19 -8 12 -22 13 -29
1z"/>
<path d="M6795 11049 c-8 -12 11 -29 33 -29 19 0 10 34 -10 38 -9 2 -19 -2
-23 -9z"/>
<path d="M3397 11043 c-11 -10 -8 -35 3 -28 6 3 10 0 10 -7 0 -8 5 -6 11 5 15
25 -5 50 -24 30z"/>
<path d="M5857 11003 c-12 -11 -8 -23 8 -23 8 0 15 7 15 15 0 16 -12 20 -23 8z"/>
<path d="M6908 10994 c-31 -16 -38 -54 -13 -74 8 -7 15 -17 15 -22 0 -15 -32
-22 -40 -8 -9 15 -30 5 -30 -15 0 -8 10 -19 21 -26 50 -26 98 36 65 85 -14 23
-14 25 10 41 13 9 22 20 19 25 -8 13 -15 12 -47 -6z"/>
<path d="M12353 10994 c-8 -21 13 -42 28 -27 13 13 5 43 -11 43 -6 0 -13 -7
-17 -16z"/>
<path d="M3857 10962 c-37 -38 -58 -94 -38 -106 6 -4 21 14 35 42 26 51 45 66
71 56 18 -7 20 17 3 34 -19 19 -31 15 -71 -26z"/>
<path d="M9045 10980 c-12 -4 -27 -15 -34 -24 -7 -9 -22 -16 -32 -16 -14 0
-31 -24 -64 -91 -25 -51 -45 -98 -45 -105 0 -31 28 -11 51 36 21 43 28 50 55
50 64 0 153 109 118 145 -17 17 -21 17 -49 5z m25 -40 c0 -12 -67 -80 -79 -80
-5 0 -8 11 -7 24 0 13 4 22 7 20 3 -2 16 8 27 21 22 25 52 34 52 15z"/>
<path d="M3365 10968 c-37 -103 -45 -153 -24 -146 13 4 59 144 51 153 -9 9
-22 6 -27 -7z"/>
<path d="M4731 10945 c-53 -60 -35 -112 26 -75 l29 17 13 -28 c7 -16 19 -29
27 -29 15 0 19 26 5 34 -5 3 -5 22 -1 42 7 29 5 37 -8 42 -10 3 -23 12 -30 19
-20 19 -27 17 -61 -22z m44 -26 c-4 -5 -15 -14 -27 -20 -21 -11 -20 -3 5 28
10 14 31 7 22 -8z"/>
<path d="M6725 10944 c-8 -20 -15 -39 -15 -42 0 -3 -7 -13 -16 -23 -17 -19
-13 -49 6 -49 12 0 60 101 60 125 0 30 -20 24 -35 -11z"/>
<path d="M8710 10968 c-14 -6 -31 -11 -39 -12 -22 -2 -56 -65 -43 -78 9 -9 19
-4 39 18 15 16 26 33 25 37 -1 5 2 6 8 2 6 -4 8 -15 5 -25 -3 -10 -1 -21 5
-25 14 -9 70 26 70 43 0 12 3 12 15 2 8 -6 13 -22 12 -33 -1 -16 4 -22 18 -22
15 0 19 6 17 25 -4 46 -10 52 -47 48 -27 -3 -34 -1 -32 11 3 19 -21 23 -53 9z"/>
<path d="M7469 10938 c-51 -54 -24 -97 40 -65 28 14 30 14 33 -6 2 -12 10 -23
19 -25 12 -2 16 7 16 44 0 85 -54 111 -108 52z m56 -8 c3 -5 -9 -17 -27 -26
l-33 -17 24 27 c28 29 28 29 36 16z"/>
<path d="M10979 10947 c-54 -36 -53 -107 2 -126 40 -14 86 -14 94 -1 7 11 2
13 -60 26 -36 8 -40 12 -40 39 0 25 5 32 35 41 19 6 36 19 38 28 5 23 -29 20
-69 -7z"/>
<path d="M7640 10927 c-7 -18 -13 -38 -13 -44 0 -7 -3 -11 -7 -8 -12 8 -22
-27 -11 -38 6 -6 28 6 62 37 28 25 55 46 59 46 5 0 10 -14 12 -32 5 -48 28
-48 28 0 0 52 -20 70 -61 55 -25 -10 -29 -9 -30 5 0 12 -2 13 -6 3 -4 -9 -8
-10 -12 -2 -4 6 -13 -3 -21 -22z"/>
<path d="M8501 10919 c-27 -51 -20 -79 18 -79 33 0 67 23 57 39 -5 8 -13 8
-27 0 -35 -18 -42 -4 -15 28 31 37 33 53 7 53 -12 0 -27 -15 -40 -41z"/>
<path d="M11223 10936 c-23 -20 -26 -28 -17 -43 6 -10 22 -18 35 -18 14 0 29
-9 37 -22 23 -41 40 -29 34 25 -9 86 -36 104 -89 58z m47 -20 c0 -2 -7 -6 -15
-10 -8 -3 -15 -1 -15 4 0 6 7 10 15 10 8 0 15 -2 15 -4z"/>
<path d="M12010 10930 c-34 -36 -42 -64 -25 -87 12 -17 17 -17 56 -3 52 18 71
54 49 95 -18 33 -46 32 -80 -5z m55 -31 c0 -17 -48 -43 -54 -28 -4 14 30 50
43 46 6 -2 11 -10 11 -18z"/>
<path d="M13783 10939 c-33 -21 -49 -51 -38 -69 8 -13 51 -13 77 1 15 8 19 8
13 -1 -11 -18 4 -60 21 -60 12 0 15 6 10 23 -3 14 3 36 15 57 l21 34 -24 18
c-30 23 -56 22 -95 -3z m33 -35 c-30 -21 -44 -16 -17 7 13 11 27 17 30 13 3
-3 -3 -12 -13 -20z"/>
<path d="M3507 10936 c-8 -19 6 -28 29 -19 18 7 18 -4 -2 -81 -5 -20 -2 -26
10 -26 18 0 39 67 34 108 -2 22 -9 28 -34 30 -21 2 -33 -2 -37 -12z"/>
<path d="M3647 10920 c-52 -62 -45 -105 13 -75 27 14 34 15 41 3 5 -7 9 -16 9
-20 0 -5 6 -8 14 -8 10 0 14 15 15 53 0 47 -2 53 -26 65 -37 16 -38 16 -66
-18z m33 -25 c-7 -9 -15 -13 -17 -11 -7 7 7 26 19 26 6 0 6 -6 -2 -15z"/>
<path d="M4034 10901 c-32 -57 -58 -59 -69 -5 -3 20 -12 34 -20 34 -31 0 -9
-86 25 -98 18 -7 17 -12 -30 -85 -67 -104 -80 -131 -80 -162 0 -36 19 -27 34
16 7 19 41 82 77 139 95 152 119 197 112 204 -13 13 -23 5 -49 -43z"/>
<path d="M5242 10939 c-24 -9 -62 -64 -62 -90 0 -9 7 -22 15 -29 12 -10 20 -9
40 4 31 20 32 20 38 -4 10 -39 107 -52 107 -14 0 11 -6 13 -20 9 -11 -3 -29
-3 -41 0 -17 6 -20 13 -16 38 3 18 8 41 11 52 6 16 1 23 -22 31 -16 6 -38 7
-50 3z m28 -37 c0 -5 -11 -19 -25 -32 -26 -24 -33 -14 -15 21 11 19 40 27 40
11z"/>
<path d="M9169 10935 c-14 -7 -34 -30 -44 -49 -18 -33 -18 -37 -3 -52 20 -21
56 -13 94 20 25 21 27 27 18 57 -11 38 -28 45 -65 24z m39 -43 c4 -13 -44 -39
-55 -29 -8 9 28 48 41 44 5 -2 12 -9 14 -15z"/>
<path d="M12173 10937 c-30 -17 -62 -61 -65 -89 -4 -35 20 -28 40 12 10 21 30
41 50 49 32 15 38 34 11 38 -8 2 -24 -3 -36 -10z"/>
<path d="M9333 10918 c-31 -35 -45 -66 -33 -73 18 -11 40 3 40 24 0 23 28 41
64 41 18 0 24 4 20 15 -9 24 -67 19 -91 -7z"/>
<path d="M11603 10918 c-49 -54 -52 -95 -8 -124 19 -12 31 -13 64 -4 24 6 41
17 41 25 0 18 -9 19 -44 5 -27 -10 -56 -4 -56 11 0 5 8 12 18 16 32 11 52 36
52 65 0 23 -4 28 -23 28 -13 0 -33 -10 -44 -22z"/>
<path d="M11765 10909 c-50 -44 -46 -74 10 -73 22 0 48 4 57 8 18 8 19 13 -14
-113 l-11 -43 -39 6 c-47 8 -73 -5 -86 -42 -13 -37 -5 -76 19 -98 19 -17 21
-15 72 37 28 30 56 53 61 51 5 -2 16 0 25 3 14 6 14 8 -2 20 -18 13 -18 18 8
130 26 113 27 117 9 130 -31 24 -70 18 -109 -16z m75 -12 c0 -15 -41 -37 -68
-37 -13 1 -11 6 11 25 31 27 57 33 57 12z m-54 -240 c5 -5 -56 -77 -67 -77
-13 0 -11 64 3 78 10 10 54 10 64 -1z"/>
<path d="M12474 10929 c-37 -11 -67 -41 -62 -65 1 -9 15 -26 30 -37 22 -16 33
-18 58 -11 42 12 39 29 -5 29 -45 1 -62 17 -40 39 16 16 33 20 69 16 14 -1 17
3 12 15 -3 9 -6 19 -6 21 0 6 -21 3 -56 -7z"/>
<path d="M12655 10931 c-30 -13 -58 -48 -52 -66 7 -17 20 -19 64 -6 28 8 32 7
35 -10 5 -33 22 -26 29 11 12 54 2 80 -30 79 -14 0 -35 -4 -46 -8z m35 -31
c-8 -5 -19 -10 -25 -10 -5 0 -3 5 5 10 8 5 20 10 25 10 6 0 3 -5 -5 -10z"/>
<path d="M9718 10913 c-31 -36 -38 -59 -24 -79 13 -17 18 -17 48 -6 44 16 45
16 51 -8 10 -39 27 -20 27 30 0 38 -4 50 -15 50 -8 0 -15 7 -15 15 0 21 -53
19 -72 -2z m49 -21 c9 -6 4 -13 -17 -26 -32 -18 -36 -16 -20 15 12 21 19 23
37 11z"/>
<path d="M12284 10913 c-3 -10 -12 -33 -20 -51 -14 -32 -12 -52 5 -52 12 0 54
97 47 109 -11 16 -26 13 -32 -6z"/>
<path d="M3443 10902 c-3 -9 -12 -32 -19 -51 -18 -42 -17 -51 0 -51 8 0 28 23
45 50 41 66 40 64 8 67 -19 1 -30 -4 -34 -15z"/>
<path d="M9893 10903 c-3 -10 -15 -30 -25 -45 -10 -14 -18 -29 -18 -32 0 -16
32 -3 70 29 23 19 44 35 46 35 2 0 -1 -12 -7 -26 -12 -33 -2 -66 18 -62 12 2
17 17 19 56 3 59 -12 75 -49 52 -15 -9 -22 -10 -25 -1 -6 17 -22 13 -29 -6z"/>
<path d="M14235 10895 c-56 -55 -5 -96 78 -61 28 11 34 11 46 -1 7 -8 20 -13
29 -11 21 4 28 28 8 28 -9 0 -21 9 -28 20 -15 24 -26 25 -48 5 -21 -19 -86
-33 -76 -16 5 7 19 16 32 21 13 5 24 16 24 25 0 23 -38 18 -65 -10z"/>
<path d="M5820 10885 c-9 -11 -10 -19 -3 -26 7 -7 14 -5 23 6 9 11 10 19 3 26
-7 7 -14 5 -23 -6z"/>
<path d="M2437 10818 c-3 -18 -28 -98 -55 -178 l-50 -145 -46 -3 c-32 -2 -46
-7 -46 -18 0 -10 12 -14 40 -14 l39 0 -1 -53 c-1 -29 2 -59 6 -65 11 -18 62
-14 77 5 10 11 10 14 2 9 -7 -4 -13 -3 -13 2 0 6 -9 8 -20 5 -18 -5 -20 0 -20
40 0 36 5 49 22 61 17 12 19 18 9 30 -11 13 -4 43 38 168 28 84 51 161 51 171
0 31 -28 18 -33 -15z"/>
<path d="M9944 10758 c-52 -41 -84 -82 -117 -150 -17 -37 -37 -67 -44 -67 -18
-1 -27 -22 -13 -31 10 -6 9 -18 -4 -56 -20 -58 -20 -64 -2 -64 8 0 22 22 32
53 21 64 30 77 59 77 36 0 85 21 85 36 0 8 -5 14 -11 14 -5 0 -8 -3 -6 -7 3
-5 -17 -9 -44 -10 -48 -2 -48 -2 -38 24 23 61 118 171 130 151 10 -16 39 8 39
33 0 26 -31 24 -66 -3z"/>
<path d="M4620 10698 c-8 -35 -14 -71 -14 -80 0 -10 -2 -18 -6 -18 -4 0 -12
-11 -18 -25 -6 -14 -18 -25 -26 -25 -8 0 -22 -7 -31 -17 -14 -13 -18 -14 -25
-3 -7 11 -12 11 -23 2 -8 -7 -21 -10 -30 -6 -19 7 -34 -16 -16 -26 7 -5 21 -4
30 1 10 5 34 9 53 9 20 0 36 5 36 11 0 5 4 8 10 4 5 -3 0 -25 -12 -53 -29 -67
-48 -141 -37 -148 13 -8 29 5 29 24 0 26 53 156 69 168 8 6 11 16 7 22 -3 6 6
51 20 101 24 85 26 121 6 121 -4 0 -14 -28 -22 -62z"/>
<path d="M2504 10712 c-5 -4 -11 -19 -12 -34 -1 -15 -20 -82 -42 -148 -22 -66
-40 -126 -40 -135 0 -24 32 -17 70 16 l35 30 3 -46 c3 -51 25 -58 30 -11 3 26
4 26 17 10 13 -18 15 -18 50 -1 21 10 38 17 39 15 17 -41 54 -59 64 -30 2 6
-3 12 -12 12 -10 0 -16 9 -16 23 0 12 -11 35 -24 51 -22 28 -25 29 -54 17 -17
-7 -33 -20 -37 -29 -5 -13 -8 -12 -21 6 -19 28 -23 27 -68 -3 -20 -13 -36 -23
-36 -21 0 2 12 34 26 72 14 37 23 76 21 86 -3 10 -2 18 2 18 4 0 13 21 20 46
13 45 7 71 -15 56z m122 -277 c-26 -19 -42 -19 -26 0 7 8 20 15 29 15 13 -1
13 -3 -3 -15z"/>
<path d="M10840 10691 c0 -17 -33 -100 -62 -158 -7 -15 -24 -24 -52 -28 -63
-10 -76 -15 -76 -31 0 -16 10 -17 62 -5 l37 9 -24 -49 c-26 -51 -31 -74 -16
-83 5 -3 23 24 41 61 33 73 43 83 77 83 17 0 21 -4 16 -16 -5 -15 0 -16 41
-10 l47 7 -16 -25 c-21 -31 -12 -48 21 -40 18 5 24 2 24 -9 0 -28 38 -47 71
-35 31 11 109 92 109 114 0 24 -29 15 -44 -14 -19 -37 -45 -59 -80 -68 -27 -7
-28 -6 -21 25 6 26 4 31 -12 31 -14 0 -19 7 -18 28 0 22 -4 27 -25 27 -14 -1
-37 -4 -53 -8 -19 -5 -26 -4 -25 5 2 8 -9 14 -24 16 -16 2 -28 5 -28 8 0 2 13
33 28 67 43 93 47 117 22 117 -13 0 -20 -7 -20 -19z"/>
<path d="M2903 10610 c-27 -60 -35 -70 -56 -70 -34 0 -58 -10 -51 -21 3 -5 19
-9 36 -9 25 0 29 -3 23 -17 -20 -46 -17 -71 8 -88 31 -20 97 -12 97 12 0 12
-8 14 -34 9 -48 -9 -62 11 -42 58 15 36 18 37 81 40 11 1 20 8 20 16 0 11 -10
15 -37 14 -40 -1 -40 -1 -7 63 22 43 24 63 7 63 -7 0 -27 -32 -45 -70z"/>
<path d="M4926 10658 c-14 -53 -50 -147 -64 -168 -16 -24 -21 -45 -25 -105 -3
-46 17 -42 30 7 21 70 32 85 59 80 35 -6 37 -15 14 -71 -13 -33 -16 -52 -9
-57 15 -9 23 3 44 58 20 54 14 83 -21 95 l-26 9 45 44 c25 24 53 47 61 52 16
9 23 48 9 48 -5 0 -32 -23 -62 -50 -41 -39 -52 -45 -47 -28 15 52 18 86 7 92
-6 4 -13 1 -15 -6z"/>
<path d="M7478 10613 c-9 -32 -26 -84 -37 -115 -25 -68 -27 -108 -6 -108 8 0
15 8 15 18 0 10 16 65 35 122 38 112 42 140 22 140 -7 0 -20 -26 -29 -57z"/>
<path d="M12675 10553 c-62 -128 -78 -183 -53 -183 9 0 18 13 21 30 4 16 29
75 57 130 47 96 61 140 41 140 -4 0 -34 -53 -66 -117z"/>
<path d="M13029 10555 c-34 -19 -64 -75 -56 -107 9 -33 53 -52 100 -43 35 7
66 30 54 41 -3 3 -23 0 -46 -6 -31 -8 -46 -8 -63 1 -22 12 -22 13 12 21 60 15
105 86 64 102 -23 9 -36 7 -65 -9z m41 -35 c0 -6 -12 -15 -26 -20 -36 -14 -39
-13 -19 10 19 21 45 27 45 10z"/>
<path d="M13290 10563 c-24 -9 -50 -35 -50 -50 0 -7 21 -23 47 -34 37 -16 44
-22 33 -30 -8 -5 -33 -8 -55 -7 -44 2 -69 -8 -60 -23 13 -21 153 -5 163 19 6
18 -50 72 -76 72 -15 1 -15 2 2 15 16 12 21 12 28 2 5 -9 11 -8 24 5 29 29 -7
49 -56 31z"/>
<path d="M12891 10508 c-14 -41 -39 -68 -63 -68 -20 0 -25 29 -7 47 12 12 4
33 -11 33 -14 0 -42 -60 -36 -75 3 -8 16 -21 30 -30 23 -15 27 -15 56 0 47 24
87 125 50 125 -4 0 -13 -14 -19 -32z"/>
<path d="M8849 10507 c-18 -12 -41 -34 -52 -49 -17 -23 -18 -31 -8 -56 16 -38
91 -73 91 -42 0 5 7 7 15 4 17 -7 75 14 75 27 0 17 -18 17 -60 3 -33 -11 -50
-13 -67 -5 -30 14 -29 29 2 37 14 3 25 10 25 15 0 5 6 9 14 9 26 0 37 64 12
73 -8 3 -29 -4 -47 -16z m26 -27 c-3 -5 -16 -15 -28 -21 -21 -10 -21 -9 2 10
25 23 36 27 26 11z"/>
<path d="M12386 10514 c-9 -9 -28 -31 -43 -50 -28 -37 -43 -32 -43 14 0 21
-23 31 -34 14 -6 -10 12 -83 24 -95 15 -16 47 3 80 49 17 25 43 50 57 55 13 5
21 13 18 19 -9 15 -42 12 -59 -6z"/>
<path d="M8587 10513 c-4 -3 -7 -14 -7 -24 0 -10 -13 -34 -30 -52 -16 -19 -30
-39 -30 -45 0 -28 25 -18 80 33 34 31 63 55 66 53 2 -3 -1 -20 -6 -39 -17 -58
-6 -86 29 -74 24 7 29 25 7 25 -11 0 -12 8 -5 38 14 62 11 92 -9 92 -10 0 -27
-7 -39 -15 -19 -13 -22 -13 -27 0 -6 16 -18 19 -29 8z"/>
<path d="M12471 10507 c-13 -6 -33 -24 -44 -39 -17 -22 -18 -30 -7 -43 7 -8
21 -15 31 -15 10 0 23 -9 29 -20 13 -25 30 -26 30 -2 0 9 7 37 16 62 14 41 14
45 -2 57 -22 16 -23 16 -53 0z m15 -48 c-29 -23 -47 -19 -26 6 7 8 22 15 33
15 18 0 17 -2 -7 -21z"/>
<path d="M5094 10500 c-11 -4 -33 -23 -48 -41 -28 -32 -29 -66 -5 -95 15 -18
76 -26 99 -14 31 16 14 30 -36 30 -57 0 -59 22 -4 39 47 14 66 41 50 71 -11
21 -23 24 -56 10z m12 -45 c-26 -19 -42 -19 -26 0 7 8 20 15 29 15 13 -1 13
-3 -3 -15z"/>
<path d="M5272 10495 c-45 -20 -51 -43 -19 -71 31 -26 34 -39 11 -48 -26 -10
-34 -7 -34 15 0 30 -24 18 -28 -14 -3 -22 2 -28 24 -33 36 -9 78 14 82 45 2
14 -5 33 -19 47 -23 25 -20 29 26 36 23 4 27 32 5 35 -8 1 -30 -4 -48 -12z"/>
<path d="M6147 10499 c-10 -6 -25 -8 -33 -5 -9 3 -23 -9 -40 -35 -52 -82 -39
-92 37 -28 l50 41 -6 -38 c-3 -22 -2 -45 4 -53 12 -18 33 -4 26 18 -2 9 -1 32
5 50 7 24 6 39 -1 48 -14 15 -18 16 -42 2z"/>
<path d="M7236 10489 c-14 -11 -26 -16 -26 -10 0 25 -26 8 -42 -28 -35 -74
-15 -82 49 -19 46 45 59 46 43 3 -12 -31 -8 -40 14 -32 16 7 32 68 22 92 -8
21 -28 19 -60 -6z"/>
<path d="M7601 10444 l-42 -67 -24 51 c-23 50 -45 68 -45 37 0 -20 37 -92 49
-97 5 -1 -24 -48 -66 -103 -41 -55 -81 -113 -88 -129 -14 -33 -10 -56 11 -56
13 0 18 11 15 35 0 6 48 77 108 159 126 173 149 212 134 227 -7 7 -23 -11 -52
-57z"/>
<path d="M8419 10480 c-35 -34 -38 -82 -6 -88 50 -10 97 23 97 67 0 57 -45 67
-91 21z m61 -26 c0 -16 -46 -41 -57 -31 -9 9 38 58 48 51 5 -3 9 -12 9 -20z"/>
<path d="M9605 10486 c-21 -21 -24 -29 -15 -46 15 -28 74 -27 94 1 37 54 -31
92 -79 45z m55 -21 c0 -9 -9 -15 -21 -15 -18 0 -19 2 -9 15 7 8 16 15 21 15 5
0 9 -7 9 -15z"/>
<path d="M4646 10450 c-40 -45 -43 -52 -21 -70 13 -11 21 -9 46 9 l29 22 -2
-28 c-1 -16 2 -34 6 -41 16 -27 26 3 25 74 -1 70 -3 74 -24 74 -14 0 -37 -16
-59 -40z m44 -3 c0 -2 -10 -12 -22 -23 l-23 -19 19 23 c18 21 26 27 26 19z"/>
<path d="M5931 10465 c-39 -33 -43 -80 -8 -96 31 -14 74 3 89 36 10 21 8 30
-8 52 -28 37 -37 38 -73 8z m49 -50 c0 -15 -38 -27 -45 -14 -3 5 -1 18 5 29 9
17 14 19 26 9 8 -6 14 -17 14 -24z"/>
<path d="M7017 10470 c-28 -23 -34 -49 -17 -81 15 -27 53 -24 90 7 25 21 30
33 28 58 -3 28 -7 31 -39 34 -24 2 -43 -4 -62 -18z m50 -32 c3 6 9 12 14 12
14 0 -2 -30 -23 -41 -25 -13 -44 2 -34 26 5 15 9 15 23 4 13 -11 17 -11 20 -1z"/>
<path d="M11181 10450 c-44 -43 -51 -69 -25 -94 41 -42 128 3 126 65 -1 31
-29 69 -52 69 -4 0 -26 -18 -49 -40z m69 -34 c0 -12 -5 -27 -12 -34 -15 -15
-55 -16 -64 0 -9 13 52 71 66 63 6 -4 10 -16 10 -29z"/>
<path d="M13607 10431 c-3 -16 -25 -50 -47 -76 -29 -34 -38 -51 -31 -58 8 -8
22 2 48 33 48 55 62 79 63 108 0 32 -26 27 -33 -7z"/>
<path d="M9624 10312 c-136 -241 -128 -232 -196 -232 -19 0 -28 -5 -28 -16 0
-13 8 -15 40 -12 22 2 40 1 40 -3 0 -3 -14 -37 -31 -74 -21 -48 -27 -71 -20
-78 14 -14 23 -3 45 53 39 104 47 114 102 126 60 13 77 22 68 35 -5 9 -38 6
-88 -8 -15 -4 -11 10 24 73 24 44 54 93 67 110 13 17 23 38 23 47 0 29 -24 18
-46 -21z"/>
<path d="M5106 10251 c-10 -11 -19 -26 -20 -35 -1 -8 -53 -83 -115 -167 -140
-187 -175 -243 -167 -264 9 -23 29 -14 37 18 8 31 18 45 168 247 126 167 140
189 141 208 0 18 -25 15 -44 -7z"/>
<path d="M7112 10207 c-10 -23 -36 -67 -57 -97 -21 -30 -69 -98 -105 -150 -85
-120 -114 -174 -107 -194 10 -24 24 -19 32 12 7 27 43 83 174 272 75 107 114
178 105 192 -11 17 -24 6 -42 -35z"/>
<path d="M11254 10195 c-18 -20 -50 -62 -70 -95 -31 -51 -42 -60 -73 -66 -59
-10 -72 -15 -68 -27 2 -8 20 -11 47 -9 33 3 41 1 34 -10 -4 -7 -25 -40 -46
-72 -40 -62 -48 -96 -23 -96 8 0 15 6 15 13 0 16 95 168 112 179 7 4 39 8 71
8 44 0 57 3 57 15 0 12 -13 15 -61 15 l-60 0 18 31 c10 17 35 51 57 76 35 40
40 43 56 28 21 -19 30 -19 30 -2 0 17 -32 47 -50 47 -7 0 -28 -16 -46 -35z"/>
<path d="M3132 10198 c-7 -7 -12 -19 -12 -27 0 -9 -17 -57 -37 -109 -45 -113
-38 -133 29 -81 24 18 48 36 54 41 8 6 9 -3 4 -32 -6 -33 -4 -40 11 -45 27 -9
41 3 30 24 -5 9 -7 36 -4 59 5 35 3 42 -12 42 -9 0 -35 -14 -56 -31 -21 -17
-39 -28 -39 -25 0 4 11 33 24 66 30 74 40 116 28 124 -5 3 -14 0 -20 -6z"/>
<path d="M4860 10165 c-30 -44 -31 -44 -76 -38 -42 5 -48 3 -80 -28 -61 -58
-75 -103 -50 -160 5 -11 -8 -34 -39 -72 -49 -60 -69 -117 -42 -117 8 0 17 11
21 24 3 13 26 49 51 81 34 44 51 58 73 60 38 3 95 31 122 60 20 21 22 32 17
73 -5 42 -2 54 24 93 16 24 29 50 29 57 0 24 -19 11 -50 -33z m-86 -99 c-2
-17 -73 -103 -87 -105 -15 -2 -19 30 -6 60 12 31 65 72 84 65 6 -2 9 -11 9
-20z m56 -31 c0 -38 -77 -102 -97 -81 -6 6 77 103 90 105 4 1 7 -10 7 -24z"/>
<path d="M5263 10144 c-29 -19 -53 -41 -53 -49 0 -20 9 -19 45 5 17 11 33 20
37 20 6 0 -59 -159 -71 -172 -3 -4 -37 -8 -76 -10 -54 -2 -70 -7 -73 -19 -2
-13 7 -15 65 -12 37 2 113 4 167 6 61 2 101 7 103 13 4 12 -50 24 -109 24 -21
0 -38 2 -38 4 0 2 9 24 21 50 11 25 17 51 14 56 -3 6 -1 10 5 10 13 0 40 60
40 90 0 28 -16 24 -77 -16z"/>
<path d="M11550 10150 c0 -16 -22 -73 -50 -126 -54 -104 -57 -114 -36 -114 17
0 112 189 120 238 5 27 2 32 -14 32 -16 0 -20 -7 -20 -30z"/>
<path d="M2523 10135 c-43 -19 -41 -37 7 -75 46 -36 49 -47 18 -59 -17 -7 -26
-5 -35 6 -15 20 -46 9 -41 -14 2 -10 18 -22 36 -27 27 -7 38 -6 60 11 42 31
41 61 -4 98 l-38 32 32 7 c17 4 41 4 53 1 17 -6 20 -3 17 12 -4 23 -61 28
-105 8z"/>
<path d="M3874 10114 c-41 -20 -75 -56 -66 -70 4 -6 27 -21 50 -33 24 -12 42
-25 39 -28 -11 -10 -88 9 -94 23 -6 17 -33 19 -33 2 1 -52 136 -84 164 -40 12
19 -7 43 -51 66 l-45 22 28 19 c15 10 41 18 56 17 22 0 28 3 26 16 -4 23 -36
25 -74 6z"/>
<path d="M2893 10077 c-32 -46 -31 -94 2 -109 32 -15 78 0 83 26 3 15 0 17
-14 11 -61 -25 -83 11 -40 63 31 35 32 42 9 42 -10 0 -28 -15 -40 -33z"/>
<path d="M2726 10051 c-14 -27 -38 -59 -53 -70 -15 -12 -39 -30 -53 -41 -22
-16 -23 -19 -8 -25 11 -4 30 2 50 16 18 13 43 22 56 20 14 -1 33 6 47 19 19
18 23 19 28 6 4 -9 14 -16 23 -16 12 0 15 6 10 24 -3 13 -1 38 5 56 9 24 9 34
-1 43 -10 9 -14 9 -18 -2 -3 -8 -22 -33 -43 -55 l-38 -41 24 50 c13 27 21 53
19 57 -11 17 -25 6 -48 -41z"/>
<path d="M3650 10077 c-13 -7 -32 -25 -44 -40 -28 -38 -13 -62 40 -62 22 1 43
-5 47 -12 10 -15 43 -17 52 -3 3 6 0 13 -8 16 -9 3 -12 14 -10 28 10 50 -36
93 -77 73z m37 -44 c5 -14 -32 -36 -53 -31 -13 3 -12 6 2 26 16 24 44 26 51 5z"/>
<path d="M6698 10060 l-33 -30 21 -18 c12 -9 30 -22 40 -29 18 -11 18 -11 0
-18 -11 -5 -21 -3 -25 4 -9 14 -41 4 -41 -14 0 -30 71 -34 100 -5 25 25 13 56
-28 71 -26 10 -26 11 -8 25 11 8 30 14 43 14 14 0 23 6 23 15 0 27 -57 18 -92
-15z"/>
<path d="M6511 10040 c-18 -22 -41 -40 -51 -40 -21 0 -27 -15 -10 -25 6 -4 8
-15 5 -25 -10 -30 12 -60 43 -60 33 0 74 20 80 39 5 14 2 14 -65 -5 -18 -5
-23 -2 -23 12 0 13 14 25 40 36 42 17 65 55 55 89 -10 30 -39 22 -74 -21z m25
-28 c-18 -16 -18 -16 -6 6 6 13 14 21 18 18 3 -4 -2 -14 -12 -24z"/>
<path d="M7457 10023 c-49 -74 -36 -86 39 -35 32 22 60 39 62 37 2 -2 -3 -14
-12 -27 -20 -28 -21 -77 -1 -84 24 -10 65 5 65 22 0 12 -6 15 -25 10 -31 -8
-32 7 -5 49 25 38 26 75 3 75 -10 0 -34 -10 -53 -21 -32 -20 -34 -20 -17 -2
17 19 14 33 -8 33 -6 0 -28 -26 -48 -57z"/>
<path d="M6359 10008 l-44 -63 -3 53 c-3 43 -6 52 -22 52 -16 0 -18 -6 -14
-35 2 -19 6 -51 8 -70 4 -30 -3 -46 -39 -99 -50 -70 -69 -112 -55 -121 5 -3
30 27 56 67 26 40 80 116 120 170 40 53 70 99 67 102 -15 15 -33 1 -74 -56z"/>
<path d="M8700 10033 c-35 -43 -47 -80 -33 -94 7 -7 18 5 33 35 23 48 54 74
65 56 9 -15 35 -12 35 5 0 16 -30 35 -54 35 -8 0 -29 -17 -46 -37z"/>
<path d="M7729 10028 c-48 -52 -61 -75 -54 -98 8 -25 37 -26 91 -1 41 19 74
54 74 78 0 20 -38 53 -61 53 -11 0 -34 -15 -50 -32z m75 -32 c-7 -17 -81 -59
-97 -53 -7 2 5 21 31 47 34 34 45 40 56 30 8 -6 13 -17 10 -24z"/>
<path d="M9932 10035 c-40 -33 -57 -76 -42 -104 8 -16 20 -21 53 -21 43 0 127
32 127 48 0 18 -14 21 -40 7 -35 -18 -110 -31 -110 -19 0 5 14 15 30 22 30 14
47 49 36 77 -8 21 -20 19 -54 -10z"/>
<path d="M10675 10029 c-46 -41 -61 -67 -45 -83 9 -8 15 -6 24 9 21 37 68 75
92 75 15 0 24 6 24 15 0 27 -56 18 -95 -16z"/>
<path d="M11660 10043 c-34 -23 -40 -34 -29 -54 16 -30 11 -42 -15 -35 -26 6
-45 -10 -30 -24 21 -19 52 -20 75 -1 21 17 22 21 11 46 -15 32 -6 47 30 49 28
1 31 30 3 34 -11 1 -31 -5 -45 -15z"/>
<path d="M11804 10026 c-38 -38 -44 -75 -18 -101 11 -11 25 -14 42 -10 13 3
38 9 54 12 28 6 47 27 35 39 -3 3 -22 1 -41 -6 -20 -6 -46 -10 -58 -8 -21 4
-19 6 12 19 45 20 63 43 55 69 -10 30 -42 25 -81 -14z"/>
<path d="M8575 10022 c-43 -27 -57 -47 -53 -79 3 -24 8 -28 39 -31 47 -4 70
22 73 82 3 53 -9 58 -59 28z m13 -73 c-38 -25 -53 9 -15 36 21 15 22 14 25 -6
2 -12 -2 -26 -10 -30z"/>
<path d="M9654 10025 c-16 -6 -37 -10 -46 -7 -11 2 -18 -1 -18 -9 0 -8 -9 -25
-20 -39 -18 -23 -28 -70 -14 -70 3 0 27 23 53 50 37 40 54 50 79 50 21 0 32 5
32 14 0 20 -32 25 -66 11z"/>
<path d="M10508 10013 c-9 -10 -21 -29 -28 -42 -27 -52 51 -60 95 -11 27 29
13 70 -24 70 -15 0 -35 -8 -43 -17z m38 -38 c-25 -19 -37 -19 -30 0 4 8 16 15
28 15 21 -1 21 -1 2 -15z"/>
<path d="M11316 10009 c-43 -33 -28 -91 19 -73 9 4 15 0 15 -10 0 -9 8 -16 19
-16 14 0 20 10 25 42 4 27 3 44 -4 46 -5 2 -10 10 -10 18 0 21 -33 17 -64 -7z
m54 -18 c0 -10 -24 -21 -43 -21 -7 0 -3 7 7 15 22 17 36 19 36 6z"/>
<path d="M9721 9989 c-36 -102 31 -115 97 -19 26 39 28 50 7 50 -8 0 -21 -13
-30 -30 -8 -16 -25 -35 -37 -41 -23 -12 -22 -16 -2 51 11 34 -23 23 -35 -11z"/>
<path d="M5751 9895 c-14 -41 -46 -63 -55 -40 -8 21 -26 19 -26 -4 0 -31 25
-45 58 -32 42 17 83 111 49 111 -7 0 -19 -16 -26 -35z"/>
<path d="M12045 9919 c-10 -15 1 -23 20 -15 9 3 13 10 10 16 -8 13 -22 13 -30
-1z"/>
<path d="M5149 9436 c-67 -43 -106 -96 -148 -203 -26 -64 -38 -83 -57 -87 -26
-7 -34 -36 -10 -36 11 0 8 -12 -11 -51 -22 -47 -25 -79 -6 -79 4 0 16 21 26
48 31 80 44 96 83 108 33 9 51 29 53 57 1 13 -43 -4 -56 -22 -20 -26 -15 -2
14 74 31 80 123 185 146 167 15 -12 57 3 57 21 0 13 -19 37 -30 37 -3 0 -30
-16 -61 -34z"/>
<path d="M6112 9418 c-19 -60 -74 -201 -84 -214 -4 -6 -35 -17 -68 -24 -53
-11 -71 -25 -54 -42 3 -3 26 1 51 8 26 8 47 13 49 11 1 -1 -10 -31 -26 -67
-33 -72 -36 -90 -17 -90 7 0 29 37 48 82 27 63 41 84 59 88 30 7 38 30 10 30
-18 0 -19 3 -10 20 16 30 80 211 80 227 0 30 -26 10 -38 -29z"/>
<path d="M8932 9401 c-141 -112 -252 -316 -240 -442 8 -84 67 -142 144 -143
29 -1 49 4 51 12 3 8 -8 12 -35 12 -55 0 -103 35 -122 88 -18 53 -4 127 44
227 62 128 188 259 245 253 18 -2 26 2 26 12 0 9 -11 16 -31 18 -24 2 -43 -6
-82 -37z"/>
<path d="M2614 9372 c-22 -20 -68 -73 -103 -117 -35 -44 -71 -87 -80 -95 -32
-31 -101 -119 -101 -129 0 -20 14 -11 67 41 45 45 59 52 105 58 29 4 54 7 55
6 1 -1 -7 -31 -18 -66 -19 -60 -19 -97 -1 -86 4 3 19 38 32 80 17 55 28 76 43
80 17 4 18 8 8 20 -11 13 -8 32 18 106 47 137 40 166 -25 102z m-13 -118 l-26
-82 -45 -5 c-25 -3 -47 -4 -49 -1 -2 2 16 27 40 56 50 62 102 119 105 115 1
-1 -10 -39 -25 -83z m-176 -134 c3 -5 -1 -10 -10 -10 -9 0 -13 5 -10 10 3 6 8
10 10 10 2 0 7 -4 10 -10z"/>
<path d="M7350 9366 c-46 -31 -71 -68 -101 -143 -21 -55 -27 -62 -53 -65 -38
-4 -48 -28 -12 -28 l26 0 -25 -50 c-14 -28 -32 -50 -41 -50 -23 0 -11 -24 13
-28 16 -2 27 11 54 62 26 50 39 66 58 68 31 4 41 28 12 28 -12 0 -21 1 -21 3
0 14 46 116 61 136 31 38 72 63 81 48 10 -17 32 7 25 27 -9 23 -37 20 -77 -8z"/>
<path d="M5420 9359 c0 -11 -55 -145 -102 -249 -29 -63 -35 -115 -14 -123 9
-4 16 -3 17 1 4 54 15 88 68 210 65 152 70 172 46 172 -8 0 -15 -5 -15 -11z"/>
<path d="M13947 9338 c-13 -18 -36 -64 -52 -102 -32 -76 -72 -129 -117 -152
-41 -21 -45 -12 -11 26 24 27 41 36 76 39 17 2 5 21 -18 27 -51 13 -135 -84
-105 -121 17 -21 37 -19 85 9 50 30 85 79 121 166 14 36 34 74 45 86 21 22 24
40 10 49 -5 3 -20 -9 -34 -27z"/>
<path d="M3133 9346 c6 -15 -29 -145 -43 -160 -5 -5 -26 -12 -47 -15 -53 -9
-53 -37 0 -33 20 2 37 2 37 0 0 -2 -11 -33 -24 -71 -16 -44 -21 -69 -14 -74
13 -7 38 24 38 46 0 24 35 112 47 119 6 4 11 18 11 32 -1 30 6 64 21 103 17
45 14 67 -10 67 -14 0 -19 -5 -16 -14z"/>
<path d="M8245 9348 c-62 -179 -58 -172 -104 -183 -48 -12 -51 -31 -4 -29 l32
1 -18 -36 c-26 -51 -37 -105 -20 -99 15 5 21 15 46 82 17 45 23 51 68 66 54
18 71 40 32 40 -14 0 -27 -4 -29 -10 -1 -5 -9 -6 -15 -2 -9 6 -5 27 17 87 16
43 27 82 24 87 -8 12 -24 10 -29 -4z"/>
<path d="M12297 9343 c-12 -11 -8 -21 12 -28 30 -9 48 -45 65 -127 14 -67 14
-81 1 -125 -8 -27 -29 -70 -46 -96 -38 -57 -131 -136 -171 -144 -16 -3 -28
-12 -28 -21 0 -29 68 -6 125 43 91 77 136 144 155 231 17 73 -12 198 -56 242
-32 32 -45 38 -57 25z"/>
<path d="M3245 9293 c-4 -21 -24 -82 -45 -138 -21 -55 -35 -104 -30 -109 5 -5
26 10 48 33 40 42 80 56 67 24 -16 -44 -18 -73 -2 -73 17 0 43 92 32 111 -5 7
-22 9 -46 6 -22 -3 -39 -4 -39 -3 0 1 9 25 19 54 29 79 36 132 18 132 -9 0
-17 -14 -22 -37z"/>
<path d="M7886 9318 c-2 -7 -9 -33 -16 -58 -18 -67 -39 -103 -56 -96 -36 14
-99 -45 -110 -103 -5 -23 -2 -32 16 -41 19 -10 27 -6 72 39 28 28 55 51 59 51
5 0 9 8 9 17 0 9 11 44 24 77 29 73 36 117 19 123 -7 3 -15 -1 -17 -9z m-76
-193 c0 -9 -62 -75 -71 -75 -12 0 1 31 24 58 18 19 47 30 47 17z"/>
<path d="M9613 9298 c-4 -7 -17 -35 -28 -63 -16 -39 -25 -51 -45 -53 -52 -6
-70 -13 -70 -28 0 -12 7 -14 36 -8 21 4 35 3 33 -2 -35 -81 -41 -106 -31 -116
9 -9 16 -1 27 28 27 67 49 104 62 104 17 0 28 21 14 29 -9 6 -9 15 -1 35 5 15
8 31 5 36 -3 4 2 10 10 14 16 6 21 36 6 36 -6 0 -13 -6 -18 -12z"/>
<path d="M11055 9291 c-3 -10 -26 -54 -51 -97 -41 -73 -44 -84 -42 -139 2 -47
7 -60 20 -63 14 -3 16 4 11 51 -5 52 -3 60 46 151 48 87 55 116 31 116 -5 0
-11 -8 -15 -19z"/>
<path d="M11513 9298 c-6 -7 -13 -26 -17 -43 -25 -106 -26 -108 -46 -90 -25
22 -53 12 -85 -29 -48 -63 -19 -124 44 -92 46 24 79 72 102 149 12 40 28 76
36 80 11 7 12 12 2 23 -14 17 -24 18 -36 2z m-73 -180 c0 -12 -43 -48 -57 -48
-21 0 -15 25 13 55 21 23 28 25 35 14 5 -8 9 -17 9 -21z"/>
<path d="M11856 9225 c-30 -65 -39 -76 -65 -81 -34 -7 -43 -34 -12 -34 19 0
19 -2 5 -35 -18 -45 -18 -57 3 -53 9 2 21 20 27 42 11 40 20 47 70 62 35 11
35 30 0 27 -13 -1 -24 0 -24 1 0 2 11 29 25 60 14 31 25 63 25 71 0 34 -22 10
-54 -60z"/>
<path d="M14577 9273 c-3 -5 -8 -24 -12 -43 -4 -19 -23 -66 -42 -104 -19 -37
-32 -74 -29 -82 8 -22 36 -17 36 6 0 11 13 47 30 80 33 65 48 134 32 144 -6 3
-13 3 -15 -1z"/>
<path d="M14057 9254 c-14 -15 -6 -34 14 -34 14 0 19 5 17 17 -3 18 -20 27
-31 17z"/>
<path d="M12910 9236 c0 -18 16 -29 30 -21 13 8 1 35 -16 35 -8 0 -14 -6 -14
-14z"/>
<path d="M10504 9226 c-8 -22 3 -33 18 -18 9 9 9 15 0 24 -9 9 -13 7 -18 -6z"/>
<path d="M9061 9165 c-48 -52 -55 -94 -19 -119 25 -18 75 -21 98 -6 22 14 5
23 -43 24 -57 1 -62 29 -14 80 30 31 39 35 66 30 24 -5 31 -3 31 9 0 8 -7 18
-16 21 -37 14 -63 5 -103 -39z"/>
<path d="M4741 9148 c-49 -66 -39 -118 24 -118 34 1 70 24 60 39 -4 8 -15 6
-35 -4 -25 -13 -29 -13 -40 1 -7 8 -11 16 -9 18 2 1 20 12 41 24 39 24 51 43
42 67 -12 30 -51 17 -83 -27z"/>
<path d="M3385 9147 c-37 -37 -48 -90 -23 -115 15 -15 79 -16 113 0 32 15 35
43 3 32 -33 -12 -91 -11 -95 1 -2 6 17 21 43 33 39 19 45 26 42 50 -5 42 -41
41 -83 -1z"/>
<path d="M4628 9169 c-39 -15 -41 -35 -8 -71 34 -37 30 -51 -13 -46 -39 4 -48
-18 -12 -32 36 -14 42 -13 65 10 26 26 25 42 -5 78 l-24 29 24 11 c26 12 34
33 13 31 -7 0 -25 -5 -40 -10z"/>
<path d="M6517 9160 c-52 -41 -86 -153 -51 -167 38 -14 184 40 184 69 -1 8 -6
6 -14 -5 -8 -10 -16 -14 -17 -8 -3 6 -27 2 -63 -9 -69 -23 -76 -24 -76 -7 0 6
23 27 50 44 61 40 76 65 54 87 -21 21 -36 20 -67 -4z m43 -17 c0 -5 -13 -17
-28 -27 l-27 -19 24 26 c26 28 31 32 31 20z"/>
<path d="M9289 9155 c-64 -43 -62 -81 3 -72 36 5 39 3 35 -14 -3 -10 -1 -19 3
-19 4 0 6 -9 3 -21 -5 -16 -2 -20 11 -18 14 3 18 17 20 62 2 32 -1 60 -5 63
-5 3 -22 -2 -40 -11 -17 -9 -33 -14 -36 -11 -7 6 52 36 72 36 8 0 15 7 15 15
0 23 -41 18 -81 -10z"/>
<path d="M9985 9170 c-4 -6 -14 -8 -23 -6 -23 8 -78 -27 -85 -53 -6 -25 16
-45 43 -38 24 6 24 2 3 -68 -9 -30 -22 -55 -29 -55 -6 0 -23 -9 -38 -21 -33
-26 -36 -79 -5 -110 19 -19 22 -20 39 -4 10 9 24 38 30 65 11 47 12 48 41 37
21 -9 32 -8 41 1 9 9 4 15 -23 26 -29 12 -34 19 -34 50 0 22 5 36 13 36 6 0
12 8 12 18 0 9 9 34 20 55 11 20 20 43 20 51 0 19 -17 29 -25 16z m-45 -55
c-14 -7 -27 -11 -30 -9 -6 7 22 24 40 23 9 0 5 -6 -10 -14z m-52 -235 c-11
-42 -28 -45 -28 -5 0 19 18 41 36 45 1 0 -3 -18 -8 -40z"/>
<path d="M10748 9164 c-21 -11 -27 -21 -26 -40 2 -24 5 -26 44 -21 27 3 41 0
41 -7 -1 -33 5 -46 19 -46 9 0 14 6 11 13 -2 6 2 27 9 46 8 18 14 35 14 36 0
6 -63 35 -74 35 -6 -1 -23 -7 -38 -16z m42 -24 c-8 -5 -19 -10 -25 -10 -5 0
-3 5 5 10 8 5 20 10 25 10 6 0 3 -5 -5 -10z"/>
<path d="M13918 9115 c-27 -54 -30 -67 -19 -77 11 -11 14 -10 18 0 3 7 18 39
33 70 16 31 27 59 24 64 -12 19 -26 4 -56 -57z"/>
<path d="M4391 9137 c-34 -45 -122 -117 -143 -117 -10 0 -18 -7 -18 -16 0 -28
60 -8 102 33 l37 36 3 -34 c4 -47 28 -48 77 -3 41 36 41 36 41 11 0 -33 26
-55 43 -37 9 10 9 13 0 17 -16 6 -17 34 -2 67 7 14 9 33 5 42 -6 15 -18 7 -73
-47 l-65 -64 5 39 c4 21 13 46 22 56 18 20 20 50 3 50 -7 0 -24 -15 -37 -33z"/>
<path d="M12949 9142 c-33 -29 -33 -30 -15 -57 10 -14 15 -33 12 -41 -7 -17
-33 -19 -38 -2 -5 15 -28 1 -28 -17 0 -20 46 -30 76 -16 17 8 24 19 24 40 0
16 -4 33 -10 36 -18 11 -10 35 15 47 14 6 24 16 22 22 -7 20 -26 16 -58 -12z"/>
<path d="M13618 9132 c-26 -27 -39 -53 -44 -81 -10 -63 15 -52 51 22 25 51 34
62 55 62 33 0 33 29 0 33 -18 2 -35 -8 -62 -36z"/>
<path d="M3589 9140 c-43 -23 -55 -37 -64 -73 -10 -38 6 -34 43 12 39 48 67
59 93 36 17 -16 19 -16 25 -1 8 22 -13 46 -40 46 -11 -1 -37 -9 -57 -20z"/>
<path d="M5160 9145 c-9 -11 -10 -19 -3 -26 7 -7 14 -5 23 6 9 11 10 19 3 26
-7 7 -14 5 -23 -6z"/>
<path d="M6354 9147 c-25 -8 -40 -28 -83 -106 -28 -53 -57 -103 -63 -112 -13
-19 -3 -53 12 -44 6 4 21 28 35 55 19 37 32 50 54 55 33 7 108 77 122 114 19
49 -7 61 -77 38z m47 -36 c-13 -23 -81 -84 -88 -77 -3 3 5 19 16 35 35 49 94
83 72 42z"/>
<path d="M7899 9129 c-51 -55 -33 -87 31 -54 28 15 30 14 30 -4 0 -10 6 -21
14 -24 10 -4 15 7 20 40 5 37 3 48 -11 59 -28 21 -53 16 -84 -17z m51 -9 c0
-5 -5 -10 -11 -10 -5 0 -7 5 -4 10 3 6 8 10 11 10 2 0 4 -4 4 -10z"/>
<path d="M9698 9143 c-15 -9 -35 -31 -44 -48 -32 -61 15 -96 104 -79 68 13 65
32 -3 27 -35 -3 -62 0 -71 8 -17 14 -9 30 12 22 8 -3 33 3 55 12 33 16 40 23
37 44 -2 21 -9 26 -33 28 -16 2 -42 -5 -57 -14z m42 -28 c-33 -19 -50 -18 -26
0 11 8 27 15 35 15 10 -1 7 -6 -9 -15z"/>
<path d="M10106 9126 c-20 -18 -36 -40 -36 -48 0 -41 64 -51 98 -15 25 27 27
36 10 72 -15 33 -30 32 -72 -9z m47 -30 c3 -12 -30 -32 -39 -24 -11 12 5 40
21 36 9 -2 17 -7 18 -12z"/>
<path d="M10551 9143 c-41 -20 -57 -52 -42 -82 11 -21 31 -26 81 -22 38 3 50
9 45 23 -4 9 -19 12 -46 10 -51 -5 -66 8 -38 34 15 14 34 19 70 17 51 -1 63 9
30 27 -28 14 -61 12 -100 -7z"/>
<path d="M11543 9115 c-25 -24 -43 -50 -41 -57 7 -19 46 -22 73 -4 23 15 24
15 27 -11 5 -48 24 -35 37 27 11 48 11 63 1 75 -21 26 -51 17 -97 -30z m44
-15 c-14 -11 -29 -20 -33 -20 -4 0 1 9 11 20 10 11 25 20 33 20 9 0 6 -7 -11
-20z"/>
<path d="M6201 9131 c-10 -10 -23 -27 -29 -37 -10 -17 -11 -17 -30 5 -29 37
-45 18 -20 -24 l20 -35 -28 -38 c-15 -20 -41 -52 -56 -71 -29 -33 -42 -59 -54
-106 -11 -45 20 -28 40 22 11 26 34 63 51 82 43 51 85 108 85 119 0 4 16 27
35 49 31 37 35 53 13 53 -4 0 -16 -8 -27 -19z"/>
<path d="M10275 9116 c-34 -35 -47 -76 -22 -76 6 1 24 19 39 40 18 25 36 40
49 40 27 0 20 24 -9 28 -14 2 -34 -9 -57 -32z"/>
<path d="M13424 9116 c-38 -38 -44 -75 -17 -101 39 -40 133 12 133 74 0 30
-22 57 -39 47 -5 -4 -12 -2 -16 4 -11 17 -26 11 -61 -24z m72 -11 c21 -20 9
-54 -24 -66 -53 -20 -68 9 -27 54 30 31 32 32 51 12z"/>
<path d="M14102 9134 c-18 -13 -26 -13 -38 -3 -8 6 -16 10 -17 8 -2 -2 -13
-21 -25 -42 -33 -57 -26 -103 8 -62 7 9 31 30 52 47 l39 30 -7 -26 c-4 -16 -1
-32 6 -41 19 -23 29 -18 29 13 0 15 3 42 7 60 5 27 3 32 -13 32 -10 0 -29 -7
-41 -16z"/>
<path d="M2710 9130 c-8 -5 -23 -7 -32 -4 -12 4 -22 -7 -38 -42 -29 -66 -12
-76 38 -22 l41 43 -2 -50 c-2 -37 2 -50 12 -50 11 0 14 16 15 64 1 65 -7 79
-34 61z"/>
<path d="M7064 9130 c-27 -11 -64 -57 -64 -80 0 -33 26 -44 71 -31 48 14 68
48 53 89 -10 29 -27 36 -60 22z m25 -39 c18 -12 1 -36 -29 -44 -27 -7 -32 5
-14 31 17 24 22 26 43 13z"/>
<path d="M8356 9132 c-3 -5 -18 -7 -33 -5 -17 2 -42 -5 -61 -17 -27 -16 -33
-26 -30 -48 3 -23 8 -27 33 -26 17 0 38 4 48 8 12 6 17 4 17 -8 0 -30 60 -45
118 -30 15 4 22 14 22 30 0 27 -15 32 -28 8 -12 -22 -76 -15 -80 9 -2 10 4 27
13 37 10 11 15 26 12 35 -7 16 -23 20 -31 7z m-36 -40 c0 -8 -43 -32 -55 -32
-14 0 -2 18 18 28 28 13 37 14 37 4z"/>
<path d="M10406 9100 c-20 -49 -20 -50 -1 -50 17 0 45 58 37 78 -8 22 -19 13
-36 -28z"/>
<path d="M12785 9070 c-19 -38 -35 -72 -35 -75 0 -3 8 -5 18 -5 11 0 23 12 30
34 7 19 23 50 36 69 14 20 22 38 18 41 -16 17 -35 -1 -67 -64z"/>
<path d="M5071 9111 c-26 -49 0 -94 52 -89 36 4 98 71 80 89 -8 8 -15 6 -24
-6 -37 -45 -52 -56 -67 -53 -16 3 -20 25 -11 57 6 22 -19 24 -30 2z"/>
<path d="M14250 9108 c-30 -33 -23 -62 17 -66 18 -2 41 1 51 7 16 9 21 7 25
-10 4 -15 12 -20 28 -17 26 4 38 28 14 28 -12 0 -16 8 -13 33 3 28 0 32 -19
29 -12 -2 -24 2 -28 8 -11 18 -53 11 -75 -12z m64 -17 c6 -10 -16 -21 -41 -21
-13 0 -13 3 -3 15 14 17 36 20 44 6z"/>
<path d="M2895 9110 c-3 -6 -17 -7 -30 -4 -20 5 -25 1 -30 -19 -7 -27 1 -64
17 -84 26 -32 73 -1 84 55 9 42 -23 82 -41 52z m10 -45 c-3 -8 -7 -23 -10 -32
-4 -11 -9 -13 -16 -6 -8 8 -8 17 0 32 13 24 33 29 26 6z"/>
<path d="M11961 9091 c-34 -32 -39 -52 -16 -71 13 -10 23 -10 55 3 37 14 40
14 45 -3 8 -25 31 -32 45 -15 10 12 9 16 -3 21 -12 4 -14 11 -6 31 13 34 12
37 -18 51 -42 19 -68 15 -102 -17z m73 -10 c7 -10 -52 -37 -61 -27 -8 7 27 35
44 36 6 0 14 -4 17 -9z"/>
</g>
</svg>
