<?xml version="1.0" standalone="no"?>
<!DOCTYPE svg PUBLIC "-//W3C//DTD SVG 20010904//EN"
 "http://www.w3.org/TR/2001/REC-SVG-20010904/DTD/svg10.dtd">
<svg version="1.0" xmlns="http://www.w3.org/2000/svg"
 width="1618.000000pt" height="1214.000000pt" viewBox="0 0 1618.000000 1214.000000"
 preserveAspectRatio="xMidYMid meet">

<g transform="translate(0.000000,1214.000000) scale(0.100000,-0.100000)"
fill="#000000" stroke="none">
<path d="M2920 11690 c-49 -9 -94 -34 -114 -64 -36 -56 -11 -62 37 -9 29 31
41 37 90 41 50 4 58 2 81 -21 61 -62 10 -144 -113 -182 -22 -7 -23 -5 -17 24
3 17 9 45 12 62 5 24 3 30 -6 27 -11 -3 -32 -50 -46 -106 -2 -7 -20 -20 -39
-28 -19 -8 -35 -18 -35 -23 0 -13 27 -21 45 -15 19 7 19 13 -5 -71 -23 -81
-25 -115 -7 -115 7 0 21 39 35 100 20 87 26 101 47 106 26 6 71 -14 100 -46
22 -24 26 -107 5 -120 -17 -10 -1 -62 18 -58 8 2 16 10 17 18 13 98 14 120 4
149 -6 17 -27 42 -46 55 l-34 24 46 26 c55 33 77 64 77 110 0 38 -27 92 -51
102 -39 16 -69 20 -101 14z"/>
<path d="M7180 11682 c-44 -14 -147 -152 -185 -249 -15 -39 -20 -42 -58 -45
-52 -4 -63 -28 -13 -28 20 0 36 -4 36 -9 0 -5 -9 -30 -21 -56 -14 -31 -17 -51
-11 -57 12 -12 19 -2 49 67 17 39 27 51 47 53 31 4 34 20 6 30 -18 7 -18 10
15 77 35 72 118 185 135 185 6 0 10 -7 10 -15 0 -8 7 -15 15 -15 10 0 15 10
15 29 0 30 -14 42 -40 33z"/>
<path d="M13379 11675 c-1 -3 -2 -8 -3 -12 -1 -5 -12 -34 -26 -65 -23 -53 -27
-58 -58 -58 -60 0 -101 -25 -122 -74 -24 -52 -18 -99 15 -124 l23 -17 -39 -77
c-22 -43 -39 -84 -39 -93 0 -35 26 -5 66 78 36 73 47 87 67 87 36 0 89 41 99
75 5 18 4 49 -2 75 -10 41 -8 52 20 117 16 40 30 77 30 82 0 11 -29 16 -31 6z
m-115 -246 c-25 -51 -40 -69 -52 -67 -27 5 -28 77 -2 111 12 15 26 25 31 22 5
-4 17 -2 26 4 33 18 33 0 -3 -70z m66 1 c0 -45 -3 -51 -30 -65 -16 -8 -31 -15
-34 -15 -3 0 9 29 26 65 18 36 34 65 35 65 2 0 3 -22 3 -50z"/>
<path d="M6015 11629 c-4 -6 -11 -38 -15 -73 -4 -34 -18 -85 -30 -114 -22 -50
-24 -52 -41 -36 -17 15 -20 15 -44 0 -37 -24 -67 -89 -56 -119 5 -13 17 -27
25 -30 48 -18 159 161 176 283 6 39 6 66 0 68 -5 2 -6 10 -3 18 6 16 -3 19
-12 3z m-85 -266 c0 -11 -51 -73 -61 -73 -12 0 -11 24 3 55 7 16 19 25 35 25
12 0 23 -3 23 -7z"/>
<path d="M6394 11622 c-7 -4 -27 -47 -46 -96 -31 -79 -38 -91 -66 -100 -37
-13 -41 -32 -6 -29 13 1 24 1 24 0 0 -1 -11 -32 -24 -70 -21 -61 -20 -87 3
-73 5 3 19 39 31 78 12 40 27 76 34 80 6 4 27 8 47 8 25 0 39 5 43 17 8 19
-14 37 -28 23 -14 -14 -46 -12 -46 3 0 17 44 123 58 140 17 21 0 35 -24 19z"/>
<path d="M4793 11613 c-7 -3 -13 -10 -14 -16 0 -7 -24 -50 -53 -97 -49 -80
-54 -85 -84 -82 -23 1 -32 -2 -32 -13 0 -8 3 -15 8 -15 4 0 13 -4 20 -8 10 -7
8 -18 -7 -53 -26 -56 -26 -90 -2 -120 25 -32 36 -19 20 24 -11 30 -9 40 14 90
l26 57 51 0 52 0 -27 -46 c-41 -70 -18 -77 45 -14 59 60 79 58 61 -6 -14 -50
-14 -54 4 -54 16 0 38 68 33 102 -4 31 -33 46 -58 30 -11 -7 -20 -10 -20 -8 0
6 33 82 70 159 18 38 30 71 27 73 -10 11 -45 -16 -50 -39 -4 -12 -20 -52 -36
-88 -30 -66 -30 -66 -77 -73 -26 -3 -48 -5 -50 -4 -4 5 84 152 100 169 13 13
14 18 4 26 -7 6 -19 8 -25 6z"/>
<path d="M9012 11598 c-5 -7 -18 -38 -27 -68 -9 -30 -30 -91 -46 -135 -48
-129 -49 -133 -33 -150 22 -21 51 -19 99 10 70 41 101 109 65 145 -16 16 -24
18 -47 9 -15 -5 -34 -16 -42 -22 -12 -10 -13 -9 -7 8 5 11 19 56 32 100 12 44
28 81 33 83 16 5 13 32 -3 32 -7 0 -18 -6 -24 -12z m38 -241 c0 -24 -38 -66
-77 -86 -59 -30 -58 8 2 66 51 48 75 55 75 20z"/>
<path d="M9941 11573 c-19 -8 -60 -55 -61 -69 0 -22 -29 -38 -44 -25 -10 8
-16 9 -21 1 -8 -13 2 -30 19 -30 10 0 10 -11 3 -49 -17 -82 18 -131 92 -131
16 0 34 6 40 14 9 11 4 14 -31 14 -31 1 -48 7 -60 23 -21 25 -22 40 -7 92 l10
39 57 -2 c82 -3 94 -2 90 13 -3 7 -30 14 -69 17 l-64 5 42 41 c46 44 48 64 4
47z"/>
<path d="M15172 11534 c-44 -26 -71 -69 -53 -87 5 -5 0 -23 -15 -45 -34 -50
-39 -78 -20 -107 29 -44 110 -30 165 29 30 32 33 102 6 122 -16 12 -16 14 -1
36 20 29 20 34 -4 58 -25 25 -26 25 -78 -6z m58 -28 c0 -19 -22 -35 -59 -42
-26 -6 -30 -4 -25 10 3 9 16 16 29 16 13 0 25 7 29 15 7 19 26 20 26 1z m-20
-92 c0 -11 5 -14 16 -10 12 5 15 -1 12 -26 -4 -38 -54 -78 -98 -78 -38 0 -44
24 -19 70 29 51 89 81 89 44z"/>
<path d="M14875 11511 c-17 -39 -18 -40 -64 -35 -44 5 -47 3 -73 -32 -38 -50
-36 -86 4 -117 l31 -25 -26 -45 c-30 -50 -34 -74 -13 -74 7 0 25 29 40 63 21
48 34 65 56 73 41 14 63 53 58 98 -4 25 1 51 13 75 22 44 24 58 6 58 -8 0 -22
-18 -32 -39z m-49 -75 c5 -14 -31 -96 -42 -96 -3 0 -14 5 -25 10 -27 15 -24
47 7 75 30 28 52 32 60 11z m25 -63 c-12 -20 -14 -14 -5 12 4 9 9 14 11 11 3
-2 0 -13 -6 -23z"/>
<path d="M13543 11527 c-72 -12 -88 -37 -25 -37 l37 -1 -28 -15 c-34 -18 -31
-35 7 -45 58 -16 74 -55 34 -83 -25 -18 -84 -21 -93 -6 -9 15 -45 12 -45 -3 0
-34 99 -48 150 -22 51 26 53 102 3 128 l-26 14 47 28 c76 45 53 61 -61 42z"/>
<path d="M9244 11519 c-8 -14 11 -33 25 -25 16 10 13 36 -3 36 -8 0 -18 -5
-22 -11z"/>
<path d="M14535 11510 c-44 -27 -56 -40 -50 -51 3 -5 28 2 55 16 52 26 69 21
49 -17 -20 -40 -82 -98 -104 -98 -25 0 -65 -39 -65 -63 0 -21 3 -21 42 -1 28
15 31 14 52 -4 26 -24 58 -32 80 -20 25 14 19 28 -13 28 -16 0 -36 7 -44 15
-13 13 -11 19 21 52 69 74 86 118 56 147 -20 20 -41 19 -79 -4z"/>
<path d="M14990 11510 c-6 -11 -8 -25 -5 -30 3 -5 -8 -39 -25 -76 -27 -60 -32
-104 -12 -104 9 1 69 154 78 198 5 25 3 32 -9 32 -9 0 -21 -9 -27 -20z"/>
<path d="M13985 11510 c-3 -5 -4 -14 -1 -18 3 -5 -3 -31 -13 -58 -11 -27 -22
-70 -26 -97 -7 -42 -5 -47 12 -47 15 0 19 8 20 35 1 20 11 64 23 99 22 61 22
96 1 96 -5 0 -13 -4 -16 -10z"/>
<path d="M14127 11513 c-14 -24 -47 -196 -41 -218 10 -40 33 -31 32 14 0 21 8
73 18 115 13 54 15 79 7 87 -6 6 -13 7 -16 2z"/>
<path d="M4039 11417 c-48 -32 -49 -55 -4 -93 46 -38 40 -57 -19 -52 -31 2
-41 -1 -41 -12 0 -11 13 -16 44 -18 34 -3 49 2 67 19 33 31 30 45 -16 75 -33
22 -38 29 -28 41 7 8 23 19 36 24 23 9 26 29 6 36 -6 2 -26 -7 -45 -20z"/>
<path d="M5039 11396 c-46 -44 -46 -45 -39 -97 8 -63 34 -89 91 -89 43 0 119
27 119 42 0 6 -13 8 -32 4 -95 -18 -114 -18 -131 -1 -9 9 -17 30 -17 46 0 24
4 29 25 29 37 0 77 43 73 78 -5 43 -36 39 -89 -12z m61 5 c0 -13 -29 -41 -42
-41 -7 0 -1 11 12 25 26 27 30 30 30 16z"/>
<path d="M9425 11422 c-16 -11 -36 -26 -44 -35 -12 -15 -11 -17 5 -17 11 0 28
7 38 15 25 19 36 19 36 1 0 -21 -16 -28 -62 -28 -38 1 -40 0 -34 -26 10 -42
43 -63 89 -60 52 4 63 28 14 28 -66 0 -94 26 -35 32 43 4 73 44 59 81 -12 32
-25 33 -66 9z"/>
<path d="M9655 11418 c-33 -15 -58 -56 -51 -83 7 -27 51 -44 98 -37 41 6 29
26 -18 30 -21 2 -43 7 -48 12 -11 11 21 50 41 50 14 0 18 26 6 33 -5 3 -17 0
-28 -5z"/>
<path d="M3461 11366 c-47 -63 -87 -97 -106 -90 -23 9 -38 -5 -24 -22 18 -22
45 -17 82 16 33 28 35 29 40 10 5 -21 41 -28 52 -10 3 5 15 15 27 21 12 7 18
7 14 1 -9 -15 11 -62 27 -62 15 0 16 122 0 127 -5 2 -27 -13 -48 -32 -47 -41
-60 -26 -26 31 22 38 27 64 11 64 -5 0 -27 -24 -49 -54z"/>
<path d="M8776 11401 c-35 -24 -55 -56 -56 -92 0 -37 22 -53 64 -45 70 13 103
106 51 140 -30 19 -24 20 -59 -3z m54 -51 c0 -25 -30 -60 -51 -60 -27 0 -34
25 -17 53 18 26 68 31 68 7z"/>
<path d="M3828 11370 c-37 -37 -40 -44 -35 -81 7 -52 22 -69 63 -69 38 0 45 8
37 39 -4 17 -10 20 -27 15 -35 -11 -40 -10 -44 8 -2 12 6 21 25 29 42 16 63
39 63 71 0 41 -34 37 -82 -12z"/>
<path d="M7844 11396 c-11 -8 -29 -33 -39 -56 -17 -38 -17 -43 -2 -74 18 -40
52 -51 106 -36 39 10 80 45 67 57 -4 4 -17 1 -28 -6 -53 -33 -112 -34 -121 -2
-3 13 5 21 28 29 17 7 42 23 55 37 23 24 23 25 5 45 -21 24 -43 25 -71 6z m46
-31 c0 -2 -15 -12 -32 -21 l-33 -17 19 22 c17 19 46 29 46 16z"/>
<path d="M3697 11382 c-22 -24 -21 -40 3 -77 26 -39 26 -65 0 -65 -11 0 -20 5
-20 10 0 6 -7 10 -15 10 -8 0 -15 -6 -15 -13 0 -42 70 -51 96 -12 15 23 15 27
-11 72 l-28 47 21 14 c12 8 22 18 22 23 0 16 -36 9 -53 -9z"/>
<path d="M6054 11390 c-26 -10 -54 -48 -54 -71 0 -27 28 -30 69 -9 l38 19 -4
-22 c-6 -31 21 -66 38 -50 9 9 9 16 1 26 -8 9 -9 24 -2 47 5 19 6 38 2 42 -5
5 -31 -3 -58 -18 l-49 -26 33 29 c41 35 34 53 -14 33z"/>
<path d="M7146 11370 c-53 -47 -81 -120 -46 -120 6 0 17 17 25 37 24 57 44 75
77 68 30 -7 39 10 16 33 -19 19 -34 15 -72 -18z"/>
<path d="M7587 11380 c-14 -11 -31 -18 -39 -15 -19 7 -63 -84 -48 -99 9 -8 16
-5 28 14 19 28 74 81 79 76 2 -2 -1 -15 -6 -29 -16 -42 5 -43 51 -2 31 29 42
34 49 24 5 -9 3 -17 -6 -22 -8 -4 -15 -15 -15 -22 0 -20 36 -19 44 1 11 28 7
84 -6 85 -25 3 -43 -3 -63 -19 -11 -9 -17 -13 -13 -8 8 9 -9 36 -22 36 -4 0
-19 -9 -33 -20z"/>
<path d="M6419 11361 c-59 -59 -12 -113 65 -76 36 17 39 17 48 2 10 -20 37
-23 34 -4 -7 33 -27 67 -39 67 -8 0 -22 -9 -31 -19 -18 -20 -63 -33 -71 -21
-7 12 25 34 49 35 14 0 21 6 21 20 0 33 -41 31 -76 -4z"/>
<path d="M7319 11361 c-55 -56 -20 -103 51 -67 30 14 30 14 30 -13 0 -35 24
-70 35 -51 4 7 4 15 -1 19 -5 3 -9 26 -9 51 0 33 -4 45 -15 45 -8 0 -17 9 -20
20 -9 31 -37 29 -71 -4z m54 -31 c-4 -4 -19 -11 -33 -15 -25 -8 -25 -7 -7 13
11 11 26 18 34 15 8 -3 11 -9 6 -13z"/>
<path d="M9206 11295 c-8 -47 -21 -95 -27 -108 -21 -39 -70 -107 -77 -107 -5
0 -19 18 -32 39 -14 21 -28 37 -32 34 -17 -10 -6 -41 27 -78 l36 -38 33 32
c46 45 86 127 102 213 17 91 17 98 0 98 -9 0 -19 -27 -30 -85z"/>
<path d="M14207 11333 c-9 -9 12 -33 29 -33 19 0 18 26 -2 34 -19 7 -19 7 -27
-1z"/>
<path d="M13709 11319 c-12 -8 -12 -10 1 -19 17 -11 32 -8 37 7 5 15 -21 23
-38 12z"/>
<path d="M6668 11287 c-31 -12 -36 -25 -12 -34 21 -8 64 13 64 32 0 17 -13 18
-52 2z"/>
<path d="M10323 10791 c-48 -35 -128 -151 -167 -244 l-29 -67 -44 0 c-32 0
-43 -4 -43 -15 0 -11 11 -15 36 -15 35 0 36 -1 29 -27 -14 -51 -11 -77 9 -81
14 -3 17 0 13 11 -3 8 -1 31 5 51 10 32 15 36 46 36 38 0 41 23 3 28 -17 3
-21 8 -15 25 14 44 83 173 114 212 40 50 101 95 107 78 5 -15 53 -18 53 -4 0
50 -57 55 -117 12z"/>
<path d="M2761 10789 c-41 -18 -101 -72 -101 -90 0 -22 29 -11 60 23 36 41 80
57 150 58 54 0 66 -12 44 -45 -21 -32 -90 -85 -112 -85 -11 0 -13 8 -8 35 7
33 6 35 -22 35 -36 0 -46 -10 -25 -25 19 -14 11 -65 -11 -65 -26 0 -37 -25
-20 -48 14 -21 13 -29 -10 -100 -28 -84 -32 -116 -14 -110 6 2 25 43 41 91 16
48 32 87 37 87 20 0 110 -83 116 -106 4 -14 1 -50 -5 -80 -12 -51 -9 -74 8
-74 8 0 31 103 31 139 0 40 -28 77 -89 117 -33 21 -60 42 -61 45 0 4 25 19 55
35 62 31 135 103 135 133 0 51 -115 69 -199 30z"/>
<path d="M10799 10723 c-5 -15 -26 -76 -46 -137 -20 -61 -38 -105 -41 -98 -6
20 -49 13 -81 -14 -24 -20 -31 -34 -31 -61 0 -94 72 -98 119 -6 9 18 98 262
118 326 9 29 -26 20 -38 -10z m-89 -263 c-1 -18 -48 -85 -60 -85 -24 0 -25 60
-1 77 19 13 61 19 61 8z"/>
<path d="M13841 10726 c-19 -20 -21 -27 -10 -44 10 -17 5 -34 -39 -124 -28
-57 -60 -126 -72 -152 -23 -55 -18 -96 12 -96 14 0 18 5 14 15 -3 8 14 61 38
118 76 178 87 207 93 258 6 55 -2 61 -36 25z"/>
<path d="M3423 10643 c-16 -129 -26 -161 -69 -211 -44 -52 -67 -55 -62 -9 4
39 36 68 68 60 26 -7 25 14 -3 31 -46 29 -115 -71 -89 -128 21 -47 74 -31 121
37 39 57 60 135 63 231 4 116 -15 108 -29 -11z"/>
<path d="M12568 10733 c-3 -4 -5 -21 -6 -38 -1 -16 -27 -83 -58 -147 -31 -64
-54 -125 -52 -135 5 -27 32 -22 35 7 1 14 24 73 52 131 50 104 68 178 44 186
-6 2 -13 0 -15 -4z"/>
<path d="M12730 10717 c0 -12 -18 -58 -39 -102 -36 -72 -43 -81 -78 -91 -45
-13 -53 -41 -10 -36 15 2 27 1 27 -3 0 -13 -31 -65 -39 -65 -5 0 -8 -8 -7 -17
6 -38 38 -18 61 37 19 44 29 56 51 60 33 6 45 30 15 30 -28 0 -27 9 14 89 37
73 45 121 20 121 -9 0 -15 -9 -15 -23z"/>
<path d="M13058 10726 c-21 -15 -23 -33 -6 -38 14 -5 -29 -100 -108 -239 -57
-100 -64 -126 -38 -136 20 -7 44 15 27 25 -8 5 12 50 63 142 73 132 112 230
99 250 -8 13 -16 12 -37 -4z"/>
<path d="M4900 10698 c-13 -17 -23 -38 -23 -45 0 -7 -4 -13 -9 -13 -4 0 -8
-11 -8 -25 0 -14 -4 -25 -9 -25 -5 0 -12 -8 -15 -18 -5 -16 -14 -18 -62 -14
-45 4 -56 2 -52 -9 3 -8 15 -15 29 -17 64 -7 69 -11 59 -38 -17 -45 -12 -91
12 -108 23 -17 58 -21 58 -8 0 4 11 8 25 8 14 1 32 8 41 15 24 20 -5 30 -39
12 -63 -32 -92 1 -66 77 12 32 12 32 66 27 30 -3 61 -3 69 0 20 7 17 35 -3 32
-10 -1 -39 -1 -65 0 l-48 1 26 57 c14 32 34 68 46 80 11 12 17 26 13 32 -10
17 -20 13 -45 -21z"/>
<path d="M7040 10643 c-28 -43 -50 -82 -50 -87 0 -4 -6 -6 -14 -3 -7 3 -19 0
-25 -6 -9 -9 -14 -9 -20 2 -5 7 -14 10 -20 7 -20 -13 -11 -25 22 -28 34 -3 33
0 20 -80 -5 -32 -1 -41 25 -68 25 -24 39 -30 75 -30 55 0 77 8 77 26 0 17 -14
18 -38 3 -12 -7 -28 -7 -57 3 -51 17 -64 48 -42 101 16 36 18 37 67 37 52 0
90 13 90 30 0 5 -28 7 -67 3 l-67 -6 24 39 c12 21 36 56 51 76 32 41 36 58 14
58 -9 0 -38 -35 -65 -77z"/>
<path d="M12855 10610 c-11 -17 5 -32 21 -19 7 6 11 15 8 20 -7 12 -21 11 -29
-1z"/>
<path d="M10370 10591 c0 -10 7 -21 15 -25 11 -4 15 1 15 19 0 16 -6 25 -15
25 -8 0 -15 -9 -15 -19z"/>
<path d="M10027 10594 c-14 -15 -6 -34 14 -34 14 0 19 5 17 17 -3 18 -20 27
-31 17z"/>
<path d="M6163 10568 c-31 -15 -117 -127 -121 -158 -1 -14 -19 -60 -39 -102
-34 -73 -38 -115 -11 -106 7 3 26 39 43 81 24 61 34 77 51 77 33 0 86 41 111
85 25 44 30 104 11 123 -14 14 -16 14 -45 0z m27 -48 c0 -31 -25 -74 -60 -104
-41 -34 -51 -33 -48 5 2 23 16 44 48 75 51 49 60 53 60 24z"/>
<path d="M13443 10574 c-7 -3 -33 -43 -59 -90 -38 -67 -50 -81 -57 -68 -5 9
-7 28 -4 44 8 36 -2 70 -19 70 -10 0 -13 -12 -12 -40 1 -22 6 -40 12 -40 6 0
5 -4 -3 -9 -11 -7 -11 -13 1 -37 23 -50 48 -38 100 51 26 43 57 83 69 87 11 4
19 14 17 20 -5 14 -26 19 -45 12z"/>
<path d="M3506 10561 c-3 -5 1 -23 10 -40 8 -17 13 -40 9 -51 -7 -22 -52 -56
-62 -47 -9 10 26 57 40 54 6 -1 12 5 12 13 0 23 -32 23 -54 1 -42 -42 -35
-101 11 -101 25 0 88 62 88 87 0 60 -35 115 -54 84z"/>
<path d="M3663 10562 c-28 -18 -73 -87 -73 -113 0 -32 40 -69 74 -69 36 0 64
11 70 27 5 12 -1 14 -35 8 -31 -5 -45 -3 -60 11 -19 17 -18 18 13 37 63 37 82
69 56 95 -14 14 -28 15 -45 4z m17 -40 c0 -4 -10 -13 -22 -21 -23 -14 -23 -14
-4 8 20 22 26 25 26 13z"/>
<path d="M7944 10540 c-24 -41 -142 -130 -172 -130 -17 0 -22 -5 -20 -17 5
-24 43 -18 83 11 52 39 59 41 53 19 -6 -23 8 -53 24 -53 5 0 30 14 55 30 44
30 58 36 50 23 -8 -13 12 -53 25 -53 17 0 15 113 -2 118 -6 2 -26 -9 -43 -26
-33 -31 -77 -57 -77 -46 0 3 14 35 32 70 23 46 29 67 21 75 -8 8 -16 2 -29
-21z"/>
<path d="M9352 10525 c-47 -53 -76 -110 -66 -128 4 -6 3 -9 -1 -4 -7 6 -75
-152 -75 -175 0 -21 29 -4 46 27 10 19 22 35 25 35 4 0 18 29 30 64 21 57 28
67 62 82 54 25 89 69 85 108 -3 27 -7 31 -34 34 -26 3 -38 -4 -72 -43z m78 4
c0 -22 -22 -49 -50 -64 -38 -19 -39 -5 -4 41 25 33 54 45 54 23z"/>
<path d="M5598 10538 c-42 -24 -48 -49 -23 -86 30 -42 -22 -88 -71 -61 -18 9
-27 10 -36 1 -19 -19 10 -42 54 -42 30 0 46 7 69 29 32 33 36 57 14 87 -21 28
-19 32 20 51 19 9 35 23 35 30 0 19 -19 16 -62 -9z"/>
<path d="M6345 10523 c-28 -21 -56 -38 -64 -38 -9 0 -20 -18 -27 -45 -6 -25
-26 -78 -43 -119 -28 -68 -32 -91 -12 -91 11 0 47 69 61 117 11 36 15 40 30
31 28 -18 72 6 114 62 29 38 37 56 34 82 -4 47 -33 47 -93 1z m38 -60 c-37
-46 -65 -64 -82 -54 -18 12 11 55 64 93 34 25 41 27 43 13 2 -9 -9 -33 -25
-52z"/>
<path d="M8191 10534 c-25 -32 -26 -43 -5 -88 9 -19 14 -41 11 -50 -9 -23 -54
-20 -60 4 -8 30 -29 24 -25 -7 2 -17 13 -33 30 -42 52 -30 105 28 81 88 -6 14
-14 33 -17 42 -5 11 0 24 14 37 12 11 19 25 15 31 -10 17 -22 13 -44 -15z"/>
<path d="M9168 10548 c-47 -13 -54 -33 -23 -70 28 -33 32 -60 11 -78 -12 -9
-18 -7 -33 9 -22 26 -33 27 -33 3 0 -22 30 -52 52 -52 23 0 58 43 58 72 0 14
-9 37 -21 52 -23 29 -17 35 37 39 18 2 29 8 29 17 0 18 -28 21 -77 8z"/>
<path d="M3843 10533 c-30 -20 -29 -31 4 -65 23 -24 25 -31 15 -53 -14 -30
-28 -32 -35 -4 -7 25 -27 16 -27 -11 0 -21 36 -51 54 -44 17 6 46 58 46 82 0
10 -9 31 -20 45 l-21 26 21 11 c21 11 19 30 -3 29 -7 0 -22 -7 -34 -16z"/>
<path d="M4429 10520 c-33 -27 -35 -28 -35 -8 1 12 -5 23 -11 25 -7 3 -13 -2
-13 -10 0 -8 -11 -35 -25 -61 -14 -26 -25 -49 -25 -52 0 -13 26 0 64 31 l43
35 -1 -37 c-1 -32 2 -38 22 -41 24 -4 29 7 11 25 -9 9 -6 21 10 48 23 40 28
75 9 75 -7 -1 -29 -14 -49 -30z"/>
<path d="M11997 10530 c-15 -12 -27 -17 -27 -11 0 6 -7 11 -15 11 -9 0 -15 -9
-15 -22 0 -13 -9 -34 -20 -48 -11 -14 -20 -31 -20 -37 0 -26 25 -12 72 40 l49
52 -21 -43 c-35 -71 -11 -81 59 -25 25 20 51 40 57 44 7 6 10 -7 10 -39 -1
-34 3 -47 14 -49 12 -3 15 10 17 61 1 38 -2 68 -8 72 -6 3 -31 -8 -55 -25 -25
-17 -46 -31 -47 -31 -1 0 -2 14 -2 32 0 39 -14 44 -48 18z"/>
<path d="M13124 10531 c-44 -27 -75 -71 -72 -100 3 -30 32 -46 96 -56 38 -5
42 -4 42 15 0 17 -6 20 -38 20 -21 0 -47 7 -58 15 -18 14 -18 14 7 15 14 0 41
10 60 23 26 17 34 30 34 52 0 37 -27 43 -71 16z m23 -36 c-26 -23 -47 -32 -47
-20 0 6 62 45 70 45 3 -1 -8 -12 -23 -25z"/>
<path d="M13525 10512 c-39 -29 -51 -45 -53 -69 -3 -27 2 -34 27 -47 39 -20
141 -22 141 -2 0 9 -15 14 -50 15 -85 1 -116 31 -48 45 41 8 78 43 78 73 0 35
-36 29 -95 -15z m55 -7 c0 -2 -10 -9 -22 -15 -22 -11 -22 -10 -4 4 21 17 26
19 26 11z"/>
<path d="M8346 10519 c-42 -33 -60 -75 -46 -109 16 -38 33 -43 97 -30 36 8 53
16 53 27 0 16 -13 15 -83 -2 -19 -5 -28 -2 -36 13 -9 17 -7 21 15 26 35 9 74
36 74 51 0 11 -31 45 -42 45 -3 0 -17 -9 -32 -21z m29 -29 c-3 -5 -11 -10 -16
-10 -6 0 -7 5 -4 10 3 6 11 10 16 10 6 0 7 -4 4 -10z"/>
<path d="M10453 10520 c-73 -32 -104 -116 -55 -145 41 -24 111 -23 120 3 2 8
-12 12 -51 12 -50 0 -67 9 -67 35 0 1 15 6 34 9 44 8 88 50 84 78 -4 29 -16
31 -65 8z m17 -40 c-8 -6 -22 -10 -30 -9 -9 0 -5 6 10 14 27 14 44 10 20 -5z"/>
<path d="M11519 10516 c-44 -30 -89 -110 -72 -127 9 -9 16 -4 30 22 31 59 76
98 105 92 35 -7 46 15 13 27 -35 13 -35 13 -76 -14z"/>
<path d="M5765 10467 c-27 -29 -63 -62 -80 -74 -23 -16 -27 -24 -18 -33 9 -10
21 -4 57 25 46 37 46 37 46 12 0 -37 20 -48 63 -36 20 5 39 15 43 21 4 6 12
-3 20 -21 18 -42 33 -39 34 7 0 20 2 55 3 77 1 30 -2 40 -13 40 -9 0 -14 -8
-13 -20 1 -15 -13 -31 -48 -54 -27 -19 -52 -31 -55 -28 -8 8 15 95 27 103 14
8 11 34 -3 33 -7 0 -35 -24 -63 -52z"/>
<path d="M8595 10510 c-3 -5 -20 -13 -37 -18 -17 -4 -36 -17 -42 -27 -6 -11
-14 -22 -18 -25 -4 -4 -11 -20 -14 -38 -9 -46 13 -41 55 13 43 54 74 73 95 56
22 -19 31 7 10 30 -19 21 -39 25 -49 9z"/>
<path d="M9552 10505 c-22 -16 -52 -64 -52 -85 0 -5 9 -19 20 -30 16 -16 33
-20 83 -20 61 0 98 12 84 26 -4 4 -35 6 -70 5 -48 -2 -67 2 -76 13 -11 14 -11
16 4 16 9 0 33 7 52 16 28 14 33 22 31 43 -4 32 -42 40 -76 16z m47 -19 c-2
-2 -15 -9 -29 -15 -24 -11 -24 -11 -6 3 16 13 49 24 35 12z"/>
<path d="M9760 10509 c-14 -6 -35 -20 -47 -31 -52 -48 -8 -108 78 -108 37 0
49 4 49 15 0 11 -11 15 -41 15 -47 0 -79 14 -79 35 0 22 46 48 75 43 32 -7 44
11 20 29 -22 15 -22 15 -55 2z"/>
<path d="M12307 10513 c-4 -3 -2 -12 4 -19 7 -9 2 -18 -20 -33 -38 -27 -41
-27 -41 9 0 35 -25 42 -33 9 -9 -33 9 -69 34 -69 25 0 108 59 109 77 0 7 -9
17 -19 23 -23 12 -26 12 -34 3z"/>
<path d="M4572 10488 c-30 -33 -37 -71 -17 -92 22 -22 39 -20 70 7 l26 22 -18
42 c-21 49 -31 52 -61 21z m35 -44 c6 -16 -15 -37 -28 -28 -10 6 1 44 12 44 6
0 12 -7 16 -16z"/>
<path d="M6699 10495 c-15 -8 -36 -35 -48 -60 -26 -55 -26 -55 -2 -55 18 0 34
21 36 46 1 24 29 44 61 44 40 0 45 16 8 30 -30 12 -23 12 -55 -5z"/>
<path d="M11350 10503 c-23 -9 -70 -55 -86 -85 -15 -29 -11 -53 12 -62 23 -9
87 22 112 54 19 24 21 35 14 62 -8 33 -23 42 -52 31z m20 -52 c0 -21 -44 -61
-66 -61 -21 0 -17 15 12 49 29 35 54 40 54 12z"/>
<path d="M6493 10478 c-37 -41 -44 -63 -27 -86 18 -26 46 -28 85 -5 42 25 46
49 13 84 -33 35 -44 36 -71 7z m52 -31 c17 -13 17 -15 -6 -30 -42 -30 -61 -18
-39 24 13 23 20 24 45 6z"/>
<path d="M12741 10447 c-25 -54 -27 -72 -11 -72 7 0 70 109 70 122 0 2 -8 3
-17 3 -12 0 -26 -19 -42 -53z"/>
<path d="M8770 10465 c0 -12 9 -15 38 -14 20 2 43 7 50 12 8 6 12 5 12 -2 0
-15 50 -11 53 4 1 6 -31 11 -75 13 -66 2 -78 0 -78 -13z"/>
<path d="M9930 10439 c-15 -26 -9 -64 9 -64 8 0 15 11 16 25 1 14 5 33 10 43
11 25 -21 22 -35 -4z"/>
<path d="M10258 10426 c-14 -20 -15 -26 -4 -41 15 -21 36 -12 36 15 0 10 5 22
10 25 16 10 12 25 -7 25 -10 0 -26 -11 -35 -24z"/>
<path d="M5036 10233 c-37 -57 -248 -270 -277 -281 -11 -4 -12 -42 -1 -42 4 0
41 32 82 72 41 39 89 85 107 100 l32 29 -25 -63 c-30 -77 -28 -102 7 -106 19
-2 41 11 90 54 35 31 72 66 81 78 23 28 22 18 -2 -40 -22 -51 -23 -95 -2 -102
7 -2 12 6 12 22 0 15 11 53 25 85 34 81 43 141 21 141 -9 0 -16 -4 -16 -9 0
-13 -136 -157 -172 -182 -16 -12 -32 -19 -34 -16 -8 7 67 182 105 246 31 52
39 81 22 81 -5 0 -30 -30 -55 -67z"/>
<path d="M7035 10251 c-3 -6 -3 -16 0 -21 3 -6 -2 -37 -11 -70 -18 -58 -19
-59 -56 -62 -47 -4 -55 -22 -10 -26 17 -2 32 -7 32 -12 0 -4 -10 -33 -21 -64
-12 -31 -19 -59 -15 -63 12 -12 34 21 54 82 19 55 24 61 56 69 44 12 48 36 6
36 l-30 0 16 39 c8 22 14 52 12 67 -3 29 -22 43 -33 25z"/>
<path d="M7649 10243 c-3 -32 -10 -64 -22 -98 -15 -42 -33 -52 -94 -54 -41 -1
-47 -31 -7 -31 17 0 23 4 18 13 -6 9 -4 9 8 -1 8 -7 23 -9 32 -6 14 6 16 2 10
-22 -4 -16 -15 -46 -25 -66 -14 -26 -16 -39 -7 -44 15 -10 35 20 55 83 16 52
17 53 56 53 31 0 38 3 35 18 -3 12 -12 16 -31 14 -32 -3 -32 -4 -11 64 17 51
14 84 -6 84 -5 0 -10 -3 -11 -7z"/>
<path d="M3000 10231 c13 -9 13 -11 1 -11 -12 0 -12 -3 -3 -12 7 -7 12 -38 12
-70 l0 -58 -37 0 c-43 0 -52 -5 -76 -40 -34 -49 -13 -110 38 -110 35 0 81 59
95 122 6 29 10 82 8 118 -3 61 -5 65 -28 68 -20 2 -22 1 -10 -7z m-11 -210
c-13 -37 -44 -65 -64 -58 -38 15 -1 87 45 87 28 0 28 -1 19 -29z"/>
<path d="M6676 10221 c-3 -5 -3 -16 0 -24 6 -16 -13 -127 -22 -127 -2 0 -13 5
-23 12 -27 17 -65 -2 -91 -44 -25 -41 -25 -60 -1 -82 24 -22 50 -15 96 25 40
36 68 110 69 187 1 51 -13 78 -28 53z m-48 -189 c2 -15 -6 -27 -30 -42 -40
-24 -55 -12 -34 28 24 46 58 54 64 14z"/>
<path d="M11163 10218 c-5 -7 -15 -33 -22 -58 -7 -25 -31 -84 -52 -131 -40
-88 -48 -124 -27 -117 25 9 136 294 121 309 -6 6 -14 5 -20 -3z"/>
<path d="M10786 10208 c-2 -7 -16 -53 -31 -103 -27 -86 -28 -89 -43 -67 -22
34 -62 29 -105 -13 -23 -23 -37 -45 -37 -61 0 -26 40 -74 61 -74 21 0 75 41
99 76 29 43 93 221 86 240 -7 17 -25 18 -30 2z m-93 -202 c15 -22 14 -25 -12
-50 -34 -32 -67 -34 -77 -4 -5 17 1 28 25 50 38 34 44 35 64 4z"/>
<path d="M10054 10183 c-20 -94 -53 -172 -85 -204 -24 -24 -39 -24 -39 0 0 32
12 52 36 62 28 10 32 29 6 29 -29 0 -60 -28 -72 -65 -22 -67 27 -99 84 -54 31
24 56 72 80 149 9 30 21 62 25 70 10 20 3 40 -15 40 -7 0 -16 -12 -20 -27z"/>
<path d="M2685 10190 c-7 -12 2 -30 16 -30 12 0 12 27 0 35 -5 3 -12 1 -16 -5z"/>
<path d="M8027 10193 c-4 -3 -7 -13 -7 -22 -1 -9 -20 -56 -44 -106 -43 -88
-43 -89 -26 -120 24 -44 67 -46 114 -5 41 36 46 68 15 95 -17 16 -25 17 -50 8
-37 -14 -38 -3 -5 54 32 55 43 103 23 103 -7 0 -17 -3 -20 -7z m40 -190 c7
-19 -41 -63 -69 -63 -21 0 -21 -1 -7 38 6 18 14 30 18 28 4 -3 13 -1 21 5 21
13 30 11 37 -8z"/>
<path d="M8240 10176 c0 -27 -47 -145 -78 -196 -26 -41 -29 -90 -7 -90 8 0 15
8 15 17 0 9 14 45 31 81 39 79 79 193 73 204 -11 18 -34 7 -34 -16z"/>
<path d="M12980 10123 c-46 -99 -73 -184 -62 -195 11 -11 22 3 37 47 13 39 76
59 102 32 15 -14 16 -23 6 -59 -7 -27 -8 -47 -2 -52 16 -17 30 9 36 67 5 54 5
56 -25 75 l-32 18 45 32 c25 17 56 34 70 38 30 7 41 22 27 36 -11 11 -48 -6
-130 -60 -37 -25 -49 -38 -40 -44 9 -5 10 -8 1 -8 -24 0 -23 20 2 69 29 57 31
71 11 71 -8 0 -28 -30 -46 -67z"/>
<path d="M3150 10098 c-18 -13 -42 -39 -53 -59 -28 -49 -14 -83 42 -100 55
-16 131 -4 131 21 0 16 -4 17 -36 8 -43 -11 -97 -4 -114 17 -16 19 -3 38 18
26 18 -10 62 3 74 22 13 21 9 53 -10 71 -18 15 -21 15 -52 -6z m36 -47 c-4 -6
-17 -11 -28 -11 -21 0 -21 1 -3 20 19 21 44 13 31 -9z"/>
<path d="M3835 10102 c-11 -2 -33 -13 -48 -24 -40 -28 -32 -56 25 -93 26 -16
47 -34 47 -39 1 -12 -83 0 -87 13 -5 15 -32 14 -32 -1 0 -29 20 -40 76 -45 64
-5 102 11 91 39 -3 8 -30 29 -61 47 -31 17 -56 35 -56 39 0 5 12 15 26 22 21
12 29 12 46 1 13 -8 24 -9 30 -3 20 20 -21 52 -57 44z"/>
<path d="M12366 10067 c-62 -65 -94 -105 -102 -130 -4 -12 -22 -55 -40 -96
-31 -68 -35 -91 -15 -91 5 0 28 43 52 95 39 86 47 95 69 94 58 -4 83 2 111 30
23 24 29 38 29 73 0 80 -41 90 -104 25z m74 -22 c0 -22 -8 -43 -20 -55 -20
-20 -90 -29 -90 -11 0 13 85 101 98 101 7 0 12 -15 12 -35z"/>
<path d="M3430 10065 c-41 -43 -54 -44 -70 -5 -7 17 -19 30 -26 30 -18 0 -18
-14 2 -52 16 -31 16 -32 -12 -54 -15 -13 -31 -21 -35 -18 -4 2 -5 -5 -2 -16 3
-11 8 -20 12 -20 16 0 51 33 51 48 0 15 2 15 10 2 5 -8 10 -12 10 -8 0 4 17
-11 38 -34 29 -30 44 -39 57 -34 15 5 12 12 -26 47 l-44 40 49 43 c30 26 47
47 42 54 -11 18 -19 15 -56 -23z"/>
<path d="M3549 10073 c-64 -54 -68 -128 -8 -153 48 -20 179 2 179 31 0 11 -99
1 -115 -11 -12 -10 -75 15 -75 29 0 5 23 17 50 26 31 10 57 27 67 42 16 25 16
26 -6 44 -32 26 -54 24 -92 -8z m66 -12 c6 -11 -32 -41 -52 -41 -7 0 -13 9
-13 21 0 11 4 18 8 15 4 -2 14 -1 22 5 19 11 27 11 35 0z"/>
<path d="M8370 10092 c-41 -13 -100 -90 -100 -132 0 -31 35 -60 73 -60 37 0
124 27 133 41 13 22 -10 26 -56 8 -58 -22 -91 -24 -108 -7 -20 20 -14 26 37
43 52 17 61 28 61 75 0 29 -14 40 -40 32z m4 -62 c-5 -4 -20 -11 -34 -14 -25
-7 -25 -7 5 20 19 17 31 22 33 14 2 -6 0 -15 -4 -20z"/>
<path d="M2616 10048 c-3 -24 -8 -62 -12 -85 -5 -34 -3 -43 9 -43 15 0 23 28
33 123 5 37 3 47 -9 47 -10 0 -17 -14 -21 -42z"/>
<path d="M5256 10068 c-9 -12 -16 -39 -16 -60 0 -36 -14 -60 -22 -36 -6 16
-58 1 -58 -16 0 -17 22 -26 60 -26 35 0 54 28 54 80 1 29 5 36 24 38 15 2 22
9 20 20 -5 26 -44 26 -62 0z"/>
<path d="M13976 10076 c-27 -6 -51 -17 -54 -23 -2 -7 1 -13 6 -13 13 0 82 -69
82 -82 0 -7 -18 -9 -50 -6 -43 4 -50 3 -48 -11 3 -17 63 -27 105 -17 33 9 30
48 -9 92 l-32 36 45 -3 c32 -3 44 0 44 10 0 22 -36 29 -89 17z"/>
<path d="M5396 10059 c-58 -46 -73 -117 -30 -146 23 -14 33 -15 81 -5 61 13
110 39 97 52 -5 5 -36 0 -68 -11 -98 -33 -150 0 -62 40 47 20 70 49 60 75 -9
22 -46 20 -78 -5z m34 -24 c0 -2 -10 -9 -22 -15 -22 -11 -22 -10 -4 4 21 17
26 19 26 11z"/>
<path d="M9550 10042 c-22 -22 -40 -49 -40 -60 0 -29 24 -45 59 -37 25 5 30 3
33 -17 2 -17 10 -23 27 -23 13 0 26 6 29 13 2 6 -4 12 -13 12 -13 0 -16 11
-13 73 3 68 2 72 -20 75 -16 3 -35 -8 -62 -36z m60 -15 c0 -14 -10 -29 -29
-40 -51 -30 -56 -16 -12 32 35 37 41 38 41 8z"/>
<path d="M10905 10052 c-22 -16 -46 -36 -54 -45 -18 -23 -30 -21 -24 2 3 10 0
22 -6 25 -14 9 -50 -15 -57 -37 -9 -27 4 -34 21 -11 8 10 15 14 15 8 0 -6 -9
-23 -20 -37 -11 -14 -20 -29 -20 -34 0 -5 -14 -35 -31 -66 -28 -53 -31 -77 -8
-77 5 0 14 12 19 26 21 54 58 89 106 102 65 18 147 98 142 139 -4 39 -34 41
-83 5z m38 -40 c-20 -27 -79 -72 -95 -72 -16 0 24 50 65 80 47 34 59 31 30 -8z"/>
<path d="M11476 10059 c-14 -11 -26 -16 -26 -10 0 6 -7 11 -15 11 -8 0 -15 -7
-15 -16 0 -9 -16 -42 -36 -75 -23 -36 -34 -65 -30 -75 6 -15 8 -15 27 2 12 11
41 47 66 82 25 34 50 62 56 62 7 0 18 -9 25 -20 13 -22 32 -19 32 6 0 15 -35
54 -49 54 -4 0 -20 -9 -35 -21z"/>
<path d="M12749 10066 c-22 -17 -69 -76 -69 -87 0 -20 42 -49 70 -49 24 0 33
6 40 26 13 33 13 34 -5 34 -8 0 -15 -7 -15 -15 0 -17 -35 -21 -45 -5 -8 13 21
59 41 66 47 14 47 15 36 26 -16 16 -35 18 -53 4z"/>
<path d="M6733 10036 c-9 -19 -13 -41 -10 -50 8 -20 49 -21 87 -1 l30 15 -7
-31 c-5 -26 -3 -30 12 -28 10 2 18 9 18 14 0 6 3 19 7 30 4 11 4 30 -1 43 -7
18 -12 21 -27 13 -14 -7 -21 -5 -30 10 -20 32 -60 24 -79 -15z m63 -7 c7 -12
-12 -29 -34 -29 -10 0 -10 5 -2 20 12 22 25 26 36 9z"/>
<path d="M7109 10028 c-48 -52 -47 -73 1 -72 19 1 44 5 55 8 17 6 22 1 30 -26
6 -20 18 -34 29 -36 15 -3 17 0 11 14 -5 11 -8 36 -7 56 1 27 -6 45 -26 67
-14 17 -33 31 -40 31 -8 0 -32 -19 -53 -42z m68 -15 c2 -6 -4 -13 -14 -16 -10
-2 -27 -8 -38 -12 -18 -7 -17 -5 4 19 25 26 41 30 48 9z"/>
<path d="M12533 10051 c-39 -24 -56 -55 -48 -83 6 -17 13 -20 45 -15 32 4 39
2 43 -14 7 -27 37 -24 35 4 -1 12 2 32 6 45 6 17 4 22 -11 22 -10 -1 -29 -7
-43 -15 -14 -8 -30 -14 -37 -15 -21 0 -2 30 29 46 23 12 33 13 44 3 19 -16 31
-3 18 19 -16 24 -44 25 -81 3z"/>
<path d="M13684 10051 c-63 -38 -81 -94 -44 -131 17 -17 31 -20 82 -18 38 2
63 8 66 16 3 9 -13 12 -56 12 -41 0 -63 5 -72 15 -10 13 -9 15 11 15 35 0 89
36 89 59 0 19 -24 51 -38 51 -4 0 -21 -9 -38 -19z m27 -41 c-13 -11 -30 -20
-38 -20 -11 0 -8 6 8 20 13 10 31 19 39 19 10 0 8 -6 -9 -19z"/>
<path d="M2757 10035 c-15 -13 -34 -22 -42 -19 -10 4 -15 0 -15 -16 0 -12 -5
-30 -10 -40 -7 -13 -7 -21 0 -25 6 -4 32 17 58 46 l47 53 5 -49 c3 -27 11 -50
18 -53 10 -3 12 11 10 59 -3 55 -6 64 -23 66 -11 2 -32 -8 -48 -22z"/>
<path d="M7781 10047 c-13 -6 -33 -29 -45 -49 -20 -35 -20 -38 -3 -55 15 -15
22 -16 49 -5 17 6 32 11 32 9 4 -14 25 -42 31 -42 4 0 9 26 11 58 2 35 -1 57
-7 57 -6 0 -18 9 -27 20 -15 17 -20 18 -41 7z m47 -39 c-5 -15 -67 -53 -74
-46 -2 3 5 17 17 31 21 27 64 38 57 15z"/>
<path d="M9744 10025 c-29 -19 -55 -42 -58 -51 -13 -35 7 -32 53 6 26 22 52
40 58 40 5 0 9 -19 9 -41 -1 -60 20 -60 28 -1 12 91 -9 102 -90 47z"/>
<path d="M13226 10039 c-45 -35 -30 -89 25 -89 15 0 31 -4 34 -10 6 -9 45 -15
45 -6 0 2 -6 16 -14 31 -8 15 -12 34 -9 42 6 15 -24 53 -42 53 -7 0 -24 -9
-39 -21z m54 -34 c0 -12 -21 -25 -41 -25 -15 0 -10 22 8 36 20 14 33 10 33
-11z"/>
<path d="M11199 10043 c0 -4 0 -36 1 -71 1 -59 -1 -66 -44 -128 -65 -92 -89
-141 -74 -150 7 -4 16 0 22 11 38 64 110 171 117 173 5 2 22 23 38 46 16 23
44 56 62 74 28 27 30 32 15 38 -14 5 -29 -6 -60 -42 l-41 -48 -5 49 c-3 26
-11 50 -17 53 -7 2 -13 0 -14 -5z"/>
<path d="M13413 10014 c-43 -34 -44 -64 -3 -64 17 0 44 7 60 15 l28 15 6 -38
c6 -38 9 -88 7 -109 -1 -6 -25 -17 -55 -23 -104 -21 -152 -120 -77 -159 35
-19 151 61 151 105 0 8 11 19 25 24 29 11 33 30 7 30 -14 0 -18 9 -18 43 -1
23 -3 74 -6 112 l-4 70 -45 3 c-35 2 -51 -3 -76 -24z m55 -2 c9 -6 5 -12 -13
-20 -32 -15 -47 -15 -22 -1 9 6 15 14 12 20 -7 11 5 12 23 1z m21 -268 c-14
-27 -67 -64 -92 -64 -25 0 -30 32 -9 60 11 15 36 29 63 36 49 12 58 5 38 -32z"/>
<path d="M4200 9955 c0 -8 9 -15 20 -15 11 0 20 7 20 15 0 8 -9 15 -20 15 -11
0 -20 -7 -20 -15z"/>
<path d="M7332 9959 c-13 -5 -20 -13 -17 -19 8 -13 42 -13 51 1 10 17 -9 28
-34 18z"/>
<path d="M14122 9933 c5 -25 28 -28 28 -4 0 12 -6 21 -16 21 -9 0 -14 -7 -12
-17z"/>
<path d="M3047 9543 c-15 -26 -29 -97 -51 -248 -14 -93 -29 -183 -34 -200 l-9
-30 -13 24 c-15 28 -40 185 -40 252 0 25 -7 54 -15 65 -15 19 -15 19 -33 -3
-11 -12 -33 -72 -51 -135 -62 -219 -71 -253 -71 -260 0 -16 29 -7 34 10 3 9
23 82 45 162 22 80 44 156 50 170 9 22 10 20 10 -20 2 -117 42 -287 72 -305
32 -20 63 74 85 259 9 71 22 152 30 180 8 28 16 57 17 65 2 15 -18 27 -26 14z"/>
<path d="M8213 9448 c-6 -7 -20 -47 -31 -88 -33 -122 -37 -128 -77 -136 -34
-6 -55 -27 -42 -41 3 -3 20 0 37 6 29 9 31 9 25 -7 -4 -9 -9 -32 -12 -49 -3
-18 -12 -38 -19 -44 -10 -8 -11 -15 -1 -30 19 -31 34 -22 42 26 3 25 12 62 19
83 12 35 14 36 59 33 37 -2 47 1 47 13 0 12 -10 16 -41 16 -48 0 -47 -6 -3
134 15 47 22 82 16 88 -5 5 -13 4 -19 -4z"/>
<path d="M7905 9423 c-113 -47 -116 -64 -25 -158 66 -69 80 -92 80 -133 0 -22
-9 -38 -32 -57 -27 -23 -38 -26 -72 -20 -77 12 -126 66 -93 103 21 22 21 32 4
32 -20 0 -47 -33 -47 -58 0 -51 88 -112 161 -112 38 0 96 45 109 84 16 49 -11
105 -85 178 -37 36 -56 62 -52 71 6 16 70 48 121 61 25 6 28 5 21 -11 -20 -50
-23 -72 -11 -89 18 -24 42 -12 62 29 14 30 14 37 0 70 -13 32 -19 37 -48 36
-18 0 -60 -12 -93 -26z m118 -58 c-3 -9 -8 -14 -10 -11 -3 3 -2 9 2 15 9 16
15 13 8 -4z"/>
<path d="M8897 9433 c-4 -3 -7 -16 -7 -27 0 -39 -34 -166 -44 -167 -6 -1 -23
-2 -37 -3 -31 -3 -49 -13 -49 -28 0 -7 15 -9 44 -5 l44 6 -19 -86 c-11 -52
-15 -91 -10 -96 6 -6 13 -2 19 9 8 17 42 166 42 190 0 5 4 3 8 -4 7 -10 19 -8
55 8 26 12 45 25 42 31 -9 14 -33 11 -61 -7 -13 -9 -27 -14 -30 -11 -3 2 2 32
10 65 24 90 20 153 -7 125z"/>
<path d="M6379 9396 c-77 -17 -89 -23 -89 -42 0 -12 5 -15 23 -9 12 3 46 13
76 20 30 8 58 20 63 27 8 10 11 10 15 1 3 -8 24 -13 53 -13 106 0 220 -72 220
-139 0 -60 -101 -156 -190 -181 -19 -5 -54 -10 -77 -10 l-42 0 27 93 c28 98
35 178 15 184 -18 6 -37 -35 -24 -51 8 -10 6 -31 -8 -77 -11 -35 -25 -83 -31
-107 -11 -42 -12 -43 -43 -37 -59 12 -97 27 -92 35 3 5 1 12 -5 15 -12 7 -40
-12 -40 -27 0 -13 76 -45 128 -53 23 -4 42 -11 42 -16 0 -5 7 -9 15 -9 8 0 15
4 15 9 0 4 30 10 68 13 99 7 180 55 243 142 21 27 29 51 29 79 0 34 -7 47 -47
87 -76 75 -196 98 -344 66z"/>
<path d="M7050 9386 c0 -7 4 -16 10 -22 6 -6 3 -32 -7 -72 -13 -51 -19 -62
-37 -63 -60 -3 -70 -5 -73 -16 -3 -9 9 -13 42 -13 41 0 46 -2 40 -17 -13 -33
-27 -133 -21 -148 11 -30 23 -14 30 38 3 28 11 68 16 89 10 34 13 37 60 43 35
5 50 11 50 22 0 13 -8 15 -45 10 -25 -4 -45 -4 -45 0 0 4 7 33 17 66 11 40 13
64 7 75 -12 19 -44 25 -44 8z"/>
<path d="M4259 9388 c0 -2 -2 -16 -3 -33 -2 -16 -7 -53 -11 -82 l-7 -52 -41
-3 c-29 -2 -42 -8 -42 -18 0 -11 9 -14 38 -12 38 4 38 4 33 -30 -15 -88 -11
-158 9 -158 12 0 15 14 15 64 0 91 8 123 34 130 20 6 20 7 3 20 -15 12 -16 21
-7 82 13 91 13 94 -5 94 -8 0 -15 -1 -16 -2z"/>
<path d="M5359 9343 c-21 -55 -69 -282 -69 -326 0 -50 24 -83 40 -56 6 8 6 15
0 17 -17 6 -11 74 21 207 40 171 42 185 29 185 -6 0 -15 -12 -21 -27z"/>
<path d="M8291 9186 c-7 -8 -22 -16 -34 -18 -17 -2 -23 -13 -30 -47 -13 -65 4
-68 44 -8 29 45 38 52 62 49 23 -2 28 1 25 15 -4 23 -50 29 -67 9z"/>
<path d="M9620 9182 c-36 -18 -38 -23 -28 -102 3 -23 0 -25 -35 -23 -32 2 -38
0 -35 -15 6 -33 89 -27 108 8 8 14 6 28 -7 55 -15 31 -15 37 -3 45 8 6 24 10
36 10 28 0 36 10 23 27 -14 17 -17 17 -59 -5z"/>
<path d="M3102 9183 c-16 -6 -52 -76 -52 -102 0 -50 32 -77 73 -62 35 13 50
57 40 117 -8 49 -25 62 -61 47z m25 -40 c1 -10 4 -27 8 -38 8 -27 -17 -60 -40
-51 -14 5 -16 13 -11 38 3 17 14 40 23 50 20 22 18 22 20 1z"/>
<path d="M8602 9165 c-16 -13 -35 -38 -42 -55 -11 -26 -10 -33 5 -50 31 -34
125 -21 125 16 0 12 -5 14 -17 9 -30 -13 -80 -17 -86 -8 -9 14 30 73 48 73 16
0 21 25 6 34 -5 4 -23 -5 -39 -19z"/>
<path d="M9177 9161 c-26 -32 -53 -98 -43 -108 10 -11 36 6 36 24 0 10 9 33
20 51 15 25 26 32 51 32 40 0 34 24 -8 28 -24 2 -36 -4 -56 -27z"/>
<path d="M3293 9143 l-42 -39 6 28 c8 41 -15 35 -33 -9 -9 -20 -18 -51 -21
-69 -7 -42 15 -56 36 -23 9 13 33 42 53 64 l37 40 -10 -46 c-7 -30 -6 -54 1
-73 8 -23 15 -27 42 -24 21 2 33 8 33 18 0 10 -8 14 -24 12 -23 -4 -24 -3 -18
55 4 32 8 67 9 78 5 33 -26 28 -69 -12z"/>
<path d="M3530 9158 c-11 -12 -28 -23 -36 -23 -12 0 -17 -12 -18 -45 -2 -25
-5 -51 -7 -59 -2 -8 3 -16 11 -18 11 -3 21 13 35 52 20 60 37 80 69 80 31 0
26 29 -6 33 -17 2 -33 -5 -48 -20z"/>
<path d="M3702 9159 c-59 -39 -80 -111 -42 -149 28 -28 117 -30 159 -3 29 19
14 41 -17 24 -28 -15 -105 -14 -120 1 -7 7 -12 19 -12 29 0 12 6 15 25 12 18
-4 33 3 55 26 58 58 21 104 -48 60z m21 -38 c-17 -16 -28 -33 -25 -37 4 -4 1
-4 -6 0 -11 6 -7 15 14 37 15 16 33 29 38 29 6 0 -3 -14 -21 -29z"/>
<path d="M7145 9147 c-38 -38 -45 -76 -19 -97 13 -11 23 -10 61 9 41 20 47 21
55 7 10 -17 48 -22 48 -7 0 5 -15 24 -32 42 -18 18 -37 41 -43 52 -16 33 -33
31 -70 -6z m55 -39 c0 -4 -13 -14 -30 -23 -37 -19 -41 -3 -8 32 20 22 37 18
38 -9z"/>
<path d="M8463 9173 c-8 -3 -11 -14 -7 -29 7 -25 -16 -53 -43 -54 -15 0 -17
36 -3 45 16 10 11 25 -8 25 -26 0 -44 -43 -32 -75 19 -49 109 -19 124 41 8 29
-10 55 -31 47z"/>
<path d="M9359 9157 c-67 -45 -74 -108 -17 -150 24 -18 32 -19 68 -8 36 11 60
34 48 46 -2 2 -22 -2 -43 -9 -65 -23 -102 9 -46 39 44 22 61 43 61 76 0 36
-23 38 -71 6z m22 -37 c-13 -11 -28 -20 -35 -20 -6 1 0 10 13 20 13 11 28 20
35 20 6 -1 0 -10 -13 -20z"/>
<path d="M4605 9140 c-16 -17 -36 -30 -45 -30 -20 0 -48 -86 -33 -101 7 -7 19
4 36 33 14 24 37 54 51 67 l26 24 0 -61 c0 -56 9 -80 28 -69 4 3 6 37 4 76 -3
56 -8 73 -21 81 -14 7 -24 3 -46 -20z"/>
<path d="M5438 9138 c-56 -60 -18 -127 48 -84 23 16 24 15 24 -3 0 -48 25 -66
50 -36 10 12 9 16 -5 21 -14 6 -16 15 -11 45 8 47 -5 50 -54 14 -19 -14 -38
-25 -42 -25 -16 0 -8 27 15 48 18 17 30 20 60 15 31 -5 36 -3 32 10 -6 15 -35
27 -68 27 -11 0 -32 -14 -49 -32z"/>
<path d="M6751 9144 c-12 -15 -21 -33 -21 -41 0 -20 29 -28 61 -16 22 8 29 8
33 -3 9 -23 36 -16 36 8 0 23 -55 78 -77 78 -6 0 -21 -12 -32 -26z m49 -18 c0
-2 -7 -6 -15 -10 -8 -3 -15 -1 -15 4 0 6 7 10 15 10 8 0 15 -2 15 -4z"/>
<path d="M5663 9127 c-33 -37 -48 -84 -34 -106 11 -18 31 -5 31 20 0 32 28 77
52 85 13 4 24 2 26 -5 5 -15 32 -14 32 2 0 21 -22 37 -50 37 -18 0 -37 -12
-57 -33z"/>
<path d="M8935 9149 c-12 -19 -9 -77 4 -93 18 -21 60 -20 88 2 26 19 47 78 32
87 -14 9 -29 -4 -29 -25 0 -23 -44 -55 -64 -47 -19 8 -12 48 10 60 13 8 14 11
3 18 -19 12 -36 11 -44 -2z"/>
<path d="M4380 9130 c-47 -47 -31 -113 21 -86 24 12 26 11 36 -15 19 -50 31
-33 26 34 -7 84 -40 110 -83 67z m50 -29 c0 -4 -12 -13 -26 -19 -26 -12 -26
-7 -1 25 9 13 27 9 27 -6z"/>
<path d="M4784 9125 c-35 -35 -30 -79 8 -83 15 -2 38 4 53 14 14 9 28 14 32
11 3 -3 1 -32 -3 -64 l-9 -58 -51 -5 c-76 -8 -88 -22 -80 -93 l6 -59 -98 6
c-118 8 -512 26 -565 26 -42 0 -58 21 -38 51 8 14 8 19 0 19 -9 0 -10 34 -7
120 5 110 0 147 -17 120 -3 -5 -19 -7 -36 -3 -21 4 -35 0 -50 -13 -29 -26 -40
-50 -33 -68 8 -22 30 -20 70 5 l34 21 0 -86 0 -86 -35 0 c-36 0 -75 -28 -75
-53 0 -11 -22 -13 -102 -10 -57 1 -287 5 -513 7 -225 2 -458 10 -517 16 -107
12 -263 6 -253 -10 3 -4 -3 -7 -12 -6 -9 0 -18 -5 -20 -11 -4 -10 7 -11 44 -6
72 11 168 9 367 -5 98 -6 346 -12 551 -12 205 0 393 -3 418 -6 39 -6 46 -10
51 -34 3 -15 16 -41 30 -56 l24 -29 25 23 c14 13 27 37 31 53 7 35 -25 34 413
13 324 -15 327 -15 349 -40 29 -30 39 -30 60 1 l17 26 266 -6 c280 -7 1412 9
1811 25 666 27 1403 42 1740 35 445 -8 1029 -30 1205 -44 119 -10 234 -8 238
4 5 21 -747 58 -1443 71 -392 7 -1402 -17 -2185 -51 -164 -8 -1612 -12 -1618
-5 -3 3 0 26 6 53 9 39 14 47 34 47 13 0 23 -4 23 -10 0 -5 7 -10 15 -10 27 0
16 27 -18 44 l-34 15 10 66 c16 109 -7 141 -66 95 -26 -21 -47 -26 -47 -12 0
14 23 32 42 32 22 0 24 26 2 34 -22 9 -22 9 -50 -19z m-820 -40 c-25 -19 -40
-19 -24 0 7 8 20 15 28 15 13 0 12 -3 -4 -15z m881 -185 c4 -6 1 -33 -5 -60
-10 -43 -15 -50 -36 -50 -17 0 -27 8 -34 26 -14 35 -12 81 3 87 22 10 66 7 72
-3z m-842 -50 c5 -18 0 -20 -39 -20 -24 0 -44 4 -44 8 0 34 74 45 83 12z m-13
-59 c0 -19 -20 -61 -28 -61 -9 0 -32 44 -32 60 0 6 14 10 30 10 17 0 30 -4 30
-9z"/>
<path d="M5136 9118 c-2 -7 -9 -32 -15 -54 -7 -26 -21 -48 -38 -59 -25 -17
-27 -17 -40 1 -14 18 -13 43 2 92 6 18 4 22 -13 22 -17 0 -22 -8 -28 -45 -13
-87 33 -137 91 -99 28 18 75 104 75 137 0 19 -29 24 -34 5z"/>
<path d="M3405 8480 c-170 -39 -263 -64 -260 -70 2 -3 -9 -5 -24 -2 -29 4 -51
-13 -35 -27 5 -5 79 9 164 31 179 45 273 55 350 39 60 -13 88 -1 49 20 -29 16
-189 22 -244 9z"/>
<path d="M14497 8463 c-4 -3 -7 -12 -7 -20 0 -7 -16 -47 -35 -88 -31 -64 -40
-75 -61 -75 -30 0 -64 -17 -64 -31 0 -7 13 -9 35 -5 l36 7 -31 -55 c-17 -30
-30 -66 -28 -78 4 -29 21 -25 30 7 3 13 20 49 38 80 29 50 35 55 66 55 25 0
34 4 35 18 0 10 3 12 6 5 7 -19 43 -16 43 3 0 14 -8 16 -48 11 -42 -5 -48 -3
-49 14 -1 10 2 19 6 19 7 0 44 76 56 118 6 21 -12 32 -28 15z"/>
<path d="M6514 8445 c-4 -8 -4 -25 -1 -36 3 -12 0 -28 -9 -36 -8 -8 -14 -23
-14 -34 0 -13 -12 -25 -35 -35 -43 -17 -49 -48 -8 -38 23 6 25 5 19 -12 -18
-47 -28 -116 -18 -126 16 -16 32 0 32 32 0 17 5 50 12 74 12 44 13 45 57 48
54 4 53 23 0 22 l-37 -1 19 69 c11 38 17 73 14 79 -9 14 -25 11 -31 -6z"/>
<path d="M6125 8440 c-4 -6 -8 -34 -9 -63 -3 -53 -19 -122 -34 -144 -6 -10
-15 -10 -40 -1 -29 11 -34 10 -62 -17 -38 -37 -40 -77 -5 -93 51 -23 107 27
146 130 24 61 37 182 21 192 -6 3 -14 2 -17 -4z m-77 -245 c12 -12 -16 -40
-42 -43 -28 -4 -32 7 -16 38 9 18 43 20 58 5z"/>
<path d="M3347 8404 c-4 -4 -7 -22 -7 -40 0 -17 -11 -69 -24 -115 -31 -109
-36 -154 -16 -154 9 0 16 11 18 30 2 17 14 68 27 115 27 97 35 162 19 167 -6
2 -13 0 -17 -3z"/>
<path d="M8497 8383 c-3 -10 -10 -41 -17 -69 -11 -48 -13 -50 -40 -46 -56 8
-126 -56 -118 -108 8 -54 71 -51 125 6 22 24 39 58 53 107 12 40 25 79 29 87
4 8 6 21 4 28 -7 18 -31 15 -36 -5z m-57 -173 c-39 -55 -90 -78 -90 -41 0 26
55 71 86 71 l25 0 -21 -30z"/>
<path d="M5093 8383 c-15 -5 -18 -33 -4 -33 21 0 41 13 41 26 0 14 -14 17 -37
7z"/>
<path d="M10915 8341 c-3 -5 -1 -12 5 -16 12 -7 30 2 30 16 0 12 -27 12 -35 0z"/>
<path d="M7440 8316 c-6 -8 -21 -16 -33 -18 -12 -2 -22 -10 -22 -18 0 -8 -10
-34 -23 -57 -22 -42 -21 -73 2 -73 7 0 23 24 36 53 40 87 73 114 100 82 16
-19 30 -19 30 -1 0 39 -65 61 -90 32z"/>
<path d="M3494 8309 c-8 -14 11 -33 25 -25 11 7 4 36 -9 36 -5 0 -12 -5 -16
-11z"/>
<path d="M9448 8303 c-24 -6 -30 -31 -17 -70 8 -26 8 -37 -1 -48 -18 -22 -29
-18 -23 6 7 25 -14 23 -30 -3 -15 -23 -1 -48 28 -48 51 0 81 61 55 110 -9 17
-6 21 22 28 18 4 32 12 31 18 -3 10 -39 15 -65 7z"/>
<path d="M5373 8280 c-30 -13 -43 -25 -43 -39 0 -20 37 -54 50 -46 4 3 13 -2
20 -9 9 -12 7 -17 -9 -26 -12 -6 -33 -9 -49 -8 -19 2 -27 -2 -27 -12 0 -11 12
-15 48 -14 85 1 102 55 29 93 l-36 18 32 17 c17 9 38 16 47 16 8 0 15 7 15 15
0 20 -26 19 -77 -5z"/>
<path d="M7579 8276 c-52 -45 -63 -92 -29 -126 26 -26 81 -26 111 0 l24 21
-51 -6 c-37 -5 -53 -3 -62 8 -10 12 -7 17 18 27 44 18 72 57 59 81 -13 25 -38
23 -70 -5z m41 -21 c0 -2 -10 -10 -22 -16 -21 -11 -22 -11 -9 4 13 16 31 23
31 12z"/>
<path d="M7829 8258 c-34 -38 -46 -74 -32 -97 17 -27 57 -45 86 -37 29 7 38
30 10 23 -24 -5 -73 20 -73 37 0 20 49 76 66 76 8 0 14 7 14 15 0 26 -40 16
-71 -17z"/>
<path d="M8630 8268 c-19 -13 -35 -28 -37 -35 -4 -11 39 -44 72 -57 6 -2 6 -8
-2 -16 -13 -15 -76 -21 -84 -9 -3 5 -13 3 -24 -4 -26 -20 -10 -37 36 -37 103
0 145 59 73 102 l-36 21 23 13 c16 8 28 9 36 3 14 -13 25 3 17 25 -9 22 -35
20 -74 -6z"/>
<path d="M10554 8276 c-37 -16 -39 -37 -7 -82 26 -36 21 -47 -15 -33 -27 10
-49 -1 -38 -19 8 -14 68 -21 89 -10 24 12 21 41 -8 77 l-26 30 27 13 c30 14
44 38 22 38 -7 -1 -27 -7 -44 -14z"/>
<path d="M11331 8277 c-13 -6 -33 -24 -44 -38 -17 -23 -18 -31 -8 -62 13 -39
48 -67 83 -67 13 0 47 12 77 25 39 19 51 29 43 37 -8 8 -26 4 -66 -12 -53 -22
-56 -22 -81 -6 -15 10 -24 21 -20 24 7 7 12 8 40 11 24 2 55 39 55 65 0 35
-35 46 -79 23z m39 -42 c-7 -8 -24 -15 -37 -15 -22 0 -24 2 -13 15 7 8 24 15
37 15 22 0 24 -2 13 -15z"/>
<path d="M4510 8260 c-24 -24 -26 -60 -4 -101 8 -17 13 -37 10 -45 -7 -19 -66
-19 -66 1 0 8 -4 15 -9 15 -14 0 -33 -28 -26 -39 10 -18 68 -28 98 -18 36 12
44 48 21 98 -20 46 -11 76 22 72 11 -1 26 0 34 3 12 5 12 8 -4 20 -27 19 -52
18 -76 -6z"/>
<path d="M5119 8241 c-30 -30 -39 -46 -39 -73 0 -44 15 -58 61 -58 48 0 67 8
80 31 8 16 6 19 -16 17 -14 -1 -25 -6 -25 -10 0 -12 -58 -10 -65 2 -8 13 15
37 40 41 24 5 59 54 52 73 -11 27 -48 18 -88 -23z"/>
<path d="M9914 8265 c-12 -8 -23 -12 -26 -10 -10 11 -73 -42 -76 -64 -5 -32
31 -66 84 -81 49 -14 69 -6 58 23 -4 12 -13 15 -29 11 -27 -7 -85 21 -85 40 0
15 76 56 104 56 11 0 16 6 14 17 -4 23 -20 26 -44 8z"/>
<path d="M10055 8247 c-39 -39 -42 -54 -20 -97 19 -37 76 -57 118 -41 43 17
28 36 -24 32 -46 -2 -59 5 -72 41 -10 28 26 63 65 63 45 0 46 29 0 33 -26 3
-39 -3 -67 -31z"/>
<path d="M10320 8273 c-28 -11 -60 -46 -60 -67 1 -42 46 -76 99 -76 17 0 31 5
31 10 0 11 -7 14 -54 25 l-29 6 34 17 c29 14 34 22 34 52 0 36 -18 47 -55 33z
m19 -54 c-20 -12 -52 -11 -44 2 10 16 49 28 54 17 2 -6 -3 -14 -10 -19z"/>
<path d="M11115 8255 c-15 -14 -25 -36 -25 -52 0 -15 -4 -34 -8 -41 -9 -13
-22 5 -42 61 -9 26 -24 35 -33 19 -9 -14 22 -85 47 -111 23 -23 27 -24 41 -10
14 14 22 42 24 86 2 28 32 43 72 37 31 -5 39 -3 39 9 0 15 -28 27 -68 27 -13
0 -34 -11 -47 -25z"/>
<path d="M3870 8258 c-37 -14 -60 -38 -60 -64 0 -13 -5 -26 -10 -29 -7 -4 -2
-16 12 -31 43 -47 53 -48 118 -12 33 18 60 38 60 45 0 19 -20 15 -65 -12 -46
-28 -70 -32 -79 -10 -3 8 -1 15 4 15 17 0 70 52 70 70 0 27 -21 39 -50 28z m0
-48 c-14 -10 -27 -17 -29 -14 -6 5 31 33 44 33 6 1 -1 -8 -15 -19z"/>
<path d="M4650 8231 c-48 -45 -50 -73 -9 -103 50 -37 162 3 121 44 -6 6 -15 4
-24 -6 -21 -20 -59 -28 -78 -17 -8 6 -12 11 -10 13 3 2 22 12 42 22 41 21 56
49 38 71 -19 23 -36 18 -80 -24z m60 5 c0 -2 -8 -10 -17 -17 -16 -13 -17 -12
-4 4 13 16 21 21 21 13z"/>
<path d="M6202 8258 c-5 -7 -17 -28 -27 -47 -21 -42 -10 -56 57 -65 47 -7 47
-7 46 22 -1 16 2 34 6 41 9 14 -33 61 -55 61 -9 0 -21 -6 -27 -12z m48 -37 c0
-6 -10 -17 -22 -26 -26 -17 -37 -3 -18 20 14 17 40 20 40 6z"/>
<path d="M8003 8248 c-48 -54 -50 -98 -4 -113 25 -8 77 18 91 45 29 55 -46
113 -87 68z m60 -31 c7 -18 -2 -31 -30 -46 -29 -15 -33 -14 -33 8 0 38 51 68
63 38z"/>
<path d="M8208 8250 c-31 -24 -68 -80 -68 -104 0 -30 27 -16 45 24 22 49 39
64 73 65 17 0 27 6 27 15 0 23 -48 24 -77 0z"/>
<path d="M9596 8237 c-15 -19 -26 -39 -26 -45 0 -7 -3 -11 -7 -10 -16 4 -73
-33 -73 -47 0 -20 17 -19 50 5 24 17 29 18 40 5 17 -21 30 -19 72 10 l37 25 3
-22 c2 -12 9 -23 16 -26 15 -5 17 84 2 93 -6 4 -26 -7 -46 -24 -19 -17 -41
-31 -50 -31 -13 0 -13 3 1 29 8 17 19 33 25 36 5 3 10 13 10 21 0 25 -28 15
-54 -19z"/>
<path d="M10692 8260 c-33 -14 -38 -38 -12 -65 25 -27 20 -46 -10 -38 -15 4
-20 0 -20 -16 0 -16 6 -21 28 -21 15 0 33 5 40 12 17 17 15 53 -3 68 -23 19
-18 29 17 38 41 10 49 32 11 31 -15 0 -38 -4 -51 -9z"/>
<path d="M12021 8248 c-24 -64 -40 -96 -50 -102 -13 -9 -15 -36 -2 -36 6 0 34
23 63 51 62 60 95 81 84 54 -3 -9 -9 -34 -12 -56 -9 -56 12 -51 70 17 27 30
50 53 52 51 3 -2 1 -23 -5 -45 -6 -30 -5 -46 4 -58 21 -29 30 -9 30 67 0 92
-16 100 -72 39 l-38 -41 0 33 c0 44 -31 49 -74 13 l-31 -27 9 25 c5 14 7 28 4
31 -12 12 -24 6 -32 -16z"/>
<path d="M12343 8238 c-31 -26 -40 -40 -41 -68 -2 -46 20 -77 64 -89 40 -11
64 -6 64 15 0 9 -12 14 -34 14 -53 0 -92 54 -40 56 71 2 105 44 69 84 -25 27
-36 25 -82 -12z m63 -27 c-4 -6 -19 -11 -34 -11 l-27 0 25 20 c25 19 49 13 36
-9z"/>
<path d="M12773 8260 c-27 -11 -30 -42 -8 -80 26 -45 20 -60 -25 -60 -29 0
-40 4 -40 15 0 17 -16 20 -26 4 -12 -20 29 -47 76 -51 41 -3 45 -1 54 25 10
27 8 35 -19 99 -5 13 0 19 20 24 14 3 24 11 22 18 -5 15 -27 17 -54 6z"/>
<path d="M13410 8253 c-45 -18 -85 -73 -76 -108 7 -28 47 -58 83 -63 34 -4 28
15 -11 33 -46 22 -55 45 -16 45 34 0 90 44 90 71 0 28 -30 38 -70 22z m21 -43
c-25 -21 -57 -27 -46 -9 7 11 42 28 60 28 6 0 -1 -9 -14 -19z"/>
<path d="M3578 8223 c-44 -45 -74 -108 -56 -119 13 -8 38 22 38 47 0 14 61 79
75 79 2 0 -3 -19 -11 -42 -8 -23 -11 -45 -6 -50 9 -9 42 -1 42 11 0 4 14 22
30 41 l30 35 -2 -55 c-3 -47 0 -55 16 -58 13 -3 17 0 13 11 -3 8 -1 34 4 57
17 75 -4 99 -54 60 -25 -20 -25 -20 -30 0 -8 33 -48 25 -89 -17z"/>
<path d="M4868 8237 c-32 -26 -51 -107 -25 -107 8 0 22 19 32 42 20 52 34 62
56 42 22 -19 34 -2 19 26 -14 26 -48 25 -82 -3z"/>
<path d="M13742 8233 c-28 -21 -36 -23 -43 -12 -4 8 -25 14 -45 15 -32 1 -38
-3 -49 -30 -7 -17 -23 -43 -35 -59 -19 -24 -19 -28 -6 -33 11 -4 28 8 53 36
35 39 37 41 45 20 8 -21 8 -21 38 -3 16 9 30 20 30 24 0 3 11 11 24 17 l25 11
-15 -34 c-19 -47 -18 -65 6 -65 12 0 20 6 18 13 -2 6 3 31 11 54 24 73 1 92
-57 46z"/>
<path d="M13897 8238 c-80 -59 -37 -148 73 -148 29 0 40 4 40 15 0 10 -10 15
-34 15 -78 0 -118 42 -52 54 42 8 67 35 59 64 -7 29 -48 29 -86 0z m53 -13 c0
-2 -10 -10 -22 -16 -21 -11 -22 -11 -9 4 13 16 31 23 31 12z"/>
<path d="M14170 8224 c-29 -26 -40 -32 -40 -20 0 32 -26 15 -52 -35 -33 -63
-16 -77 37 -30 20 17 32 31 28 31 -4 0 5 7 21 15 15 8 30 15 31 15 2 0 -3 -24
-11 -52 -8 -33 -10 -56 -4 -62 15 -15 20 -4 41 79 27 106 16 119 -51 59z"/>
<path d="M12540 8228 c-36 -25 -53 -57 -40 -78 7 -11 16 -11 52 0 60 20 63 19
63 -17 0 -44 18 -43 30 2 7 31 6 39 -8 50 -9 7 -17 17 -17 23 0 12 -28 42 -39
42 -5 0 -23 -10 -41 -22z m50 -26 c0 -4 -13 -13 -30 -19 -32 -12 -41 -1 -12
16 21 12 42 14 42 3z"/>
<path d="M6602 8222 c-17 -14 -23 -26 -20 -48 3 -27 6 -29 48 -30 32 0 45 -5
45 -15 0 -17 43 -25 58 -10 9 9 6 13 -10 17 -15 4 -22 16 -27 45 -9 57 -50 75
-94 41z m53 -33 c0 -8 -10 -15 -22 -17 -25 -4 -30 7 -11 26 15 15 33 10 33 -9z"/>
<path d="M12956 8206 c-10 -19 -36 -49 -58 -66 -28 -23 -37 -35 -29 -43 7 -7
16 -6 29 6 13 12 28 15 50 11 21 -4 40 -1 56 9 22 15 24 15 29 -3 8 -31 34
-25 34 8 0 15 4 37 8 50 11 32 -14 29 -60 -8 -21 -16 -41 -30 -45 -30 -12 0 0
38 16 51 18 14 18 49 1 49 -7 0 -21 -15 -31 -34z"/>
<path d="M13236 8219 c-21 -17 -26 -18 -26 -5 0 34 -26 14 -41 -32 -9 -26 -19
-55 -23 -64 -16 -36 19 -17 70 38 44 48 55 54 78 48 20 -5 26 -3 26 11 0 11
-5 15 -15 11 -8 -3 -15 -1 -15 4 0 16 -26 11 -54 -11z"/>
<path d="M3436 8218 c-3 -7 -9 -28 -15 -47 -14 -44 -14 -74 1 -69 14 5 50 107
42 119 -8 13 -24 11 -28 -3z"/>
<path d="M14604 8219 c-47 -13 -52 -39 -15 -70 17 -14 31 -31 31 -38 0 -18
-26 -24 -50 -11 -29 16 -57 5 -40 -15 20 -24 76 -30 105 -11 33 22 32 41 -5
78 -16 16 -30 31 -30 34 0 2 15 4 33 4 38 0 48 6 40 26 -6 16 -23 16 -69 3z"/>
<path d="M4982 8188 c-8 -21 -8 -36 -2 -42 14 -14 30 5 33 39 3 39 -16 41 -31
3z"/>
<path d="M10852 8195 c-15 -33 -15 -45 1 -45 14 0 48 55 39 64 -12 13 -29 5
-40 -19z"/>
<path d="M2483 8051 c-6 -26 -22 -75 -35 -107 -23 -58 -24 -59 -62 -59 -50 0
-57 -19 -12 -31 l35 -9 -24 -57 c-33 -76 -43 -138 -22 -138 9 0 17 14 22 37 4
20 18 65 32 100 20 51 30 64 52 69 62 13 76 41 18 36 l-39 -4 17 26 c10 14 15
33 11 41 -3 9 -2 14 2 11 9 -5 42 88 42 117 0 37 -26 14 -37 -32z"/>
<path d="M2610 8077 c0 -13 -27 -85 -59 -161 -33 -75 -60 -138 -60 -139 0 -1
-4 -15 -10 -30 -27 -71 -1 -63 82 26 38 39 65 66 62 60 -10 -21 -36 -116 -40
-145 -6 -50 19 -30 38 30 25 76 33 147 18 156 -14 9 -58 -24 -93 -71 -33 -43
-36 -37 -9 15 10 20 31 69 46 107 15 39 34 79 41 90 19 27 18 85 -1 85 -9 0
-15 -9 -15 -23z"/>
<path d="M1910 8064 c-29 -25 -82 -124 -115 -218 -11 -30 -25 -50 -36 -53 -21
-6 -26 -29 -7 -35 10 -4 10 -10 0 -32 -19 -42 -15 -66 9 -66 15 0 19 5 15 15
-3 9 1 33 10 53 12 33 21 40 57 48 48 10 48 30 0 28 l-31 -1 24 65 c29 75 49
116 77 156 20 28 21 28 28 7 10 -26 26 -27 34 -2 15 49 -23 70 -65 35z"/>
<path d="M11569 8000 c-23 -24 -43 -57 -49 -83 -6 -23 -16 -60 -23 -82 l-12
-40 -72 -3 c-55 -2 -73 -6 -73 -17 0 -10 17 -15 65 -17 l66 -3 -28 -42 c-15
-22 -47 -68 -70 -101 -38 -54 -44 -72 -23 -72 8 0 94 114 125 165 10 17 28 38
39 48 13 11 17 20 10 23 -14 6 25 148 52 188 30 47 71 60 76 24 5 -34 28 -35
28 -1 0 65 -55 72 -111 13z"/>
<path d="M13550 8025 c0 -8 -17 -48 -37 -90 -37 -74 -38 -75 -75 -75 -27 0
-38 -4 -38 -15 0 -14 11 -19 36 -16 7 1 14 -5 18 -14 3 -8 2 -15 -3 -15 -10 0
-41 -94 -41 -126 0 -15 6 -24 15 -24 8 0 15 9 15 20 0 11 -4 20 -10 20 -5 0
-10 5 -10 10 0 6 6 10 14 10 8 0 17 12 20 28 13 54 39 92 66 93 14 1 40 2 57
3 51 2 39 21 -16 24 l-49 3 34 74 c37 81 42 105 19 105 -8 0 -15 -7 -15 -15z"/>
<path d="M8200 8023 c-14 -2 -32 -7 -40 -10 -8 -3 -20 -7 -26 -8 -94 -21 -178
-64 -160 -82 2 -2 48 11 103 31 55 19 124 37 154 41 64 8 137 -8 146 -32 13
-34 -122 -122 -208 -136 l-36 -5 8 51 c10 59 -4 87 -21 43 -5 -15 -10 -38 -10
-51 0 -13 -4 -27 -10 -30 -5 -3 -10 -17 -10 -29 0 -13 -12 -49 -26 -80 -25
-56 -29 -96 -8 -103 6 -2 14 11 17 29 8 47 46 128 60 128 7 0 30 -11 52 -23
39 -23 40 -24 37 -71 -4 -61 19 -59 32 3 8 37 6 44 -14 66 -13 14 -32 27 -43
31 -16 5 -8 10 33 25 89 31 180 104 180 143 0 56 -97 88 -210 69z"/>
<path d="M7200 8000 c0 -13 54 -40 82 -40 30 0 54 -15 39 -24 -7 -5 -8 -13 -2
-24 5 -9 12 -35 15 -58 7 -37 5 -41 -21 -53 -15 -7 -59 -21 -98 -31 -118 -30
-77 -66 56 -49 40 5 74 11 77 14 3 2 15 -23 26 -58 29 -83 48 -85 64 -8 7 33
16 62 20 65 4 2 43 -2 87 -10 44 -7 81 -14 83 -14 1 0 2 8 2 19 0 15 -55 70
-104 103 -7 5 1 19 22 39 45 42 29 60 -26 29 l-40 -23 -44 36 c-81 66 -238
124 -238 87z m208 -101 c23 -17 42 -33 42 -35 0 -5 -64 -34 -74 -34 -2 0 -7
15 -11 33 -4 17 -9 40 -11 50 -7 25 6 21 54 -14z m52 -89 c-11 -11 -20 -24
-20 -30 0 -5 -13 -10 -30 -10 -42 0 -38 24 8 43 52 22 66 21 42 -3z m78 -29
l33 -28 -28 4 c-72 11 -74 12 -63 33 14 26 18 25 58 -9z m-188 -11 c0 -5 -9
-10 -19 -10 -11 0 -28 -2 -38 -5 -10 -3 -4 1 12 9 36 18 45 19 45 6z m66 -52
c-3 -13 -6 -27 -7 -33 -1 -12 -17 25 -18 43 -1 6 6 12 15 12 12 0 15 -6 10
-22z"/>
<path d="M12647 7993 c-3 -10 -11 -42 -17 -70 l-12 -53 -44 0 c-32 0 -44 -4
-44 -15 0 -11 11 -15 36 -15 40 0 39 3 10 -77 -23 -62 -27 -93 -12 -93 7 0 18
17 24 39 25 81 52 131 72 131 23 0 27 28 6 36 -12 5 -12 13 0 57 8 29 14 58
14 65 0 19 -28 14 -33 -5z"/>
<path d="M13020 7995 c0 -8 -5 -23 -10 -33 -15 -27 -53 -116 -52 -123 0 -3 -9
-4 -21 -2 -29 6 -80 -14 -72 -28 4 -6 22 -8 46 -4 l38 7 -15 -31 c-21 -42 -30
-101 -15 -101 6 0 14 6 16 13 42 121 46 127 76 127 33 0 39 19 9 27 -23 6 -22
16 11 92 23 53 24 71 4 71 -8 0 -15 -7 -15 -15z"/>
<path d="M6171 7898 c-12 -40 -33 -100 -46 -132 -17 -40 -22 -63 -15 -70 14
-14 23 -2 48 64 20 53 62 190 62 204 0 3 -6 6 -14 6 -9 0 -22 -27 -35 -72z"/>
<path d="M10840 7946 c-5 -15 -10 -35 -10 -44 0 -9 -18 -46 -39 -82 -45 -75
-58 -115 -42 -125 7 -4 17 8 26 29 9 20 29 58 44 84 37 58 58 139 43 154 -8 8
-14 4 -22 -16z"/>
<path d="M14300 7945 c-6 -14 -10 -30 -10 -35 0 -4 -16 -41 -35 -83 -37 -77
-48 -127 -29 -134 7 -2 15 9 19 24 3 15 22 62 41 104 19 42 37 90 40 107 8 39
-13 52 -26 17z"/>
<path d="M5939 7923 c-49 -127 -66 -184 -65 -223 1 -41 3 -45 33 -53 65 -19
142 47 127 108 -9 36 -38 49 -76 36 -17 -6 -33 -9 -35 -7 -3 2 7 33 21 68 29
71 31 84 16 93 -6 3 -15 -6 -21 -22z m57 -207 c-19 -29 -62 -49 -82 -38 -10 6
-13 12 -6 16 5 3 8 14 5 25 -3 14 5 22 34 34 35 14 39 14 50 -1 10 -13 10 -20
-1 -36z"/>
<path d="M9926 7929 c-2 -8 -10 -32 -17 -54 -14 -49 -26 -65 -48 -65 -26 0
-64 -31 -53 -42 6 -6 17 -5 30 3 33 20 34 7 8 -63 -23 -61 -24 -78 -5 -78 4 0
22 38 40 84 l32 83 35 -4 c26 -4 33 -2 30 9 -3 7 -13 15 -23 17 -10 2 -25 9
-33 17 -11 12 -11 14 2 14 19 0 33 67 18 82 -8 8 -13 7 -16 -3z"/>
<path d="M5550 7870 c0 -17 5 -20 28 -17 15 2 27 10 27 18 0 8 -12 15 -27 17
-23 3 -28 -1 -28 -18z"/>
<path d="M10454 7879 c-8 -14 11 -33 25 -25 11 7 4 36 -9 36 -5 0 -12 -5 -16
-11z"/>
<path d="M13713 7883 c-15 -5 -17 -39 -4 -48 13 -7 35 35 24 45 -4 4 -14 5
-20 3z"/>
<path d="M13162 7868 c5 -15 28 -18 29 -3 0 6 -7 12 -17 13 -10 3 -15 -1 -12
-10z"/>
<path d="M2774 7858 c-11 -5 -33 -28 -47 -51 -53 -81 -25 -156 51 -141 18 4
32 11 32 16 0 5 4 7 8 4 11 -7 52 22 52 36 0 11 -9 9 -75 -15 -43 -16 -65 -9
-65 23 0 11 10 20 30 23 16 4 39 16 50 27 40 40 13 100 -36 78z m24 -40 c-2
-6 -15 -18 -28 -27 -21 -14 -23 -14 -16 -1 16 27 28 40 38 40 5 0 8 -5 6 -12z"/>
<path d="M4857 7863 c-7 -12 4 -73 13 -73 4 0 5 -11 3 -24 -6 -31 26 -86 49
-86 22 0 48 49 48 90 0 23 7 35 33 50 17 11 44 20 60 20 17 0 27 5 27 15 0 34
-119 5 -140 -34 -5 -11 -10 -32 -10 -48 0 -15 -5 -35 -10 -43 -14 -21 -26 0
-35 59 -3 25 -8 54 -11 64 -6 18 -19 23 -27 10z"/>
<path d="M3403 7840 c-38 -23 -41 -40 -12 -86 21 -35 19 -54 -7 -54 -9 0 -14
7 -12 18 2 11 -3 17 -17 17 -31 0 -32 -42 -1 -56 64 -29 105 22 67 84 -19 31
-20 36 -5 48 12 10 20 10 35 1 25 -16 39 -15 39 2 0 13 -36 46 -50 46 -3 0
-20 -9 -37 -20z"/>
<path d="M6263 7840 c-40 -24 -57 -77 -42 -133 l10 -39 50 6 c62 8 99 25 99
44 0 10 -6 12 -22 7 -63 -19 -99 -27 -102 -24 -2 2 -6 13 -10 25 -5 17 0 23
32 32 21 7 49 23 62 37 23 24 23 25 5 45 -23 25 -41 25 -82 0z m42 -37 c-11
-7 -26 -13 -34 -13 -12 1 -10 6 8 20 12 11 28 17 34 13 6 -4 3 -11 -8 -20z"/>
<path d="M12382 7845 c-45 -20 -48 -38 -18 -90 15 -25 24 -50 21 -55 -10 -16
-41 -11 -60 10 -24 26 -37 25 -33 -2 2 -14 16 -30 38 -40 29 -15 37 -16 54 -4
41 26 43 43 13 95 l-27 49 30 11 c17 5 38 7 46 4 12 -4 15 -1 12 13 -4 24 -34
28 -76 9z"/>
<path d="M5149 7822 c-34 -23 -48 -44 -49 -69 0 -24 29 -38 60 -28 15 5 20 2
20 -13 0 -19 26 -38 33 -24 2 4 1 35 -1 70 -4 73 -23 92 -63 64z m31 -30 c0
-13 -23 -32 -39 -32 -11 0 -10 4 4 20 19 21 35 26 35 12z"/>
<path d="M13265 7826 c-17 -12 -18 -18 -8 -33 32 -46 44 -76 36 -84 -11 -11
-43 -1 -43 12 0 5 -7 9 -15 9 -8 0 -15 -8 -15 -19 0 -27 53 -47 85 -33 31 14
32 45 5 90 -26 42 -25 45 6 38 21 -6 25 -4 22 11 -4 23 -47 28 -73 9z"/>
<path d="M8633 7808 c-35 -14 -50 -25 -46 -34 5 -15 23 -20 23 -6 0 4 11 8 25
8 l25 2 -30 -41 c-16 -23 -30 -45 -30 -49 0 -13 28 -9 61 7 29 16 30 16 40
-15 10 -27 15 -30 54 -30 38 0 47 5 69 33 25 33 56 106 56 133 0 8 -7 14 -15
14 -8 0 -19 -17 -26 -42 -18 -72 -46 -108 -81 -108 -29 0 -30 1 -25 36 7 40
-8 53 -42 35 l-21 -12 21 35 c19 32 19 57 1 55 -4 0 -30 -9 -59 -21z"/>
<path d="M3800 7800 c-24 -24 -30 -25 -30 -4 0 9 -6 14 -12 11 -7 -2 -13 -16
-13 -30 1 -14 -3 -23 -7 -21 -4 3 -8 0 -8 -7 0 -7 -8 -21 -17 -31 -12 -14 -14
-21 -5 -30 8 -8 23 2 57 40 52 57 70 66 54 25 -15 -41 5 -53 38 -22 16 13 39
33 51 44 l24 20 -7 -36 c-8 -41 12 -65 45 -54 27 9 27 39 0 32 -19 -5 -20 -2
-15 34 8 50 -11 59 -59 31 -33 -20 -34 -20 -39 -1 -7 25 -32 24 -57 -1z"/>
<path d="M4102 7804 c-31 -21 -44 -59 -36 -101 10 -55 69 -71 146 -39 69 29
64 58 -5 31 -51 -19 -102 -17 -102 4 0 8 13 18 28 22 43 11 57 28 57 65 0 32
-2 34 -33 34 -18 0 -43 -7 -55 -16z m58 -29 c0 -16 -46 -32 -58 -20 -8 8 26
35 45 35 7 0 13 -7 13 -15z"/>
<path d="M5332 7805 c-24 -18 -52 -65 -52 -90 0 -29 25 -14 45 28 15 32 27 43
49 47 17 3 29 10 28 15 -2 17 -46 17 -70 0z"/>
<path d="M5533 7808 c-20 -25 -36 -89 -25 -100 14 -14 32 -1 32 22 0 11 5 31
12 45 13 30 -1 55 -19 33z"/>
<path d="M9463 7793 c-33 -33 -46 -35 -53 -8 -5 17 -14 20 -56 20 l-51 0 -17
-48 c-18 -51 -14 -76 10 -56 8 6 14 17 14 23 0 14 40 49 59 54 9 2 11 -3 6
-15 -13 -30 -18 -73 -8 -73 13 0 54 29 95 68 48 45 58 27 28 -48 -22 -55 -21
-80 4 -80 8 0 16 14 19 33 3 17 11 51 18 75 23 73 -18 106 -68 55z"/>
<path d="M11755 7800 c-10 -11 -23 -20 -29 -20 -10 0 -38 -68 -53 -129 -12
-47 22 -16 53 50 17 35 39 71 49 79 15 13 19 12 31 -4 12 -17 14 -17 20 -3 17
45 -37 65 -71 27z"/>
<path d="M12703 7805 c-41 -18 -71 -61 -56 -84 11 -17 70 -18 88 0 14 14 28
11 22 -5 -6 -14 18 -55 26 -46 3 3 7 29 8 59 3 37 0 55 -8 58 -7 3 -13 -3 -13
-12 0 -9 -4 -14 -9 -11 -4 3 -17 -1 -27 -9 -10 -8 -28 -15 -38 -15 -18 0 -18
1 -1 20 10 11 24 20 31 20 7 0 16 5 20 11 12 20 -11 28 -43 14z"/>
<path d="M3573 7800 c-12 -5 -29 -22 -37 -38 -13 -24 -13 -32 -2 -47 12 -17
26 -17 68 0 11 4 18 0 23 -14 10 -31 34 -26 34 7 0 15 1 40 2 55 1 15 0 29 -2
31 -11 10 -67 14 -86 6z m21 -51 c-16 -10 -31 -16 -34 -13 -8 9 41 45 52 38 5
-4 -3 -15 -18 -25z"/>
<path d="M10054 7791 c-17 -10 -36 -33 -43 -50 -11 -26 -11 -34 3 -55 16 -26
72 -43 102 -32 27 10 10 28 -29 31 -37 2 -61 14 -42 22 31 11 80 42 89 56 7
11 6 20 -3 31 -18 21 -39 20 -77 -3z m42 -26 c-11 -8 -25 -15 -30 -15 -6 0 -2
7 8 15 11 8 25 15 30 15 6 0 2 -7 -8 -15z"/>
<path d="M13772 7781 c-49 -36 -59 -63 -37 -97 20 -31 79 -57 106 -49 31 10
17 29 -26 36 -21 4 -45 15 -52 25 -13 17 -10 22 21 52 20 17 45 32 56 32 11 0
20 7 20 15 0 25 -44 17 -88 -14z"/>
<path d="M13962 7790 c-43 -27 -56 -59 -32 -84 17 -17 21 -17 68 -3 l50 14 6
-29 c7 -35 30 -33 33 3 1 13 7 38 14 56 15 37 6 52 -20 36 -14 -9 -20 -7 -29
8 -16 24 -49 24 -90 -1z m72 -25 c6 -17 -29 -35 -67 -35 -21 1 -21 2 6 25 32
29 52 32 61 10z"/>
<path d="M10251 7785 c-22 -12 -71 -86 -71 -106 0 -20 31 -7 47 19 32 52 53
70 75 64 17 -4 20 -2 15 12 -4 10 -7 20 -7 22 0 8 -36 2 -59 -11z"/>
<path d="M10532 7779 c-66 -43 -47 -114 24 -84 31 13 33 12 36 -8 2 -12 10
-23 19 -25 13 -2 16 7 15 55 -1 32 -5 64 -9 71 -12 18 -48 14 -85 -9z m58 -18
c0 -13 -41 -41 -60 -41 -10 1 -6 9 13 25 29 26 47 32 47 16z"/>
<path d="M1610 7777 c-31 -16 -54 -61 -46 -93 5 -19 13 -24 39 -24 21 0 38 7
47 19 7 11 17 18 21 15 5 -2 16 7 25 21 15 23 15 27 0 50 -18 28 -47 32 -86
12z m60 -39 c0 -20 -32 -48 -57 -48 -12 0 -23 3 -23 8 1 29 80 70 80 40z"/>
<path d="M5656 7759 c-51 -61 -19 -92 52 -49 l32 20 0 -23 c0 -29 24 -64 34
-49 10 16 -10 91 -30 113 -25 28 -58 24 -88 -12z m44 -14 c-7 -9 -15 -13 -17
-11 -7 7 7 26 19 26 6 0 6 -6 -2 -15z"/>
<path d="M9641 7766 c-36 -27 -71 -72 -71 -93 0 -26 36 -33 72 -14 33 16 35
16 31 0 -6 -21 15 -62 27 -54 5 3 8 18 8 34 -1 16 4 42 10 58 16 37 2 87 -24
91 -10 1 -34 -9 -53 -22z m59 -13 c0 -10 -72 -73 -82 -73 -15 0 -8 14 24 47
30 31 58 43 58 26z"/>
<path d="M11575 7758 c-35 -42 -49 -73 -42 -92 8 -20 41 -21 60 -1 8 8 17 12
19 9 3 -2 11 2 18 11 16 20 4 105 -15 105 -7 0 -25 -15 -40 -32z m35 -32 c0
-17 -27 -46 -41 -46 -6 0 -2 14 8 30 19 32 33 39 33 16z"/>
<path d="M13080 7744 c-23 -53 -24 -60 -10 -69 11 -7 62 94 54 107 -11 17 -24
6 -44 -38z"/>
<path d="M8384 7770 c-51 -21 -86 -122 -48 -137 15 -6 29 -2 86 22 13 5 17 0
20 -21 4 -35 28 -45 28 -11 0 13 7 41 15 61 23 54 10 61 -43 23 -62 -45 -92
-55 -92 -30 0 28 37 63 65 63 27 0 32 9 13 28 -14 14 -15 14 -44 2z"/>
<path d="M13607 7733 c-33 -92 -10 -117 24 -28 22 59 24 75 6 75 -7 0 -21 -21
-30 -47z"/>
<path d="M10361 7732 c-13 -25 -16 -43 -11 -52 5 -8 11 -12 13 -10 12 13 37
71 37 85 0 27 -19 16 -39 -23z"/>
<path d="M6645 7690 c-8 -14 8 -33 30 -36 20 -3 19 9 -4 30 -14 12 -21 14 -26
6z"/>
<path d="M4867 7604 c-4 -4 -7 -18 -7 -30 0 -23 -32 -116 -49 -142 -4 -7 -30
-16 -57 -20 -35 -5 -50 -12 -52 -25 -3 -14 1 -17 22 -12 14 3 38 7 52 10 14 3
23 2 21 -3 -3 -4 -8 -26 -11 -47 -3 -22 -7 -50 -10 -62 -3 -16 0 -23 11 -23
11 0 14 7 11 23 -2 13 1 28 7 34 7 6 15 29 19 51 6 39 8 41 53 50 26 6 49 9
50 8 2 -1 -8 -30 -22 -64 -14 -34 -25 -71 -25 -82 0 -24 28 -27 37 -4 6 15 33
46 64 71 12 10 13 4 10 -33 -2 -35 0 -44 13 -44 10 0 16 9 16 24 0 13 3 37 6
54 5 24 2 31 -14 37 -13 3 -31 -1 -47 -11 -14 -9 -25 -14 -25 -11 0 10 71 172
85 193 8 12 11 24 8 28 -17 17 -33 0 -58 -58 -27 -63 -28 -64 -76 -73 -27 -6
-49 -9 -49 -7 0 2 9 25 19 52 23 58 30 114 15 119 -5 2 -13 0 -17 -3z"/>
<path d="M10350 7578 c-1 -36 -52 -146 -108 -232 -55 -83 -58 -91 -42 -101 16
-10 40 14 33 31 -4 10 -1 14 8 12 8 -1 28 7 46 20 40 28 45 28 32 -5 -7 -18
-6 -30 1 -37 14 -14 27 6 36 52 9 47 -8 62 -46 40 -35 -20 -37 -16 -10 22 29
41 80 165 80 194 0 16 -6 26 -15 26 -9 0 -15 -9 -15 -22z"/>
<path d="M2060 7558 c-17 -29 -25 -57 -33 -118 -2 -9 -25 -21 -62 -30 -33 -8
-57 -19 -55 -25 6 -12 31 -12 78 -1 30 7 32 6 32 -21 0 -45 -29 -155 -50 -191
-24 -40 -25 -52 -4 -52 31 0 84 155 84 248 0 33 1 34 29 29 16 -3 31 -3 35 0
10 10 -15 33 -35 33 -24 0 -25 34 -3 90 13 32 21 40 38 38 13 -2 21 2 21 12 0
9 -11 16 -27 18 -22 3 -32 -3 -48 -30z"/>
<path d="M3180 7564 c-6 -14 -10 -30 -10 -36 0 -6 -12 -44 -27 -85 -27 -70
-29 -73 -57 -71 -39 4 -46 -20 -8 -28 23 -5 30 -11 30 -30 0 -52 66 -104 94
-76 8 8 3 14 -18 22 -34 13 -44 26 -44 58 0 22 3 23 45 16 38 -5 45 -4 45 10
0 12 -9 16 -34 16 -19 0 -37 4 -41 9 -3 5 5 38 19 73 30 80 42 148 27 148 -6
0 -16 -12 -21 -26z"/>
<path d="M9367 7540 c-28 -25 -60 -68 -84 -115 -25 -50 -44 -75 -55 -75 -10 0
-18 -7 -18 -15 0 -8 5 -15 11 -15 7 0 8 -11 4 -29 -4 -18 -2 -32 6 -36 14 -9
29 12 29 43 0 18 5 22 34 22 29 0 46 13 46 34 0 1 -14 1 -31 -2 l-31 -4 31 59
c40 80 76 121 109 125 19 2 28 9 30 26 5 35 -29 28 -81 -18z"/>
<path d="M10150 7550 c-19 -5 -97 -14 -172 -21 -129 -11 -161 -21 -122 -36 9
-3 66 -1 127 6 61 6 113 9 115 6 8 -8 -36 -104 -83 -182 -25 -42 -45 -83 -43
-92 6 -28 29 -17 42 19 7 19 32 66 54 105 23 38 49 91 58 117 l15 47 57 6 c31
3 65 7 75 8 10 1 18 7 18 12 -1 13 -95 16 -141 5z"/>
<path d="M5425 7539 c-4 -6 -18 -54 -31 -106 -24 -97 -33 -118 -41 -95 -13 36
-97 -17 -108 -69 -5 -22 -2 -36 11 -50 53 -59 121 21 163 192 12 46 26 92 31
102 16 28 -9 53 -25 26z m-79 -249 c-13 -29 -42 -60 -55 -60 -18 0 -22 19 -10
42 15 29 35 44 58 44 16 0 17 -4 7 -26z"/>
<path d="M7525 7524 c-10 -10 -12 -20 -7 -28 6 -7 0 -31 -14 -64 -23 -50 -26
-53 -56 -50 -24 2 -33 -1 -36 -14 -3 -14 3 -18 27 -18 l30 0 -15 -35 c-16 -40
-19 -85 -4 -85 6 0 12 6 14 13 22 74 39 107 58 107 32 0 98 22 98 33 0 6 -20
7 -50 4 -27 -3 -50 -3 -50 0 0 4 11 35 25 70 24 60 26 83 5 83 -5 0 -16 -7
-25 -16z"/>
<path d="M8548 7450 c-21 -43 -39 -69 -49 -70 -22 0 -44 -26 -29 -35 5 -3 14
-4 19 -1 5 3 -2 -20 -15 -52 -22 -54 -29 -82 -20 -82 16 0 36 15 36 27 0 8 9
36 21 63 22 51 20 50 112 65 23 4 37 11 37 21 0 11 -11 13 -57 7 l-57 -6 32
57 c30 53 34 76 12 76 -5 0 -24 -31 -42 -70z"/>
<path d="M7189 7490 c-7 -5 -49 -11 -93 -15 -211 -17 -203 -15 -192 -34 5 -7
32 -8 76 -5 64 6 70 5 70 -12 0 -27 -72 -164 -86 -164 -17 0 -28 -34 -12 -39
7 -3 -20 -10 -61 -16 -46 -6 -76 -15 -79 -24 -4 -11 13 -12 94 -5 55 4 108 7
119 6 20 -1 45 15 45 29 0 5 -18 6 -40 3 l-41 -7 11 27 c5 15 26 56 45 93 19
36 35 76 35 89 0 24 17 31 98 38 41 4 72 20 72 36 0 10 -44 10 -61 0z"/>
<path d="M10512 7454 c2 -11 11 -20 22 -22 13 -3 17 1 14 14 -2 11 -11 20 -22
22 -13 3 -17 -1 -14 -14z"/>
<path d="M3381 7441 c-8 -5 -10 -14 -7 -20 9 -13 33 -15 40 -2 9 14 -18 31
-33 22z"/>
<path d="M11806 7443 c-3 -3 -6 -14 -6 -24 0 -23 -57 -67 -96 -75 -28 -5 -30
-4 -39 38 -12 52 -37 59 -106 29 -54 -24 -77 -47 -62 -62 7 -7 22 -2 47 15 38
25 74 41 81 34 2 -2 6 -16 9 -32 11 -60 51 -72 121 -35 48 25 74 56 75 86 0
23 -13 37 -24 26z"/>
<path d="M4524 7384 c-42 -44 -52 -79 -33 -113 17 -30 65 -38 127 -22 40 11
57 43 18 35 -74 -15 -108 -16 -117 -3 -14 22 -11 26 27 32 68 11 96 61 52 91
-31 22 -36 21 -74 -20z m56 -12 c0 -13 -23 -32 -37 -32 -11 0 -11 5 -3 20 10
19 40 28 40 12z"/>
<path d="M6115 7392 c-72 -31 -105 -52 -105 -67 0 -21 8 -19 80 20 36 19 68
35 73 35 4 0 7 -16 7 -35 0 -87 111 -101 164 -21 35 55 13 61 -37 11 -56 -56
-101 -42 -95 32 3 34 1 38 -22 40 -14 1 -43 -5 -65 -15z"/>
<path d="M4238 7387 c-7 -7 -21 -16 -31 -20 -10 -4 -15 -11 -12 -17 4 -6 -5
-31 -20 -57 -17 -32 -22 -50 -15 -57 13 -13 22 -3 58 64 38 71 54 76 46 16 -4
-25 -3 -46 1 -46 4 0 30 21 57 46 27 25 52 44 54 41 3 -3 -2 -29 -10 -58 -14
-46 -14 -55 -2 -67 8 -8 22 -12 31 -8 14 5 15 9 5 21 -10 12 -10 24 0 59 25
89 -3 119 -63 67 l-35 -31 -6 30 c-6 33 -34 41 -58 17z"/>
<path d="M8267 7368 c-18 -19 -40 -37 -49 -41 -19 -7 -25 -27 -8 -27 6 0 10
-9 10 -20 0 -22 31 -34 76 -28 46 5 42 28 -6 28 -52 0 -49 13 10 42 35 18 45
28 45 48 0 40 -39 39 -78 -2z"/>
<path d="M5130 7367 c0 -7 -11 -28 -25 -47 -42 -58 -26 -100 38 -100 30 0 77
42 77 70 0 29 -26 76 -45 84 -27 10 -45 7 -45 -7z m54 -61 c9 -14 6 -21 -13
-37 -46 -37 -76 -11 -40 35 23 29 36 30 53 2z"/>
<path d="M7645 7358 c-57 -44 -65 -121 -16 -147 28 -16 66 -13 81 4 13 16 12
16 -30 20 -14 1 -31 3 -37 4 -7 0 -13 12 -13 24 0 19 9 27 41 37 47 16 53 23
45 56 -8 30 -34 31 -71 2z m40 -18 c-3 -5 -12 -10 -18 -10 -7 0 -6 4 3 10 19
12 23 12 15 0z"/>
<path d="M8030 7359 c-49 -29 -104 -99 -90 -113 9 -8 23 2 53 36 37 41 74 68
92 68 3 0 -4 -18 -15 -39 -21 -41 -18 -71 6 -71 8 0 14 9 14 20 0 10 7 35 16
54 31 64 -7 86 -76 45z"/>
<path d="M10549 7346 c-25 -19 -49 -41 -52 -50 -12 -31 15 -27 53 8 52 47 64
46 55 -4 -5 -32 -4 -40 8 -40 31 0 37 94 8 110 -25 13 -19 15 -72 -24z"/>
<path d="M11008 7364 c-34 -18 -34 -22 -3 -68 37 -54 35 -58 -25 -60 -34 -1
-39 -19 -8 -30 31 -11 83 7 93 31 3 9 -6 34 -21 56 -20 31 -23 41 -13 48 7 4
17 5 22 2 15 -9 37 6 31 22 -8 19 -41 19 -76 -1z"/>
<path d="M2134 7356 c-13 -10 -17 -29 -18 -77 -1 -57 1 -64 19 -67 33 -5 67
40 67 87 0 23 -3 45 -6 50 -10 15 -45 19 -62 7z m36 -60 c0 -18 -7 -39 -15
-46 -13 -11 -15 -8 -15 18 0 17 -6 33 -12 35 -8 3 -6 6 5 6 9 1 17 6 17 11 0
6 5 10 10 10 6 0 10 -15 10 -34z"/>
<path d="M5560 7363 c-26 -10 -50 -35 -50 -53 0 -9 11 -27 25 -40 14 -13 25
-29 25 -36 0 -16 -33 -24 -54 -12 -17 10 -36 3 -36 -13 0 -14 51 -31 76 -25
32 8 54 34 47 54 -3 9 -16 31 -29 48 l-23 32 28 12 c16 6 37 10 47 8 12 -2 19
3 19 12 0 16 -47 24 -75 13z"/>
<path d="M7865 7342 c-53 -50 -78 -112 -45 -112 5 0 17 16 26 35 21 45 58 75
84 68 22 -6 26 7 8 25 -19 19 -40 14 -73 -16z"/>
<path d="M2263 7338 c-38 -41 -57 -118 -32 -134 15 -9 29 15 29 51 0 39 24 73
53 77 28 4 25 22 -6 26 -14 2 -31 -6 -44 -20z"/>
<path d="M2467 7349 c-23 -13 -47 -62 -47 -94 0 -14 9 -34 20 -45 24 -24 70
-27 70 -5 0 8 -8 15 -18 15 -44 0 -54 42 -21 84 16 20 28 26 44 22 27 -7 38 3
24 21 -13 15 -47 17 -72 2z"/>
<path d="M2657 7349 c-24 -14 -48 -64 -40 -86 10 -26 24 -33 59 -27 26 4 34 0
49 -22 22 -34 33 -20 27 39 -4 49 -14 57 -41 33 -9 -7 -26 -17 -38 -20 -28 -9
-32 18 -7 45 13 14 21 16 36 8 30 -16 50 7 24 27 -23 16 -44 17 -69 3z"/>
<path d="M2873 7353 c-19 -7 -16 -34 7 -68 11 -16 20 -41 20 -53 l0 -24 -36
21 c-41 25 -44 25 -44 8 0 -32 71 -66 99 -48 19 12 16 61 -5 102 -11 23 -13
34 -5 37 6 2 11 10 11 18 0 14 -23 17 -47 7z"/>
<path d="M10697 7327 c-30 -25 -38 -38 -35 -57 4 -33 42 -38 79 -11 l29 22 0
-55 c0 -80 -12 -106 -51 -106 -57 0 -116 -90 -107 -165 5 -51 38 -45 86 17 22
29 46 65 52 79 9 19 18 25 31 22 19 -5 28 20 10 31 -4 3 -3 27 4 53 9 39 11
85 5 176 0 4 -7 7 -15 7 -8 0 -15 5 -15 10 0 20 -36 9 -73 -23z m53 -17 c-11
-21 -48 -45 -57 -37 -5 6 48 57 60 57 4 0 3 -9 -3 -20z m-27 -251 c-10 -17
-32 -47 -50 -67 -36 -41 -44 -28 -19 31 17 42 42 67 67 67 20 0 20 -1 2 -31z"/>
<path d="M3478 7333 c-29 -34 -69 -113 -63 -123 10 -16 30 4 55 56 28 56 50
58 50 5 0 -50 8 -71 27 -71 11 0 14 6 9 23 -3 12 -6 39 -6 59 0 58 -41 87 -72
51z"/>
<path d="M9068 7310 c-30 -30 -39 -45 -36 -67 2 -21 9 -29 28 -31 30 -3 76 32
82 63 4 20 -17 75 -28 75 -4 0 -24 -18 -46 -40z m42 -30 c0 -19 -36 -47 -47
-36 -8 7 25 56 37 56 6 0 10 -9 10 -20z"/>
<path d="M10425 7314 c-18 -44 -19 -64 -2 -64 14 0 49 78 41 91 -11 18 -24 8
-39 -27z"/>
<path d="M3322 7302 c-7 -22 -12 -51 -12 -65 0 -28 18 -47 24 -25 2 7 8 31 13
53 6 22 12 46 14 54 2 8 -3 16 -12 18 -11 3 -19 -8 -27 -35z"/>
<path d="M7235 7322 c-16 -10 -37 -16 -46 -15 -21 5 -57 -73 -41 -89 7 -7 19
0 43 26 26 30 76 66 91 66 2 0 1 -21 -1 -46 -2 -36 0 -45 10 -42 14 5 32 84
24 106 -6 17 -45 15 -80 -6z"/>
<path d="M3620 7295 c-16 -19 -16 -63 -1 -78 8 -8 19 -8 41 0 34 13 34 11 45
-120 l7 -78 -39 6 c-21 4 -46 9 -55 11 -9 3 -26 -4 -37 -15 -17 -17 -18 -25
-9 -58 13 -49 45 -93 66 -93 28 0 63 30 78 65 10 26 18 32 34 28 23 -6 29 21
6 30 -10 4 -16 35 -21 108 -4 56 -15 125 -24 153 -14 45 -19 51 -47 54 -19 2
-36 -3 -44 -13z m50 -24 c0 -5 -7 -14 -15 -21 -12 -10 -15 -10 -15 2 0 8 3 18
7 21 9 10 23 9 23 -2z m26 -284 c8 -8 -26 -75 -41 -81 -18 -7 -44 24 -51 64
l-7 33 47 -5 c26 -3 49 -8 52 -11z"/>
<path d="M2815 6790 c-95 -62 -84 -146 36 -277 22 -24 39 -52 39 -64 0 -11
-15 -36 -34 -55 -30 -30 -40 -34 -85 -34 -42 0 -57 5 -76 25 -27 26 -32 54
-13 73 16 16 1 29 -20 16 -39 -25 -16 -101 40 -130 41 -21 110 -20 149 3 37
22 69 71 69 105 0 22 -46 93 -70 108 -19 13 -70 107 -70 131 0 35 60 89 99 89
38 0 41 -6 24 -40 -8 -16 -17 -45 -20 -65 -5 -31 -3 -35 15 -35 28 0 62 46 62
85 0 18 -9 44 -21 59 -25 32 -80 35 -124 6z"/>
<path d="M5157 6773 c-3 -5 -8 -24 -12 -43 -3 -19 -16 -65 -27 -101 l-21 -67
-54 -12 c-31 -8 -53 -19 -53 -27 0 -15 13 -16 58 -4 17 5 32 8 32 6 0 -1 -11
-33 -25 -69 -27 -73 -33 -120 -12 -114 6 3 14 13 16 24 1 10 16 54 33 96 27
71 31 77 60 80 41 4 50 28 10 28 l-29 0 24 81 c24 86 29 129 14 129 -6 0 -12
-3 -14 -7z"/>
<path d="M6130 6747 c0 -18 -20 -89 -44 -157 l-44 -125 -37 2 c-30 2 -36 -1
-33 -15 2 -10 14 -18 31 -20 15 -2 27 -5 27 -6 0 -2 -7 -23 -15 -46 -19 -53
-20 -103 -2 -97 6 2 12 12 13 23 0 10 3 26 6 34 4 8 12 32 18 53 11 34 14 37
50 37 48 0 70 8 70 26 0 10 -12 12 -49 7 l-48 -5 43 127 c46 134 55 195 29
195 -10 0 -15 -10 -15 -33z"/>
<path d="M5880 6751 c-27 -12 -44 -25 -44 -34 1 -10 -5 -14 -19 -11 -26 4 -77
-41 -77 -68 0 -31 30 -80 81 -135 79 -84 86 -133 23 -159 -67 -28 -164 20
-164 80 0 12 5 27 12 34 9 9 9 12 -2 12 -13 0 -13 2 0 10 8 5 10 10 4 10 -21
0 -44 -37 -44 -69 0 -59 85 -121 166 -121 31 0 87 42 98 72 13 37 -13 91 -68
146 -24 23 -51 60 -61 82 -22 49 -15 60 67 101 80 41 121 39 93 -5 -23 -36
-28 -81 -11 -96 13 -10 21 -7 47 21 26 28 30 38 23 63 -3 17 -7 41 -6 54 0 14
-6 22 -17 22 -9 0 -25 2 -36 5 -11 2 -40 -4 -65 -14z m98 -87 c-11 -23 -13
-24 -19 -7 -3 10 -1 21 5 25 21 14 26 8 14 -18z"/>
<path d="M4166 6728 c-12 -38 -13 -59 -4 -64 6 -4 6 -9 -2 -14 -7 -5 -28 -52
-45 -107 -18 -54 -43 -119 -55 -145 -21 -46 -22 -78 -1 -78 6 0 14 15 19 33 5
17 23 66 40 107 16 41 39 109 50 150 33 125 34 130 17 130 -9 0 -17 -6 -19
-12z"/>
<path d="M4752 6633 c-11 -49 -32 -114 -46 -145 -30 -67 -90 -138 -117 -138
-27 0 -24 32 6 65 20 20 32 25 50 21 30 -8 40 7 20 28 -36 35 -125 -35 -125
-99 0 -47 28 -62 75 -40 61 30 122 133 162 275 27 98 28 120 9 120 -9 0 -20
-30 -34 -87z"/>
<path d="M3607 6668 c-7 -18 -22 -57 -32 -86 -15 -42 -23 -52 -37 -49 -24 7
-35 -13 -15 -28 14 -10 14 -16 1 -63 -19 -65 -5 -105 39 -110 45 -5 60 4 47
29 -9 15 -18 20 -37 16 -25 -5 -25 -4 -21 44 6 59 21 79 60 79 34 0 71 17 63
30 -3 4 -23 6 -45 3 -22 -3 -40 -3 -40 1 0 3 11 34 25 68 27 67 30 84 15 93
-5 3 -16 -9 -23 -27z"/>
<path d="M10503 6684 c-3 -10 0 -20 9 -25 13 -7 13 -16 1 -71 -29 -131 -63
-200 -103 -213 -45 -14 -66 39 -30 75 24 24 50 26 50 4 0 -19 24 -13 27 7 9
50 -58 56 -99 10 -33 -37 -37 -82 -8 -111 62 -62 152 26 184 180 8 41 19 86
22 99 5 17 4 22 -4 17 -8 -5 -12 2 -12 18 0 29 -27 36 -37 10z"/>
<path d="M14306 6678 c-7 -13 -26 -69 -40 -126 -14 -57 -33 -116 -41 -132 -17
-32 -53 -70 -68 -70 -14 0 2 53 24 76 10 11 16 24 12 27 -16 17 -35 4 -55 -37
-36 -75 -5 -126 53 -85 44 31 75 94 104 209 15 58 33 115 41 127 18 28 18 33
-1 33 -8 0 -21 -10 -29 -22z"/>
<path d="M2409 6688 c0 -2 -2 -29 -4 -61 -3 -32 -7 -62 -10 -68 -4 -5 -28 3
-59 21 -30 16 -61 30 -70 30 -29 0 -17 -25 22 -42 l37 -18 -52 5 c-29 2 -55 0
-58 -6 -8 -12 34 -28 84 -30 l40 -3 -51 -54 c-36 -38 -47 -57 -40 -64 8 -8 28
7 69 51 32 33 64 61 71 61 8 0 12 -23 12 -75 0 -59 3 -75 15 -75 10 0 15 16
17 61 l3 61 47 -41 c25 -23 51 -41 57 -41 25 0 8 28 -44 70 -30 25 -51 48 -47
52 4 4 36 8 71 10 40 2 66 8 69 16 3 9 -16 12 -74 12 l-78 0 53 54 c29 30 50
59 47 65 -12 18 -26 12 -26 -11 0 -12 -3 -18 -7 -15 -4 4 -19 -5 -35 -20 l-28
-27 0 42 c0 31 -4 42 -15 42 -8 0 -15 -1 -16 -2z"/>
<path d="M6803 6670 c3 -11 1 -23 -5 -26 -5 -4 -7 -19 -4 -35 3 -16 2 -29 -3
-29 -5 0 -17 -22 -27 -50 -16 -44 -21 -50 -46 -50 -18 0 -28 -5 -28 -15 0 -8
9 -15 20 -15 24 0 24 -3 5 -66 -14 -48 -8 -77 12 -52 6 7 17 35 25 62 11 43
18 51 46 58 39 10 46 43 7 36 -14 -3 -25 -5 -25 -4 0 0 9 24 19 52 11 28 22
74 26 102 5 44 3 52 -11 52 -11 0 -15 -6 -11 -20z"/>
<path d="M8053 6657 c-6 -6 -19 -34 -29 -62 l-19 -50 -3 53 c-3 43 -6 53 -19
50 -14 -2 -16 -14 -14 -60 l2 -57 -34 11 c-37 11 -72 5 -63 -11 4 -5 24 -12
46 -16 22 -4 42 -10 45 -15 5 -8 -87 -66 -137 -88 -16 -6 -28 -17 -28 -23 0
-18 59 -2 103 27 l39 26 -18 -33 c-11 -17 -27 -34 -36 -37 -21 -5 -23 -22 -4
-47 12 -17 16 -14 47 39 30 50 35 54 40 34 3 -13 1 -26 -5 -31 -13 -9 22 -39
35 -31 5 3 6 36 3 75 -4 39 -3 69 2 69 16 0 61 -34 89 -68 18 -22 31 -30 38
-23 11 11 -20 60 -60 91 -29 23 -30 21 15 44 17 9 32 23 32 31 0 20 -12 19
-55 -6 l-36 -21 22 53 c11 30 23 59 26 65 6 17 -13 26 -24 11z"/>
<path d="M3825 6631 c-8 -15 3 -31 21 -31 9 0 14 7 12 17 -4 20 -24 28 -33 14z"/>
<path d="M11110 6619 c0 -24 23 -21 28 4 2 10 -3 17 -12 17 -10 0 -16 -9 -16
-21z"/>
<path d="M12771 6588 c-5 -13 -7 -26 -4 -30 2 -5 -1 -8 -6 -8 -6 0 -11 -4 -11
-10 0 -24 32 -7 46 25 18 43 18 45 -1 45 -9 0 -19 -10 -24 -22z"/>
<path d="M8809 6513 c-30 -16 -55 -36 -57 -45 -4 -22 26 -24 42 -3 6 8 28 21
49 30 l37 15 0 -28 c0 -36 16 -52 52 -52 58 0 108 41 108 89 0 29 -16 26 -32
-6 -16 -33 -58 -59 -81 -50 -12 4 -17 18 -17 42 0 30 -3 35 -23 35 -13 0 -48
-12 -78 -27z"/>
<path d="M9670 6457 c-41 -39 -84 -77 -95 -83 -16 -9 -17 -15 -8 -24 9 -10 21
-6 54 19 29 21 46 28 53 21 17 -17 53 -11 85 15 l30 26 3 -48 c3 -44 5 -48 28
-48 16 0 25 6 25 15 0 8 -6 14 -12 13 -16 -4 -17 43 -2 86 18 51 -2 59 -47 19
-68 -59 -74 -63 -74 -46 0 9 13 32 30 53 27 33 31 55 12 55 -4 0 -41 -33 -82
-73z"/>
<path d="M10011 6519 c-26 -10 -26 -34 0 -97 13 -32 13 -35 -10 -53 -30 -25
-47 -19 -43 15 3 28 -7 33 -26 14 -18 -18 -14 -56 7 -68 30 -16 47 -12 80 16
34 29 40 63 16 104 -20 36 -19 40 15 40 32 0 42 23 14 34 -19 7 -23 7 -53 -5z"/>
<path d="M3118 6502 c-59 -39 -97 -97 -112 -169 -8 -37 -22 -85 -30 -105 -18
-43 -20 -68 -6 -68 15 0 39 54 60 132 20 78 25 87 42 70 7 -7 20 -12 29 -12
26 0 80 49 96 88 12 30 12 37 -2 58 -18 29 -40 30 -77 6z m52 -38 c0 -25 -48
-84 -68 -84 -5 0 -12 11 -14 25 -4 20 2 32 29 55 41 37 53 38 53 4z"/>
<path d="M7500 6499 c-32 -12 -50 -37 -43 -56 3 -8 25 -23 49 -34 58 -24 57
-41 -1 -38 -48 3 -68 -7 -45 -21 20 -13 82 -13 114 0 45 17 33 46 -30 75 -62
28 -62 40 -1 52 21 5 39 13 40 18 3 14 -52 16 -83 4z"/>
<path d="M11033 6493 c-3 -10 -14 -40 -25 -66 -21 -56 -23 -77 -5 -77 10 0 68
130 67 153 0 15 -31 6 -37 -10z"/>
<path d="M11852 6490 c-18 -11 -32 -15 -32 -10 0 18 -29 10 -35 -9 -3 -11 -19
-34 -35 -52 -44 -51 -22 -69 27 -23 15 14 41 35 57 47 l28 20 -7 -22 c-8 -26
5 -27 65 -6 53 19 50 20 50 -10 0 -28 20 -41 48 -30 16 6 16 7 0 19 -10 7 -18
25 -18 40 0 21 -5 26 -24 26 -14 0 -36 -4 -50 -10 -22 -8 -26 -7 -26 10 0 28
-13 31 -48 10z"/>
<path d="M12585 6500 c-11 -5 -31 -9 -45 -10 -29 -1 -72 -64 -138 -202 -47
-98 -47 -98 -27 -98 8 0 34 33 57 73 41 70 43 72 81 72 33 0 45 7 82 47 49 51
64 90 45 113 -14 17 -25 18 -55 5z m17 -63 c-30 -53 -105 -94 -98 -54 8 42 22
61 59 77 52 23 63 17 39 -23z"/>
<path d="M7263 6494 c-25 -11 -55 -74 -48 -102 11 -45 34 -62 81 -62 52 0 74
8 74 26 0 10 -10 12 -45 7 -29 -4 -50 -1 -60 7 -19 15 -20 40 -2 40 8 0 24 11
37 25 19 21 22 30 14 43 -12 18 -31 24 -51 16z"/>
<path d="M10178 6485 c-15 -9 -32 -24 -38 -35 -6 -11 -17 -20 -25 -20 -16 0
-20 -12 -8 -24 4 -4 8 -13 9 -19 0 -7 2 -20 2 -30 2 -22 66 -50 93 -42 12 4
18 13 15 20 -3 8 0 16 7 18 8 3 9 8 2 15 -8 8 -18 7 -39 -3 -32 -17 -46 -12
-46 15 0 14 11 22 39 30 46 12 64 31 59 62 -4 28 -33 33 -70 13z m32 -34 c0
-5 -9 -11 -21 -14 -16 -4 -18 -3 -8 9 13 16 29 19 29 5z"/>
<path d="M11245 6484 c-16 -9 -42 -28 -57 -42 -16 -14 -28 -20 -28 -14 0 25
-20 11 -35 -24 -16 -40 -19 -64 -7 -64 4 0 31 22 60 50 44 42 99 80 116 80 2
0 -2 -21 -10 -47 -11 -37 -12 -48 -2 -55 25 -16 35 -7 37 30 0 20 2 51 3 67 3
26 -1 30 -22 32 -14 2 -38 -5 -55 -13z"/>
<path d="M12336 6475 c-20 -14 -40 -25 -44 -25 -4 0 -18 -26 -31 -58 -13 -31
-39 -90 -58 -130 -37 -81 -39 -92 -19 -92 7 0 33 42 56 93 39 85 45 93 67 89
32 -6 94 36 118 82 20 37 20 38 1 52 -28 20 -48 18 -90 -11z m64 -19 c0 -14
-64 -76 -79 -76 -30 0 -1 53 42 77 29 16 37 16 37 -1z"/>
<path d="M3736 6459 c-24 -58 -31 -109 -14 -109 19 0 53 119 39 133 -7 7 -15
0 -25 -24z"/>
<path d="M4804 6454 c-55 -58 -41 -124 21 -96 19 9 25 8 29 -4 11 -28 30 -8
33 34 3 49 -5 52 -53 16 -38 -29 -41 -27 -19 17 13 24 20 28 40 23 20 -5 25
-2 25 14 0 17 -17 32 -37 32 -3 0 -21 -16 -39 -36z"/>
<path d="M6510 6461 c-35 -35 -37 -49 -10 -83 22 -29 63 -40 97 -27 37 14 26
29 -21 29 -52 0 -73 18 -56 49 10 20 16 23 50 25 24 2 17 31 -8 34 -14 2 -33
-7 -52 -27z"/>
<path d="M6840 6475 c0 -9 9 -15 25 -15 18 0 23 4 19 15 -4 8 -15 15 -25 15
-10 0 -19 -7 -19 -15z"/>
<path d="M6984 6478 c-4 -6 -3 -13 3 -15 30 -10 -20 -88 -62 -95 -17 -3 -20 2
-17 35 3 42 -21 54 -32 15 -13 -52 5 -88 45 -88 26 0 95 64 103 95 11 42 -21
84 -40 53z"/>
<path d="M7101 6464 c-24 -30 -45 -99 -36 -115 9 -14 35 9 35 32 0 36 23 70
52 76 38 7 37 33 -1 33 -20 0 -36 -9 -50 -26z"/>
<path d="M13082 6470 c-53 -24 -79 -62 -64 -95 13 -28 49 -40 92 -31 28 5 30
3 29 -22 0 -15 -6 -49 -13 -77 l-11 -50 -67 0 c-52 -1 -74 -6 -95 -21 -64 -48
-45 -204 25 -204 56 0 134 83 148 156 l6 34 50 -6 c41 -6 50 -4 46 7 -2 7 -24
18 -47 24 -23 5 -40 13 -36 17 14 13 32 166 26 217 -7 67 -28 78 -89 51z m58
-50 c0 -44 -62 -69 -90 -35 -10 12 -7 19 16 40 15 14 38 25 50 25 20 0 24 -5
24 -30z m-46 -287 c-11 -45 -31 -79 -64 -107 -58 -48 -82 -31 -82 62 0 59 17
72 94 72 l58 0 -6 -27z"/>
<path d="M3885 6472 c-24 -17 -55 -66 -55 -88 0 -30 27 -32 63 -4 27 22 42 26
32 9 -10 -16 4 -59 19 -59 16 0 27 111 13 136 -8 15 -55 19 -72 6z m20 -46
c-16 -13 -32 -22 -34 -20 -8 7 32 44 48 44 11 0 6 -8 -14 -24z"/>
<path d="M5178 6463 c-34 -39 -41 -64 -24 -82 15 -15 19 -15 46 1 30 17 30 17
30 -7 0 -34 10 -55 27 -55 11 0 13 6 8 23 -3 12 -6 39 -5 60 1 41 -12 47 -46
22 -27 -20 -37 -18 -24 5 6 11 18 20 26 20 19 0 13 24 -7 28 -9 1 -22 -5 -31
-15z"/>
<path d="M6190 6436 c-16 -25 -30 -52 -30 -60 0 -27 27 -18 40 13 14 36 43 63
61 59 7 -2 15 5 17 15 3 13 -3 17 -27 17 -24 0 -36 -8 -61 -44z"/>
<path d="M13995 6460 c-21 -14 -31 -16 -36 -8 -10 15 -35 -5 -56 -45 -24 -48
-2 -54 52 -13 52 40 71 46 55 17 -13 -26 -13 -74 1 -69 14 5 51 109 44 125 -6
18 -25 16 -60 -7z"/>
<path d="M3275 6439 c-25 -22 -35 -39 -35 -60 0 -25 4 -29 28 -29 15 0 37 7
50 15 18 14 21 14 16 1 -7 -18 14 -58 28 -54 12 4 17 122 5 125 -4 1 -15 9
-23 18 -21 21 -28 19 -69 -16z m65 -13 c0 -10 -61 -48 -67 -42 -10 10 28 46
49 46 10 0 18 -2 18 -4z"/>
<path d="M6415 6430 c-26 -41 -52 -60 -80 -60 -11 0 -15 5 -11 15 4 10 -1 15
-14 15 -27 0 -26 -35 1 -53 37 -27 99 4 130 64 35 69 15 84 -26 19z"/>
<path d="M12111 6445 c-17 -15 -31 -36 -31 -47 0 -18 5 -20 40 -15 34 4 40 2
40 -13 0 -17 17 -37 24 -29 2 2 6 24 10 48 l7 44 -31 -7 c-19 -3 -29 -2 -25 4
3 6 13 10 21 10 20 0 13 24 -8 28 -8 2 -29 -9 -47 -23z"/>
<path d="M12714 6453 c-6 -20 -11 -29 -38 -67 -14 -20 -16 -30 -8 -38 7 -7 13
-10 15 -7 1 2 15 21 30 41 15 20 28 47 29 59 4 27 -20 37 -28 12z"/>
<path d="M12870 6455 c-7 -8 -19 -15 -26 -15 -15 0 -44 -50 -44 -75 0 -25 14
-17 53 30 49 58 72 60 63 5 -5 -31 -3 -40 8 -40 29 0 38 93 10 104 -26 10 -51
7 -64 -9z"/>
<path d="M13737 6439 c-72 -59 -35 -130 38 -74 26 19 35 22 35 11 0 -8 -6 -16
-12 -19 -10 -3 -10 -9 -2 -23 20 -33 30 -25 47 41 17 63 16 92 -3 80 -5 -3
-11 -1 -15 5 -12 19 -50 10 -88 -21z m63 -8 c0 -5 -16 -21 -35 -35 -42 -32
-46 -23 -8 16 27 28 43 35 43 19z"/>
<path d="M6307 6433 c-12 -11 -8 -23 8 -23 8 0 15 7 15 15 0 16 -12 20 -23 8z"/>
<path d="M2296 6238 c-4 -16 -16 -51 -71 -198 -62 -167 -70 -250 -24 -250 21
0 26 15 8 26 -24 15 22 183 92 336 30 63 33 98 9 98 -6 0 -12 -6 -14 -12z"/>
<path d="M5474 6226 c-6 -17 2 -36 17 -36 12 0 12 37 -1 45 -6 3 -13 -1 -16
-9z"/>
<path d="M10785 6208 c-2 -7 -11 -40 -20 -73 -9 -33 -32 -94 -50 -135 -38 -86
-48 -135 -25 -135 8 0 17 15 22 38 4 20 16 54 27 75 28 54 82 222 75 233 -8
13 -24 11 -29 -3z"/>
<path d="M3133 6167 c-12 -18 -39 -60 -60 -94 -35 -58 -40 -62 -65 -57 -21 4
-28 2 -28 -10 0 -8 8 -17 19 -21 17 -5 18 -10 9 -45 -18 -70 32 -112 93 -80
33 18 22 32 -20 25 -46 -8 -55 6 -40 58 10 37 28 47 87 47 25 0 35 5 39 20 7
25 2 34 -19 37 -11 2 -18 -3 -18 -12 0 -9 -9 -15 -25 -15 -14 0 -25 2 -25 5 0
9 52 89 82 125 33 40 35 50 11 50 -10 -1 -28 -15 -40 -33z"/>
<path d="M5050 6135 c0 -26 -11 -68 -26 -102 -51 -114 -67 -164 -56 -175 8 -8
14 -4 21 13 5 13 27 67 49 119 22 52 42 116 44 143 5 41 3 47 -13 47 -16 0
-19 -8 -19 -45z"/>
<path d="M5456 6163 c-4 -10 -26 -51 -48 -90 -38 -67 -44 -73 -74 -73 -30 0
-60 -20 -48 -33 4 -3 20 -3 36 0 l30 6 -31 -61 c-34 -68 -37 -82 -18 -82 7 0
29 33 49 74 30 61 41 73 56 69 26 -7 38 15 14 25 -19 7 -17 12 24 82 24 41 44
80 44 87 0 19 -27 16 -34 -4z"/>
<path d="M3360 6116 c0 -10 9 -16 21 -16 24 0 21 23 -4 28 -10 2 -17 -3 -17
-12z"/>
<path d="M8994 6062 c-64 -47 -69 -56 -54 -103 8 -22 25 -49 38 -60 28 -22 50
-19 129 18 51 24 71 47 53 58 -15 9 -31 -4 -24 -18 4 -7 4 -9 0 -5 -4 3 -26
-2 -49 -13 -55 -24 -93 -24 -107 0 -8 17 -6 20 18 26 33 7 102 61 102 79 0 17
-33 46 -52 46 -8 0 -33 -13 -54 -28z m55 -29 c-16 -18 -69 -46 -76 -39 -8 8 7
27 40 46 34 21 55 17 36 -7z"/>
<path d="M5582 6061 c4 -20 42 -21 46 -1 2 10 -6 15 -23 16 -19 2 -25 -2 -23
-15z"/>
<path d="M8841 6059 c-34 -15 -46 -28 -66 -71 -28 -61 -31 -78 -11 -78 8 0 22
20 32 45 21 56 56 85 101 85 22 0 33 4 31 12 -8 23 -44 26 -87 7z"/>
<path d="M10543 6054 c-24 -14 -43 -20 -43 -15 0 6 -7 11 -15 11 -9 0 -15 -9
-15 -22 0 -13 -21 -68 -46 -123 -25 -55 -48 -106 -51 -112 -3 -8 3 -13 15 -13
15 0 29 16 51 62 17 33 31 67 31 75 0 9 14 13 45 13 100 0 160 75 105 130 -25
25 -26 25 -77 -6z m64 -31 c10 -25 -40 -63 -83 -63 -42 0 -37 16 16 55 40 29
58 32 67 8z"/>
<path d="M7564 6048 c-15 -13 -36 -21 -45 -20 -14 2 -20 -10 -30 -55 -16 -72
-17 -75 -3 -80 6 -2 23 21 38 51 33 67 70 100 96 86 26 -14 38 9 15 27 -26 18
-38 17 -71 -9z"/>
<path d="M9785 6037 c-43 -43 -47 -86 -10 -123 21 -21 33 -25 72 -22 62 4 71
28 10 28 -78 0 -103 64 -40 105 21 14 30 15 45 6 25 -16 30 -14 26 12 -2 17
-11 23 -36 25 -26 3 -39 -3 -67 -31z"/>
<path d="M5991 6045 c-64 -16 -79 -28 -61 -50 7 -8 18 -15 25 -15 7 0 23 -9
36 -19 l24 -19 -27 -11 c-17 -6 -38 -7 -59 -1 -37 11 -44 8 -36 -14 3 -8 22
-18 41 -21 88 -17 143 53 75 94 l-32 20 39 7 c21 3 42 8 46 11 8 4 -1 34 -11
32 -3 -1 -30 -7 -60 -14z"/>
<path d="M8287 5993 c-51 -90 -41 -109 21 -45 26 27 58 55 71 61 21 12 22 11
15 -23 -8 -45 3 -46 58 -6 22 17 44 30 48 30 4 0 0 -20 -8 -44 -13 -37 -14
-47 -3 -60 15 -18 35 -11 27 11 -3 8 1 30 9 50 30 72 12 95 -51 62 -46 -23
-44 -23 -44 0 0 27 -23 32 -57 11 -26 -16 -30 -16 -29 -3 3 37 -22 18 -57 -44z"/>
<path d="M10909 6044 c-40 -26 -71 -78 -67 -115 3 -30 7 -34 41 -42 46 -11
118 2 125 21 3 11 -6 13 -39 12 -83 -5 -87 -2 -41 26 41 24 43 28 40 67 -3 48
-19 56 -59 31z m29 -41 c-2 -9 -18 -26 -37 -37 -37 -21 -36 -11 2 32 24 26 40
29 35 5z"/>
<path d="M4330 6025 c-43 -32 -72 -78 -68 -107 4 -31 49 -36 94 -9 l34 20 -4
-34 c-3 -19 -1 -37 4 -40 16 -10 27 28 34 106 5 65 4 78 -10 83 -29 11 -50 6
-84 -19z m70 -12 c-2 -44 -110 -123 -110 -82 0 17 76 89 94 89 9 0 16 -3 16
-7z"/>
<path d="M7309 6020 c-42 -34 -53 -64 -32 -85 19 -20 41 -19 84 3 l34 18 -4
-34 c-6 -53 21 -35 36 24 16 64 5 75 -44 42 -43 -29 -83 -44 -83 -31 0 19 59
66 75 59 22 -8 36 1 28 19 -9 25 -56 17 -94 -15z"/>
<path d="M7705 6031 c-16 -11 -39 -36 -49 -56 l-19 -35 23 -25 c26 -28 61 -32
123 -14 33 9 52 29 27 29 -5 0 -10 -5 -10 -12 0 -9 -3 -9 -12 0 -7 7 -27 9
-55 5 -23 -3 -43 -3 -43 0 0 3 19 15 43 25 50 23 80 54 75 79 -5 26 -65 28
-103 4z m70 -21 c-10 -16 -85 -52 -85 -41 0 15 51 51 72 51 11 0 16 -5 13 -10z"/>
<path d="M8626 6000 c-56 -63 -42 -108 30 -97 73 12 97 69 48 113 -14 13 -29
24 -33 24 -5 0 -25 -18 -45 -40z m71 -25 c7 -19 -23 -44 -54 -45 -27 0 -28 8
-7 38 18 25 52 29 61 7z"/>
<path d="M9991 6011 c-36 -34 -39 -63 -11 -91 23 -23 39 -25 74 -8 32 14 40
37 31 88 -6 36 -10 40 -35 40 -17 0 -40 -11 -59 -29z m69 -42 c0 -22 -32 -41
-54 -33 -22 8 -20 23 6 51 16 17 24 20 35 12 7 -6 13 -20 13 -30z"/>
<path d="M11080 6031 c0 -5 11 -23 25 -39 14 -17 25 -34 25 -39 0 -5 -18 -19
-39 -31 -43 -24 -54 -42 -40 -63 8 -11 12 -10 27 7 9 12 30 29 45 39 28 18 28
18 60 -14 51 -48 66 -35 25 22 -21 29 -21 31 -4 41 63 37 97 86 61 86 -8 0
-15 -4 -15 -9 0 -4 -19 -21 -42 -36 l-42 -28 -30 37 c-29 34 -56 47 -56 27z"/>
<path d="M2605 5995 c-41 -43 -53 -87 -32 -119 18 -27 70 -40 98 -26 32 18 21
30 -25 30 -54 0 -64 18 -37 69 16 30 23 36 50 35 24 -2 31 2 31 16 0 17 -19
30 -42 30 -6 0 -25 -16 -43 -35z"/>
<path d="M4550 6012 c-33 -14 -90 -85 -90 -111 0 -22 26 -9 55 28 17 22 42 46
58 56 24 15 27 15 27 0 0 -9 -9 -34 -20 -56 -19 -37 -20 -59 -1 -59 5 0 20 27
35 60 21 47 25 64 16 80 -13 23 -32 24 -80 2z"/>
<path d="M10154 6013 c-3 -10 -12 -33 -20 -51 -24 -55 4 -71 47 -26 13 14 31
30 40 34 13 8 15 5 11 -15 -5 -31 18 -33 56 -7 45 31 47 31 47 -1 0 -20 5 -33
15 -34 12 -3 16 9 18 57 3 68 -4 73 -54 35 -39 -30 -44 -31 -44 -5 0 26 -24
26 -61 -1 -29 -20 -29 -20 -29 0 0 27 -19 37 -26 14z"/>
<path d="M4741 5985 c-47 -54 -17 -90 53 -61 34 14 35 14 45 -15 5 -16 16 -29
24 -29 11 0 14 11 10 48 -6 60 -11 75 -22 68 -5 -3 -14 1 -21 9 -21 25 -56 17
-89 -20z m69 -9 c0 -15 -21 -26 -48 -26 -14 1 -12 5 7 20 27 23 41 25 41 6z"/>
<path d="M5184 5974 l-37 -45 -13 38 c-8 21 -14 39 -14 41 0 1 -7 2 -16 2 -12
0 -15 -6 -9 -22 4 -13 9 -35 12 -51 3 -15 9 -30 13 -32 5 -3 -12 -36 -38 -73
-60 -88 -97 -165 -88 -188 8 -21 18 -11 36 36 26 66 160 263 204 299 9 7 16
20 16 27 0 27 -29 13 -66 -32z"/>
<path d="M2390 5988 c0 -13 -2 -39 -6 -59 -8 -47 13 -67 54 -50 55 23 60 61
14 114 -23 26 -62 23 -62 -5z m45 -75 c-18 -12 -20 -12 -23 1 -2 8 2 25 9 38
l12 23 11 -24 c8 -19 7 -26 -9 -38z"/>
<path d="M3265 5965 c-15 -24 -25 -52 -23 -62 5 -25 33 -22 34 4 1 11 11 37
22 56 20 31 20 47 1 47 -5 0 -20 -20 -34 -45z"/>
<path d="M5689 5986 c-58 -40 -63 -90 -11 -102 15 -3 32 -7 37 -9 17 -4 57 14
51 24 -3 5 -22 9 -42 9 -55 0 -61 15 -20 47 25 19 41 25 56 20 18 -6 21 -3 18
12 -5 27 -48 27 -89 -1z"/>
<path d="M6493 5990 c-18 -11 -33 -24 -33 -30 0 -15 28 -12 57 7 20 13 28 14
31 5 8 -24 34 -42 59 -42 35 0 101 30 108 48 9 25 -4 26 -44 4 -51 -29 -79
-28 -93 3 -14 30 -41 32 -85 5z"/>
<path d="M2771 5968 c-34 -35 -42 -84 -16 -94 9 -4 29 -1 45 6 35 14 44 14 46
-3 3 -34 5 -38 15 -35 7 2 13 29 15 62 2 46 -2 62 -17 77 -27 27 -52 24 -88
-13z m64 -17 c0 -6 -15 -21 -32 -32 -38 -24 -42 -14 -12 25 21 27 44 30 44 7z"/>
<path d="M3395 5982 c-43 -27 -57 -47 -53 -79 6 -52 97 -58 120 -7 14 31 0 98
-22 101 -8 2 -28 -5 -45 -15z m43 -46 c5 -22 -16 -46 -39 -46 -29 0 -33 20 -8
46 25 27 42 27 47 0z"/>
<path d="M3570 5990 c0 -6 -16 -35 -37 -66 -50 -76 -34 -91 39 -35 62 46 72
50 63 21 -4 -12 -1 -27 5 -35 14 -16 75 -20 84 -6 9 14 -22 34 -43 28 -17 -4
-18 -2 -10 20 20 54 2 67 -53 39 -27 -14 -27 -14 -21 15 4 22 2 29 -11 29 -9
0 -16 -5 -16 -10z"/>
<path d="M5515 5962 c-14 -10 -36 -73 -29 -84 9 -14 25 2 41 40 14 34 8 58
-12 44z"/>
</g>
</svg>
