<?xml version="1.0" standalone="no"?>
<!DOCTYPE svg PUBLIC "-//W3C//DTD SVG 20010904//EN"
 "http://www.w3.org/TR/2001/REC-SVG-20010904/DTD/svg10.dtd">
<svg version="1.0" xmlns="http://www.w3.org/2000/svg"
 width="1618.000000pt" height="1214.000000pt" viewBox="0 0 1618.000000 1214.000000"
 preserveAspectRatio="xMidYMid meet">

<g transform="translate(0.000000,1214.000000) scale(0.100000,-0.100000)"
fill="#000000" stroke="none">
<path d="M12010 11704 c-6 -14 -10 -28 -10 -30 0 -3 -12 -29 -26 -58 -19 -39
-31 -52 -43 -49 -28 7 -88 -25 -110 -60 -20 -33 -20 -46 0 -117 9 -32 6 -42
-35 -115 -25 -44 -46 -88 -46 -98 0 -28 32 -17 41 15 4 15 21 52 39 83 l31 55
55 0 c97 0 144 40 144 124 0 43 -4 53 -34 81 -30 28 -33 35 -22 51 7 11 20 40
30 67 10 26 22 47 27 47 5 0 9 7 9 15 0 26 -40 17 -50 -11z m-124 -254 c-32
-60 -35 -62 -41 -38 -13 52 -3 80 35 92 19 7 36 12 37 11 2 -1 -13 -30 -31
-65z m118 35 c42 -64 -2 -125 -89 -125 -42 0 -42 5 6 94 34 62 57 71 83 31z"/>
<path d="M14000 11694 c-6 -14 -10 -29 -10 -34 0 -5 -7 -28 -16 -49 -16 -40
-16 -40 -58 -35 -53 8 -97 -13 -124 -58 -42 -71 -36 -136 19 -183 l30 -25 -25
-56 c-32 -70 -34 -104 -5 -104 15 0 19 5 15 18 -4 11 5 44 18 74 23 52 27 56
65 61 91 12 161 94 148 175 -7 37 -32 72 -54 72 -7 0 -13 4 -13 8 0 22 44 128
56 135 22 13 16 27 -11 27 -18 0 -28 -7 -35 -26z m-73 -152 c10 -6 4 -30 -23
-98 -20 -49 -39 -93 -44 -98 -5 -5 -20 3 -34 17 -37 37 -36 103 0 147 15 17
32 29 39 26 6 -2 18 0 26 5 17 11 21 11 36 1z m79 -26 c31 -23 25 -99 -11
-136 -41 -43 -129 -68 -98 -28 5 7 18 36 28 63 46 124 47 126 81 101z"/>
<path d="M13584 11627 c-32 -18 -104 -85 -104 -97 0 -5 5 -10 10 -10 11 0 14
2 71 50 47 39 59 38 59 -4 0 -46 -70 -139 -155 -206 -36 -27 -65 -55 -65 -60
0 -23 32 -21 65 4 34 26 35 26 35 6 0 -29 44 -70 75 -70 29 0 65 16 65 29 0
15 -32 22 -46 10 -18 -14 -52 -3 -59 21 -9 27 11 94 35 115 11 10 33 39 50 65
34 53 41 118 14 144 -18 19 -22 19 -50 3z"/>
<path d="M14133 11628 c-4 -7 -6 -23 -4 -36 3 -25 -54 -266 -70 -295 -7 -13
-6 -19 5 -23 21 -8 36 4 36 27 0 11 14 72 30 136 30 116 38 187 21 198 -5 3
-13 0 -18 -7z"/>
<path d="M14303 11596 c-40 -34 -41 -45 -8 -76 24 -22 24 -25 9 -48 -40 -60
-35 -124 10 -136 108 -29 148 56 68 147 -16 17 -13 22 36 68 30 28 52 55 49
62 -2 8 -27 12 -68 12 -56 0 -68 -4 -96 -29z m79 -37 c-35 -33 -46 -38 -57
-29 -18 15 -19 36 -3 46 11 7 66 20 93 23 6 0 -9 -18 -33 -40z m6 -168 c-3
-23 -8 -26 -38 -26 -31 0 -35 3 -38 28 -2 16 4 40 14 54 l17 27 24 -28 c15
-18 23 -38 21 -55z"/>
<path d="M12157 11613 c-4 -3 -7 -27 -7 -52 0 -25 -7 -89 -16 -143 -9 -53 -14
-104 -10 -113 11 -28 28 -11 31 30 1 22 10 91 19 152 10 62 15 117 11 123 -7
12 -19 13 -28 3z"/>
<path d="M12624 11596 c-40 -18 -81 -73 -65 -89 8 -8 19 -2 42 26 32 39 67 48
88 23 15 -18 7 -37 -46 -117 -26 -40 -65 -81 -97 -105 -30 -21 -59 -47 -65
-57 -19 -30 13 -32 56 -3 l38 26 5 -22 c3 -13 17 -29 31 -35 33 -16 108 -4
123 19 13 22 1 35 -18 19 -8 -7 -34 -11 -58 -9 -65 5 -64 36 6 142 70 104 78
135 43 170 -29 29 -39 31 -83 12z"/>
<path d="M12845 11597 c-27 -21 -11 -38 24 -26 16 6 55 9 87 7 l59 -3 -83 -55
c-45 -30 -81 -59 -79 -65 2 -6 25 -9 55 -7 61 4 118 -12 132 -38 19 -36 -16
-88 -74 -110 -25 -9 -37 -7 -77 14 -47 24 -47 24 -43 3 4 -25 17 -34 67 -48
32 -8 45 -7 80 10 45 22 87 74 87 108 0 38 -45 80 -95 89 l-46 9 66 47 c94 68
89 78 -38 78 -71 0 -109 -4 -122 -13z"/>
<path d="M12302 11363 c2 -10 14 -19 26 -21 19 -3 23 1 20 15 -2 10 -14 19
-26 21 -19 3 -23 -1 -20 -15z"/>
<path d="M7892 11278 c-38 -51 -81 -117 -96 -146 -32 -63 -59 -165 -51 -191 5
-18 -26 -56 -80 -95 -19 -14 -19 -15 -2 -22 12 -4 30 3 57 24 l38 31 16 -24
c25 -38 70 -56 129 -53 38 2 53 7 55 19 3 14 -4 16 -42 12 -58 -7 -103 11
-122 50 -15 28 -15 30 14 61 38 40 114 150 140 202 47 94 63 224 26 224 -7 0
-44 -42 -82 -92z m62 -18 c-16 -69 -42 -125 -90 -193 -19 -26 -34 -50 -34 -55
0 -4 -9 -13 -20 -20 -12 -7 -18 -17 -15 -21 2 -5 -2 -12 -11 -15 -11 -4 -14
-1 -10 12 2 9 8 33 11 52 11 52 60 145 121 227 30 40 56 73 58 73 2 0 -2 -27
-10 -60z"/>
<path d="M2390 11334 c-14 -7 -52 -23 -85 -35 -76 -27 -174 -122 -213 -207
-36 -79 -38 -201 -4 -249 46 -65 159 -80 234 -30 50 34 64 65 52 123 l-9 49
85 10 c64 8 85 14 85 25 0 8 -6 14 -13 12 -7 -1 -60 -5 -117 -9 -70 -4 -109
-11 -116 -20 -14 -16 -10 -21 21 -26 27 -4 46 -53 35 -94 -13 -53 -114 -85
-183 -58 -55 22 -76 67 -69 146 13 142 118 271 251 307 l38 11 -6 -37 c-19
-108 -19 -132 -2 -132 30 0 57 79 53 154 -2 36 -6 68 -8 70 -2 3 -15 -2 -29
-10z"/>
<path d="M4386 11331 c-26 -29 -66 -164 -66 -225 l0 -53 -76 -6 c-80 -7 -98
-13 -89 -28 7 -11 62 -11 89 0 11 4 31 5 44 3 23 -4 24 -8 18 -51 -3 -25 -21
-75 -38 -111 -36 -73 -38 -82 -21 -87 17 -6 83 135 90 195 5 46 8 52 29 52 30
0 31 20 3 27 -20 6 -21 11 -16 77 7 100 49 199 81 193 6 -1 11 5 11 13 0 23
-39 24 -59 1z"/>
<path d="M3234 11258 c0 -24 -8 -95 -18 -158 -10 -63 -22 -140 -26 -170 -4
-30 -11 -65 -15 -78 -7 -21 -5 -23 20 -20 27 3 28 4 30 73 0 39 11 136 24 217
23 150 23 178 -2 178 -10 0 -14 -12 -13 -42z"/>
<path d="M13163 11275 c-3 -9 -3 -18 0 -21 9 -9 27 6 27 22 0 19 -19 18 -27
-1z"/>
<path d="M5771 11241 c-12 -16 -36 -65 -55 -109 -73 -169 -116 -200 -116 -81
0 46 -3 59 -15 59 -26 0 -18 -126 8 -151 12 -10 27 -19 34 -19 16 0 70 72 90
120 43 100 74 163 78 158 3 -3 -6 -64 -20 -136 -35 -187 -35 -282 0 -282 18 0
28 17 15 25 -14 9 -12 106 5 195 36 186 39 218 25 234 -18 22 -26 20 -49 -13z"/>
<path d="M6336 11238 c-14 -8 -16 -12 -5 -18 13 -9 5 -81 -33 -288 -9 -49 -9
-65 1 -75 10 -10 18 -5 39 21 15 18 45 53 67 78 l40 45 -3 -78 c-3 -68 -1 -82
18 -106 21 -27 50 -37 50 -17 0 6 -9 19 -21 31 -18 18 -20 31 -19 97 3 103 3
102 -21 102 -22 0 -68 -42 -106 -95 l-21 -30 18 91 c24 114 35 239 24 247 -5
3 -18 1 -28 -5z"/>
<path d="M5532 11188 c-11 -18 -23 -51 -27 -73 -5 -22 -9 -47 -11 -55 -1 -8
-8 -49 -13 -90 -14 -96 -37 -174 -56 -190 -17 -14 -11 -30 10 -30 22 0 53 78
65 161 6 41 16 106 23 144 6 39 10 72 10 75 -1 3 7 17 18 30 l19 25 0 -31 c0
-20 5 -31 15 -31 9 0 15 10 15 26 -1 75 -34 94 -68 39z"/>
<path d="M8957 11144 c-12 -12 6 -34 29 -34 29 0 31 15 5 30 -23 12 -26 12
-34 4z"/>
<path d="M10894 11113 c-41 -8 -53 -33 -54 -118 -2 -107 -2 -105 15 -105 11 0
15 19 17 92 l3 93 43 9 c23 5 41 14 39 20 -4 12 -30 16 -63 9z"/>
<path d="M6620 11095 c0 -8 9 -15 20 -15 11 0 20 7 20 15 0 8 -9 15 -20 15
-11 0 -20 -7 -20 -15z"/>
<path d="M11074 11080 c-48 -19 -36 -58 35 -118 57 -48 66 -78 26 -88 -40 -10
-115 5 -115 22 0 9 -7 14 -17 12 -10 -2 -18 -12 -18 -23 0 -22 54 -45 111 -47
43 -2 92 20 99 43 8 25 -25 77 -69 109 -63 45 -58 75 10 67 45 -5 68 8 43 24
-18 11 -77 10 -105 -1z"/>
<path d="M3415 11071 c-11 -5 -35 -23 -53 -40 -41 -38 -37 -61 19 -111 46 -41
49 -57 12 -67 -39 -10 -63 -6 -82 11 -19 18 -41 21 -41 7 0 -5 9 -19 19 -32
22 -27 76 -32 128 -10 52 21 52 46 -1 100 -25 26 -46 51 -46 57 0 19 45 54 78
60 18 4 31 12 29 18 -5 14 -36 18 -62 7z"/>
<path d="M2655 11060 c-4 -7 -2 -15 4 -19 7 -5 -2 -16 -25 -32 -99 -65 -99
-211 -1 -211 85 0 132 74 128 199 -1 22 -8 37 -23 47 -34 22 -75 30 -83 16z
m73 -80 c8 -82 -31 -150 -86 -150 -53 0 -67 45 -34 108 18 33 88 84 107 78 6
-1 11 -18 13 -36z"/>
<path d="M11367 11041 c-75 -48 -110 -140 -74 -195 23 -35 51 -48 102 -48 42
0 136 39 150 62 15 24 -8 23 -61 -3 -66 -33 -126 -35 -154 -7 -27 27 -27 70 0
70 64 0 140 64 140 116 0 31 -3 34 -28 34 -15 0 -49 -13 -75 -29z m73 -14 c0
-27 -92 -89 -108 -72 -8 7 28 45 63 66 36 22 45 24 45 6z"/>
<path d="M8533 11046 c6 -16 -22 -46 -45 -46 -10 0 -15 -10 -15 -32 0 -18 -4
-50 -8 -72 -7 -34 -6 -38 10 -35 13 3 22 20 31 59 12 53 40 90 70 90 17 0 18
22 2 38 -17 17 -51 16 -45 -2z"/>
<path d="M10403 11034 c-12 -13 -22 -27 -23 -29 0 -3 -9 -14 -20 -25 -40 -40
-10 -108 49 -112 97 -5 136 44 96 122 -12 23 -64 70 -77 70 -1 0 -13 -12 -25
-26z m76 -63 c19 -44 1 -71 -47 -71 -68 0 -79 30 -31 85 35 40 58 36 78 -14z"/>
<path d="M2895 11043 c-30 -8 -56 -34 -76 -78 -24 -51 -24 -78 0 -99 24 -22
69 -14 103 17 l24 23 16 -38 c9 -21 24 -38 32 -38 20 0 20 9 1 47 -13 26 -13
36 0 87 8 31 15 64 15 71 0 30 -20 14 -40 -32 -24 -55 -53 -89 -94 -110 -42
-22 -53 -5 -32 51 20 53 35 66 73 69 17 2 28 8 28 17 0 16 -19 21 -50 13z"/>
<path d="M4685 11032 c-36 -23 -50 -39 -60 -72 -4 -14 -15 -30 -23 -36 -14
-10 -14 -17 -2 -53 16 -49 40 -55 40 -10 0 16 5 51 11 76 14 53 53 83 112 83
26 0 37 4 37 15 0 22 -77 20 -115 -3z"/>
<path d="M10199 11030 c-43 -23 -96 -81 -105 -115 -15 -62 32 -109 103 -103
49 4 54 24 7 26 -47 2 -84 26 -84 56 0 27 61 93 108 118 18 10 30 22 27 28 -8
13 -14 12 -56 -10z"/>
<path d="M10605 11042 c-15 -10 -35 -59 -35 -83 0 -12 15 -36 34 -55 27 -27
42 -34 74 -34 69 0 96 54 71 143 -12 44 -46 55 -35 11 16 -63 17 -83 7 -103
-16 -30 -65 -28 -96 4 -29 28 -30 36 -9 77 15 30 9 54 -11 40z"/>
<path d="M6097 10995 c-70 -82 -83 -129 -47 -165 28 -28 98 -27 134 1 34 27
20 50 -15 25 -29 -20 -83 -21 -99 -1 -18 22 3 75 50 120 22 22 40 45 40 52 0
25 -25 12 -63 -32z"/>
<path d="M7020 11017 c-13 -7 -34 -28 -46 -47 -13 -19 -32 -45 -45 -57 -19
-20 -20 -23 -5 -29 9 -3 16 -14 16 -24 0 -10 12 -33 27 -50 26 -32 28 -32 97
-28 77 5 156 37 156 63 0 19 -2 19 -50 -6 -23 -12 -68 -24 -104 -26 -58 -5
-64 -4 -80 18 -23 33 -20 46 13 52 41 8 101 63 101 92 0 25 -24 55 -43 55 -7
0 -23 -6 -37 -13z m44 -55 c-13 -20 -73 -57 -80 -49 -10 9 28 65 50 75 27 13
45 -2 30 -26z"/>
<path d="M8288 11023 c-19 -5 -74 -88 -84 -127 -15 -60 46 -87 100 -45 21 17
26 18 26 5 0 -10 9 -16 21 -16 17 0 20 4 14 29 -4 18 0 41 11 64 17 35 14 67
-6 67 -6 0 -23 -26 -38 -57 -28 -61 -72 -97 -92 -77 -16 16 40 119 65 119 11
0 21 7 23 16 3 18 -14 27 -40 22z"/>
<path d="M9102 10985 c-35 -40 -40 -43 -45 -25 -3 11 -10 20 -16 20 -15 0 -14
-43 2 -59 10 -11 9 -13 -5 -8 -13 5 -20 -2 -28 -31 -13 -48 -13 -52 4 -52 11
0 28 23 27 37 0 1 13 16 29 34 17 17 28 34 26 38 -2 3 10 16 25 29 21 17 29
20 29 9 0 -20 -17 -109 -25 -129 -6 -14 -2 -18 19 -18 21 0 26 5 26 23 0 13 3
58 6 100 7 73 6 77 -14 77 -12 0 -37 -19 -60 -45z"/>
<path d="M8074 11003 c-20 -19 -40 -47 -74 -108 -39 -69 -17 -145 41 -145 41
0 110 18 133 35 33 25 8 33 -46 14 -88 -30 -118 -23 -118 28 0 16 38 52 56 53
20 0 74 69 74 93 0 44 -33 59 -66 30z m36 -31 c0 -14 -31 -52 -51 -63 -19 -10
-20 -9 -8 13 22 43 59 75 59 50z"/>
<path d="M4407 10984 c-10 -13 -21 -40 -24 -59 -7 -44 30 -85 77 -85 40 0 90
47 90 85 0 29 -55 90 -71 79 -16 -10 -9 -36 11 -41 40 -11 33 -74 -10 -88 -28
-9 -60 3 -62 23 -3 34 3 56 18 73 9 10 13 23 9 28 -9 16 -18 13 -38 -15z"/>
<path d="M5881 10973 c-45 -54 -57 -97 -37 -128 20 -30 45 -32 79 -5 21 17 26
18 31 5 7 -18 36 -20 36 -2 0 6 -4 18 -9 26 -6 10 -4 25 5 42 18 36 18 69 -1
69 -15 0 -45 -49 -45 -74 0 -24 -50 -58 -66 -45 -25 20 31 119 68 119 26 0 18
24 -9 28 -14 2 -31 -9 -52 -35z"/>
<path d="M6774 10968 l-47 -43 7 38 c6 29 4 37 -8 37 -9 0 -18 -12 -21 -27 -4
-16 -15 -55 -26 -88 -25 -76 -27 -87 -13 -92 6 -2 25 18 43 45 17 27 50 68 73
93 l43 44 3 -50 c4 -76 10 -95 32 -95 22 0 26 10 11 26 -6 5 -11 40 -13 79 -4
88 -18 93 -84 33z"/>
<path d="M8709 10985 c-19 -14 -44 -37 -55 -51 l-22 -26 6 27 c7 38 -20 29
-31 -11 -5 -16 -13 -42 -19 -59 -21 -65 -22 -67 -4 -64 10 2 27 22 39 43 21
38 40 60 85 99 l21 19 -6 -54 c-6 -60 10 -85 47 -73 24 8 21 31 -4 27 -18 -3
-20 18 -7 85 11 59 -5 71 -50 38z"/>
<path d="M9395 10945 c-23 -37 -41 -55 -55 -55 -25 0 -25 16 -1 57 20 32 18
43 -6 43 -17 0 -45 -67 -41 -99 7 -59 70 -47 121 25 l32 46 14 -34 c9 -24 11
-55 6 -110 -10 -121 -14 -129 -69 -148 -103 -34 -160 -116 -122 -175 20 -30
39 -31 76 -5 27 19 110 139 110 159 0 12 80 31 137 31 53 0 84 13 68 28 -6 6
-44 6 -94 1 -47 -5 -86 -7 -88 -6 -2 2 1 28 7 57 20 108 9 196 -30 227 -23 19
-27 17 -65 -42z m8 -340 c-25 -46 -78 -105 -93 -105 -15 0 -21 36 -11 63 11
28 58 65 99 77 15 5 28 9 29 9 1 1 -10 -19 -24 -44z"/>
<path d="M6605 10971 c-7 -13 -27 -112 -27 -135 1 -19 18 -43 26 -35 2 2 7 29
10 59 4 30 9 70 12 88 6 30 -7 45 -21 23z"/>
<path d="M8925 10958 c-30 -84 -35 -102 -25 -112 6 -6 13 -6 19 0 8 9 31 92
31 113 0 15 -20 14 -25 -1z"/>
<path d="M11418 10313 c-29 -110 -37 -123 -76 -123 -12 0 -38 -7 -57 -14 -42
-18 -48 -42 -7 -31 15 3 42 9 61 12 29 5 33 3 28 -11 -23 -58 -49 -167 -44
-180 9 -22 27 -20 27 3 0 26 49 183 61 195 5 5 27 12 50 15 59 8 64 31 7 31
l-44 0 23 92 c22 88 24 118 6 118 -5 0 -20 -48 -35 -107z"/>
<path d="M3701 10378 c-5 -13 -2 -51 6 -92 29 -154 11 -320 -38 -346 -46 -25
-109 -2 -109 40 0 29 61 70 103 70 41 0 49 16 15 29 -33 12 -77 -4 -115 -41
-39 -37 -43 -73 -12 -112 17 -22 29 -26 68 -26 60 0 93 24 116 85 15 37 17 70
12 218 -2 96 -8 180 -11 186 -11 18 -26 13 -35 -11z"/>
<path d="M6711 10323 c-28 -32 -69 -94 -92 -138 -36 -71 -40 -86 -37 -137 3
-51 0 -60 -26 -87 -39 -41 -25 -60 20 -26 l34 26 31 -25 c36 -30 93 -43 114
-26 19 16 9 33 -15 25 -23 -7 -88 19 -96 39 -3 9 19 43 57 88 34 40 72 96 86
125 44 94 41 193 -7 193 -10 0 -41 -26 -69 -57z m75 -30 c-3 -25 -15 -65 -26
-90 -22 -49 -124 -183 -140 -183 -6 0 -10 19 -10 43 0 30 12 63 41 117 47 86
116 173 131 164 6 -4 8 -25 4 -51z"/>
<path d="M2708 10318 c-40 -17 -48 -26 -52 -52 -3 -17 -12 -80 -21 -139 -8
-60 -22 -125 -31 -145 -14 -34 -13 -38 2 -49 31 -23 80 -25 141 -8 100 29 153
86 153 165 0 44 -40 78 -101 86 l-49 7 45 48 c51 54 55 71 23 93 -30 21 -53
20 -110 -6z m90 -16 c15 -10 -49 -87 -94 -114 l-29 -16 4 50 c3 48 5 51 45 69
46 21 55 22 74 11z m55 -181 c27 -26 16 -80 -24 -121 -34 -33 -126 -65 -163
-56 -22 5 -22 8 -14 73 13 102 16 110 45 122 42 16 133 6 156 -18z"/>
<path d="M3447 10323 c-3 -5 -8 -48 -11 -98 -4 -49 -14 -141 -23 -203 -15
-103 -15 -114 -1 -128 22 -22 42 -9 28 17 -8 13 -6 44 4 106 21 120 31 299 18
307 -6 3 -13 3 -15 -1z"/>
<path d="M5395 10321 c-8 -15 3 -31 21 -31 9 0 14 7 12 17 -4 20 -24 28 -33
14z"/>
<path d="M5091 10272 c-18 -73 -49 -276 -44 -284 12 -21 35 -2 79 63 l49 71 7
-52 c8 -66 35 -105 73 -105 16 0 30 6 33 13 2 7 -5 12 -16 12 -37 0 -57 37
-57 104 0 106 -23 109 -90 8 l-43 -64 5 43 c4 38 18 110 40 212 4 20 2 27 -10
27 -10 0 -19 -17 -26 -48z"/>
<path d="M7778 10284 c-11 -10 3 -34 19 -34 8 0 13 7 11 17 -3 18 -20 27 -30
17z"/>
<path d="M1836 10208 c-13 -170 -15 -254 -7 -267 18 -29 28 2 30 96 1 54 3
129 4 167 1 45 -2 70 -10 73 -7 3 -13 -20 -17 -69z"/>
<path d="M3295 10260 c-8 -13 3 -30 20 -30 20 0 30 21 14 31 -18 11 -26 11
-34 -1z"/>
<path d="M9605 10240 c-3 -5 -1 -19 6 -31 10 -19 12 -20 27 -6 13 13 13 19 2
31 -14 18 -26 20 -35 6z"/>
<path d="M8873 10175 c-17 -7 -54 -35 -82 -62 -47 -45 -51 -53 -51 -95 0 -38
5 -50 26 -67 32 -25 93 -28 154 -6 23 8 47 12 52 9 6 -4 14 0 19 7 11 20 88
115 122 153 l28 31 -5 -60 c-3 -33 -9 -72 -12 -87 -5 -21 -3 -28 9 -28 18 0
37 68 38 143 2 54 -5 77 -20 77 -13 0 -67 -55 -95 -97 -28 -41 -32 -37 -14 14
6 18 9 36 5 39 -12 13 -36 -18 -42 -55 -4 -20 -13 -52 -22 -72 -13 -31 -21
-37 -65 -47 -100 -24 -148 -11 -148 38 0 21 4 28 14 24 19 -7 93 26 134 60 37
32 42 70 13 86 -23 12 -19 12 -58 -5z m47 -35 c0 -13 -104 -80 -125 -80 -23 0
-10 16 43 55 46 34 82 45 82 25z"/>
<path d="M10915 10173 c-56 -30 -96 -66 -120 -108 -51 -86 -21 -131 84 -123
60 4 100 23 83 40 -5 5 -20 4 -36 -2 -40 -15 -102 -12 -116 5 -15 18 -17 17
40 45 99 49 142 99 120 141 -13 23 -16 23 -55 2z m16 -57 c-6 -7 -34 -25 -63
-41 -50 -27 -52 -27 -33 -5 32 36 99 82 103 70 2 -6 -1 -17 -7 -24z"/>
<path d="M5545 10160 c-9 -10 -27 -18 -38 -17 -14 1 -22 -6 -27 -25 -12 -41
-7 -121 8 -126 7 -2 12 5 12 17 0 32 47 119 70 131 26 14 29 6 32 -95 2 -61 6
-80 18 -83 13 -2 14 12 11 90 -1 51 -7 101 -12 111 -13 23 -52 22 -74 -3z"/>
<path d="M11128 10138 c-24 -24 -47 -43 -53 -44 -5 -1 -15 -2 -21 -3 -18 -2
-79 -130 -67 -142 6 -6 17 0 31 16 12 13 17 27 12 30 -6 4 -10 12 -10 18 0 7
4 6 10 -3 11 -15 21 -6 99 86 19 22 23 24 19 9 -41 -141 -43 -155 -28 -169 20
-20 49 -4 32 17 -9 11 -7 32 12 95 14 44 29 89 35 100 6 11 7 22 4 26 -14 14
-34 4 -75 -36z"/>
<path d="M4839 10143 c-37 -39 -49 -66 -49 -107 0 -27 6 -40 26 -53 48 -31
162 -35 172 -5 3 9 -14 12 -60 12 -105 0 -133 38 -83 113 23 34 30 37 71 37
61 0 54 24 -7 28 -38 2 -48 -1 -70 -25z"/>
<path d="M9457 10163 c-2 -5 -14 -38 -26 -75 -12 -37 -32 -80 -43 -95 -85
-112 -100 -104 -97 51 1 102 0 111 -17 111 -16 0 -18 -7 -15 -45 1 -25 8 -49
14 -53 9 -6 9 -10 0 -14 -8 -3 -13 -25 -13 -62 0 -61 19 -101 49 -101 18 0 73
54 109 106 18 27 72 159 72 178 0 9 -28 8 -33 -1z"/>
<path d="M10616 10124 l-56 -45 0 30 c0 42 -30 41 -64 -1 l-26 -33 6 33 c6 28
4 32 -15 32 -15 0 -21 -6 -21 -21 0 -12 -18 -62 -41 -112 -29 -66 -37 -93 -29
-101 13 -13 24 -1 101 112 27 39 52 72 54 72 3 0 -2 -17 -10 -37 -25 -60 -3
-59 69 2 l67 57 -6 -44 c-3 -23 -8 -58 -11 -75 -5 -35 11 -76 28 -71 6 2 11
41 13 88 1 47 6 102 10 123 10 49 0 48 -69 -9z"/>
<path d="M11607 10148 c-31 -11 -62 -28 -67 -39 -12 -21 0 -35 69 -82 22 -16
41 -32 41 -36 0 -4 -18 -18 -41 -30 -33 -19 -50 -22 -85 -17 -35 4 -44 3 -44
-9 0 -35 78 -38 140 -5 76 39 77 67 5 122 -30 24 -51 46 -47 50 4 4 30 13 57
20 50 13 68 25 59 40 -7 11 -21 9 -87 -14z"/>
<path d="M4422 10133 c-15 -15 -34 -37 -42 -48 -8 -11 -23 -27 -33 -34 -18
-14 -18 -13 -12 32 6 39 5 47 -8 47 -9 0 -23 -10 -31 -22 -12 -17 -18 -20 -28
-10 -18 18 -28 15 -28 -8 0 -10 -11 -50 -25 -87 -14 -39 -20 -72 -15 -77 13
-13 23 -3 60 71 l35 68 3 -37 c4 -46 22 -49 58 -10 14 15 38 39 52 55 l27 27
3 -80 c2 -67 6 -81 22 -90 14 -8 26 -7 41 0 26 14 19 36 -9 32 -21 -3 -22 0
-22 92 0 53 -4 98 -10 101 -6 4 -23 -6 -38 -22z"/>
<path d="M4641 10143 c-6 -10 -11 -14 -11 -10 0 5 -16 -10 -35 -33 -36 -44
-49 -75 -43 -107 5 -27 61 -29 104 -4 33 20 34 20 34 1 0 -30 44 -75 65 -67
16 7 15 10 -10 33 -24 22 -26 29 -21 77 11 101 11 117 2 119 -5 2 -15 -15 -23
-37 -19 -57 -69 -115 -99 -115 -29 0 -30 15 -5 55 29 47 60 75 82 75 27 0 19
24 -8 28 -13 2 -26 -4 -32 -15z"/>
<path d="M5353 10148 c-17 -22 -35 -179 -22 -194 13 -16 33 -8 26 10 -3 7 -2
32 3 57 22 126 20 162 -7 127z"/>
<path d="M5753 10131 c-111 -80 -111 -196 1 -208 76 -9 221 44 203 74 -4 6
-25 1 -55 -14 -98 -48 -202 -38 -202 20 0 19 6 23 36 25 42 3 69 15 102 45 26
24 28 49 6 71 -23 23 -46 20 -91 -13z m71 -9 c10 -17 -45 -62 -76 -62 -24 0
-14 21 25 48 34 24 43 26 51 14z"/>
<path d="M6861 10115 c-76 -83 -90 -148 -42 -196 23 -23 38 -29 71 -29 49 0
107 27 92 42 -7 7 -17 6 -30 -1 -49 -26 -132 0 -132 42 1 35 12 54 31 50 25
-7 88 35 95 63 10 38 0 69 -22 72 -14 2 -34 -12 -63 -43z m55 -20 c-6 -17 -54
-50 -62 -42 -3 3 9 22 27 42 31 34 49 34 35 0z"/>
<path d="M7345 10142 c-16 -10 -37 -32 -45 -48 -8 -16 -19 -32 -24 -35 -5 -4
-10 -22 -12 -40 -2 -19 -4 -43 -6 -54 -2 -12 3 -20 11 -20 9 0 23 26 36 67 12
37 28 74 35 83 16 19 75 52 66 36 -4 -6 -3 -11 3 -11 10 0 25 19 19 25 -14 14
-57 13 -83 -3z"/>
<path d="M7537 10125 c-25 -19 -57 -49 -71 -67 l-26 -33 17 41 c10 23 24 41
32 40 24 -2 23 20 -3 33 -28 16 -46 8 -46 -20 0 -10 -14 -48 -31 -85 -48 -101
-20 -101 81 2 l65 66 5 -71 c5 -75 21 -101 47 -79 11 9 11 14 -2 28 -17 19
-21 135 -5 145 15 9 12 35 -4 35 -7 0 -34 -16 -59 -35z"/>
<path d="M7866 10117 c-78 -83 -85 -93 -79 -115 8 -33 20 -27 47 27 26 50 77
101 102 101 16 0 17 -3 18 -90 1 -91 19 -92 29 -2 7 60 5 78 -8 98 -24 38 -61
31 -109 -19z"/>
<path d="M8163 10148 c-6 -7 -19 -37 -29 -67 -29 -81 -95 -97 -80 -19 5 27 14
36 48 51 31 13 39 20 30 29 -8 8 -19 8 -42 -2 -63 -26 -91 -108 -50 -145 17
-16 25 -17 58 -7 22 7 44 22 51 34 9 19 10 8 6 -57 -10 -132 -15 -157 -34
-149 -43 19 -78 16 -108 -10 -27 -22 -66 -115 -43 -101 5 3 2 -8 -6 -24 -11
-21 -12 -36 -4 -55 23 -62 124 -7 173 95 20 44 25 48 37 35 7 -9 16 -16 21
-16 16 0 10 26 -10 44 -16 14 -18 23 -10 49 6 18 13 98 16 180 6 143 2 168
-24 135z m-57 -362 c19 -15 19 -16 -5 -61 -24 -45 -76 -95 -99 -95 -15 0 -15
57 -1 101 20 61 65 84 105 55z"/>
<path d="M9763 10140 c-36 -16 -48 -29 -77 -89 -36 -70 -50 -129 -31 -131 6 0
24 34 41 76 34 85 70 124 114 124 36 0 47 16 21 29 -24 13 -18 14 -68 -9z"/>
<path d="M10141 10143 c-5 -10 -14 -38 -21 -63 -6 -25 -25 -66 -42 -92 -26
-42 -30 -68 -10 -68 4 0 28 28 52 62 44 60 118 138 132 138 4 0 -4 -33 -18
-72 -26 -76 -25 -118 2 -118 11 0 15 6 11 20 -3 11 6 54 19 95 13 42 24 85 24
95 0 38 -48 21 -113 -39 -24 -22 -27 -23 -21 -6 4 11 13 27 21 36 7 9 10 19 6
22 -12 12 -32 7 -42 -10z"/>
<path d="M9950 10140 c-13 -9 -12 -12 4 -25 29 -22 36 -123 10 -142 -25 -18
-83 -17 -90 2 -7 17 39 93 61 102 22 8 18 33 -5 33 -12 0 -32 -19 -55 -52 -57
-85 -43 -134 37 -129 43 2 78 16 90 35 12 18 9 129 -5 155 -14 29 -27 34 -47
21z"/>
<path d="M7059 10103 c-55 -50 -84 -108 -70 -139 14 -32 37 -30 94 6 44 28 47
28 47 9 0 -29 18 -59 35 -59 18 0 20 26 4 36 -8 4 -10 27 -6 65 3 33 1 61 -4
64 -4 3 -20 -12 -34 -33 -25 -38 -96 -88 -108 -76 -3 4 3 24 13 45 25 48 82
93 109 84 23 -7 39 14 20 26 -28 17 -60 8 -100 -28z"/>
<path d="M7735 10130 c-10 -16 -34 -143 -29 -152 3 -4 12 -8 20 -8 10 0 14 12
14 43 1 23 7 59 14 79 7 21 11 40 8 43 -8 8 -20 6 -27 -5z"/>
<path d="M3035 10101 c3 -5 1 -12 -5 -16 -5 -3 -10 -33 -10 -66 0 -46 4 -63
20 -79 35 -35 103 -22 134 25 21 32 13 115 -11 115 -13 0 -15 -9 -10 -44 6
-40 4 -47 -20 -65 -58 -46 -88 -19 -81 74 5 52 3 65 -9 65 -8 0 -12 -4 -8 -9z"/>
<path d="M3295 10088 c-7 -22 -25 -118 -25 -133 0 -33 29 -14 36 23 3 20 10
54 14 74 4 20 5 39 2 43 -9 9 -22 6 -27 -7z"/>
<path d="M9536 10058 c-7 -13 -20 -41 -27 -63 -7 -22 -17 -45 -22 -52 -5 -7
-1 -16 13 -23 27 -14 41 -4 34 23 -3 13 4 44 15 71 12 26 21 52 21 57 0 17
-19 9 -34 -13z"/>
<path d="M1959 9963 c-14 -38 5 -52 26 -20 16 25 14 47 -6 47 -5 0 -14 -12
-20 -27z"/>
<path d="M5027 9483 c-21 -66 -34 -133 -47 -238 -14 -115 -32 -147 -89 -159
-33 -7 -45 -6 -57 6 -25 25 6 75 62 99 43 20 53 32 34 44 -30 19 -140 -80
-140 -127 0 -50 74 -73 144 -44 43 18 63 67 81 207 13 98 35 200 51 244 4 9 0
15 -9 15 -10 0 -21 -18 -30 -47z"/>
<path d="M9885 9482 c-5 -4 -11 -45 -11 -92 -2 -150 -50 -278 -124 -327 -38
-26 -49 -28 -74 -10 -23 17 -9 56 36 97 35 31 57 37 75 19 20 -20 36 1 17 22
-39 43 -122 0 -159 -81 -21 -47 -15 -65 27 -89 63 -36 157 44 202 174 25 72
47 266 32 282 -6 7 -15 9 -21 5z"/>
<path d="M11177 9473 c-22 -25 -42 -76 -57 -150 l-12 -62 -72 -11 c-94 -16
-96 -17 -96 -36 0 -12 6 -15 23 -11 59 15 127 19 127 8 0 -21 -49 -133 -64
-145 -10 -8 -12 -18 -5 -33 11 -31 27 -29 39 5 56 152 65 171 83 166 21 -6 23
18 3 35 -11 9 -10 23 4 84 25 101 38 127 67 127 18 0 24 5 21 18 -4 24 -41 27
-61 5z"/>
<path d="M5836 9451 c-4 -6 -20 -57 -36 -113 -16 -57 -42 -137 -59 -178 -36
-86 -36 -90 -16 -90 8 0 26 17 39 38 31 47 102 116 92 87 -16 -42 -25 -131
-18 -160 7 -26 13 -30 43 -30 24 0 35 5 37 18 3 15 -1 17 -22 11 -26 -6 -26
-5 -26 49 0 30 7 74 15 97 30 86 9 104 -58 49 -20 -17 -37 -29 -37 -26 0 2 9
30 20 63 36 102 52 176 42 186 -6 6 -12 6 -16 -1z"/>
<path d="M7075 9441 c5 -17 -26 -166 -38 -177 -2 -3 -33 -13 -68 -23 -65 -18
-90 -41 -46 -41 13 0 43 7 66 15 22 8 41 11 41 7 0 -4 -9 -40 -20 -81 -11 -41
-20 -88 -20 -104 0 -49 23 -25 37 39 7 32 19 82 26 109 13 50 13 50 60 55 58
6 62 24 6 28 -37 3 -41 6 -36 25 32 141 33 167 2 167 -12 0 -15 -6 -10 -19z"/>
<path d="M12865 9448 c-2 -7 -6 -31 -10 -53 -4 -22 -27 -102 -52 -179 -57
-177 -51 -188 51 -87 l73 73 -4 -69 c-4 -55 -2 -71 11 -82 9 -7 16 -12 17 -10
0 2 2 36 4 74 2 39 5 81 7 95 5 45 -33 37 -95 -20 l-56 -51 35 103 c38 112 55
218 35 218 -6 0 -13 -6 -16 -12z"/>
<path d="M4229 9403 c0 -21 -6 -67 -12 -101 -11 -58 -16 -65 -45 -77 -41 -18
-43 -40 -3 -32 l29 6 -6 -42 c-10 -63 -8 -127 3 -127 8 -1 31 112 34 168 1 9
11 11 36 6 28 -5 35 -3 35 9 0 9 -13 18 -31 22 -31 7 -31 7 -23 54 13 71 11
144 -3 148 -9 3 -13 -8 -14 -34z"/>
<path d="M2955 9338 c-30 -101 -71 -177 -134 -248 -33 -38 -42 -43 -58 -34
-31 19 -27 61 12 138 38 76 65 200 47 218 -12 12 -69 -105 -97 -202 -18 -63
-57 -133 -89 -159 -9 -8 -16 -20 -16 -27 0 -26 29 -14 56 24 l28 39 16 -31
c11 -23 23 -32 46 -34 25 -2 37 5 70 40 21 24 49 57 61 73 l22 30 1 -33 c0
-60 44 -133 69 -117 7 4 2 18 -12 36 -32 44 -30 147 6 257 30 93 33 122 14
122 -9 0 -25 -36 -42 -92z"/>
<path d="M10257 9424 c-3 -3 -1 -14 5 -24 9 -14 8 -32 -1 -75 -14 -61 -24 -69
-106 -84 -26 -4 -41 -12 -43 -24 -3 -14 2 -16 30 -10 18 3 41 10 50 14 44 23
46 13 22 -82 -28 -107 -30 -139 -9 -139 9 0 15 9 15 23 0 31 49 211 58 215 57
20 85 59 35 49 l-31 -6 9 37 c5 20 9 54 9 75 0 29 -4 37 -18 37 -10 0 -21 -3
-25 -6z"/>
<path d="M3370 9301 l0 -111 -28 0 c-15 0 -38 -7 -51 -16 -26 -18 -64 -100
-57 -121 3 -7 1 -13 -3 -13 -5 0 -6 -12 -2 -27 11 -43 53 -43 95 -1 55 55 78
133 79 273 0 105 -2 120 -16 123 -15 3 -17 -9 -17 -107z m-10 -166 c-29 -75
-66 -125 -94 -125 -12 0 -11 38 2 70 19 48 51 80 78 80 21 0 22 -3 14 -25z"/>
<path d="M13135 9360 c-4 -7 -3 -16 3 -22 14 -14 45 -2 40 15 -6 16 -34 21
-43 7z"/>
<path d="M1844 9299 c-30 -29 -54 -58 -54 -65 0 -20 28 -17 39 4 6 11 27 32
47 47 l37 28 -6 -39 c-10 -62 -65 -158 -123 -216 -30 -29 -54 -59 -54 -65 0
-25 26 -12 70 32 24 25 47 45 51 45 4 0 9 -15 11 -32 2 -25 8 -34 26 -36 22
-3 30 12 12 23 -5 3 -10 21 -10 40 0 19 -4 36 -9 40 -5 3 5 32 22 66 21 41 32
79 35 119 4 56 3 60 -17 60 -13 0 -45 -22 -77 -51z"/>
<path d="M4050 9294 c0 -13 -3 -14 -15 -4 -12 10 -21 8 -48 -9 -73 -45 -81
-81 -36 -154 10 -17 16 -34 13 -39 -8 -13 -68 -9 -90 7 -25 17 -37 9 -24 -16
17 -30 72 -42 114 -25 43 18 44 31 11 96 -14 27 -22 56 -19 64 9 24 73 59 105
58 31 -1 40 21 13 32 -22 9 -24 8 -24 -10z"/>
<path d="M3739 9280 c-8 -5 -24 -27 -34 -49 -10 -22 -21 -38 -25 -36 -10 6
-26 -36 -39 -103 -14 -69 -14 -74 5 -70 10 2 26 34 44 84 42 121 77 179 88
146 4 -12 32 -17 32 -6 0 3 -5 14 -10 25 -11 20 -35 24 -61 9z"/>
<path d="M12170 9274 c-14 -9 -44 -35 -67 -57 -33 -32 -41 -36 -36 -19 3 12 3
29 -1 37 -5 13 -10 14 -28 4 -13 -6 -33 -21 -46 -33 l-23 -21 10 27 c6 17 7
29 1 33 -13 8 -30 -3 -30 -19 0 -7 -16 -43 -35 -82 -19 -38 -35 -75 -35 -81 0
-30 30 -8 79 57 56 73 77 87 69 45 -3 -14 1 -30 8 -36 11 -9 25 0 67 43 57 59
104 94 114 85 3 -4 -9 -45 -27 -91 -33 -87 -34 -130 -2 -124 17 3 24 28 11 38
-4 3 6 38 23 79 35 88 34 125 -2 129 -14 1 -36 -5 -50 -14z"/>
<path d="M6420 9272 c0 -5 7 -16 16 -23 22 -18 54 -94 54 -127 -1 -45 -60 -99
-94 -86 -14 5 -21 28 -28 93 -5 42 -24 34 -56 -22 -29 -51 -73 -97 -93 -97
-15 0 -10 94 7 144 12 33 13 51 6 58 -14 14 -40 -46 -53 -122 -14 -74 -1 -110
40 -110 22 0 40 12 74 49 l44 50 14 -31 c8 -17 21 -36 30 -41 24 -15 69 1 106
38 27 27 33 40 33 77 0 59 -46 152 -77 156 -13 2 -23 -1 -23 -6z"/>
<path d="M7703 9258 c-34 -38 -73 -106 -73 -128 0 -12 -4 -19 -10 -15 -5 3 -7
12 -3 20 3 10 -1 15 -11 15 -21 0 -32 -26 -18 -43 22 -28 20 -67 -7 -170 -19
-67 -26 -109 -19 -113 5 -3 13 -2 18 2 14 16 53 151 59 207 1 4 19 14 41 23
42 17 119 95 121 123 0 9 2 27 4 41 6 55 -63 81 -102 38z m70 -22 c14 -36 -24
-103 -77 -135 -18 -12 -36 -21 -39 -21 -12 0 22 93 47 131 27 39 59 51 69 25z"/>
<path d="M7923 9258 c-29 -32 -83 -131 -83 -152 0 -30 31 -13 44 24 7 19 25
55 40 78 25 41 29 43 45 28 23 -21 31 -20 31 4 0 18 -26 40 -48 40 -5 0 -18
-10 -29 -22z"/>
<path d="M12640 9258 c-20 -14 -47 -47 -63 -80 -27 -51 -28 -58 -15 -84 17
-37 84 -63 124 -49 39 14 27 30 -23 30 -50 1 -73 18 -73 54 0 34 62 108 93
113 25 3 30 31 6 36 -8 1 -30 -8 -49 -20z"/>
<path d="M8345 9234 c-19 -20 -39 -49 -45 -65 -7 -16 -16 -26 -21 -23 -5 3 -2
12 6 20 19 19 19 44 1 44 -19 0 -48 -72 -33 -82 6 -4 15 -4 19 -2 4 3 8 3 8
-1 0 -3 -11 -10 -25 -15 -21 -8 -25 -16 -25 -47 0 -21 -14 -76 -31 -123 -39
-109 -46 -144 -28 -138 17 6 100 198 95 220 -5 20 11 28 46 21 53 -10 145 146
119 203 -15 35 -48 30 -86 -12z m49 -57 c-16 -48 -69 -115 -81 -103 -4 4 -7
21 -8 38 0 23 12 44 44 80 25 26 48 45 53 40 4 -4 1 -29 -8 -55z"/>
<path d="M8857 9240 c-21 -18 -38 -26 -42 -20 -14 23 -25 8 -25 -35 0 -25 -9
-68 -20 -97 -12 -31 -16 -56 -11 -61 15 -15 29 1 46 56 36 110 86 167 135 152
18 -6 21 -3 18 12 -6 32 -61 29 -101 -7z"/>
<path d="M3156 9223 c-34 -36 -36 -37 -34 -13 5 45 -26 30 -34 -17 -3 -22 -16
-60 -28 -83 -15 -30 -19 -45 -11 -53 6 -6 12 -9 14 -6 56 85 82 120 107 144
36 34 38 25 16 -67 -15 -62 -12 -98 9 -98 8 0 15 20 18 53 3 28 9 73 13 99 4
33 3 53 -6 63 -18 22 -25 19 -64 -22z"/>
<path d="M3499 9233 c-48 -52 -73 -104 -73 -154 -1 -60 17 -81 73 -83 30 0 47
5 63 21 25 26 19 40 -10 24 -35 -19 -89 -14 -95 8 -10 38 4 67 37 79 18 7 45
25 60 41 26 27 27 31 14 57 -18 38 -38 40 -69 7z m21 -55 c-37 -30 -43 -20
-13 19 23 30 29 33 32 18 2 -11 -6 -27 -19 -37z"/>
<path d="M12327 9230 c-105 -67 -57 -173 58 -126 21 9 39 15 40 14 0 -2 6 -15
13 -30 6 -16 18 -28 27 -28 18 0 19 14 3 39 -9 15 -7 27 10 63 37 75 24 93
-23 32 -45 -58 -155 -94 -155 -51 0 38 77 96 99 74 8 -8 14 -8 22 0 7 7 5 15
-6 27 -23 22 -34 20 -88 -14z"/>
<path d="M4400 9219 c-23 -17 -39 -33 -36 -36 3 -4 -3 -12 -14 -20 -22 -16
-26 -53 -8 -71 19 -19 55 -14 85 12 l28 24 10 -32 c16 -48 29 -32 30 36 1 35
4 69 6 77 8 28 -20 21 -36 -8 -8 -17 -13 -31 -9 -31 4 0 -10 -13 -31 -30 -35
-28 -65 -39 -65 -23 0 18 48 75 73 86 27 12 35 31 18 41 -5 3 -27 -8 -51 -25z"/>
<path d="M8036 9209 c-39 -46 -48 -96 -21 -119 22 -19 85 -30 111 -19 36 13
29 28 -14 27 -92 -1 -108 32 -36 75 35 21 45 32 42 50 -5 39 -41 33 -82 -14z"/>
<path d="M8640 9235 c0 -18 -12 -19 -27 -4 -8 8 -22 5 -52 -12 -65 -36 -52
-48 27 -24 54 17 -2 -54 -59 -74 -31 -11 -32 -4 -2 30 12 14 12 17 -1 22 -18
7 -58 -39 -54 -61 6 -31 35 -37 75 -17 21 11 41 21 45 23 4 2 12 -15 18 -38
11 -41 29 -58 50 -45 8 5 6 13 -6 27 -22 24 -22 84 0 127 20 38 20 61 1 61 -8
0 -15 -7 -15 -15z"/>
<path d="M13478 9230 c-43 -23 -88 -93 -88 -137 0 -46 29 -75 81 -83 51 -7
161 11 184 30 26 22 3 30 -40 15 -57 -20 -159 -19 -180 1 -25 25 -16 67 15 70
61 5 116 31 127 60 3 9 1 26 -5 40 -14 29 -43 31 -94 4z m68 -21 c9 -16 -15
-36 -59 -47 -47 -13 -46 2 3 36 37 25 46 27 56 11z"/>
<path d="M4587 9233 c-3 -5 -10 -28 -17 -53 -7 -25 -20 -62 -30 -82 -13 -27
-15 -40 -6 -46 7 -7 30 13 71 58 33 38 63 69 66 69 4 1 3 -18 -2 -41 -12 -63
-11 -88 4 -88 9 0 18 27 26 79 18 111 6 125 -55 66 -19 -19 -38 -35 -40 -35
-2 0 -1 18 2 40 4 26 3 40 -4 40 -6 0 -13 -3 -15 -7z"/>
<path d="M8998 9203 c-40 -43 -68 -92 -68 -122 0 -30 39 -61 75 -61 39 0 124
25 149 44 36 28 6 34 -51 10 -66 -27 -115 -31 -133 -9 -18 21 -3 52 28 58 37
8 96 49 100 70 5 24 -16 47 -42 47 -12 0 -38 -17 -58 -37z m72 -3 c0 -5 -19
-19 -42 -31 l-43 -21 29 31 c29 30 56 41 56 21z"/>
<path d="M11240 9225 c0 -8 5 -15 10 -15 6 0 18 -15 27 -34 20 -44 5 -89 -37
-106 -62 -26 -92 19 -49 74 18 23 19 46 1 46 -15 0 -52 -68 -52 -97 0 -45 30
-67 81 -60 22 3 49 13 59 22 45 41 50 120 9 163 -23 25 -49 29 -49 7z"/>
<path d="M11442 9206 c-22 -20 -47 -36 -55 -36 -11 0 -18 -13 -22 -37 -4 -21
-10 -48 -16 -61 -14 -35 -11 -72 6 -72 8 0 20 19 29 49 18 61 58 125 92 148
22 14 31 15 57 5 36 -13 46 -8 31 16 -6 10 -27 18 -47 20 -29 3 -43 -3 -75
-32z"/>
<path d="M6020 9216 c0 -8 -6 -16 -14 -19 -8 -3 -26 -31 -41 -61 -24 -49 -26
-60 -15 -85 18 -44 60 -58 115 -37 35 14 48 26 64 59 29 60 15 109 -39 137
-46 23 -70 26 -70 6z m73 -44 c19 -17 22 -63 6 -94 -13 -24 -72 -50 -94 -42
-8 4 -20 14 -25 23 -11 22 21 95 49 111 12 6 19 15 16 20 -8 14 26 0 48 -18z"/>
<path d="M7162 9184 c-54 -59 -63 -91 -32 -116 28 -23 37 -23 78 2 47 29 57
62 33 116 -11 24 -24 44 -28 44 -5 0 -28 -21 -51 -46z m58 -44 c0 -31 -22 -50
-59 -50 -28 0 -26 12 5 49 33 40 54 40 54 1z"/>
<path d="M13275 9218 c-11 -6 -30 -19 -41 -30 -21 -19 -21 -19 -17 6 4 19 1
26 -10 26 -10 0 -16 -15 -21 -49 -3 -27 -15 -60 -26 -74 -11 -14 -20 -35 -20
-46 0 -35 30 -24 48 17 29 65 111 146 129 128 4 -3 2 -34 -4 -69 -10 -59 -4
-97 16 -97 11 0 24 154 16 180 -7 22 -38 26 -70 8z"/>
<path d="M10405 9192 c-49 -30 -95 -89 -95 -122 0 -51 57 -75 112 -46 24 13
27 12 31 -5 6 -22 57 -26 101 -9 46 17 31 33 -24 25 -27 -4 -50 -4 -50 0 0 4
8 29 17 54 18 53 13 81 -16 81 -10 0 -21 9 -24 20 -6 25 -14 25 -52 2z m40
-45 c13 -51 -47 -123 -84 -100 -29 18 -24 43 17 83 45 46 59 49 67 17z"/>
<path d="M9945 9180 c-33 -13 -65 -55 -72 -93 -10 -65 47 -70 125 -10 l34 26
-3 -58 c-3 -40 0 -60 8 -62 18 -6 24 32 21 117 l-3 75 -33 2 c-18 1 -39 3 -45
6 -7 2 -21 1 -32 -3z m62 -47 c5 -13 -68 -63 -92 -63 -22 0 -11 39 18 63 22
19 68 19 74 0z"/>
<path d="M13055 9167 c-22 -34 -32 -117 -13 -117 9 0 18 18 25 48 6 26 14 57
18 70 10 29 -10 29 -30 -1z"/>
<path d="M2022 9045 c-15 -33 -15 -35 1 -35 19 0 50 37 42 49 -11 19 -31 12
-43 -14z"/>
<path d="M2363 8998 c-57 -63 -105 -176 -124 -293 -10 -60 -17 -76 -52 -115
-23 -25 -50 -48 -60 -52 -20 -8 -19 -29 1 -36 6 -2 33 17 59 42 l47 46 19 -34
c11 -19 31 -39 44 -45 32 -15 86 -14 101 1 21 21 13 28 -28 22 -50 -8 -86 13
-98 59 -8 29 -5 37 30 79 54 65 97 157 107 231 13 98 -6 138 -46 95z m14 -85
c-6 -64 -35 -136 -78 -196 -29 -39 -29 -40 -29 -13 0 56 86 266 109 266 2 0 1
-26 -2 -57z"/>
<path d="M3467 8889 c-25 -14 -21 -29 8 -29 15 0 25 6 25 14 0 21 -12 26 -33
15z"/>
<path d="M3012 8792 c-12 -10 -32 -31 -42 -47 -18 -28 -20 -28 -20 -7 0 13 -6
22 -15 22 -11 0 -15 -12 -16 -47 -1 -27 -1 -52 0 -56 1 -4 -6 -21 -14 -38 -15
-28 -13 -49 5 -49 4 0 25 36 45 79 43 90 77 128 120 133 41 4 38 22 -5 26 -22
1 -44 -5 -58 -16z"/>
<path d="M3577 8769 c-26 -17 -47 -35 -47 -39 0 -5 -12 -12 -26 -17 -19 -6
-30 -22 -44 -63 -23 -67 -24 -70 -5 -70 8 0 22 16 31 36 22 46 115 144 137
144 18 0 17 -3 -4 -114 -6 -33 -6 -53 1 -60 13 -13 20 -5 26 30 2 16 9 51 14
77 13 64 13 73 -6 91 -21 21 -23 21 -77 -15z"/>
<path d="M3887 8794 c-4 -4 -7 -16 -7 -26 0 -32 -29 -78 -63 -98 -63 -39 -75
-18 -27 48 35 49 36 52 13 52 -23 0 -73 -79 -73 -114 0 -15 7 -29 16 -33 23
-9 87 14 117 41 l27 25 0 -25 c0 -34 -30 -174 -41 -196 -6 -11 -21 -18 -38
-18 -40 0 -79 -34 -87 -75 -9 -49 15 -120 41 -120 23 0 63 56 90 126 l19 49
59 0 c56 0 97 12 97 29 0 4 -33 6 -74 4 l-73 -3 19 80 c29 123 19 288 -15 254z
m-57 -384 c0 -16 -54 -120 -62 -120 -20 0 -12 102 9 118 20 14 53 16 53 2z"/>
<path d="M2517 8750 c-34 -27 -64 -77 -72 -122 -6 -33 -4 -41 24 -69 35 -35
61 -36 136 -5 28 12 36 19 28 27 -8 8 -24 6 -57 -6 -37 -14 -52 -16 -71 -7
-37 17 -31 35 26 71 60 39 77 73 54 107 -19 29 -35 30 -68 4z m14 -72 c-59
-53 -63 -25 -5 37 26 27 29 28 32 10 3 -12 -7 -29 -27 -47z"/>
<path d="M2806 8712 c-12 -34 -28 -57 -58 -80 -44 -34 -68 -41 -68 -19 0 18
33 68 63 97 32 30 34 40 8 40 -20 0 -88 -81 -97 -116 -10 -41 -1 -59 32 -62
22 -2 41 5 64 25 l33 27 15 -22 c21 -32 36 -27 28 10 -4 20 0 48 10 74 16 42
14 74 -5 74 -5 0 -17 -22 -25 -48z"/>
<path d="M3210 8732 c-30 -26 -36 -28 -46 -14 -9 13 -18 2 -50 -61 -52 -104
-36 -118 36 -32 30 35 67 74 82 85 l27 20 -2 -81 c-3 -107 17 -119 27 -17 13
130 13 123 -14 126 -16 2 -38 -8 -60 -26z"/>
<path d="M3367 8713 c-2 -5 -8 -26 -12 -48 -4 -22 -11 -46 -17 -52 -10 -13 5
-43 21 -43 9 0 41 132 35 142 -6 10 -22 10 -27 1z"/>
<path d="M11374 8181 c-95 -23 -127 -37 -143 -62 -19 -32 3 -49 26 -20 21 26
125 58 218 67 97 10 254 -28 294 -70 36 -39 25 -65 -49 -114 -63 -41 -146 -79
-155 -71 -5 6 21 158 29 166 8 9 -14 33 -30 33 -10 0 -14 -14 -14 -47 0 -26
-5 -73 -12 -105 -11 -55 -14 -59 -48 -68 -19 -5 -48 -10 -65 -10 -41 0 -64
-15 -48 -31 10 -10 25 -10 68 0 31 7 58 11 61 9 2 -3 -14 -42 -36 -87 -22 -45
-40 -89 -40 -97 0 -28 32 -9 45 26 25 68 70 165 80 172 5 4 17 7 25 7 8 0 5
-4 -7 -9 -13 -5 -23 -17 -23 -26 0 -12 5 -15 23 -9 57 18 66 17 91 -8 30 -30
41 -93 27 -162 -6 -33 -6 -56 1 -68 19 -35 29 -1 31 99 2 82 -1 104 -17 131
-21 33 -53 53 -89 53 -14 0 6 15 52 39 108 55 151 94 151 135 0 62 -61 103
-195 131 -93 19 -160 18 -251 -4z"/>
<path d="M2588 8144 c-36 -19 -78 -92 -78 -135 0 -44 24 -79 105 -154 76 -71
82 -96 35 -143 -45 -45 -109 -67 -154 -52 -41 13 -52 38 -43 101 5 42 -6 51
-23 20 -15 -28 -12 -93 5 -117 21 -31 94 -49 138 -35 51 17 114 65 132 102 23
43 8 74 -69 147 -102 96 -115 126 -76 189 58 96 156 69 142 -39 -3 -25 0 -38
7 -38 15 0 26 32 34 93 6 42 5 48 -11 45 -9 -1 -28 5 -42 15 -30 21 -66 21
-102 1z"/>
<path d="M6573 8108 c-6 -7 -13 -38 -17 -68 -16 -137 -16 -138 -45 -146 -14
-4 -29 -7 -33 -6 -10 2 -32 -28 -25 -34 3 -4 20 -1 38 5 18 6 33 10 35 8 1 -1
-4 -31 -11 -67 -19 -88 -19 -130 0 -130 9 0 15 9 15 23 0 12 7 59 16 103 l16
82 59 12 c64 14 72 20 63 44 -7 17 -34 22 -34 7 0 -5 -9 -12 -20 -15 -65 -19
-60 -22 -54 31 3 26 10 70 15 97 10 51 1 78 -18 54z"/>
<path d="M9170 8061 c0 -64 -33 -199 -62 -254 -32 -59 -78 -107 -103 -107 -14
0 -28 29 -23 51 8 34 72 99 98 99 15 0 20 5 18 18 -9 44 -91 -7 -129 -80 -23
-45 -24 -67 -3 -96 56 -81 184 65 219 251 20 103 20 147 0 147 -10 0 -15 -10
-15 -29z"/>
<path d="M9580 8028 c0 -26 -22 -106 -56 -203 -64 -185 -67 -200 -39 -200 14
0 20 7 21 25 1 14 25 94 53 178 50 144 62 206 46 231 -14 23 -25 9 -25 -31z"/>
<path d="M12475 8007 l-20 -62 -59 0 c-80 0 -86 -21 -8 -30 l59 -7 -19 -78
c-17 -68 -18 -82 -6 -107 13 -27 16 -28 83 -28 54 0 70 3 70 14 0 12 -14 14
-61 12 -76 -3 -78 3 -52 117 l20 82 51 1 c102 3 110 4 114 17 5 13 -18 16
-104 12 -29 -1 -53 1 -53 4 0 4 7 23 15 43 18 43 19 73 3 73 -7 0 -22 -28 -33
-63z"/>
<path d="M5382 8023 c0 -15 -9 -62 -20 -103 -26 -95 -46 -224 -39 -244 14 -35
23 -11 40 99 10 63 24 133 32 155 22 62 23 114 3 118 -13 2 -17 -4 -16 -25z"/>
<path d="M7570 8008 c0 -13 -25 -95 -55 -182 -56 -164 -58 -190 -14 -179 24 7
44 39 29 48 -5 3 -14 4 -20 0 -5 -3 -5 7 1 25 6 16 15 30 20 30 5 0 9 6 9 14
0 45 107 62 154 25 35 -27 49 -55 56 -108 3 -25 11 -46 18 -49 16 -5 17 80 1
111 -20 39 -72 86 -107 98 l-34 11 34 30 c18 16 57 45 87 64 36 25 50 39 43
46 -15 15 -83 -27 -165 -102 -37 -34 -70 -60 -72 -58 -3 3 6 37 20 76 29 82
32 122 10 122 -9 0 -15 -9 -15 -22z"/>
<path d="M10596 8005 c-9 -25 -8 -27 17 -23 12 2 22 10 22 18 0 21 -31 24 -39
5z"/>
<path d="M1890 8003 c-98 -7 -130 -14 -130 -29 0 -12 11 -14 63 -9 l62 6 -37
-22 c-21 -13 -38 -29 -38 -35 0 -7 25 -21 55 -30 69 -22 77 -42 38 -98 -55
-80 -146 -95 -159 -27 -6 29 -27 46 -44 36 -9 -6 14 -60 38 -87 42 -50 135
-21 190 60 48 71 39 114 -29 137 l-33 11 47 33 c44 30 63 63 35 59 -7 -1 -33
-3 -58 -5z"/>
<path d="M6211 7885 c-34 -39 -71 -106 -71 -129 0 -59 51 -91 135 -84 63 5 60
4 69 41 5 23 3 27 -15 27 -12 0 -23 -8 -26 -20 -11 -42 -133 -15 -133 29 0 25
13 38 33 34 27 -5 80 27 103 62 13 21 15 31 6 50 -18 38 -62 34 -101 -10z m67
-17 c-3 -23 -63 -65 -71 -50 -8 12 42 72 59 72 10 0 14 -8 12 -22z"/>
<path d="M6905 7910 c-3 -5 -1 -35 4 -67 11 -75 5 -116 -25 -148 -20 -22 -27
-24 -44 -15 -12 6 -23 25 -27 41 -9 45 -27 45 -78 3 l-46 -37 7 29 c3 16 17
49 30 73 24 44 24 61 -2 61 -13 0 -18 -14 -17 -47 1 -7 -3 -11 -7 -8 -7 5 -22
-25 -35 -72 -9 -32 3 -63 23 -63 10 0 34 13 53 30 l36 29 11 -24 c15 -33 56
-58 82 -50 27 9 66 62 75 103 4 18 1 64 -5 102 -11 66 -21 83 -35 60z"/>
<path d="M8790 7901 c0 -5 16 -26 35 -47 44 -49 45 -78 4 -103 -32 -19 -97
-36 -106 -28 -8 9 36 85 58 101 14 10 19 21 15 32 -6 15 -11 13 -40 -15 -44
-43 -74 -107 -59 -129 14 -23 38 -26 90 -11 106 29 131 92 67 167 -33 39 -64
55 -64 33z"/>
<path d="M9246 7857 c-52 -54 -66 -85 -66 -147 0 -50 60 -77 111 -50 32 18 21
28 -28 27 l-48 -2 0 39 c0 38 1 39 47 53 56 16 101 63 96 102 -2 20 -9 27 -31
29 -22 3 -38 -7 -81 -51z m82 7 c-4 -22 -52 -58 -69 -52 -10 3 -4 15 20 36 37
35 54 41 49 16z"/>
<path d="M10370 7878 c-14 -39 -15 -40 -62 -109 l-38 -54 0 35 c0 50 -19 110
-36 117 -23 8 -30 -5 -15 -29 7 -12 16 -56 18 -100 7 -92 24 -118 46 -66 8 18
39 67 71 108 36 49 56 84 56 102 0 39 -25 36 -40 -4z"/>
<path d="M4325 7856 c-96 -117 -77 -252 32 -231 49 9 95 33 87 46 -3 6 -13 7
-23 4 -34 -15 -87 -24 -103 -19 -34 10 -34 104 0 104 9 0 38 14 65 30 38 24
47 35 47 58 0 66 -54 70 -105 8z m73 -4 c3 -11 -58 -55 -66 -47 -2 2 7 17 19
34 23 31 39 36 47 13z"/>
<path d="M4717 7893 c-3 -5 -10 -35 -16 -67 -12 -64 -51 -140 -76 -150 -32
-12 -55 12 -55 55 0 42 23 99 40 99 6 0 10 7 10 16 0 25 -32 12 -56 -23 -63
-94 -15 -214 71 -175 13 6 36 29 50 51 26 39 65 167 57 190 -4 13 -19 15 -25
4z"/>
<path d="M8546 7857 c-39 -37 -46 -40 -46 -23 0 33 -13 45 -49 44 -26 -1 -35
-7 -43 -27 -6 -14 -15 -35 -20 -45 -20 -38 -48 -129 -42 -138 11 -17 33 13 59
82 14 37 35 76 45 85 19 18 20 17 20 -8 0 -14 -5 -38 -10 -53 -6 -15 -8 -34
-5 -43 4 -11 26 7 80 65 65 69 74 76 74 54 1 -14 -6 -47 -14 -74 -19 -64 -19
-105 1 -113 22 -8 44 15 25 27 -13 7 -12 17 2 69 9 33 17 79 17 101 0 35 -3
40 -24 40 -14 0 -42 -18 -70 -43z"/>
<path d="M4127 7870 c-15 -12 -27 -17 -27 -11 0 6 -9 11 -20 11 -14 0 -20 -7
-20 -21 0 -11 -13 -51 -30 -89 -16 -38 -30 -75 -30 -84 0 -34 26 -12 55 47 35
72 100 146 116 130 7 -7 4 -37 -9 -94 -21 -94 -19 -109 10 -109 17 0 19 4 14
26 -4 15 1 60 10 101 13 54 15 79 7 91 -15 25 -46 26 -76 2z"/>
<path d="M5972 7877 c-6 -7 -13 -22 -15 -33 -1 -10 -17 -49 -36 -86 -18 -37
-30 -72 -26 -78 15 -24 35 -6 56 49 33 92 108 161 125 117 3 -8 -6 -47 -20
-87 -14 -40 -23 -76 -20 -81 6 -10 35 -11 32 0 -2 4 8 40 21 81 29 87 22 124
-21 129 -15 2 -36 -1 -46 -7 -13 -7 -22 -7 -29 0 -6 6 -14 5 -21 -4z"/>
<path d="M9730 7879 c-34 -14 -60 -39 -60 -59 0 -9 16 -31 35 -50 19 -19 35
-37 35 -41 0 -18 -33 -16 -51 2 -25 25 -51 11 -33 -18 18 -28 61 -37 89 -19
34 22 31 41 -10 88 -20 21 -33 43 -30 47 9 15 64 31 70 20 11 -17 26 -9 23 14
-3 25 -30 31 -68 16z"/>
<path d="M4857 7860 c-14 -11 -32 -17 -41 -14 -11 4 -16 -4 -21 -33 -3 -21
-10 -55 -14 -75 -5 -20 -6 -40 -3 -43 16 -15 32 0 47 45 23 69 59 110 96 110
19 0 29 5 29 15 0 22 -62 19 -93 -5z"/>
<path d="M3230 7852 c-12 -10 -33 -49 -45 -87 -19 -57 -25 -65 -29 -45 -3 14
-5 34 -3 45 1 14 -4 20 -18 20 -25 0 -25 -41 -1 -98 24 -58 45 -46 72 41 28
93 38 105 81 97 38 -7 43 7 11 29 -29 20 -41 20 -68 -2z"/>
<path d="M5079 7847 c-42 -28 -67 -87 -51 -122 14 -31 30 -31 76 0 l36 24 0
-22 c0 -29 24 -62 38 -53 8 4 8 15 1 35 -8 22 -6 43 5 82 9 29 15 53 13 54
-22 11 -61 25 -71 25 -7 0 -28 -10 -47 -23z m65 -22 c6 -18 -55 -85 -78 -85
-26 0 -18 30 18 66 37 37 51 42 60 19z"/>
<path d="M7115 7860 c-3 -6 -10 -8 -15 -5 -16 10 -69 -46 -79 -83 -13 -44 5
-78 46 -88 36 -10 72 13 96 60 19 36 19 42 6 80 -14 40 -40 58 -54 36z m25
-70 c0 -45 -37 -85 -69 -75 -48 15 -8 111 47 111 19 0 22 -6 22 -36z"/>
<path d="M7291 7852 c-13 -9 -31 -17 -40 -17 -10 0 -16 -11 -18 -35 -2 -19 -7
-57 -13 -84 -7 -34 -7 -53 0 -60 15 -15 23 -1 48 81 26 83 63 124 89 98 18
-19 43 -19 43 -1 0 13 -49 37 -74 35 -6 0 -22 -8 -35 -17z"/>
<path d="M10694 7855 c-4 -8 -12 -15 -19 -15 -20 0 -85 -77 -87 -103 -6 -86
30 -100 106 -42 29 22 46 30 46 21 0 -14 41 -46 60 -46 19 0 10 38 -10 43 -25
6 -27 45 -4 88 19 37 12 63 -15 54 -11 -3 -22 -1 -26 5 -9 15 -45 12 -51 -5z
m50 -58 c-9 -30 -22 -46 -68 -79 -49 -35 -56 -35 -56 2 0 23 11 42 45 76 39
38 48 43 66 34 15 -8 18 -17 13 -33z"/>
<path d="M2771 7813 c-43 -65 -48 -89 -24 -121 17 -23 29 -27 75 -30 44 -2 59
1 79 18 13 12 18 19 12 15 -7 -3 -13 -1 -13 5 0 7 -6 8 -19 0 -35 -18 -99 -12
-111 10 -7 14 -8 20 0 20 6 0 28 11 50 25 29 18 40 32 40 49 0 73 -44 77 -89
9z m56 -7 c-3 -8 -16 -20 -28 -26 -17 -10 -20 -9 -14 2 24 41 55 59 42 24z"/>
<path d="M3392 7839 c-37 -24 -72 -85 -72 -124 0 -14 10 -35 21 -46 19 -19 29
-21 81 -15 66 7 109 23 116 45 4 11 -1 12 -19 7 -79 -23 -138 -29 -154 -16
-22 18 -15 42 14 47 57 8 122 72 104 102 -15 24 -54 24 -91 0z m58 -18 c0 -14
-50 -51 -69 -51 -11 0 -6 10 17 30 33 30 52 38 52 21z"/>
<path d="M12147 7830 c-57 -36 -61 -63 -17 -105 17 -16 30 -32 30 -37 0 -18
-43 -6 -65 18 -21 23 -25 24 -31 10 -10 -25 33 -66 68 -66 38 0 68 16 68 37 0
8 -16 30 -37 49 -32 29 -34 35 -22 50 8 10 33 26 57 36 23 10 42 23 42 28 0
20 -47 9 -93 -20z"/>
<path d="M2997 7824 c-42 -28 -57 -57 -57 -110 0 -28 3 -35 18 -32 11 2 16 11
14 25 -7 48 50 116 89 106 23 -7 27 22 3 31 -23 9 -26 8 -67 -20z"/>
<path d="M10457 7762 c-32 -101 -33 -115 -10 -110 9 2 18 15 20 31 2 16 13 51
23 78 23 57 25 89 8 89 -7 0 -25 -39 -41 -88z"/>
<path d="M11851 7794 c-62 -70 -66 -130 -12 -159 24 -12 36 -12 85 -1 63 15
89 32 64 41 -8 3 -27 1 -42 -5 -37 -14 -89 -13 -104 2 -19 19 -14 35 10 34 14
-1 24 6 26 17 3 16 0 18 -20 12 -21 -7 -22 -7 -8 11 33 44 54 64 67 64 20 0
16 -28 -7 -47 -21 -18 -27 -43 -11 -43 23 0 64 47 64 74 0 62 -57 62 -112 0z"/>
<path d="M2002 7717 c-14 -16 -6 -27 20 -27 13 0 18 6 16 17 -4 22 -22 27 -36
10z"/>
<path d="M2865 7280 c-3 -5 -4 -14 -1 -18 2 -4 -11 -6 -29 -4 -29 3 -41 -3
-84 -43 -52 -49 -106 -141 -117 -201 -11 -60 32 -185 81 -238 29 -32 67 -33
106 -5 37 26 81 102 77 131 -3 21 -8 23 -73 23 -82 0 -95 -3 -95 -20 0 -21 34
-27 84 -14 26 6 49 9 52 6 16 -15 -68 -117 -96 -117 -24 0 -45 26 -77 95 -50
110 -28 208 71 310 69 70 93 59 98 -45 2 -50 7 -65 18 -65 12 0 15 17 17 85 2
47 0 95 -2 108 -6 23 -20 29 -30 12z"/>
<path d="M6112 7099 c-6 -56 -13 -103 -15 -105 -2 -3 -32 -10 -67 -16 -54 -10
-83 -29 -68 -44 3 -2 34 2 69 10 35 9 64 14 66 13 1 -2 -1 -43 -6 -93 -5 -57
-4 -94 2 -102 18 -23 27 3 31 97 3 51 7 96 11 99 3 3 26 1 51 -6 44 -12 64
-10 64 7 0 8 -80 34 -105 34 -13 0 -11 44 5 142 9 53 6 65 -14 65 -9 0 -16
-31 -24 -101z"/>
<path d="M8146 7188 c-3 -7 -7 -44 -10 -83 -3 -38 -9 -80 -12 -92 -6 -23 -47
-36 -63 -20 -8 8 -14 8 -22 0 -18 -18 0 -33 39 -33 l38 0 -1 -82 c0 -56 4 -82
13 -85 8 -3 12 11 12 50 0 30 3 69 6 86 6 30 8 31 47 24 31 -5 39 -3 35 8 -2
8 -21 18 -42 23 -31 8 -36 13 -31 30 3 12 8 58 12 104 4 60 3 82 -6 82 -6 0
-13 -6 -15 -12z"/>
<path d="M8282 7188 c-7 -7 -12 -28 -12 -47 0 -19 -12 -99 -27 -177 -25 -136
-25 -183 1 -140 16 28 77 96 86 96 15 0 30 -53 30 -105 0 -51 15 -80 29 -57 4
6 4 43 0 82 -9 100 -39 130 -94 94 -29 -19 -29 -19 -11 82 29 161 28 202 -2
172z"/>
<path d="M4000 7105 l0 -64 -35 -7 c-48 -9 -50 -39 -2 -31 32 5 33 4 29 -24
-12 -84 32 -239 60 -211 6 6 4 20 -8 43 -17 35 -27 190 -12 205 4 4 30 9 58
12 27 2 50 8 50 13 0 13 -47 22 -80 15 l-30 -5 0 59 c0 47 -3 60 -15 60 -12 0
-15 -14 -15 -65z"/>
<path d="M9632 7138 c-29 -95 -74 -299 -69 -312 11 -29 34 -17 78 42 l44 57 5
-48 c7 -53 34 -93 45 -65 4 9 1 26 -5 38 -7 14 -9 40 -5 70 10 73 -8 74 -72 6
-29 -31 -53 -52 -53 -46 0 6 14 63 30 127 17 63 30 123 30 133 0 33 -18 31
-28 -2z"/>
<path d="M11211 7123 c-50 -58 -120 -194 -128 -248 -6 -38 -28 -83 -38 -77
-15 7 -35 0 -35 -13 0 -17 27 -20 50 -6 10 7 19 2 32 -19 9 -16 28 -36 42 -45
31 -21 90 -16 94 7 3 14 -3 16 -32 11 -28 -4 -39 -1 -60 20 -14 15 -26 34 -26
44 0 10 27 45 61 77 73 72 107 128 118 195 17 111 -12 131 -78 54z m40 -94
c-13 -44 -146 -190 -136 -149 12 47 65 153 103 204 l37 51 3 -35 c2 -19 -1
-51 -7 -71z"/>
<path d="M6870 7078 c0 -35 -4 -68 -8 -75 -8 -13 -102 -20 -121 -9 -15 10 -32
-11 -25 -29 3 -7 -18 -29 -47 -50 -42 -30 -54 -34 -60 -23 -22 40 -47 61 -63
55 -15 -6 -13 -12 18 -49 l36 -41 -40 -34 c-65 -56 -47 -76 19 -23 l38 29 30
-32 c17 -18 33 -40 36 -49 8 -21 37 -24 37 -4 0 8 -16 35 -35 61 -20 25 -33
50 -30 55 3 5 26 24 50 41 25 18 45 38 45 46 0 9 15 13 51 13 51 0 51 0 45
-27 -3 -16 -9 -51 -12 -79 -10 -84 29 -135 92 -120 15 4 24 14 24 26 0 22 -10
26 -27 9 -16 -16 -51 6 -60 38 -7 30 11 131 27 147 5 5 44 10 85 10 62 1 75 4
73 16 -3 12 -20 15 -78 15 l-75 0 3 73 c3 60 1 72 -12 72 -13 0 -16 -12 -16
-62z"/>
<path d="M1902 7113 c-5 -10 -12 -29 -15 -43 -4 -14 -36 -61 -72 -105 -36 -44
-65 -88 -65 -98 0 -18 5 -19 67 -12 36 4 73 9 80 12 12 5 13 -9 8 -75 -4 -53
-3 -82 4 -87 21 -12 28 4 21 49 -4 25 -3 43 2 40 4 -3 8 14 8 38 0 41 2 45 32
53 47 15 49 37 3 33 l-38 -3 1 75 c0 41 1 80 2 85 11 46 -19 75 -38 38z m8
-165 c0 -47 0 -47 -37 -53 -21 -3 -49 -8 -62 -11 -23 -5 -23 -5 -5 19 11 13
35 45 54 69 40 52 50 47 50 -24z"/>
<path d="M7940 7117 c0 -7 6 -22 14 -33 14 -18 15 -18 21 -1 4 9 5 24 1 32 -7
18 -36 20 -36 2z"/>
<path d="M9910 7089 c0 -24 23 -21 28 4 2 10 -3 17 -12 17 -10 0 -16 -9 -16
-21z"/>
<path d="M7560 7005 c-41 -18 -76 -38 -78 -43 -7 -22 17 -19 78 8 36 16 66 27
68 25 3 -3 -27 -63 -68 -135 -11 -19 -20 -47 -20 -62 0 -43 37 -36 99 17 29
25 57 45 62 45 5 0 27 -18 48 -40 45 -47 58 -49 72 -14 15 40 5 209 -12 209
-11 0 -14 -21 -14 -90 -1 -49 -2 -94 -3 -99 -1 -5 -20 10 -41 33 l-39 42 -32
-16 c-17 -9 -49 -32 -71 -52 -46 -42 -50 -28 -10 36 41 65 81 144 81 158 0 21
-40 13 -120 -22z"/>
<path d="M12203 7026 c-27 -13 -30 -41 -6 -50 18 -7 43 16 43 40 0 19 -12 22
-37 10z"/>
<path d="M4205 6998 c-35 -28 -55 -75 -55 -133 0 -38 5 -52 30 -77 27 -27 34
-29 73 -23 82 14 146 52 118 70 -5 3 -12 -2 -15 -11 -3 -8 -10 -13 -14 -10 -5
3 -30 -1 -57 -9 -61 -19 -60 -19 -85 7 -33 36 -26 63 23 83 79 31 106 74 69
108 -25 23 -54 21 -87 -5z m69 -23 c4 -10 -5 -22 -27 -35 -57 -35 -75 -22 -32
24 27 29 50 34 59 11z"/>
<path d="M5007 6968 c-3 -29 -15 -82 -26 -117 -15 -44 -18 -68 -11 -75 16 -16
27 3 49 84 22 81 65 135 97 123 13 -5 14 -17 9 -79 -8 -80 -2 -124 18 -124 19
0 17 218 -3 230 -21 14 -43 12 -66 -5 -25 -19 -34 -19 -34 0 0 8 -6 15 -14 15
-9 0 -15 -18 -19 -52z"/>
<path d="M5614 7006 c-3 -7 4 -31 15 -52 32 -64 33 -78 10 -108 -17 -22 -28
-27 -58 -24 -33 3 -36 6 -37 35 0 46 -9 49 -44 19 -50 -42 -61 -36 -44 27 17
65 17 77 0 77 -12 0 -46 -104 -46 -139 0 -22 39 -32 67 -18 25 14 28 13 45 -9
14 -17 28 -23 60 -22 79 1 120 54 98 125 -7 21 -16 42 -21 48 -5 5 -9 19 -9
32 0 25 -27 32 -36 9z"/>
<path d="M2991 6985 c-34 -29 -66 -113 -56 -147 22 -71 87 -77 177 -16 26 18
27 18 30 -2 5 -35 21 -27 48 22 63 119 94 127 87 25 -4 -61 4 -97 23 -97 17 0
12 163 -6 188 -21 30 -31 28 -73 -16 l-36 -38 4 43 c2 34 0 43 -12 43 -12 0
-17 -17 -23 -71 -5 -53 -10 -69 -20 -65 -8 3 -35 -6 -61 -20 -64 -34 -97 -29
-101 14 -2 23 1 32 12 32 25 0 76 50 76 75 0 20 -22 55 -35 55 -2 0 -17 -11
-34 -25z m39 -23 c0 -5 -11 -19 -25 -32 -28 -26 -33 -16 -9 18 15 22 34 30 34
14z"/>
<path d="M5237 6973 c-41 -43 -70 -113 -61 -149 8 -33 50 -64 86 -64 35 0 98
25 98 39 0 14 -15 14 -63 0 -44 -12 -73 -5 -87 21 -9 17 -5 22 29 40 73 37 97
81 71 131 -15 28 -31 24 -73 -18z m53 -21 c0 -20 -21 -42 -58 -61 -22 -12 -23
-11 -12 11 15 29 51 68 62 68 4 0 8 -8 8 -18z"/>
<path d="M9395 6966 c-86 -93 -107 -174 -50 -196 35 -13 112 -1 138 21 19 17
20 18 3 12 -14 -5 -17 -3 -11 6 6 10 3 11 -11 3 -53 -27 -124 -20 -124 12 0
24 82 137 106 147 28 10 31 24 7 33 -11 5 -29 -7 -58 -38z"/>
<path d="M10333 6968 c-33 -35 -63 -88 -63 -111 0 -8 9 -26 21 -41 25 -31 79
-35 151 -10 46 15 87 49 75 61 -9 8 -58 -18 -52 -27 3 -4 -1 -7 -8 -7 -6 1
-39 -3 -71 -7 -50 -7 -61 -6 -72 8 -19 26 -6 53 29 60 54 11 78 46 61 90 -10
25 -38 19 -71 -16z m45 -20 c-3 -7 -13 -15 -24 -17 -16 -3 -17 -1 -5 13 16 19
34 21 29 4z"/>
<path d="M8888 6963 c-14 -16 -30 -37 -36 -48 -9 -17 -10 -15 -9 14 4 70 -19
37 -46 -66 -24 -90 -26 -109 -14 -120 12 -12 21 2 65 92 28 58 53 105 55 105
2 0 1 -27 -1 -60 -7 -93 19 -108 86 -47 l22 20 0 -45 c0 -52 22 -81 43 -58 9
10 9 13 0 17 -16 6 -17 59 -2 102 9 24 9 35 0 44 -8 8 -21 2 -49 -24 -77 -72
-74 -73 -70 16 3 88 -5 99 -44 58z"/>
<path d="M3373 6941 c-15 -22 -33 -40 -40 -41 -7 0 -12 -16 -11 -42 1 -65 6
-76 44 -94 32 -15 38 -15 92 2 38 13 58 25 60 37 3 15 0 17 -15 9 -10 -5 -40
-15 -68 -21 -46 -12 -51 -11 -66 8 -18 22 -15 61 5 61 6 0 26 14 44 31 39 37
42 82 5 87 -17 2 -30 -7 -50 -37z m28 -24 l-24 -22 19 27 c10 14 21 24 23 22
3 -3 -6 -15 -18 -27z"/>
<path d="M6373 6969 c-32 -12 -73 -79 -75 -124 -2 -44 27 -75 69 -75 61 0 149
37 131 55 -3 3 -35 -3 -71 -12 -61 -16 -68 -16 -83 -2 -14 15 -13 17 17 28 65
23 93 67 69 110 -12 24 -30 30 -57 20z m31 -38 c10 -16 -6 -41 -36 -57 -41
-21 -46 -11 -14 31 27 36 40 42 50 26z"/>
<path d="M10017 6973 c-6 -9 -37 -121 -40 -142 -5 -35 23 -17 52 33 33 59 69
90 98 84 27 -5 27 -33 3 -105 -20 -60 -21 -109 -1 -87 14 15 51 132 51 160 0
64 -59 86 -114 43 -21 -16 -26 -17 -26 -5 0 17 -16 30 -23 19z"/>
<path d="M3596 6954 c-9 -8 -16 -32 -16 -53 0 -21 -3 -53 -6 -70 -5 -24 -3
-31 9 -31 16 0 24 27 29 100 3 36 5 37 62 27 21 -4 14 21 -9 31 -35 16 -51 15
-69 -4z"/>
<path d="M3737 6950 c-22 -17 -27 -30 -27 -64 0 -64 40 -93 91 -65 16 8 26 5
51 -16 17 -14 35 -24 41 -22 21 7 17 24 -9 36 -23 10 -25 16 -20 44 12 56 11
80 -1 84 -8 3 -21 -14 -32 -40 -33 -77 -95 -91 -89 -20 3 32 8 39 34 48 17 6
32 15 33 20 3 19 -45 16 -72 -5z"/>
<path d="M11376 6940 c-107 -94 -126 -204 -40 -226 35 -9 89 8 89 28 0 8 6 22
13 31 9 10 10 17 2 22 -5 3 -10 -1 -10 -10 0 -11 -6 -15 -19 -10 -13 4 -20 0
-24 -15 -11 -41 -82 -13 -75 30 2 17 19 32 63 54 48 25 62 37 69 63 6 23 5 37
-4 48 -17 21 -24 19 -64 -15z m34 -35 c-14 -17 -50 -39 -50 -31 0 3 12 17 26
31 27 27 46 27 24 0z"/>
<path d="M9140 6928 c-11 -18 -23 -44 -27 -57 -13 -52 38 -78 83 -42 27 21 44
20 44 -3 0 -19 27 -39 40 -31 8 5 6 15 -5 32 -10 14 -15 39 -13 60 1 20 -2 38
-7 40 -6 2 -28 -17 -48 -42 -57 -67 -90 -58 -47 13 16 26 25 32 41 27 17 -6
20 -3 17 12 -2 11 -13 19 -30 21 -22 3 -32 -3 -48 -30z"/>
<path d="M11795 6950 c-11 -4 -31 -20 -44 -34 -14 -14 -30 -26 -37 -26 -12 0
-44 -90 -44 -124 0 -36 29 -13 50 40 33 81 64 114 106 114 36 0 48 22 18 34
-19 7 -24 7 -49 -4z"/>
<path d="M12578 6925 c-110 -83 -126 -175 -31 -175 42 0 68 13 111 53 l32 31
0 -105 c0 -57 3 -128 6 -156 l7 -53 -56 0 c-44 0 -62 -5 -83 -23 l-26 -23 16
-64 c21 -80 46 -124 73 -128 42 -6 103 101 103 182 l0 26 108 0 c90 0 112 3
130 18 19 17 16 18 -108 14 l-128 -4 -7 87 c-4 48 -5 128 -3 177 3 50 3 99 1
109 -8 31 -30 22 -55 -23 -27 -49 -79 -88 -119 -88 -32 0 -39 8 -30 33 9 26
82 98 109 108 23 9 26 29 6 36 -6 2 -31 -12 -56 -32z m122 -457 c0 -56 -45
-158 -70 -158 -12 0 -50 105 -50 140 0 33 9 38 73 39 42 1 47 -1 47 -21z"/>
<path d="M9876 6942 c-10 -17 -46 -118 -46 -130 0 -8 8 -12 17 -10 15 3 28 36
50 126 5 21 -10 31 -21 14z"/>
<path d="M11525 6898 c-49 -57 -64 -93 -46 -111 11 -11 17 -10 84 18 14 6 17
2 17 -22 0 -28 15 -53 32 -53 5 0 5 17 2 38 -3 21 -1 55 4 76 14 48 -8 61 -39
22 -23 -29 -87 -68 -73 -44 25 43 68 88 80 84 19 -7 28 12 14 29 -19 22 -25
19 -75 -37z"/>
<path d="M12005 6930 c-22 -11 -53 -31 -69 -45 -37 -32 -40 -31 -21 5 19 36
19 50 1 50 -8 0 -18 -10 -22 -22 -4 -13 -24 -52 -46 -87 -28 -47 -36 -67 -28
-75 8 -8 17 -3 32 17 20 28 144 127 158 127 4 0 -6 -26 -22 -57 -16 -32 -28
-67 -26 -78 3 -23 32 -28 34 -5 1 8 2 22 3 31 0 8 17 41 36 73 53 88 46 104
-30 66z"/>
<path d="M12346 6924 c-21 -14 -45 -27 -54 -28 -19 -3 -94 -124 -86 -138 11
-18 31 -4 67 48 36 52 114 120 125 109 3 -3 -1 -36 -8 -74 -11 -60 -6 -149 7
-113 3 6 8 10 13 7 4 -2 7 14 7 38 0 23 4 68 8 100 6 46 5 61 -6 68 -21 13
-31 11 -73 -17z"/>
<path d="M7900 6916 c0 -13 6 -27 13 -29 7 -3 5 -6 -5 -6 -13 -1 -18 -9 -18
-28 0 -14 -7 -34 -16 -44 -20 -22 -10 -39 22 -39 19 0 24 5 24 24 0 12 3 51 6
85 6 52 5 61 -10 61 -10 0 -16 -8 -16 -24z"/>
<path d="M12130 6820 c-16 -43 -20 -64 -12 -72 11 -11 27 11 33 47 2 11 7 22
11 25 12 10 14 53 2 57 -6 2 -22 -24 -34 -57z"/>
<path d="M2007 6742 c-19 -21 -22 -42 -7 -42 13 0 50 37 50 50 0 16 -26 11
-43 -8z"/>
<path d="M4432 5925 c-38 -16 -52 -42 -52 -93 0 -49 30 -106 119 -226 87 -116
98 -140 75 -175 -54 -81 -150 -93 -204 -23 -22 27 -27 81 -9 99 16 16 -8 28
-26 13 -22 -18 -19 -87 5 -125 21 -34 80 -65 125 -65 80 0 164 84 150 151 -4
16 -40 74 -82 130 -90 122 -123 181 -123 224 0 38 29 68 62 63 20 -3 23 -8 23
-48 0 -52 9 -72 31 -63 53 20 18 129 -47 146 -9 2 -30 -1 -47 -8z"/>
<path d="M2086 5883 c-41 -44 -43 -66 -20 -275 l6 -57 -67 0 c-36 1 -69 -2
-72 -4 -15 -16 16 -27 73 -27 63 0 64 0 64 -27 0 -24 -40 -150 -64 -205 -14
-30 22 -21 38 10 21 41 56 161 56 192 0 24 5 29 27 32 35 4 43 28 9 28 -28 0
-26 -4 -45 111 -17 104 -14 162 10 192 12 17 28 26 42 24 14 -1 22 4 22 13 0
28 -51 24 -79 -7z"/>
<path d="M7965 5893 c4 -10 10 -26 12 -35 7 -22 19 -23 27 -2 8 21 -11 54 -30
54 -11 0 -14 -5 -9 -17z"/>
<path d="M9615 5848 c-2 -7 -6 -39 -10 -71 l-7 -58 -31 6 c-18 4 -36 8 -41 9
-6 0 -12 -7 -14 -16 -2 -14 3 -18 21 -18 51 0 58 -8 51 -59 -14 -106 58 -221
119 -189 25 13 21 28 -8 28 -51 0 -91 81 -79 159 l6 40 57 -1 c63 -1 114 23
104 48 -5 13 -9 13 -30 -1 -32 -21 -130 -17 -125 5 14 61 19 105 15 117 -6 16
-22 17 -28 1z"/>
<path d="M5175 5838 c-3 -7 -6 -56 -7 -108 l-3 -95 -38 -18 c-43 -20 -40 -42
4 -32 l29 7 0 -97 c0 -73 3 -96 13 -93 8 3 13 35 15 103 l3 97 33 -5 c19 -3
37 -3 40 0 11 11 -16 33 -40 33 -24 0 -24 1 -24 104 0 60 -4 108 -10 111 -6 3
-12 0 -15 -7z"/>
<path d="M3104 5812 c-14 -10 -74 -107 -74 -120 0 -19 18 -14 35 11 l17 22 -6
-30 c-19 -99 -36 -232 -36 -275 l0 -50 -48 0 c-26 0 -72 6 -102 14 -52 14 -79
9 -66 -12 15 -25 302 -51 352 -32 42 16 26 28 -36 27 -33 0 -63 3 -67 7 -4 3
-6 28 -4 54 2 45 43 301 56 355 7 26 -4 41 -21 29z"/>
<path d="M4964 5784 c-4 -14 -4 -41 -1 -60 3 -18 3 -50 0 -69 -5 -33 -7 -34
-54 -37 -65 -4 -63 -22 2 -26 l51 -3 -7 -50 c-5 -35 -3 -54 7 -66 11 -14 11
-16 -1 -8 -11 6 -13 4 -8 -9 4 -10 7 -24 7 -32 0 -8 7 -14 16 -14 14 0 15 7
11 38 -4 20 -4 60 0 89 5 44 8 51 22 44 10 -6 23 -4 34 4 17 12 15 14 -16 24
-34 12 -35 12 -34 69 1 95 -2 132 -13 132 -5 0 -13 -11 -16 -26z"/>
<path d="M7700 5663 c-16 -95 -51 -213 -61 -208 -4 3 -13 31 -19 63 -20 93
-31 122 -47 122 -12 0 -14 -6 -8 -27 4 -16 13 -57 21 -93 16 -73 44 -111 71
-94 20 12 39 64 58 159 25 120 21 112 55 107 37 -5 39 10 5 26 -53 24 -62 18
-75 -55z"/>
<path d="M5310 5709 c0 -16 20 -49 29 -49 14 0 20 37 8 49 -14 14 -37 14 -37
0z"/>
<path d="M8106 5675 c-20 -20 -36 -39 -36 -44 0 -5 -10 -11 -21 -14 -18 -5
-21 -11 -15 -40 3 -19 3 -45 -2 -57 -11 -30 -3 -70 13 -70 15 0 25 22 25 57 0
45 23 103 55 141 28 32 34 35 49 23 21 -17 34 -6 20 17 -19 30 -50 26 -88 -13z"/>
<path d="M6381 5657 c-12 -24 -21 -49 -21 -56 0 -23 -38 -86 -79 -130 -23 -24
-41 -48 -41 -53 0 -20 31 -5 63 32 l34 40 11 -25 c16 -35 57 -43 86 -16 l24
22 6 -26 c10 -38 32 -25 28 16 -2 18 4 57 14 86 14 42 16 55 6 65 -16 16 -26
2 -44 -60 -7 -23 -25 -54 -40 -69 -23 -22 -30 -24 -44 -13 -19 17 -14 48 22
138 24 61 26 92 5 92 -5 0 -19 -19 -30 -43z"/>
<path d="M7182 5675 c-66 -55 -80 -138 -33 -186 24 -24 38 -29 78 -29 48 0
113 29 113 50 0 15 -23 12 -46 -5 -29 -22 -100 -19 -124 5 -26 26 -25 40 1 40
30 0 99 72 99 102 0 51 -41 62 -88 23z m53 -37 c-4 -9 -25 -31 -47 -49 -28
-22 -39 -27 -35 -15 4 10 7 21 7 26 0 5 14 23 31 40 31 31 56 30 44 -2z"/>
<path d="M2971 5642 c-32 -33 -41 -46 -32 -55 9 -9 23 0 57 34 34 35 42 48 32
55 -9 6 -26 -4 -57 -34z"/>
<path d="M8532 5650 c-22 -16 -45 -37 -52 -47 -9 -15 -10 -12 -4 15 5 29 3 33
-13 30 -14 -2 -19 -15 -23 -58 -3 -30 -11 -65 -18 -77 -16 -30 -15 -53 3 -53
9 0 24 20 36 48 19 44 93 132 112 132 5 0 6 -28 2 -63 -5 -47 -3 -73 9 -100
15 -38 22 -42 50 -31 21 8 20 21 -3 27 -25 6 -34 59 -21 130 6 31 8 62 5 67
-11 18 -41 11 -83 -20z"/>
<path d="M9087 5650 c-36 -42 -44 -101 -20 -142 28 -49 62 -65 102 -49 42 18
43 43 0 31 -54 -16 -95 21 -45 40 14 5 30 18 35 29 12 22 15 80 5 105 -10 26
-50 19 -77 -14z m49 -65 c-3 -12 -15 -25 -26 -28 -17 -4 -20 0 -20 24 0 17 9
38 23 52 l22 22 3 -24 c2 -12 1 -33 -2 -46z"/>
<path d="M7377 5663 c-4 -7 -23 -114 -30 -167 -5 -45 21 -20 57 54 21 44 42
80 47 80 5 0 9 -29 9 -64 0 -49 5 -69 21 -90 27 -34 50 -20 25 15 -10 15 -16
44 -16 82 0 60 -12 97 -32 97 -7 0 -23 -10 -36 -22 -22 -21 -24 -21 -20 -4 3
19 -16 34 -25 19z"/>
<path d="M8756 5654 c-3 -9 -6 -33 -6 -55 0 -22 -9 -57 -20 -79 -21 -42 -26
-80 -10 -80 14 0 35 38 54 96 9 28 23 60 31 70 13 17 14 11 15 -59 0 -69 2
-78 18 -75 18 3 85 95 77 107 -2 4 2 8 9 8 9 0 15 -23 19 -75 5 -72 18 -105
31 -84 8 13 -5 187 -14 203 -13 20 -38 2 -72 -53 l-33 -53 -5 65 c-5 58 -7 65
-30 71 -41 12 -58 10 -64 -7z"/>
<path d="M6596 5638 c-3 -13 -6 -36 -6 -52 0 -44 -22 -106 -36 -106 -10 0 -13
-19 -12 -77 1 -43 -2 -107 -6 -144 -7 -53 -5 -71 9 -98 12 -24 20 -30 27 -23
9 9 21 104 28 215 0 5 5 5 11 2 32 -20 129 78 144 146 19 84 -50 170 -109 137
-12 -7 -16 -5 -16 7 0 23 -27 18 -34 -7z m113 -41 c36 -44 11 -140 -50 -191
-47 -40 -56 -28 -47 60 11 100 30 144 61 144 14 0 30 -6 36 -13z"/>
<path d="M9310 5612 c-46 -45 -70 -85 -70 -118 0 -32 28 -10 69 56 24 39 48
70 53 70 5 0 8 -39 7 -86 -2 -71 1 -88 15 -96 9 -5 16 -5 17 -1 4 27 -2 206
-6 214 -12 19 -37 8 -85 -39z"/>
<path d="M3931 5614 c-10 -23 -9 -30 3 -42 13 -14 17 -13 35 9 25 29 23 53 -5
57 -14 2 -24 -5 -33 -24z"/>
<path d="M4721 5614 c-27 -35 -44 -98 -36 -136 11 -47 80 -81 129 -62 9 3 16
13 16 21 0 11 -8 12 -34 7 -29 -5 -39 -2 -60 20 -25 24 -37 64 -15 50 16 -9
69 46 69 72 0 22 -23 54 -40 54 -5 0 -18 -12 -29 -26z m39 -28 c0 -7 -7 -19
-15 -26 -16 -13 -20 -3 -9 24 8 20 24 21 24 2z"/>
<path d="M8262 5618 c-43 -46 -55 -123 -24 -151 64 -58 161 0 145 86 -3 15
-11 32 -19 38 -8 6 -14 17 -14 24 0 31 -59 33 -88 3z m76 -51 c6 -5 12 -22 12
-38 0 -39 -37 -64 -74 -50 -29 12 -34 42 -15 84 8 19 17 23 37 19 15 -3 33 -9
40 -15z"/>
<path d="M7917 5623 c-3 -4 -8 -41 -12 -80 -6 -62 -5 -73 8 -73 12 0 17 17 23
68 5 37 9 71 9 76 0 12 -22 19 -28 9z"/>
<path d="M5422 5600 c-37 -35 -70 -118 -56 -141 8 -14 33 20 34 46 0 11 11 34
25 50 24 29 25 29 40 11 9 -12 15 -40 15 -68 0 -38 4 -48 16 -48 14 0 16 10
12 66 -3 55 -8 70 -27 85 -29 24 -32 24 -59 -1z"/>
<path d="M5620 5613 c-26 -10 -80 -77 -80 -99 0 -35 25 -47 80 -41 57 7 52 14
70 -103 17 -111 17 -110 -39 -110 -68 0 -81 -7 -81 -42 0 -38 74 -165 101
-173 28 -9 36 5 50 93 l12 72 38 -2 c50 -4 52 14 3 28 l-39 11 -12 99 c-17
142 -35 219 -53 219 -9 0 -15 -9 -15 -23 0 -12 -7 -27 -15 -32 -22 -14 -70
-12 -70 3 0 18 52 67 71 67 23 0 30 11 18 27 -12 14 -16 15 -39 6z m78 -405
c5 -27 -18 -129 -28 -123 -15 9 -70 111 -70 129 0 25 93 19 98 -6z"/>
<path d="M5290 5561 c-13 -25 -9 -130 5 -134 12 -3 26 134 15 147 -5 4 -13 -1
-20 -13z"/>
<path d="M2250 5537 c0 -8 7 -20 15 -27 18 -15 20 -54 3 -68 -7 -5 -23 -13
-36 -16 -32 -10 -38 16 -14 64 23 46 10 67 -20 30 -23 -29 -32 -63 -24 -95 13
-49 87 -40 129 17 19 26 19 27 1 65 -19 38 -54 58 -54 30z"/>
<path d="M2397 5539 c-34 -20 -70 -130 -46 -144 16 -11 30 8 34 46 4 52 15 70
46 76 16 3 29 12 29 19 0 16 -37 18 -63 3z"/>
<path d="M4843 5438 c-2 -16 1 -18 10 -9 7 7 8 14 1 21 -6 6 -10 2 -11 -12z"/>
<path d="M3270 5436 c0 -19 39 -31 53 -17 9 9 8 14 -3 21 -22 14 -50 12 -50
-4z"/>
<path d="M8255 5033 c-19 -44 -109 -179 -167 -250 -105 -126 -199 -235 -276
-318 -133 -144 -171 -215 -121 -228 23 -6 40 20 20 32 -17 11 32 80 136 191
84 90 192 214 276 318 76 94 177 258 177 287 0 3 -7 5 -15 5 -8 0 -22 -16 -30
-37z"/>
<path d="M11405 5053 c-41 -5 -213 -31 -250 -38 -16 -4 -34 -10 -38 -14 -19
-19 16 -21 95 -7 230 42 430 47 482 13 14 -10 26 -21 26 -26 0 -33 -176 -144
-191 -120 -4 8 -14 6 -32 -6 -20 -13 -47 -16 -125 -14 -55 1 -105 -2 -111 -5
-28 -18 9 -26 116 -26 l115 0 -8 -47 c-10 -57 -10 -95 -1 -144 9 -43 44 -86
60 -70 7 7 6 16 -6 29 -25 27 -34 98 -22 169 11 71 14 74 75 96 25 9 71 37
103 63 51 40 58 49 55 76 -2 26 -11 36 -47 55 -39 20 -57 23 -155 22 -61 -1
-124 -4 -141 -6z"/>
<path d="M7805 4974 c-32 -15 -60 -22 -76 -19 -26 6 -26 5 -31 -57 -3 -35 -19
-108 -36 -163 -16 -55 -35 -126 -42 -159 l-12 -59 -19 42 c-41 93 -60 177 -66
289 -5 84 -10 115 -20 119 -8 3 -15 4 -17 2 -9 -10 15 -247 29 -297 24 -81 88
-222 101 -222 7 0 19 40 29 93 10 50 33 142 51 204 19 61 34 125 34 142 0 22
5 31 16 31 27 0 135 52 131 63 -6 18 -20 16 -72 -9z"/>
<path d="M12220 4981 c0 -11 12 -33 26 -50 39 -47 64 -132 71 -240 7 -115 3
-121 -83 -124 -68 -2 -80 14 -42 56 29 33 78 47 78 23 0 -9 4 -16 9 -16 16 0
20 28 7 45 -10 14 -21 16 -49 11 -67 -12 -122 -107 -85 -144 21 -21 155 -9
180 16 35 35 20 227 -26 327 -14 31 -23 62 -19 71 6 17 -23 43 -49 44 -11 0
-18 -7 -18 -19z"/>
<path d="M7220 4982 c-33 -15 -92 -67 -106 -93 -32 -63 -5 -118 91 -183 105
-72 130 -141 69 -193 -36 -32 -79 -30 -115 7 -17 16 -28 34 -24 40 11 17 -5
32 -21 19 -21 -17 -17 -35 16 -72 59 -68 115 -70 175 -7 63 66 33 156 -78 226
-59 38 -97 83 -97 116 0 23 67 97 97 109 41 15 55 2 47 -47 -5 -36 -3 -44 9
-44 19 0 47 37 47 63 0 43 -66 79 -110 59z"/>
<path d="M8507 4966 c-20 -8 -57 -30 -82 -51 -36 -29 -45 -43 -45 -68 0 -51
41 -102 107 -132 86 -40 113 -69 113 -122 0 -29 -6 -49 -19 -62 -38 -38 -142
-41 -214 -6 -41 19 -45 30 -20 57 30 33 0 42 -31 9 -24 -25 -26 -32 -16 -51
18 -34 106 -70 173 -70 107 0 157 39 159 124 1 63 -20 90 -101 130 -71 36
-121 84 -121 116 0 31 63 84 118 99 l31 9 -5 -46 c-6 -61 6 -80 39 -65 50 23
39 122 -15 137 -29 7 -26 8 -71 -8z m80 -88 c-3 -7 -5 -2 -5 12 0 14 2 19 5
13 2 -7 2 -19 0 -25z"/>
<path d="M6874 4935 c-60 -30 -145 -110 -170 -162 -13 -26 -19 -60 -19 -108 0
-58 5 -78 27 -116 17 -28 39 -51 58 -59 39 -16 129 -8 170 16 32 20 41 48 13
42 -10 -2 -17 -9 -16 -15 2 -7 -5 -12 -15 -12 -9 0 -43 -3 -74 -7 -54 -6 -58
-5 -87 23 -59 60 -65 178 -11 251 35 49 105 107 152 127 47 19 61 4 52 -53 -4
-27 -2 -42 6 -47 19 -12 40 23 40 66 0 29 -6 42 -26 58 -34 27 -39 26 -100 -4z"/>
<path d="M10577 4943 c-4 -3 -7 -16 -7 -27 0 -12 -10 -51 -22 -88 l-22 -68
-46 -6 c-30 -4 -47 -11 -47 -20 0 -10 11 -12 44 -7 l43 6 -15 -43 c-29 -82
-15 -134 46 -165 39 -21 94 -22 113 -2 23 23 20 27 -14 21 -47 -10 -98 4 -116
32 -15 21 -15 32 -4 85 7 33 17 62 23 66 6 3 31 7 56 7 25 1 47 4 49 9 8 25
-1 29 -48 25 -27 -3 -50 -4 -50 -3 0 1 8 26 19 56 28 83 35 129 18 129 -7 0
-17 -3 -20 -7z"/>
<path d="M5720 4880 c-34 -57 -37 -59 -80 -62 -32 -2 -45 -7 -45 -18 0 -11 10
-14 39 -12 34 3 38 1 32 -15 -31 -79 -25 -194 11 -221 30 -22 148 -12 175 16
29 29 17 38 -26 18 -44 -21 -119 -21 -136 -1 -20 24 -16 127 6 172 19 37 21
38 98 50 76 11 108 24 88 36 -5 4 -39 1 -76 -4 -37 -6 -70 -8 -73 -6 -2 3 7
23 21 44 28 41 33 63 14 63 -7 0 -29 -27 -48 -60z"/>
<path d="M8840 4920 c0 -6 9 -14 20 -17 11 -3 20 -7 20 -9 0 -2 -21 -23 -46
-46 -72 -67 -98 -119 -98 -198 1 -78 21 -123 65 -146 49 -25 127 -29 195 -9
58 17 59 17 73 -4 14 -22 41 -29 41 -11 0 6 -5 19 -12 30 -10 16 -9 23 9 42
39 44 57 91 57 153 0 77 -21 117 -82 156 -74 47 -242 88 -242 59z m130 -45
c43 -4 125 -53 145 -88 26 -43 24 -120 -3 -174 -29 -56 -38 -59 -52 -18 -13
40 -35 65 -56 65 -19 0 -18 -20 4 -44 10 -12 23 -33 30 -48 11 -27 10 -28 -31
-40 -56 -16 -145 -16 -184 0 -17 8 -36 26 -43 42 -17 41 -14 133 6 172 20 40
134 149 148 141 5 -4 22 -7 36 -8z"/>
<path d="M10107 4904 c-16 -16 -6 -35 16 -32 12 2 22 10 22 18 0 16 -26 25
-38 14z"/>
<path d="M9347 4893 c-16 -26 -17 -112 -2 -211 12 -83 14 -124 6 -164 -5 -29
-6 -56 -3 -59 7 -6 238 8 260 16 6 2 12 9 12 16 0 8 -34 9 -121 4 l-120 -8 6
49 c4 28 0 93 -9 151 -11 71 -13 115 -7 149 5 27 7 52 5 56 -6 10 -21 10 -27
1z"/>
<path d="M3013 4823 c-37 -37 -73 -85 -73 -95 0 -19 38 -6 51 18 13 26 64 74
77 74 4 0 13 -4 20 -9 11 -7 11 -14 -4 -42 -39 -77 -121 -188 -177 -241 -43
-41 -58 -61 -53 -73 5 -15 15 -10 60 29 30 25 56 46 59 46 2 0 10 -14 17 -30
19 -47 92 -56 98 -12 3 17 -2 22 -17 22 -12 0 -21 -4 -21 -10 0 -23 -19 -7
-38 31 l-21 41 45 61 c61 84 111 184 99 196 -6 6 -29 13 -52 17 -38 6 -45 3
-70 -23z"/>
<path d="M4320 4823 c-68 -7 -160 -36 -160 -49 0 -18 13 -17 74 1 27 8 60 15
74 15 28 0 28 -5 -11 -167 l-21 -92 -61 -10 c-34 -6 -69 -11 -78 -11 -9 0 -17
-7 -17 -16 0 -14 8 -15 63 -7 34 4 117 7 185 6 67 -2 122 1 122 6 0 14 -23 20
-105 27 -41 4 -75 10 -75 15 0 4 11 54 25 111 14 57 25 113 25 125 0 21 4 22
100 25 136 4 136 23 0 24 -58 1 -121 -1 -140 -3z"/>
<path d="M12813 4780 c-27 -16 -33 -26 -33 -55 0 -30 7 -39 55 -75 30 -22 55
-44 55 -49 0 -34 -100 -57 -128 -29 -9 9 -15 9 -24 0 -17 -17 0 -32 50 -43 46
-10 75 -2 110 30 39 38 26 75 -43 116 -36 20 -45 32 -43 48 4 29 51 52 77 37
27 -14 40 8 16 27 -26 18 -54 16 -92 -7z"/>
<path d="M3673 4740 c-16 -25 -16 -45 0 -58 20 -17 39 2 40 39 2 39 -21 50
-40 19z"/>
<path d="M4977 4709 c-26 -29 -47 -61 -47 -73 0 -11 -7 -43 -15 -70 -8 -26
-12 -52 -9 -57 3 -5 1 -9 -4 -9 -15 0 -46 -140 -34 -152 6 -6 15 -7 21 -4 12
8 61 157 61 187 0 15 7 19 33 19 38 0 66 21 101 74 30 44 33 82 10 114 -27 38
-64 29 -117 -29z m99 -3 c11 -43 -51 -126 -94 -126 -22 0 -23 3 -16 33 4 17 7
40 6 50 0 9 3 15 8 12 5 -3 18 8 30 25 26 37 57 39 66 6z"/>
<path d="M5420 4741 c-19 -11 -45 -24 -58 -30 -20 -9 -23 -17 -20 -53 2 -31 8
-44 21 -46 13 -3 17 4 17 32 0 37 36 76 71 76 28 0 49 11 49 26 0 20 -39 17
-80 -5z"/>
<path d="M5164 4707 c-36 -53 -44 -74 -44 -109 0 -44 12 -60 44 -60 58 0 101
82 75 144 -7 18 -12 39 -11 46 6 27 -43 11 -64 -21z m51 -77 c-8 -30 -33 -60
-52 -60 -20 0 -16 50 8 90 20 33 22 33 36 15 8 -12 11 -30 8 -45z"/>
<path d="M4679 4708 c-12 -13 -19 -17 -15 -10 5 8 1 12 -11 12 -13 0 -24 -18
-42 -68 -35 -100 -37 -122 -14 -122 15 0 28 19 52 75 37 83 69 122 58 70 -3
-16 -8 -37 -11 -45 -3 -8 -2 -22 4 -30 7 -12 19 -5 62 40 l53 55 5 -70 c4 -52
9 -70 19 -70 11 0 14 15 12 70 -4 100 -23 117 -80 69 l-31 -26 0 36 c0 29 -4
36 -20 36 -10 0 -29 -10 -41 -22z"/>
<path d="M10813 4719 c-65 -58 -73 -69 -73 -102 0 -48 45 -87 101 -87 42 0 79
27 79 56 0 39 -26 97 -53 120 -32 27 -37 28 -54 13z m41 -56 c20 8 42 -69 25
-89 -28 -34 -109 -3 -109 41 0 32 38 69 57 54 7 -6 19 -9 27 -6z"/>
<path d="M11676 4698 c-13 -18 -28 -45 -31 -61 -10 -37 17 -77 52 -77 29 0 88
33 102 58 7 13 12 10 24 -20 8 -19 19 -38 25 -42 18 -11 23 27 8 59 -8 16 -18
42 -21 58 -7 33 -31 36 -39 3 -7 -29 -70 -86 -95 -86 -28 0 -33 27 -14 67 21
45 41 52 64 22 13 -17 21 -21 29 -13 16 16 -25 64 -55 64 -15 0 -33 -12 -49
-32z"/>
<path d="M12537 4716 c-4 -9 -13 -13 -20 -10 -9 3 -31 -14 -56 -42 -43 -49
-47 -59 -32 -83 12 -19 107 -16 138 4 21 14 23 14 23 -3 0 -26 40 -76 51 -65
6 6 3 23 -7 41 -10 21 -15 51 -12 85 2 29 -1 54 -7 56 -5 2 -19 -15 -30 -38
-25 -52 -39 -61 -93 -61 l-43 0 21 30 c12 17 39 40 61 53 37 21 45 37 22 44
-6 2 -13 -3 -16 -11z"/>
<path d="M10205 4673 c-3 -21 -10 -57 -16 -80 -12 -53 -12 -53 6 -53 8 0 21
15 30 33 20 41 60 92 50 62 -4 -11 -10 -43 -12 -72 -5 -46 -2 -54 21 -78 18
-18 35 -25 53 -23 34 4 43 28 10 28 -30 0 -57 29 -57 62 0 13 7 46 16 72 15
42 15 50 2 63 -13 13 -19 11 -46 -12 -18 -15 -32 -22 -32 -16 0 7 7 14 15 17
12 5 13 10 4 20 -20 25 -38 15 -44 -23z"/>
<path d="M10046 4663 c-32 -50 -49 -108 -42 -138 7 -29 46 -42 84 -29 36 13
28 30 -13 26 -18 -1 -36 2 -40 8 -10 16 23 102 47 122 20 18 19 48 -2 48 -5 0
-21 -17 -34 -37z"/>
<path d="M11963 4684 c-21 -9 -33 -21 -33 -33 0 -11 -4 -23 -10 -26 -5 -3 -10
-22 -10 -41 0 -45 26 -46 35 -1 16 75 62 101 89 50 12 -24 12 -29 -1 -38 -13
-10 -13 -13 2 -28 42 -42 62 9 30 78 -13 25 -55 59 -68 54 -1 0 -17 -7 -34
-15z"/>
<path d="M3220 4495 c0 -8 9 -15 20 -15 11 0 20 7 20 15 0 8 -9 15 -20 15 -11
0 -20 -7 -20 -15z"/>
<path d="M7733 4275 c-3 -9 -3 -19 1 -22 7 -7 36 16 36 28 0 15 -30 10 -37 -6z"/>
<path d="M4532 4140 c-70 -36 -115 -83 -149 -157 -20 -43 -24 -68 -24 -141 0
-111 25 -186 78 -233 33 -28 41 -31 84 -26 68 8 140 48 173 95 33 48 31 70 -9
93 -39 22 -165 33 -165 14 0 -17 22 -25 69 -25 42 0 101 -18 101 -30 0 -38
-124 -120 -181 -120 -31 0 -70 33 -95 81 -26 50 -32 201 -10 267 20 58 76 121
135 152 43 21 91 27 91 10 0 -11 -28 -70 -33 -70 -2 0 -1 16 1 36 4 30 2 35
-13 32 -11 -2 -19 -13 -20 -28 -1 -14 -5 -36 -9 -50 -8 -31 5 -53 27 -44 23 8
77 93 77 120 0 22 -33 54 -56 54 -6 0 -38 -14 -72 -30z"/>
<path d="M13611 4058 c-6 -35 -16 -80 -21 -100 -10 -35 -14 -38 -49 -38 -20 0
-46 -6 -57 -14 -18 -14 -18 -15 -1 -22 10 -3 30 -1 44 5 41 19 47 1 23 -77
-12 -39 -20 -83 -18 -98 4 -37 28 -44 28 -9 0 15 10 63 21 106 l22 78 45 -6
c35 -5 44 -3 40 8 -2 7 -20 17 -40 22 l-35 8 19 86 c10 48 17 92 14 100 -11
29 -24 10 -35 -49z"/>
<path d="M6001 4058 c-6 -18 -13 -51 -17 -73 -6 -39 -8 -41 -57 -55 -60 -18
-80 -46 -26 -37 19 3 43 9 53 13 17 6 18 4 13 -17 -13 -49 -30 -216 -24 -232
3 -9 13 -17 21 -17 11 0 14 15 14 68 0 55 18 203 25 208 1 1 20 5 41 10 57 13
62 39 7 31 l-42 -5 7 36 c4 21 11 48 15 60 9 24 5 42 -11 42 -5 0 -13 -15 -19
-32z"/>
<path d="M3083 4018 c-55 -7 -73 -14 -73 -25 0 -13 10 -14 60 -9 l60 7 -42
-40 c-42 -38 -42 -40 -25 -59 10 -11 31 -25 47 -32 37 -15 42 -31 29 -88 -14
-56 -25 -71 -58 -84 -36 -13 -120 0 -139 23 -20 23 -62 26 -62 4 0 -38 148
-77 213 -56 42 14 63 43 77 108 15 65 7 89 -42 119 -40 25 -41 27 -22 41 52
38 94 78 94 90 0 15 -12 15 -117 1z"/>
<path d="M9931 3962 c-13 -31 -28 -61 -32 -65 -4 -5 -31 -12 -60 -15 -73 -10
-78 -32 -6 -32 l54 0 -15 -54 c-31 -112 13 -206 95 -206 35 1 73 18 73 34 0 4
-22 4 -49 0 -41 -5 -52 -3 -69 14 -30 30 -36 90 -16 161 17 64 38 80 84 68 24
-6 47 17 28 29 -7 5 -27 7 -45 5 -18 -1 -33 0 -33 4 0 3 11 28 25 55 30 59 30
60 8 60 -12 0 -26 -19 -42 -58z"/>
<path d="M7674 3963 c-10 -60 -11 -269 -1 -305 4 -16 14 -28 23 -28 12 0 13 9
7 53 -10 63 -9 203 2 275 6 43 5 52 -7 52 -10 0 -18 -16 -24 -47z"/>
<path d="M12131 3989 c-6 -13 -27 -91 -46 -173 -36 -147 -39 -206 -14 -222 19
-12 31 11 19 38 -10 21 -5 53 30 193 28 114 38 171 31 178 -7 7 -13 2 -20 -14z"/>
<path d="M14100 3987 c0 -7 6 -22 14 -32 13 -18 14 -18 24 2 8 14 8 23 0 31
-16 16 -38 15 -38 -1z"/>
<path d="M10703 3944 c-7 -18 -11 -15 67 -54 69 -34 130 -76 130 -89 0 -4 -28
-32 -62 -61 -83 -69 -112 -111 -104 -145 8 -33 31 -27 31 8 1 30 39 73 122
140 29 23 53 49 53 57 0 21 -63 70 -153 118 -64 34 -79 39 -84 26z"/>
<path d="M14452 3923 c2 -10 10 -18 18 -18 22 0 18 29 -3 33 -14 3 -18 -1 -15
-15z"/>
<path d="M13746 3887 c-17 -18 -39 -36 -48 -40 -12 -4 -18 -17 -18 -35 0 -16
-7 -51 -15 -77 -8 -27 -12 -52 -9 -56 10 -16 33 4 40 34 11 53 50 131 78 156
25 24 26 24 46 6 25 -23 37 -13 22 20 -17 37 -57 33 -96 -8z"/>
<path d="M6163 3876 c-16 -14 -38 -40 -48 -60 -10 -19 -28 -37 -39 -40 -16 -4
-18 -8 -8 -18 6 -6 12 -28 12 -47 0 -41 29 -94 59 -111 16 -8 33 -5 82 15 77
33 99 47 99 62 0 18 -5 17 -77 -17 -97 -46 -121 -38 -130 43 l-5 44 43 9 c37
8 46 15 67 56 40 78 7 116 -55 64z m24 -60 c-13 -19 -57 -43 -57 -30 0 2 14
20 32 40 33 38 51 31 25 -10z"/>
<path d="M4819 3841 c-75 -78 -87 -153 -34 -207 43 -43 126 -29 159 27 16 27
16 29 0 29 -9 0 -27 -11 -40 -25 -30 -33 -73 -33 -103 -1 -19 20 -22 31 -17
61 6 29 11 35 25 30 23 -7 70 11 87 33 14 18 18 60 8 86 -11 28 -36 18 -85
-33z m61 -10 c0 -18 -34 -51 -52 -51 -15 0 -8 24 14 47 26 28 38 29 38 4z"/>
<path d="M5242 3865 c-34 -28 -82 -105 -82 -130 0 -59 58 -97 130 -85 29 4 36
10 38 33 4 29 -15 38 -24 12 -10 -24 -80 -20 -98 7 -15 21 -12 43 4 33 12 -8
60 18 84 44 21 23 24 74 5 97 -16 19 -23 18 -57 -11z m34 -60 c-5 -14 -65 -50
-72 -42 -2 2 13 23 34 47 29 34 38 40 40 26 2 -9 1 -23 -2 -31z"/>
<path d="M9380 3877 c-19 -7 -41 -24 -49 -38 -13 -24 -12 -30 12 -77 34 -64
34 -86 2 -118 -24 -24 -28 -25 -48 -11 -12 8 -22 25 -23 38 -2 40 -3 42 -19
29 -24 -20 -18 -56 16 -84 46 -39 75 -33 113 24 22 34 20 73 -8 127 -14 25
-22 51 -19 59 7 18 63 33 85 23 24 -13 35 11 13 28 -22 16 -29 16 -75 0z"/>
<path d="M5461 3843 c-17 -21 -31 -41 -31 -46 0 -4 -4 -6 -8 -3 -20 12 -33
-15 -35 -70 -2 -46 1 -59 13 -59 8 0 17 13 20 30 16 74 83 164 107 143 21 -17
41 6 23 27 -22 26 -56 18 -89 -22z"/>
<path d="M3877 3852 c-32 -36 -16 -59 27 -39 29 13 35 42 10 51 -21 8 -19 9
-37 -12z"/>
<path d="M9566 3829 c-58 -51 -86 -104 -86 -163 0 -64 32 -100 87 -98 53 2
115 23 121 41 4 11 -2 12 -24 7 -16 -3 -51 -9 -78 -13 -58 -7 -76 8 -76 69 0
37 1 38 34 38 19 0 38 5 41 10 4 6 10 8 15 5 5 -3 22 9 39 26 46 46 40 119
-10 119 -9 0 -37 -19 -63 -41z m74 -12 c0 -13 -14 -36 -32 -54 -26 -23 -39
-29 -58 -24 -25 7 -24 7 23 54 55 53 67 57 67 24z"/>
<path d="M5065 3844 c-14 -14 -18 -15 -25 -3 -13 21 -25 3 -49 -75 -25 -82
-26 -106 -6 -106 8 0 15 7 15 15 0 41 75 153 103 155 11 0 8 -64 -5 -114 -9
-36 -9 -48 1 -60 19 -23 34 -20 28 5 -3 12 1 47 8 78 19 72 9 115 -27 119 -14
2 -33 -4 -43 -14z"/>
<path d="M8538 3848 c-9 -7 -37 -44 -63 -83 l-45 -70 5 55 c6 55 -4 88 -22 77
-6 -4 -11 -32 -12 -64 -2 -32 -3 -74 -4 -93 -3 -53 22 -44 68 25 22 33 48 71
58 85 l17 25 -6 -32 c-8 -44 11 -98 43 -123 31 -24 93 -27 93 -5 0 9 -10 15
-26 15 -62 0 -91 50 -73 128 14 66 3 87 -33 60z"/>
<path d="M7205 3838 c-32 -17 -76 -61 -91 -90 -33 -63 -6 -126 67 -158 47 -20
83 -18 76 3 -2 7 -18 15 -37 18 -79 16 -109 74 -70 137 23 38 79 75 100 66 8
-3 21 -8 28 -11 20 -8 14 25 -7 37 -25 13 -41 12 -66 -2z"/>
<path d="M8233 3789 l-48 -62 -3 42 c-5 65 -27 65 -85 0 l-49 -54 7 57 c4 33
2 59 -4 62 -15 10 -21 -7 -32 -95 -11 -87 -3 -117 22 -81 8 10 36 43 63 73
l48 53 -3 -48 c-5 -67 11 -69 71 -9 l49 49 6 -32 c7 -41 41 -84 66 -84 25 0
24 16 -1 30 -25 13 -40 68 -33 120 8 59 -16 52 -74 -21z"/>
<path d="M5676 3810 c-40 -35 -57 -76 -45 -108 11 -28 57 -30 86 -3 20 19 20
19 20 -18 0 -43 19 -84 36 -78 7 3 10 11 7 18 -2 8 -6 57 -8 111 -3 89 -5 96
-25 102 -33 9 -34 8 -71 -24z m49 -37 c-12 -52 -65 -87 -65 -44 0 24 37 71 57
71 12 0 14 -6 8 -27z"/>
<path d="M7890 3825 c-11 -13 -11 -23 -2 -47 7 -18 8 -38 2 -52 -8 -23 -64
-76 -80 -76 -15 0 -19 30 -13 95 5 54 3 65 -9 65 -12 0 -17 -17 -22 -71 -11
-106 21 -144 86 -101 54 35 73 72 71 131 -3 62 -14 79 -33 56z"/>
<path d="M11629 3820 c-19 -10 -52 -37 -72 -59 -49 -55 -50 -97 -4 -148 30
-32 41 -37 92 -41 46 -4 57 -2 53 9 -3 8 -26 17 -54 21 -54 8 -94 42 -94 80 0
35 46 85 105 113 30 15 55 31 55 36 0 15 -43 9 -81 -11z"/>
<path d="M13819 3822 c-13 -11 -32 -33 -41 -49 -15 -27 -16 -32 -2 -51 18 -26
41 -28 71 -7 20 14 22 13 28 -15 7 -34 22 -47 37 -32 7 7 6 17 -1 30 -8 15 -8
28 0 46 7 14 9 32 6 40 -5 14 -14 10 -53 -19 -49 -37 -64 -43 -64 -22 0 24 31
57 63 65 18 5 31 12 30 18 -4 17 -49 15 -74 -4z"/>
<path d="M14188 3804 c-44 -48 -88 -116 -82 -126 7 -12 34 -10 34 2 0 12 74
115 90 125 13 8 13 -21 -1 -85 -7 -35 -8 -55 -1 -62 15 -15 31 22 39 91 9 96
-22 118 -79 55z"/>
<path d="M14514 3814 c-53 -34 -112 -120 -95 -137 16 -16 46 4 46 31 0 34 94
116 113 98 3 -3 0 -29 -6 -57 -15 -63 -15 -96 -1 -105 6 -3 16 -1 22 6 9 10 9
11 0 6 -16 -9 -16 -5 3 60 8 29 14 68 12 86 -4 44 -38 48 -94 12z"/>
<path d="M12359 3818 c-1 -7 0 -27 1 -44 3 -57 -102 -152 -136 -123 -19 16
-17 56 5 106 18 40 18 53 -1 53 -15 0 -48 -83 -48 -122 0 -40 27 -78 55 -78
32 0 96 42 126 82 24 35 29 50 27 87 -2 24 -9 46 -15 49 -7 2 -13 -2 -14 -10z"/>
<path d="M12492 3793 c-34 -44 -82 -136 -82 -158 0 -16 25 -21 34 -6 3 5 33
33 66 61 l61 53 -18 -37 c-15 -32 -15 -38 -3 -46 11 -7 32 8 83 58 37 36 67
64 67 60 0 -3 -7 -25 -15 -48 -18 -52 -19 -80 -2 -80 12 0 47 102 47 140 0 34
-40 24 -88 -22 -35 -34 -43 -39 -42 -23 6 61 -19 60 -83 -2 -45 -44 -48 -45
-33 -17 8 18 29 45 45 62 17 16 27 32 24 36 -14 14 -33 4 -61 -31z"/>
<path d="M12890 3774 c-60 -47 -71 -53 -64 -33 11 34 11 71 -1 76 -6 2 -22
-32 -35 -74 -34 -106 -33 -103 -16 -103 9 0 16 4 16 8 0 10 131 115 136 109 2
-2 0 -17 -5 -33 -10 -36 1 -69 29 -84 25 -13 105 -9 105 5 0 6 4 16 8 23 13
20 -22 26 -43 7 -13 -12 -27 -15 -45 -11 -32 8 -34 45 -5 101 42 83 18 86 -80
9z"/>
<path d="M7446 3799 c-86 -68 -66 -179 34 -179 84 0 106 80 43 158 -37 45 -44
47 -77 21z m65 -64 c28 -52 20 -78 -25 -83 -30 -4 -66 21 -66 46 0 22 40 82
54 82 7 0 24 -20 37 -45z"/>
<path d="M10701 3806 c-7 -8 -37 -18 -67 -22 -55 -6 -74 -18 -57 -35 14 -14
131 14 147 36 9 11 16 23 16 28 0 12 -27 8 -39 -7z"/>
<path d="M14034 3783 c-24 -55 -24 -106 -1 -111 15 -3 18 0 13 16 -4 11 3 43
14 71 24 62 24 61 5 61 -8 0 -22 -17 -31 -37z"/>
<path d="M14369 3803 c-1 -5 -1 -11 0 -16 1 -4 -6 -24 -14 -44 -18 -42 -13
-66 12 -61 11 2 19 13 20 28 0 14 4 42 8 63 6 30 5 37 -9 37 -9 0 -17 -3 -17
-7z"/>
<path d="M14665 3782 c-40 -21 -51 -33 -53 -56 -8 -72 73 -121 140 -85 21 11
21 10 15 -72 -6 -88 -18 -109 -62 -109 -35 0 -114 -59 -135 -101 -11 -21 -20
-55 -20 -77 0 -64 31 -77 99 -43 43 22 64 50 103 136 30 66 49 77 128 73 38
-2 45 0 45 17 0 17 -7 19 -60 16 -33 -1 -63 -5 -66 -7 -9 -5 1 199 11 250 10
44 6 56 -16 56 -9 0 -14 -11 -14 -35 0 -68 -82 -112 -123 -67 -30 32 -21 56
28 80 25 12 54 22 65 22 24 0 26 15 4 24 -25 10 -36 7 -89 -22z m75 -356 c0
-2 -11 -28 -24 -57 -24 -54 -52 -87 -93 -108 -39 -20 -46 -14 -40 35 5 48 30
83 82 115 26 16 75 26 75 15z"/>
<path d="M11825 3760 c-3 -5 -4 -14 -1 -19 3 -4 -3 -16 -14 -26 -28 -25 -25
-50 10 -86 26 -27 34 -30 64 -25 66 13 86 80 40 135 -19 23 -34 31 -59 31 -19
0 -37 -4 -40 -10z m87 -55 c26 -57 -44 -102 -78 -50 -14 21 -14 28 -3 41 12
15 44 32 62 33 4 1 13 -10 19 -24z"/>
<path d="M3214 3669 c-3 -6 -2 -15 4 -21 11 -11 52 6 52 22 0 14 -47 13 -56
-1z"/>
<path d="M8680 3654 c0 -8 5 -12 10 -9 6 3 10 10 10 16 0 5 -4 9 -10 9 -5 0
-10 -7 -10 -16z"/>
<path d="M4100 3504 c-16 -36 -30 -69 -30 -74 0 -18 -33 -40 -60 -40 -38 0
-60 -9 -60 -25 0 -16 27 -27 35 -15 4 6 15 10 27 10 16 0 19 -4 14 -22 -28
-95 -30 -124 -10 -164 17 -35 23 -39 63 -42 32 -2 42 0 39 10 -3 7 -15 15 -29
16 -57 9 -68 51 -39 146 l22 68 39 -5 c40 -5 62 8 38 24 -8 5 -24 9 -36 9 -13
0 -23 2 -23 5 0 3 16 37 35 76 33 66 36 89 15 89 -5 0 -23 -30 -40 -66z"/>
<path d="M3467 3513 c-3 -5 -13 -59 -21 -120 -30 -215 -112 -355 -140 -241
-12 48 5 86 44 101 36 14 40 37 6 37 -15 0 -36 -14 -56 -37 -29 -33 -32 -41
-28 -85 6 -54 30 -88 64 -88 61 0 119 133 144 328 8 62 9 97 2 104 -5 5 -12 6
-15 1z"/>
<path d="M5050 3504 c0 -13 21 -44 30 -44 6 0 10 11 10 25 0 18 -5 25 -20 25
-11 0 -20 -3 -20 -6z"/>
<path d="M4836 3463 c-4 -21 -12 -61 -18 -90 -11 -52 -11 -52 -55 -59 -23 -3
-43 -10 -43 -14 0 -5 -9 -6 -20 -3 -14 4 -20 0 -20 -12 0 -14 7 -16 43 -10 23
3 50 9 60 11 16 5 17 -2 15 -78 -3 -68 0 -83 12 -83 12 0 15 14 16 61 1 34 4
73 7 86 6 24 9 24 64 17 61 -8 84 0 59 20 -9 8 -34 12 -61 9 -51 -4 -58 4 -45
54 4 18 11 54 15 81 5 37 3 47 -8 47 -9 0 -17 -14 -21 -37z"/>
<path d="M5513 3375 c-5 -8 -19 -17 -31 -20 -86 -16 -133 -135 -76 -191 29
-30 64 -27 101 8 13 12 24 20 26 17 2 -2 11 -31 21 -64 10 -33 20 -65 23 -70
2 -6 -14 -19 -35 -28 -79 -35 -110 -121 -62 -172 32 -34 52 -38 93 -21 45 18
60 47 58 108 0 26 2 48 6 48 4 0 19 -12 34 -26 15 -14 32 -23 38 -19 18 11 -5
42 -53 70 -41 24 -44 30 -71 118 -16 50 -31 128 -34 171 -6 78 -20 104 -38 71z
m1 -84 c9 -59 -10 -98 -56 -114 -24 -9 -48 19 -48 55 0 21 10 40 34 64 45 45
62 44 70 -5z m84 -340 c4 -62 -15 -91 -58 -91 -76 0 -64 108 15 140 33 14 40
6 43 -49z"/>
<path d="M4326 3359 c-28 -22 -59 -75 -70 -122 -10 -41 33 -82 77 -73 35 7 62
35 48 49 -5 5 -19 2 -34 -7 -13 -9 -32 -14 -41 -10 -20 8 -21 44 -1 44 7 0 18
6 22 13 4 8 23 24 40 37 38 27 50 55 33 75 -17 21 -43 19 -74 -6z m47 -24 c-3
-9 -19 -23 -35 -31 -28 -15 -29 -15 -19 5 18 33 66 55 54 26z"/>
<path d="M4565 3352 c-63 -34 -68 -65 -15 -98 95 -61 100 -80 24 -90 -65 -9
-72 -13 -51 -29 19 -14 81 -5 117 18 42 26 10 82 -69 122 -35 17 -35 18 -14
34 11 9 35 24 52 33 31 17 42 38 19 38 -7 0 -35 -13 -63 -28z"/>
<path d="M5200 3359 c-14 -6 -35 -20 -47 -31 -27 -25 -65 -121 -57 -142 8 -21
34 -8 34 18 1 33 36 103 58 115 53 29 79 1 70 -74 -2 -21 1 -36 8 -39 19 -7
24 4 24 61 0 44 -5 58 -25 78 -27 28 -29 28 -65 14z"/>
<path d="M2919 3327 c-41 -37 -82 -113 -74 -137 14 -44 62 -43 111 2 l22 19
-8 -39 c-8 -43 3 -82 22 -82 10 0 14 27 16 100 2 84 0 100 -13 100 -9 0 -20
-10 -24 -22 -13 -31 -59 -78 -76 -78 -24 0 -17 34 15 79 34 47 56 59 73 42 18
-18 29 -13 25 12 -5 33 -56 35 -89 4z"/>
<path d="M5031 3336 c-19 -23 -11 -161 9 -161 12 0 15 15 14 83 -1 46 -4 85
-6 88 -3 2 -11 -2 -17 -10z"/>
<path d="M3102 3275 c-16 -13 -32 -21 -36 -17 -13 12 -36 -30 -36 -65 0 -23 5
-33 15 -33 8 0 15 5 15 11 0 19 60 87 82 95 32 10 39 -14 18 -69 -10 -27 -16
-55 -13 -63 7 -18 37 -18 53 1 10 12 9 16 -3 21 -14 5 -14 10 -1 48 30 86 -26
128 -94 71z"/>
</g>
</svg>
