<?xml version="1.0" standalone="no"?>
<!DOCTYPE svg PUBLIC "-//W3C//DTD SVG 20010904//EN"
 "http://www.w3.org/TR/2001/REC-SVG-20010904/DTD/svg10.dtd">
<svg version="1.0" xmlns="http://www.w3.org/2000/svg"
 width="1618.000000pt" height="1214.000000pt" viewBox="0 0 1618.000000 1214.000000"
 preserveAspectRatio="xMidYMid meet">

<g transform="translate(0.000000,1214.000000) scale(0.100000,-0.100000)"
fill="#000000" stroke="none">
<path d="M12843 11718 c-4 -7 -19 -46 -33 -87 -25 -74 -25 -74 -65 -78 -50 -5
-95 -33 -119 -74 -25 -43 -27 -130 -3 -157 17 -18 15 -23 -38 -108 -58 -92
-71 -124 -61 -149 8 -23 26 -18 26 8 0 12 25 65 56 117 l55 95 44 2 c63 2 121
37 145 88 29 60 26 91 -12 127 l-32 30 18 46 c10 26 21 58 23 72 3 14 15 33
27 42 18 15 19 19 6 28 -20 13 -27 12 -37 -2z m-97 -235 c-16 -42 -90 -153
-97 -146 -4 4 -9 19 -10 33 -7 82 21 130 78 130 29 0 34 -3 29 -17z m79 -10
c47 -46 -37 -161 -110 -151 -24 3 -23 4 23 85 26 45 52 83 59 83 6 0 19 -7 28
-17z"/>
<path d="M14908 11585 c-33 -71 -48 -88 -48 -56 0 28 -43 28 -69 2 -50 -50
-70 -153 -38 -189 15 -16 13 -24 -19 -95 -38 -84 -43 -139 -12 -145 15 -3 17
2 12 26 -8 42 48 168 73 164 10 -1 36 -5 57 -9 74 -12 132 43 118 112 -2 15
-22 45 -44 67 l-39 39 35 66 c20 36 33 70 30 75 -12 19 -26 4 -56 -57z m-65
-101 c9 -10 -52 -126 -63 -119 -14 8 -12 69 2 100 11 23 45 34 61 19z m81 -50
c57 -58 19 -134 -61 -121 -20 4 -40 10 -44 14 -11 11 52 133 67 133 6 0 23
-12 38 -26z"/>
<path d="M15530 11632 c0 -4 5 -13 11 -19 17 -17 5 -29 -79 -72 l-77 -41 -24
25 c-31 30 -22 40 35 39 40 -1 45 1 42 20 -2 17 -9 21 -37 18 -83 -6 -111 -48
-68 -98 l25 -29 -24 -28 c-41 -49 -29 -116 25 -135 67 -23 101 41 66 124 -18
43 -22 38 77 89 67 35 85 58 73 95 -6 19 -45 29 -45 12z m-129 -221 c14 -46 7
-71 -19 -71 -41 0 -54 42 -26 85 22 34 31 31 45 -14z"/>
<path d="M13001 11558 c-7 -35 -26 -107 -42 -161 -32 -103 -34 -152 -9 -152
10 0 14 8 12 23 -2 12 10 66 26 120 30 96 52 190 52 217 0 8 -6 15 -14 15 -9
0 -18 -22 -25 -62z"/>
<path d="M13560 11600 c-42 -22 -120 -88 -120 -101 0 -20 34 -7 70 25 21 19
48 39 59 46 19 10 21 8 21 -15 0 -15 -5 -36 -11 -48 -20 -39 -99 -126 -119
-132 -23 -7 -90 -91 -90 -111 0 -27 28 -13 72 34 l46 49 -5 -37 c-4 -31 -1
-40 18 -54 39 -27 109 -15 109 19 0 18 -5 18 -32 4 -11 -6 -30 -8 -43 -5 -22
6 -24 11 -20 56 2 39 10 58 34 85 48 55 63 82 72 128 7 39 -2 78 -19 77 -4 -1
-23 -9 -42 -20z"/>
<path d="M15170 11583 c0 -22 -16 -80 -35 -129 -43 -108 -49 -159 -20 -159 16
0 19 6 17 30 -1 17 12 66 30 110 33 85 43 175 21 182 -9 3 -13 -8 -13 -34z"/>
<path d="M14520 11586 c-90 -39 -130 -60 -130 -67 0 -20 24 -17 71 7 75 38
131 56 141 46 28 -28 -76 -158 -181 -227 -63 -42 -104 -81 -97 -93 11 -19 20
-15 87 38 66 53 101 61 107 25 8 -52 14 -66 38 -81 38 -25 54 -3 20 27 -16 14
-26 33 -26 49 0 15 -9 35 -20 45 -20 18 -20 19 34 75 61 64 86 123 67 159 -15
27 -42 26 -111 -3z"/>
<path d="M13825 11583 c-62 -6 -72 -11 -54 -28 12 -13 25 -13 69 -5 29 6 55 8
57 6 2 -2 -19 -18 -46 -35 -57 -34 -65 -56 -23 -64 39 -8 97 -49 100 -72 7
-52 -74 -125 -137 -125 -39 0 -72 25 -64 47 4 11 0 14 -13 11 -45 -8 -21 -82
31 -97 48 -13 85 -3 134 37 105 85 106 171 2 215 l-28 12 58 40 c33 22 59 46
59 52 0 13 -49 15 -145 6z"/>
<path d="M13080 11295 c-19 -20 -21 -28 -12 -37 10 -10 18 -6 36 17 37 47 17
63 -24 20z"/>
<path d="M2795 11295 c-92 -33 -111 -107 -46 -178 53 -59 101 -127 101 -145 0
-8 -18 -32 -40 -53 -45 -43 -95 -57 -139 -39 -33 13 -71 50 -53 50 7 0 12 7
12 15 0 19 -24 19 -40 0 -19 -23 -2 -53 44 -80 49 -29 94 -32 142 -9 44 21
104 88 104 117 0 27 -38 85 -97 149 -41 45 -53 79 -35 104 25 36 108 62 96 29
-4 -9 0 -15 9 -15 9 0 18 -4 21 -9 3 -5 -2 -8 -12 -7 -13 1 -17 -7 -17 -39 0
-48 18 -53 48 -13 24 31 17 88 -14 119 -22 22 -31 23 -84 4z"/>
<path d="M14060 11277 c0 -23 22 -38 37 -26 21 18 15 39 -12 39 -14 0 -25 -6
-25 -13z"/>
<path d="M4299 11238 c0 -2 -1 -36 -3 -76 -2 -39 -5 -75 -9 -78 -3 -3 -38 -11
-78 -18 -66 -11 -93 -26 -72 -39 4 -3 39 1 76 8 l69 13 -8 -47 c-14 -81 -11
-115 9 -119 14 -3 17 1 13 20 -3 13 0 50 7 83 12 58 13 60 45 63 39 4 39 25 0
30 l-26 3 5 80 c5 69 4 79 -11 79 -9 0 -16 -1 -17 -2z"/>
<path d="M4440 11225 c0 -8 9 -15 20 -15 15 0 20 -7 20 -27 0 -43 -27 -147
-55 -213 -29 -68 -32 -100 -10 -100 8 0 15 3 15 8 0 14 91 112 104 112 9 0 11
-15 8 -54 -3 -35 0 -56 8 -61 16 -10 17 -8 25 61 5 50 4 64 -10 77 -22 23 -29
22 -67 -12 l-34 -29 23 86 c25 98 29 152 11 170 -17 17 -58 15 -58 -3z"/>
<path d="M10735 11093 c-4 -21 -15 -81 -26 -133 -23 -116 -15 -130 40 -69 l40
44 1 -35 c1 -37 19 -70 39 -70 14 0 15 27 1 35 -5 3 -10 26 -10 50 0 49 -16
62 -49 38 -12 -8 -25 -13 -27 -10 -3 3 2 39 10 81 20 93 20 106 1 106 -9 0
-16 -14 -20 -37z"/>
<path d="M4664 11109 c-10 -16 23 -46 36 -33 6 6 8 18 4 27 -7 19 -29 22 -40
6z"/>
<path d="M3034 11099 c-10 -17 13 -36 27 -22 12 12 4 33 -11 33 -5 0 -12 -5
-16 -11z"/>
<path d="M7936 11082 c-3 -3 -6 -14 -6 -25 0 -16 5 -18 27 -12 33 8 37 11 29
23 -7 12 -43 22 -50 14z"/>
<path d="M11017 11074 c-14 -14 -7 -35 11 -32 9 2 17 10 17 17 0 16 -18 25
-28 15z"/>
<path d="M4800 11015 c-11 -14 -10 -23 9 -62 l22 -46 -20 -20 c-20 -20 -21
-20 -41 -2 -11 10 -20 24 -20 32 0 14 -26 18 -34 4 -12 -19 25 -70 55 -76 62
-14 105 45 75 103 -22 42 -20 54 7 50 14 -2 22 2 22 12 0 22 -58 25 -75 5z"/>
<path d="M7176 10998 c-14 -18 -32 -40 -40 -48 -14 -16 -24 -51 -33 -113 -5
-34 -3 -38 13 -35 12 2 21 19 29 53 23 99 78 172 87 115 4 -29 22 -30 26 -2 4
25 -23 62 -44 62 -7 0 -24 -15 -38 -32z"/>
<path d="M8486 11007 c-57 -32 -65 -51 -38 -80 13 -13 41 -29 62 -36 22 -6 40
-15 40 -20 0 -14 -50 -31 -90 -31 -45 0 -56 -24 -17 -34 41 -10 157 37 157 64
0 14 -57 48 -92 55 -15 4 -31 11 -34 17 -9 14 20 41 58 54 18 6 34 16 36 22 6
20 -40 13 -82 -11z"/>
<path d="M5403 11004 c-18 -9 -51 -36 -73 -61 -50 -53 -52 -93 -7 -127 35 -26
142 -31 142 -6 0 11 -9 14 -36 12 -51 -5 -109 21 -109 48 0 26 81 107 111 112
13 1 24 9 24 17 0 21 -16 22 -52 5z"/>
<path d="M5752 11011 c-6 -3 -10 -13 -9 -21 1 -8 -4 -40 -12 -70 -10 -40 -11
-55 -2 -58 6 -2 9 -7 6 -12 -2 -4 4 -15 15 -25 31 -28 92 -6 130 47 28 38 39
86 23 101 -11 12 -31 -13 -26 -33 4 -14 -7 -32 -35 -60 -44 -45 -66 -50 -82
-20 -10 19 -1 69 25 131 7 18 -15 32 -33 20z"/>
<path d="M3143 10998 c-21 -25 -83 -141 -79 -146 12 -12 36 11 64 61 51 90 67
89 64 -4 -2 -46 1 -60 10 -57 20 7 31 94 16 126 -15 30 -58 42 -75 20z"/>
<path d="M3348 10994 c-33 -17 -58 -62 -58 -103 0 -49 62 -85 114 -65 19 7 11
24 -10 24 -8 0 -12 -4 -9 -10 3 -5 -8 -2 -25 8 -17 9 -33 27 -36 40 -8 27 18
69 52 84 24 11 28 29 8 34 -5 2 -21 -4 -36 -12z"/>
<path d="M3530 10997 c-29 -14 -70 -72 -70 -98 0 -10 11 -31 24 -46 22 -25 31
-28 83 -27 61 0 112 19 96 35 -6 6 -27 6 -57 -1 -56 -12 -93 -5 -107 22 -14
26 18 79 54 89 39 10 33 -8 -8 -25 -44 -19 -47 -41 -4 -32 33 6 89 42 89 56 0
12 -41 40 -60 40 -8 0 -26 -6 -40 -13z"/>
<path d="M6002 10981 c-14 -17 -34 -31 -44 -31 -15 0 -18 -8 -15 -62 1 -35 6
-62 12 -61 6 0 18 25 27 54 22 66 52 99 91 99 40 0 30 24 -12 28 -25 3 -37 -3
-59 -27z"/>
<path d="M6193 10995 c-40 -17 -43 -46 -9 -95 33 -50 39 -75 21 -90 -21 -18
-65 -4 -65 20 0 11 -6 20 -14 20 -21 0 -14 -50 9 -67 28 -19 72 -16 96 8 26
26 21 60 -16 119 -28 45 -26 60 9 60 29 0 39 10 25 27 -14 16 -16 16 -56 -2z"/>
<path d="M6438 10995 c-34 -19 -78 -92 -78 -129 0 -15 11 -37 25 -51 20 -21
34 -25 82 -25 71 0 136 17 130 33 -3 7 -11 10 -18 8 -8 -2 -45 -6 -84 -8 -62
-5 -72 -3 -89 15 -13 15 -16 29 -12 48 9 34 68 94 93 94 13 -1 7 -10 -25 -38
-23 -20 -42 -45 -42 -54 0 -22 16 -23 27 -4 4 8 27 29 51 46 32 23 42 37 40
53 -2 17 -10 23 -38 24 -19 2 -47 -4 -62 -12z"/>
<path d="M8007 10980 c-33 -28 -67 -113 -67 -164 0 -39 26 -6 42 53 18 66 29
86 61 102 15 8 24 6 41 -10 36 -34 51 -6 16 29 -28 28 -54 25 -93 -10z"/>
<path d="M9244 11000 c-24 -9 -58 -54 -66 -86 -12 -47 35 -71 78 -39 26 20 29
19 31 -11 1 -33 48 -83 63 -68 7 7 4 16 -10 29 -23 20 -25 54 -8 101 10 27 8
34 -8 52 -24 25 -53 33 -80 22z m45 -39 c24 -6 23 -7 -19 -39 -24 -18 -48 -32
-52 -32 -13 0 -9 29 8 55 17 26 23 27 63 16z"/>
<path d="M9937 10986 c-9 -13 -26 -26 -38 -28 -19 -3 -23 -10 -25 -60 -2 -32
1 -58 6 -58 5 0 21 21 34 48 13 26 32 56 41 67 16 19 16 18 11 -27 -3 -26 -2
-50 3 -53 5 -3 33 15 62 40 28 24 56 42 61 39 4 -3 8 -19 8 -35 0 -26 22 -50
35 -37 12 12 -12 92 -32 105 -19 13 -24 11 -56 -16 -19 -17 -37 -31 -40 -31
-3 0 -7 15 -9 33 -4 42 -38 49 -61 13z"/>
<path d="M11435 10994 c-16 -8 -43 -29 -59 -45 -59 -60 -33 -167 45 -184 51
-12 199 49 199 81 0 19 0 18 -67 -15 -32 -16 -70 -31 -85 -35 -56 -13 -106 30
-93 81 5 21 10 24 35 18 45 -10 110 30 110 66 0 18 -7 32 -19 39 -26 13 -30
13 -66 -6z m55 -34 c0 -13 -34 -30 -62 -30 l-23 1 24 19 c24 21 61 27 61 10z"/>
<path d="M2975 10953 c-3 -21 -9 -50 -14 -65 -9 -28 2 -48 26 -48 9 0 13 15
13 44 0 24 3 58 6 75 5 24 3 31 -9 31 -11 0 -18 -12 -22 -37z"/>
<path d="M5615 10978 c-43 -15 -56 -28 -76 -72 -38 -87 18 -91 119 -9 34 28
42 41 40 62 -3 30 -33 37 -83 19z m30 -53 c-73 -61 -116 -64 -56 -4 19 18 40
29 58 29 l28 0 -30 -25z"/>
<path d="M7508 10963 c-29 -33 -49 -84 -46 -116 4 -44 39 -49 81 -10 22 20 28
23 24 10 -4 -10 -16 -69 -27 -130 -11 -62 -31 -150 -45 -197 -42 -144 -32
-164 48 -97 28 24 67 52 85 63 33 19 43 44 18 44 -8 0 -44 -22 -79 -48 l-64
-49 24 81 c22 77 68 313 75 385 5 51 -15 48 -57 -9 -52 -71 -75 -63 -38 15 12
25 21 34 34 30 21 -7 31 7 23 29 -8 21 -37 20 -56 -1z"/>
<path d="M8188 10962 c-16 -10 -44 -37 -63 -60 -27 -31 -32 -43 -22 -49 7 -4
16 -16 20 -25 9 -25 67 -58 102 -58 49 0 105 19 105 37 0 11 -6 14 -26 9 -65
-17 -83 -17 -118 -2 -43 18 -43 38 0 47 72 14 106 54 79 95 -18 29 -40 30 -77
6z m52 -31 c0 -19 -11 -26 -65 -42 l-30 -8 37 34 c42 39 58 44 58 16z"/>
<path d="M10265 10972 c-52 -37 -80 -113 -53 -140 15 -15 53 -15 80 -1 16 9
24 7 43 -11 27 -25 55 -19 33 7 -7 9 -13 39 -13 67 0 61 -14 74 -30 27 -12
-38 -48 -71 -76 -71 -31 0 -23 38 16 77 19 19 32 39 29 44 -6 11 -15 11 -29 1z"/>
<path d="M11163 10960 c-18 -11 -33 -15 -33 -10 0 6 -6 10 -13 10 -11 0 -18
-18 -43 -117 -11 -41 21 -26 43 21 24 49 80 96 88 74 2 -7 8 -33 12 -57 11
-57 33 -67 32 -14 0 51 -20 107 -39 110 -8 2 -30 -6 -47 -17z"/>
<path d="M4621 10938 c-17 -56 -18 -93 -1 -93 9 0 17 16 23 43 5 24 15 46 23
49 23 9 16 33 -10 33 -19 0 -27 -8 -35 -32z"/>
<path d="M10469 10939 c-35 -38 -37 -62 -5 -94 40 -40 149 -46 185 -11 23 23
9 28 -42 14 -52 -13 -124 1 -134 28 -6 16 35 67 47 59 10 -6 32 20 23 28 -15
16 -47 5 -74 -24z"/>
<path d="M7297 10949 c-19 -11 -47 -67 -47 -94 0 -43 73 -70 121 -45 35 19 22
33 -25 26 -52 -8 -71 9 -29 25 60 23 82 68 44 89 -25 13 -41 12 -64 -1z m48
-29 c3 -5 -8 -16 -25 -25 -33 -17 -39 -11 -13 17 18 20 29 23 38 8z"/>
<path d="M7692 10925 c-7 -14 -12 -42 -12 -61 0 -67 73 -70 121 -4 10 14 20
36 21 50 4 37 -24 32 -34 -6 -8 -33 -51 -69 -68 -59 -15 9 -12 48 5 71 8 12
11 24 8 28 -13 13 -30 5 -41 -19z"/>
<path d="M10941 10919 c-16 -46 -14 -89 4 -89 8 0 15 3 16 8 0 4 2 18 3 32 2
14 6 37 11 53 11 40 -20 36 -34 -4z"/>
<path d="M7886 10928 c-26 -80 -28 -90 -17 -101 7 -7 15 0 26 26 8 20 16 47
18 58 2 24 -20 38 -27 17z"/>
<path d="M2214 10782 c-26 -16 -112 -201 -129 -275 -16 -72 -20 -80 -72 -127
-41 -38 -51 -51 -39 -56 9 -3 30 6 52 25 42 34 50 33 59 -8 11 -53 87 -101
126 -81 30 16 22 30 -16 30 -45 0 -79 32 -89 84 -7 35 -4 41 39 87 65 70 115
178 115 249 0 65 -17 92 -46 72z m-16 -184 c-18 -40 -46 -86 -61 -103 l-28
-30 6 40 c4 22 30 87 58 145 l52 105 3 -43 c2 -32 -5 -61 -30 -114z"/>
<path d="M6241 10702 c-27 -26 -66 -115 -78 -175 -5 -22 -10 -27 -25 -23 -26
6 -48 -3 -48 -20 0 -9 11 -14 29 -14 28 0 29 -2 24 -38 -4 -28 0 -44 15 -62
25 -31 39 -20 23 18 -7 16 -9 41 -5 56 6 27 8 27 56 21 40 -6 50 -4 46 6 -2 8
-23 18 -47 23 -40 10 -41 11 -35 40 11 52 44 123 70 146 20 19 26 21 39 10 22
-19 44 2 25 25 -19 23 -59 18 -89 -13z"/>
<path d="M12157 10713 c-4 -3 -7 -46 -7 -95 0 -85 -1 -88 -23 -88 -12 0 -45
-20 -75 -46 -43 -38 -52 -51 -52 -79 0 -96 136 -70 172 34 7 21 11 80 10 144
-1 65 2 107 8 107 6 0 10 7 10 15 0 15 -31 21 -43 8z m-11 -245 c-10 -53 -38
-83 -77 -83 -29 0 -34 3 -34 24 0 18 13 35 43 58 57 44 77 44 68 1z"/>
<path d="M4495 10690 c-11 -18 5 -30 39 -30 93 0 236 -49 250 -85 11 -29 6
-95 -8 -123 -21 -39 -75 -89 -118 -106 -49 -21 -196 -22 -224 -2 -10 8 -19 20
-19 27 0 19 -24 23 -31 4 -4 -11 2 -26 17 -41 55 -54 223 -51 313 6 67 43 106
109 106 180 0 34 -6 64 -16 78 -24 34 -93 66 -164 76 -8 1 -26 5 -40 9 -58 14
-99 17 -105 7z"/>
<path d="M6667 10693 c-2 -4 -5 -39 -6 -77 -1 -38 -11 -110 -22 -160 -11 -49
-17 -96 -14 -104 7 -19 30 -10 31 14 1 10 8 55 17 99 21 103 26 227 10 232 -6
2 -13 0 -16 -4z"/>
<path d="M10936 10609 c-12 -122 -7 -207 15 -251 15 -29 24 -37 31 -30 8 8 6
23 -7 52 -15 34 -17 56 -12 149 4 60 8 115 9 122 2 7 -4 14 -13 16 -13 3 -17
-8 -23 -58z"/>
<path d="M10836 10648 c-26 -86 -32 -313 -8 -313 10 0 14 25 16 100 2 55 7
128 11 163 6 45 5 62 -4 62 -6 0 -13 -6 -15 -12z"/>
<path d="M3194 10636 c-9 -24 12 -44 28 -28 10 10 8 16 -5 29 -15 15 -17 15
-23 -1z"/>
<path d="M10690 10632 c0 -4 7 -18 16 -31 18 -26 35 -13 27 20 -5 18 -43 28
-43 11z"/>
<path d="M5336 10618 c-17 -60 -46 -193 -46 -213 0 -34 10 -55 26 -55 10 0 12
11 7 47 -6 42 -4 46 12 39 12 -4 32 2 56 19 48 31 73 32 104 1 22 -22 24 -30
18 -77 -5 -41 -3 -51 8 -47 7 2 18 24 22 48 10 51 -11 109 -43 117 -31 8 -25
19 35 64 30 23 55 45 55 50 0 15 -29 10 -48 -9 -10 -10 -26 -22 -36 -25 -10
-4 -14 -12 -10 -19 4 -7 4 -10 -1 -6 -4 4 -22 -3 -39 -15 -27 -19 -106 -50
-113 -44 -1 2 4 30 12 62 8 33 14 63 15 68 0 12 -30 8 -34 -5z"/>
<path d="M4640 10547 c0 -30 -9 -80 -20 -112 -23 -67 -25 -95 -7 -95 12 0 55
134 58 180 3 58 -1 80 -16 80 -11 0 -15 -13 -15 -53z"/>
<path d="M2865 10575 c-36 -9 -59 -24 -83 -51 -35 -41 -58 -103 -48 -129 6
-17 30 -16 32 1 0 5 4 17 8 26 4 9 5 21 2 26 -6 11 38 73 62 86 9 6 33 12 52
16 22 3 36 12 38 23 4 20 3 20 -63 2z"/>
<path d="M6422 10579 c-33 -12 -22 -35 14 -31 37 5 41 9 23 26 -10 10 -21 11
-37 5z"/>
<path d="M6845 10571 c-107 -67 -149 -190 -75 -221 55 -23 219 11 240 50 14
27 2 30 -33 10 -45 -27 -162 -45 -193 -31 -47 21 -24 75 37 85 52 8 113 64
102 93 -14 37 -35 41 -78 14z m45 -26 c0 -16 -31 -39 -70 -50 -23 -7 -24 -7
-10 10 12 15 69 55 78 55 1 0 2 -7 2 -15z"/>
<path d="M2672 10563 c-6 -10 -13 -33 -17 -50 -4 -21 -23 -47 -52 -73 -71 -62
-85 -48 -33 34 27 41 34 47 55 42 20 -5 25 -3 25 13 0 11 -9 23 -21 26 -25 8
-60 -22 -96 -82 -54 -92 -2 -138 76 -67 26 23 41 31 41 22 0 -23 38 -54 51
-41 7 7 5 14 -6 23 -19 16 -19 57 1 105 15 37 13 65 -5 65 -6 0 -14 -8 -19
-17z"/>
<path d="M10371 10553 c-24 -14 -64 -33 -89 -42 -49 -18 -68 -41 -33 -41 12 0
51 13 86 29 l65 30 -35 -43 c-59 -73 -38 -119 36 -79 l38 21 16 -24 c25 -38
50 -47 89 -30 42 17 49 30 48 75 -1 19 4 38 11 43 17 11 -5 30 -26 22 -13 -4
-17 -19 -17 -54 0 -34 -4 -50 -16 -54 -33 -13 -55 -6 -67 22 -18 41 -27 43
-74 15 -24 -14 -43 -22 -43 -17 0 4 15 25 33 48 82 100 73 134 -22 79z"/>
<path d="M2358 10538 c-17 -18 -42 -57 -55 -86 -24 -54 -21 -83 11 -104 29
-20 116 -2 116 24 0 6 -6 5 -17 -3 -9 -8 -14 -9 -10 -2 5 8 -4 10 -32 6 -59
-8 -58 12 3 51 60 38 74 64 56 106 -18 43 -38 45 -72 8z m43 -15 c5 -30 5 -52
0 -50 -3 1 -19 -7 -34 -17 -38 -26 -41 -17 -10 32 26 40 41 52 44 35z"/>
<path d="M8878 10483 l-42 -88 -6 43 c-7 44 -24 69 -50 72 -47 7 -54 -12 -12
-32 20 -10 28 -22 30 -48 2 -19 8 -40 12 -45 6 -7 -21 -55 -70 -128 -78 -114
-98 -167 -65 -167 8 0 15 8 15 18 0 19 28 66 133 221 38 56 75 118 83 139 8
20 21 49 29 64 19 33 19 38 0 38 -9 0 -32 -35 -57 -87z"/>
<path d="M11650 10533 c-47 -42 -73 -85 -64 -107 5 -12 0 -16 -20 -16 -20 0
-27 6 -31 28 -21 100 -37 113 -81 63 -25 -28 -28 -29 -49 -15 -27 18 -44 2
-25 -21 12 -14 10 -42 -5 -77 -5 -14 -2 -18 14 -18 12 0 21 6 21 14 0 20 70
107 81 101 5 -4 9 -19 9 -34 0 -55 68 -107 84 -65 6 15 8 15 27 -2 25 -23 139
-28 146 -6 3 8 -10 12 -45 12 -66 0 -98 24 -87 66 6 19 10 24 12 13 9 -39 98
-26 109 16 7 28 -9 61 -36 75 -16 9 -26 4 -60 -27z m64 -19 c8 -22 -1 -34 -28
-34 -32 0 -39 10 -19 32 20 22 39 23 47 2z"/>
<path d="M11900 10563 c-23 -8 -80 -65 -95 -94 -18 -34 -6 -80 26 -97 41 -21
156 5 131 30 -8 8 -20 7 -41 -1 -17 -8 -43 -10 -60 -6 -26 5 -31 12 -31 34 0
24 4 28 32 28 39 0 81 43 76 81 -3 27 -13 34 -38 25z m-5 -53 c-10 -11 -23
-20 -29 -20 -6 0 0 9 14 20 32 25 38 25 15 0z"/>
<path d="M9320 10514 c-21 -41 -107 -124 -131 -124 -5 0 -9 -7 -9 -16 0 -21
35 -10 81 27 35 27 37 27 42 9 8 -32 46 -24 98 20 49 41 59 42 59 3 0 -13 11
-35 25 -49 32 -32 53 -22 25 13 -11 14 -20 37 -20 52 0 37 -11 71 -22 71 -5 0
-36 -23 -69 -52 -32 -28 -62 -48 -65 -45 -4 4 3 29 15 58 36 82 9 113 -29 33z"/>
<path d="M9022 10486 c-45 -58 -52 -94 -24 -119 50 -45 152 -5 152 60 0 40
-48 113 -74 113 -6 0 -30 -24 -54 -54z m82 -18 c9 -12 16 -30 16 -39 0 -48
-101 -69 -108 -21 -2 14 7 33 27 52 35 36 45 37 65 8z"/>
<path d="M2994 10511 c-16 -10 -37 -27 -47 -39 -11 -11 -24 -19 -30 -16 -18 6
-62 -75 -48 -89 8 -8 29 6 75 52 l64 63 -5 -44 c-6 -48 11 -74 37 -58 10 6 11
12 2 22 -7 9 -9 33 -6 65 4 28 2 53 -3 56 -5 3 -23 -2 -39 -12z"/>
<path d="M3303 10498 c-26 -26 -34 -29 -47 -19 -15 13 -32 -1 -22 -17 3 -5 1
-26 -5 -46 -13 -47 -5 -74 16 -56 8 7 15 20 15 29 0 9 18 36 40 61 l39 45 1
-48 c0 -42 5 -53 39 -87 22 -22 49 -40 61 -40 33 0 78 27 93 56 14 26 14 26
30 -39 10 -36 17 -89 17 -117 l0 -50 -36 0 c-48 0 -87 -25 -113 -70 -25 -45
-27 -80 -6 -120 25 -47 64 -41 114 18 23 26 46 64 53 85 9 29 16 37 32 35 23
-3 26 1 26 33 0 15 -5 19 -17 15 -16 -5 -18 2 -20 50 -3 54 -23 156 -44 222
-13 39 -34 42 -44 5 -15 -63 -71 -107 -101 -82 -11 9 -11 15 0 38 20 37 58 71
92 80 40 10 43 31 5 31 -35 0 -115 -65 -127 -102 -9 -30 -24 -3 -24 45 0 38
-14 77 -28 77 -4 0 -22 -14 -39 -32z m277 -363 c0 -17 -34 -82 -61 -116 -35
-45 -55 -49 -70 -15 -26 56 31 136 95 136 20 0 36 -2 36 -5z"/>
<path d="M12735 10522 c-28 -5 -95 -72 -95 -94 0 -32 44 -44 91 -25 36 14 43
14 56 2 9 -10 24 -13 41 -9 43 11 70 22 76 32 9 15 -23 23 -44 12 -27 -15 -50
-12 -50 5 0 20 -16 19 -69 -5 -24 -11 -47 -20 -52 -20 -17 0 -9 27 16 50 19
18 31 22 59 17 38 -6 54 4 33 20 -18 15 -40 20 -62 15z"/>
<path d="M5678 10494 c-38 -20 -82 -97 -74 -129 9 -37 39 -49 84 -34 20 7 43
14 51 15 19 3 36 22 28 30 -4 4 -24 2 -46 -4 -46 -14 -78 -15 -85 -3 -13 21 9
42 59 57 63 18 80 34 62 56 -18 24 -49 29 -79 12z m39 -30 c-3 -3 -12 -4 -19
-1 -8 3 -5 6 6 6 11 1 17 -2 13 -5z"/>
<path d="M8074 10495 c-4 -8 -3 -22 0 -30 5 -14 8 -14 31 1 20 13 23 19 14 30
-15 18 -38 18 -45 -1z"/>
<path d="M4910 10490 c0 -5 -11 -20 -25 -34 -51 -51 -14 -105 58 -85 59 16 73
59 32 103 -23 25 -65 36 -65 16z m50 -45 c18 -21 -4 -45 -41 -45 -35 0 -36 7
-6 37 27 26 31 27 47 8z"/>
<path d="M5859 10470 c-26 -25 -30 -36 -27 -72 4 -59 30 -59 33 0 2 54 15 67
65 65 47 -2 61 13 25 27 -43 16 -65 12 -96 -20z"/>
<path d="M5071 10464 c-60 -50 -63 -88 -8 -102 39 -10 109 -1 115 16 3 9 -13
12 -57 12 -46 0 -61 3 -61 14 0 19 47 56 71 56 11 0 19 7 19 15 0 24 -45 18
-79 -11z"/>
<path d="M10657 10474 c-4 -4 -7 -29 -7 -56 0 -63 24 -61 28 2 3 41 -7 68 -21
54z"/>
<path d="M3133 10458 c-19 -23 -37 -138 -25 -150 15 -15 16 -14 34 72 16 73
12 104 -9 78z"/>
<path d="M6354 10436 c-9 -24 0 -51 19 -54 15 -3 17 2 13 25 -2 15 -5 31 -5
36 -2 13 -21 8 -27 -7z"/>
<path d="M5686 10283 c-3 -3 -6 -16 -6 -27 0 -12 -11 -66 -24 -121 -13 -55
-27 -124 -31 -153 -6 -48 -5 -54 10 -50 13 2 19 15 22 48 2 25 15 89 29 142
13 53 24 110 24 127 0 30 -11 46 -24 34z"/>
<path d="M2242 10244 c-7 -13 -4 -28 10 -56 49 -93 -7 -288 -82 -288 -32 0
-60 18 -60 40 0 26 58 91 79 88 9 -2 16 4 16 12 0 9 -11 16 -25 18 -20 2 -33
-6 -56 -35 -44 -54 -53 -75 -44 -99 20 -52 96 -70 142 -35 14 11 38 48 53 83
32 70 38 159 14 213 -7 17 -13 39 -13 49 -1 26 -22 32 -34 10z"/>
<path d="M2841 10153 c-25 -120 -25 -186 0 -191 13 -2 15 6 11 52 l-4 55 36 6
c80 15 119 -22 98 -92 -6 -21 -8 -41 -3 -46 13 -13 33 21 38 68 5 39 2 47 -25
75 -19 19 -41 30 -58 30 -26 0 -26 1 17 35 24 19 56 41 71 47 35 16 45 38 17
38 -23 0 -57 -20 -121 -73 -27 -22 -48 -33 -48 -25 1 15 13 72 24 106 6 18 4
22 -12 22 -16 0 -22 -16 -41 -107z"/>
<path d="M5349 10203 c-3 -70 -16 -127 -40 -179 -6 -11 -9 -36 -7 -54 2 -28 8
-35 33 -42 44 -12 86 -2 127 32 40 33 55 77 38 109 -14 27 -58 27 -109 2 l-38
-20 13 57 c19 78 18 132 -1 132 -10 0 -15 -11 -16 -37z m115 -194 c-17 -33
-75 -62 -109 -53 -14 3 -25 9 -25 13 0 14 66 70 100 85 32 13 36 13 41 -2 4
-9 0 -29 -7 -43z"/>
<path d="M7402 10193 c-15 -30 -41 -145 -45 -200 -5 -65 9 -69 54 -18 39 44
50 44 47 0 -1 -22 4 -41 14 -51 18 -19 45 -10 29 10 -5 6 -11 34 -13 61 -4 60
-21 68 -67 30 l-31 -27 0 24 c0 13 9 55 20 93 11 38 20 76 20 82 0 19 -18 16
-28 -4z"/>
<path d="M7647 10184 c-11 -11 5 -34 25 -34 14 0 18 5 14 16 -3 9 -6 18 -6 20
0 6 -26 5 -33 -2z"/>
<path d="M3340 10149 c-14 -6 -35 -20 -48 -32 -13 -12 -27 -21 -30 -19 -9 3
-26 -117 -18 -125 15 -15 36 9 36 41 0 42 38 91 87 111 19 8 32 19 28 25 -8
12 -22 12 -55 -1z"/>
<path d="M3134 10136 c-11 -8 -29 -34 -39 -58 -11 -24 -26 -48 -34 -54 -12
-10 -11 -13 6 -22 11 -6 23 -22 27 -35 7 -29 48 -49 82 -41 33 8 33 38 -1 32
-29 -6 -50 8 -60 39 -5 18 -1 25 18 32 26 10 67 56 67 76 0 11 -31 45 -41 45
-3 0 -14 -6 -25 -14z m24 -48 c-22 -33 -41 -36 -27 -4 7 14 19 26 27 26 13 0
13 -3 0 -22z"/>
<path d="M8064 10134 c-46 -23 -92 -91 -99 -150 -6 -41 -3 -52 14 -71 28 -30
59 -37 122 -26 49 7 54 11 63 41 13 46 -9 69 -24 25 -10 -26 -18 -32 -55 -38
-68 -10 -102 18 -89 71 4 15 16 26 33 31 14 3 47 17 74 30 54 27 63 60 25 87
-27 19 -25 19 -64 0z m54 -36 c-5 -14 -65 -47 -87 -48 -9 0 -4 11 14 30 29 30
81 42 73 18z"/>
<path d="M5775 10106 c-60 -64 -50 -145 22 -165 52 -15 98 -14 112 3 9 11 0
14 -51 19 -47 4 -67 11 -80 27 -20 24 -14 50 12 50 10 0 21 6 23 13 4 9 8 9
14 0 11 -16 73 11 73 32 0 65 -72 76 -125 21z m90 -5 c7 -12 -27 -31 -56 -31
-21 0 -22 1 -4 20 19 21 50 26 60 11z"/>
<path d="M2610 10093 c-35 -32 -61 -97 -50 -128 10 -27 58 -42 121 -35 82 8
74 29 -13 32 l-73 3 -3 31 c-4 39 33 86 69 89 30 2 32 29 2 33 -13 2 -34 -8
-53 -25z"/>
<path d="M2372 10066 c-48 -53 -57 -77 -40 -113 10 -22 21 -29 51 -31 31 -3
43 2 68 28 28 28 31 36 26 76 -5 45 -29 84 -52 84 -7 0 -31 -20 -53 -44z m78
-53 c0 -47 -63 -81 -89 -49 -16 18 -1 51 37 83 25 21 28 22 40 6 6 -9 12 -27
12 -40z"/>
<path d="M4321 10084 c-33 -28 -61 -72 -61 -99 0 -8 9 -24 20 -35 16 -16 33
-20 89 -20 73 0 101 6 101 22 0 5 -4 6 -10 3 -5 -3 -10 -3 -10 2 0 4 -31 7
-68 5 -84 -4 -102 9 -78 57 22 42 54 61 104 61 59 0 51 24 -10 28 -37 2 -51
-2 -77 -24z"/>
<path d="M4893 10083 c-16 -16 -35 -43 -42 -60 -13 -31 -31 -45 -31 -23 0 6
-6 10 -14 10 -10 0 -14 -28 -19 -117 -3 -69 -12 -137 -21 -162 -11 -30 -13
-48 -6 -55 18 -18 30 8 51 110 26 129 26 129 44 114 35 -29 113 24 140 94 36
93 -34 153 -102 89z m75 -40 c4 -42 -21 -89 -59 -109 -35 -18 -36 -18 -39 16
-4 45 0 55 31 93 37 45 63 45 67 0z"/>
<path d="M6653 10065 c-38 -40 -44 -43 -41 -24 2 16 -3 25 -14 27 -12 2 -18
-3 -18 -16 0 -10 -11 -41 -25 -68 -14 -27 -25 -52 -25 -56 0 -23 35 0 89 57
l60 65 -2 -36 c-1 -20 3 -39 9 -41 5 -2 28 14 50 34 l40 38 -4 -60 c-4 -65 10
-91 42 -79 21 8 21 34 0 34 -17 0 -17 8 -1 134 4 33 -20 29 -63 -10 l-42 -38
7 36 c11 56 -10 57 -62 3z"/>
<path d="M7195 10099 c-61 -35 -110 -111 -99 -154 7 -30 40 -55 71 -55 24 0
77 43 66 53 -12 13 -42 7 -51 -9 -14 -25 -52 -9 -52 22 0 54 65 124 115 124
23 0 13 24 -11 27 -10 2 -28 -2 -39 -8z"/>
<path d="M5091 10081 c-11 -11 -27 -33 -35 -49 -13 -25 -13 -32 -2 -48 12 -16
19 -17 49 -7 33 10 36 9 41 -13 7 -27 38 -47 60 -38 23 9 20 34 -4 34 -17 0
-20 7 -20 39 0 48 -10 56 -41 33 -30 -23 -59 -34 -59 -23 0 16 42 61 51 55 6
-3 18 -3 27 1 16 6 15 8 -2 21 -27 19 -42 18 -65 -5z"/>
<path d="M4544 10055 c-36 -38 -42 -63 -22 -83 17 -17 63 -15 98 3 29 15 30
15 30 -5 0 -30 18 -60 35 -60 18 0 19 14 3 39 -9 15 -9 28 0 57 17 55 0 66
-41 26 -32 -31 -107 -56 -107 -36 1 21 39 56 69 62 43 9 44 26 3 30 -27 3 -39
-3 -68 -33z"/>
<path d="M6914 10043 c-52 -57 -62 -80 -40 -101 14 -14 19 -14 56 1 33 12 40
13 40 2 0 -16 38 -45 57 -45 21 0 15 28 -7 35 -22 7 -25 26 -10 56 14 25 -15
39 -33 16 -7 -9 -30 -24 -51 -32 l-39 -16 31 39 c38 48 51 59 76 63 34 7 31
29 -4 29 -26 0 -41 -10 -76 -47z"/>
<path d="M7774 10046 c-19 -19 -41 -36 -49 -40 -8 -3 -15 -13 -15 -23 0 -10
-3 -28 -6 -40 -10 -36 22 -28 41 10 17 37 61 87 76 87 7 0 8 -25 3 -70 -5 -58
-4 -70 8 -70 11 0 17 15 22 53 9 78 8 94 -10 111 -22 23 -32 20 -70 -18z"/>
<path d="M7627 10043 c-4 -3 -7 -12 -7 -20 0 -17 26 -17 33 1 8 21 -11 35 -26
19z"/>
<path d="M7615 9981 c-3 -11 -12 -22 -20 -25 -21 -8 -18 -29 6 -44 27 -17 35
-8 43 46 5 33 3 42 -8 42 -8 0 -17 -9 -21 -19z"/>
<path d="M8157 9389 c-19 -30 -44 -73 -56 -96 -19 -38 -25 -42 -63 -45 -30 -2
-43 -7 -43 -18 0 -11 9 -14 33 -12 37 4 36 7 17 -48 -22 -62 -20 -135 5 -160
22 -22 66 -26 105 -8 32 15 35 43 3 33 -52 -16 -69 -17 -83 -5 -21 18 -19 79
6 145 20 53 22 55 58 55 20 0 46 7 57 15 21 16 17 18 -39 15 -44 -2 -45 -6 20
103 25 41 32 62 25 69 -7 7 -21 -6 -45 -43z"/>
<path d="M4030 9409 c0 -11 -16 -101 -36 -201 -35 -181 -38 -218 -18 -225 7
-2 14 18 19 54 3 32 12 83 20 113 25 106 48 248 42 264 -9 23 -27 20 -27 -5z"/>
<path d="M6800 9382 c0 -41 -26 -124 -85 -272 -28 -71 -34 -95 -25 -104 9 -8
16 -5 28 14 10 13 35 47 57 74 l39 51 7 -34 c7 -35 23 -51 52 -51 10 0 17 -8
17 -20 0 -10 10 -29 23 -40 19 -19 30 -21 77 -15 75 8 90 14 90 31 0 15 -10
15 -103 -3 -15 -2 -34 1 -42 7 -27 22 -16 46 35 78 52 32 77 69 67 96 -15 39
-82 -3 -138 -84 -25 -37 -49 -20 -49 35 0 38 -3 45 -19 45 -11 0 -29 -14 -41
-31 -12 -16 -24 -29 -26 -27 -1 2 12 48 31 103 41 121 48 178 23 183 -15 3
-18 -4 -18 -36z m185 -232 c-16 -16 -31 -27 -34 -24 -6 6 45 54 56 54 4 0 -6
-13 -22 -30z"/>
<path d="M6646 9381 c7 -32 -22 -142 -39 -154 -7 -4 -55 -7 -107 -5 -77 2 -95
-1 -95 -12 0 -12 20 -16 98 -18 89 -2 98 -4 92 -20 -11 -26 -45 -165 -45 -184
0 -35 29 -19 35 20 22 135 45 187 86 196 27 5 30 8 19 21 -7 9 -19 14 -27 11
-14 -6 -11 20 8 72 5 13 9 41 9 63 0 32 -3 39 -20 39 -16 0 -19 -5 -14 -29z"/>
<path d="M10144 9313 l-19 -98 -32 -3 c-40 -4 -46 -32 -8 -32 27 0 29 -6 16
-61 -10 -42 2 -74 18 -49 5 8 13 36 16 62 7 51 7 51 95 60 44 5 22 23 -28 23
-42 0 -47 2 -47 23 0 12 3 22 6 22 4 0 11 26 17 58 6 31 13 65 17 75 5 13 2
17 -12 17 -17 0 -23 -14 -39 -97z"/>
<path d="M10542 9381 c-11 -6 -10 -11 3 -25 23 -22 37 -20 33 6 -3 24 -17 32
-36 19z"/>
<path d="M3911 9371 c-12 -8 -12 -12 2 -26 10 -9 17 -21 17 -26 0 -5 7 -9 16
-9 12 0 15 6 10 23 -3 12 -6 28 -6 35 0 14 -19 16 -39 3z"/>
<path d="M4105 9263 c-33 -137 -34 -168 -12 -191 16 -15 17 -13 17 35 0 28 12
95 26 148 24 92 26 125 6 125 -5 0 -22 -53 -37 -117z"/>
<path d="M8357 9324 c-13 -13 -7 -36 7 -31 7 3 19 0 25 -6 15 -15 27 1 15 21
-12 19 -36 27 -47 16z"/>
<path d="M5164 9298 c-12 -13 -29 -37 -39 -55 -13 -23 -22 -29 -31 -22 -20 17
-36 -17 -39 -88 -2 -37 -15 -108 -30 -157 -24 -81 -27 -133 -6 -110 14 16 58
137 65 179 l7 40 50 0 c45 0 54 4 83 36 21 23 38 55 46 88 11 48 11 55 -7 79
-27 36 -72 41 -99 10z m76 -29 c9 -15 7 -32 -5 -68 -19 -57 -39 -78 -83 -87
-44 -9 -50 13 -19 80 41 88 84 119 107 75z"/>
<path d="M2459 9279 c-24 -17 -59 -40 -76 -51 -33 -20 -44 -48 -19 -48 7 0 35
17 62 39 27 21 59 43 72 50 20 11 22 9 22 -14 0 -30 -19 -72 -59 -135 -51 -78
-34 -110 23 -44 l32 36 38 -46 c40 -49 75 -70 100 -60 18 7 79 115 107 188 21
56 25 96 9 96 -5 0 -13 1 -17 3 -5 1 -9 -16 -10 -38 -1 -24 -19 -73 -45 -125
-54 -105 -73 -112 -120 -46 -17 25 -39 48 -48 51 -16 5 -16 8 2 44 23 47 27
109 7 122 -22 14 -33 11 -80 -22z"/>
<path d="M3518 9252 c-32 -20 -58 -43 -58 -49 0 -17 37 -17 47 0 4 8 21 22 37
33 l29 18 -26 -39 c-88 -132 -80 -175 19 -100 56 43 74 45 74 8 0 -45 19 -101
37 -107 40 -16 95 65 107 157 5 42 4 48 -12 45 -12 -2 -19 -17 -23 -55 -7 -54
-35 -113 -55 -113 -7 0 -16 25 -21 63 -8 58 -10 62 -36 65 -19 2 -43 -6 -69
-23 -43 -28 -43 -28 15 58 59 86 31 103 -65 39z"/>
<path d="M4605 9248 c-45 -39 -95 -124 -95 -161 0 -19 11 -39 31 -59 29 -30
32 -31 101 -25 68 6 118 26 118 48 0 7 -9 9 -22 4 -55 -17 -127 -27 -152 -21
-38 9 -53 46 -35 87 7 18 15 27 17 21 11 -34 103 23 123 76 25 64 -27 82 -86
30z m58 -17 c-8 -30 -46 -62 -62 -51 -11 6 -8 15 17 39 35 35 52 40 45 12z"/>
<path d="M2859 9247 c-70 -47 -107 -143 -74 -193 16 -25 20 -26 96 -22 58 2
83 8 96 21 17 17 14 17 -67 11 -70 -5 -88 -4 -98 8 -13 17 -6 48 11 48 23 0
109 64 123 92 29 56 -24 78 -87 35z m61 -16 c0 -13 -72 -71 -88 -71 -21 0 5
38 41 60 35 22 47 25 47 11z"/>
<path d="M5560 9250 l-25 -19 21 -43 c34 -68 35 -76 10 -105 -23 -27 -25 -27
-44 -10 -26 24 -41 3 -16 -24 24 -27 59 -24 83 8 33 41 35 67 10 119 l-24 47
23 15 c12 8 22 18 22 23 0 16 -34 9 -60 -11z"/>
<path d="M5688 9209 c-51 -52 -60 -104 -25 -144 19 -22 32 -27 76 -28 69 -2
80 18 14 26 -92 10 -106 78 -22 107 49 17 63 45 33 67 -26 19 -32 17 -76 -28z"/>
<path d="M12112 9229 c-40 -26 -49 -57 -28 -97 21 -41 20 -59 -5 -67 -14 -5
-25 -1 -34 12 -21 28 -40 4 -19 -25 30 -43 104 -17 104 37 0 12 -7 36 -16 53
-16 31 -16 32 10 55 15 13 34 23 42 23 8 0 14 7 14 15 0 21 -29 18 -68 -6z"/>
<path d="M5327 9184 c-20 -31 -37 -67 -37 -80 0 -54 60 -69 130 -34 49 25 63
50 54 95 -7 41 -45 75 -83 75 -21 0 -34 -11 -64 -56z m114 -18 c4 -15 5 -34 3
-41 -6 -14 -74 -45 -100 -45 -35 0 -22 57 25 107 27 28 62 18 72 -21z"/>
<path d="M11030 9191 c-39 -38 -50 -56 -50 -80 0 -17 -1 -34 -2 -38 -1 -5 5
-9 14 -11 11 -2 18 7 22 30 6 35 60 108 78 108 6 0 20 -7 30 -16 16 -16 18
-15 24 1 8 19 -26 55 -52 55 -8 0 -36 -22 -64 -49z"/>
<path d="M12840 9218 c-113 -58 -89 -169 26 -119 l44 20 29 -30 c31 -30 46
-35 70 -20 19 12 3 33 -19 26 -30 -10 -55 36 -41 76 14 40 14 39 -3 39 -8 0
-16 7 -20 15 -8 21 -34 19 -86 -7z m68 -21 c13 -15 7 -25 -32 -55 -32 -24 -76
-29 -76 -9 0 15 33 48 65 65 26 15 30 15 43 -1z"/>
<path d="M7831 9164 c-38 -41 -49 -49 -41 -29 14 36 13 45 -5 45 -9 0 -21 -25
-35 -69 -35 -117 -22 -126 50 -33 l52 67 -4 -70 c-3 -69 -3 -70 22 -70 17 0
24 5 21 15 -12 44 -11 95 3 136 15 45 14 64 -4 64 -4 0 -31 -25 -59 -56z"/>
<path d="M8463 9198 c-31 -36 -82 -138 -76 -154 7 -20 33 -17 33 4 0 9 15 44
33 77 28 52 36 60 62 61 46 2 48 3 35 19 -18 22 -63 18 -87 -7z"/>
<path d="M9516 9209 c-42 -11 -105 -77 -118 -123 -12 -37 -11 -40 20 -67 34
-30 69 -36 103 -19 33 18 22 32 -19 25 -30 -5 -44 -2 -62 13 -22 18 -23 21
-10 51 21 51 77 91 128 91 29 0 42 4 40 12 -6 17 -48 26 -82 17z"/>
<path d="M10290 9183 c-66 -59 -73 -103 -18 -103 16 0 38 5 49 10 10 6 19 7
20 3 4 -43 13 -58 28 -49 9 6 7 93 -3 103 -2 3 -23 -5 -45 -18 -23 -12 -44
-19 -48 -16 -8 9 45 65 69 73 20 6 20 25 1 31 -7 3 -30 -13 -53 -34z"/>
<path d="M10815 9183 c-19 -20 -35 -40 -35 -45 0 -4 -7 -8 -16 -8 -12 0 -14
-7 -9 -32 13 -58 50 -83 101 -69 44 11 40 29 -7 29 -74 1 -80 39 -10 61 51 15
77 50 61 80 -16 31 -45 26 -85 -16z m55 -6 c0 -8 -12 -19 -27 -26 l-28 -13 24
26 c28 30 31 31 31 13z"/>
<path d="M4802 9197 c-13 -16 0 -46 32 -76 l26 -24 -50 -35 c-28 -19 -50 -39
-50 -43 0 -20 40 -7 83 27 l46 36 30 -23 c26 -19 33 -21 44 -10 10 11 9 15 -2
19 -18 6 -51 39 -51 51 0 5 8 7 19 4 12 -3 25 5 40 25 44 63 19 70 -37 10
l-39 -41 -31 23 c-18 13 -32 32 -32 41 0 23 -15 32 -28 16z"/>
<path d="M7661 9194 c-35 -25 -81 -104 -81 -139 0 -43 30 -69 76 -67 35 1 64
16 64 32 0 4 -24 7 -52 6 -48 -1 -53 1 -56 22 -2 12 2 22 8 22 6 0 31 19 56
42 34 32 44 47 42 67 -4 31 -25 37 -57 15z m29 -27 c0 -2 -12 -14 -27 -28
l-28 -24 24 28 c23 25 31 32 31 24z"/>
<path d="M9675 9198 c-24 -11 -61 -63 -70 -98 -8 -33 27 -80 59 -80 29 0 74
47 82 85 11 60 -29 113 -71 93z m38 -55 c6 -32 -10 -71 -36 -87 -14 -9 -21 -7
-32 8 -15 20 -6 57 22 88 23 26 40 22 46 -9z"/>
<path d="M9875 9188 c-16 -12 -38 -22 -49 -23 -12 0 -21 -4 -22 -10 0 -5 -8
-27 -17 -49 -33 -76 -15 -76 58 2 l54 57 1 -41 c0 -26 7 -51 19 -65 25 -31 37
-19 22 20 -7 16 -12 46 -11 68 4 73 -6 80 -55 41z"/>
<path d="M11842 9180 c-40 -29 -61 -68 -47 -89 9 -16 58 -13 81 4 26 20 32 19
36 -7 2 -13 10 -23 18 -23 11 0 14 9 12 33 -2 19 4 44 12 57 28 42 21 55 -27
55 -33 0 -55 -8 -85 -30z m46 -35 c-37 -34 -72 -47 -62 -22 7 17 66 57 84 57
9 0 1 -14 -22 -35z"/>
<path d="M3855 9188 c-2 -7 -11 -37 -20 -65 -15 -47 -13 -104 3 -89 10 11 51
149 46 158 -8 12 -24 10 -29 -4z"/>
<path d="M8645 9193 c-47 -12 -111 -98 -101 -138 11 -44 99 -69 174 -49 45 13
17 29 -44 26 -47 -3 -65 0 -83 15 -20 17 -22 22 -12 41 7 13 16 20 21 17 11
-7 89 14 108 28 6 5 12 13 12 18 0 12 -38 49 -47 48 -5 -1 -17 -3 -28 -6z m33
-38 c-7 -6 -68 -24 -68 -20 0 9 55 33 63 28 5 -3 7 -6 5 -8z"/>
<path d="M10610 9173 c-36 -22 -95 -122 -81 -136 13 -13 57 24 67 57 7 23 43
66 56 66 4 0 8 -25 8 -55 0 -40 4 -55 14 -55 15 0 25 71 16 112 -7 28 -44 33
-80 11z"/>
<path d="M10457 9173 c-6 -10 -37 -114 -37 -125 0 -4 6 -8 14 -8 14 0 46 87
46 124 0 16 -15 22 -23 9z"/>
<path d="M8307 9143 c-3 -5 -8 -23 -12 -40 -10 -49 18 -43 38 7 15 38 14 40
-3 40 -10 0 -21 -3 -23 -7z"/>
<path d="M2610 8881 c-12 -30 -7 -51 11 -51 5 0 9 6 9 14 0 7 7 19 15 26 21
17 19 40 -4 40 -11 0 -23 -12 -31 -29z"/>
<path d="M6086 8894 c-3 -9 -6 -32 -6 -53 0 -62 -20 -152 -46 -203 -13 -26
-24 -54 -24 -63 0 -24 19 -17 33 11 l12 27 5 -24 c10 -42 52 -37 105 12 55 51
79 92 71 125 -7 26 -51 43 -72 28 -6 -5 -27 -20 -45 -33 -18 -14 -30 -20 -26
-14 4 5 9 41 12 79 3 38 8 81 11 97 4 20 2 27 -9 27 -8 0 -18 -7 -21 -16z
m119 -174 c10 -16 -22 -66 -62 -99 -46 -38 -49 -38 -56 -5 -4 22 4 35 42 70
46 44 65 52 76 34z"/>
<path d="M3539 8893 c-4 -17 -6 -39 -8 -60 -1 -16 -9 -24 -28 -29 -53 -11 -56
-13 -44 -28 6 -7 22 -11 36 -9 23 5 24 3 15 -26 -5 -17 -10 -35 -11 -39 -1 -4
-5 -17 -10 -30 -14 -37 -21 -126 -11 -141 13 -18 35 -4 29 19 -4 14 7 98 17
135 23 85 29 95 58 95 23 0 29 4 26 18 -2 9 -13 18 -24 20 -17 2 -21 10 -20
39 1 21 -4 38 -11 40 -7 3 -14 1 -14 -4z"/>
<path d="M5677 8893 c-2 -4 -7 -25 -11 -46 -9 -46 -37 -77 -71 -77 -16 0 -25
-6 -25 -15 0 -10 10 -15 29 -15 29 0 29 -1 20 -35 -12 -43 -8 -140 6 -140 6 0
11 18 12 40 2 22 8 63 13 91 l11 52 41 -6 c32 -4 40 -2 36 9 -3 8 -13 16 -24
17 -32 6 -35 17 -22 65 9 34 9 50 1 58 -6 6 -13 7 -16 2z"/>
<path d="M6869 8893 c-1 -16 -9 -62 -32 -198 -14 -77 -22 -143 -20 -147 2 -5
11 -8 19 -8 10 0 14 12 14 38 0 20 7 51 16 67 9 17 13 42 10 57 -3 16 2 59 10
98 9 38 14 77 10 85 -6 15 -25 21 -27 8z"/>
<path d="M7050 8855 c0 -8 -38 -43 -84 -77 -87 -64 -101 -91 -42 -81 48 8 128
-36 150 -81 19 -40 36 -47 36 -15 0 35 -39 78 -97 108 l-56 28 64 44 c67 47
91 89 50 89 -12 0 -21 -7 -21 -15z"/>
<path d="M5180 8757 c-8 -17 -29 -54 -47 -81 -26 -36 -32 -51 -23 -60 9 -8 17
-4 33 17 52 67 101 117 113 117 18 0 18 -1 -11 -70 -14 -32 -22 -66 -19 -74 8
-21 34 -28 50 -15 18 15 18 29 -1 29 -20 0 -19 9 5 61 22 50 26 88 8 93 -7 3
-32 7 -54 10 -40 6 -42 4 -54 -27z"/>
<path d="M5822 8774 c-36 -25 -82 -94 -82 -123 0 -15 7 -37 16 -49 14 -21 23
-23 78 -21 76 3 96 8 96 24 0 9 -18 11 -68 7 -77 -5 -98 7 -86 53 8 32 69 98
85 93 27 -9 18 -28 -26 -54 -32 -18 -43 -30 -36 -37 22 -22 125 51 114 81 -14
41 -54 52 -91 26z"/>
<path d="M5431 8756 c-31 -33 -18 -56 14 -26 l23 22 16 -25 c20 -29 11 -60
-27 -96 -34 -31 -62 -22 -53 17 11 45 12 57 1 61 -5 2 -16 -15 -24 -37 -30
-82 30 -123 98 -67 54 46 63 128 18 160 -29 20 -40 19 -66 -9z"/>
<path d="M6559 8769 c-11 -6 -11 -11 -2 -20 9 -9 4 -19 -23 -44 -24 -23 -34
-41 -34 -62 0 -47 19 -57 84 -42 88 19 114 56 82 117 -20 38 -81 68 -107 51z
m89 -98 c-4 -18 -37 -36 -85 -45 -28 -5 -33 -2 -33 13 0 11 16 33 35 50 19 17
35 36 35 43 0 7 12 0 26 -16 14 -15 24 -36 22 -45z"/>
<path d="M2637 8763 c-3 -5 -1 -29 5 -54 17 -75 3 -174 -37 -255 -19 -40 -42
-74 -50 -78 -30 -11 -62 12 -81 58 -11 25 -25 46 -31 46 -7 0 -13 5 -13 10 0
6 3 10 8 10 4 0 5 22 4 50 -3 35 -8 50 -18 50 -21 0 -11 -107 16 -167 28 -63
46 -81 87 -89 45 -8 71 16 112 106 34 74 48 166 37 242 -7 48 -29 88 -39 71z"/>
<path d="M3379 8757 c-8 -7 -27 -42 -44 -76 l-29 -62 -23 43 c-12 24 -22 56
-23 71 0 22 -4 28 -17 25 -25 -5 -19 -39 16 -112 l29 -59 -55 -116 c-60 -127
-75 -181 -51 -181 9 0 18 13 22 32 7 34 120 277 173 372 20 35 30 63 25 68 -6
6 -15 4 -23 -5z"/>
<path d="M3660 8750 c-32 -32 -58 -93 -50 -115 12 -31 46 -57 77 -58 38 -3 40
16 3 28 -16 6 -35 16 -42 23 -11 11 -9 17 11 30 55 39 80 69 74 91 -7 27 -46
28 -73 1z m30 -35 c-7 -9 -15 -13 -18 -10 -3 2 1 11 8 20 7 9 15 13 18 10 3
-2 -1 -11 -8 -20z"/>
<path d="M3902 8757 c-31 -18 -72 -81 -79 -123 -9 -56 20 -42 46 22 13 30 34
62 48 71 22 15 27 15 58 0 51 -24 66 2 15 28 -35 18 -57 19 -88 2z"/>
<path d="M6334 8753 c-3 -10 -12 -31 -20 -46 -34 -68 2 -117 71 -98 42 11 75
37 75 58 0 62 -110 137 -126 86z m83 -59 c16 -25 16 -27 -2 -40 -25 -18 -74
-18 -81 0 -8 20 25 66 47 66 10 0 26 -12 36 -26z"/>
<path d="M2838 8754 c-4 -3 -4 -20 -1 -37 6 -38 -27 -87 -59 -87 -18 0 -20 5
-16 57 2 35 -1 58 -8 60 -23 8 -34 -113 -12 -135 33 -33 110 6 124 64 12 47
-7 99 -28 78z"/>
<path d="M3034 8737 c-22 -19 -25 -27 -16 -43 10 -18 11 -18 18 -1 9 24 40 39
64 32 33 -10 23 -43 -22 -75 -51 -37 -72 -39 -64 -6 8 32 -3 63 -16 44 -6 -9
-8 -1 -6 22 2 26 -1 35 -12 35 -12 0 -15 -15 -16 -70 -1 -38 -9 -104 -19 -145
-27 -117 -30 -143 -14 -138 15 5 47 104 52 158 2 26 7 36 22 38 52 8 68 15
105 48 28 26 40 44 40 64 0 57 -67 79 -116 37z"/>
<path d="M7205 8610 c-3 -5 -2 -10 3 -10 6 0 8 -8 5 -19 -8 -30 17 -37 38 -10
10 13 19 30 19 37 0 14 -56 17 -65 2z"/>
<path d="M6269 8118 c-1 -7 -1 -17 1 -23 6 -35 -13 -73 -45 -88 -43 -21 -44
-41 -4 -83 30 -31 30 -33 24 -102 l-7 -70 -29 10 c-30 10 -60 38 -40 38 6 0
11 5 11 10 0 17 -29 11 -39 -9 -14 -26 5 -49 54 -65 47 -16 54 -39 29 -92 -15
-30 -15 -37 -3 -45 29 -18 37 -8 44 56 6 62 8 66 40 79 18 8 36 23 39 34 8 24
-17 88 -45 119 -17 17 -20 29 -14 62 4 25 12 41 21 41 8 0 14 -4 14 -10 0 -5
7 -10 15 -10 8 0 15 6 15 13 0 18 -21 37 -40 37 -14 0 -16 9 -12 55 4 46 2 55
-12 55 -9 0 -17 -6 -17 -12z m-9 -147 c0 -14 -18 -23 -30 -16 -6 4 -8 11 -5
16 8 12 35 12 35 0z m48 -198 c-6 -7 -17 -13 -26 -13 -11 0 -13 8 -8 38 3 20
6 44 7 52 0 8 9 -3 19 -25 13 -28 16 -43 8 -52z"/>
<path d="M5301 8091 c-8 -15 -71 -253 -71 -268 0 -2 -5 -1 -11 2 -33 21 -130
-51 -149 -111 -31 -94 50 -127 119 -49 36 42 63 114 96 256 14 62 33 128 41
147 17 42 17 42 -1 42 -8 0 -19 -8 -24 -19z m-86 -301 c11 -18 -44 -109 -76
-126 -67 -34 -62 33 7 96 45 41 58 47 69 30z"/>
<path d="M9720 7993 c0 -32 -3 -81 -6 -110 -7 -52 -7 -52 -40 -51 -43 2 -79
-23 -104 -72 -25 -49 -25 -82 -2 -103 30 -27 67 -21 98 16 53 63 74 139 87
315 5 56 3 62 -14 62 -16 0 -19 -8 -19 -57z m-30 -211 c0 -31 -58 -112 -79
-112 -41 0 -39 47 5 99 29 35 74 43 74 13z"/>
<path d="M8854 8008 c18 -88 18 -105 -9 -181 -15 -42 -36 -84 -46 -93 -23 -20
-25 -67 -4 -84 8 -7 35 -15 59 -17 41 -5 47 -2 89 37 107 98 68 196 -56 145
-17 -7 -18 -6 -3 30 28 66 16 187 -18 193 -16 3 -18 -1 -12 -30z m114 -241 c3
-22 -6 -37 -36 -67 -40 -41 -68 -48 -103 -30 -27 15 -24 26 19 69 67 69 114
80 120 28z"/>
<path d="M9496 8009 c-21 -52 -68 -294 -64 -336 4 -54 28 -55 28 -1 0 43 41
252 61 316 8 24 8 37 0 45 -7 7 -14 1 -25 -24z"/>
<path d="M7104 8016 c-4 -10 -4 -44 -1 -77 7 -84 3 -96 -36 -91 -40 5 -80 -25
-107 -79 -25 -48 -25 -71 -2 -92 26 -23 51 -21 93 7 57 39 83 109 83 228 0 62
-4 102 -12 110 -9 9 -13 7 -18 -6z m-18 -210 c8 -20 -20 -70 -52 -95 -30 -24
-33 -24 -53 -12 -13 8 -12 15 4 51 27 61 87 93 101 56z"/>
<path d="M7686 7953 c-4 -43 -10 -92 -15 -110 -15 -54 17 -170 40 -146 4 4 3
29 -3 55 -9 37 -8 51 2 63 14 17 53 20 81 5 24 -14 58 -80 67 -133 8 -47 39
-62 34 -17 -9 83 -48 155 -98 180 l-31 16 51 57 c28 31 57 57 64 57 6 0 12 7
12 15 0 34 -39 11 -108 -62 l-73 -78 5 73 c4 40 7 78 9 84 1 7 -5 13 -15 15
-14 4 -17 -8 -22 -74z"/>
<path d="M10624 7983 c-9 -21 -20 -49 -25 -62 -9 -22 -13 -23 -64 -16 -46 5
-55 4 -55 -9 0 -11 14 -17 48 -22 l47 -6 0 -62 c0 -35 6 -74 14 -88 18 -35 76
-67 92 -51 16 16 4 44 -16 37 -40 -16 -76 73 -57 141 7 26 14 31 53 35 24 3
50 9 57 13 23 15 2 25 -43 19 -25 -2 -45 -2 -45 2 0 4 9 24 20 46 24 47 25 60
5 60 -8 0 -22 -17 -31 -37z"/>
<path d="M11180 7943 c0 -47 -20 -154 -31 -168 -14 -18 4 -109 22 -113 14 -2
15 5 12 45 -6 57 11 79 51 69 54 -13 65 -48 41 -123 -10 -33 18 -30 33 2 20
44 15 93 -13 120 -13 14 -31 25 -40 25 -28 0 -16 21 51 90 45 47 62 70 53 76
-8 5 -38 -19 -86 -69 l-73 -76 3 76 c1 53 -2 77 -10 80 -9 3 -13 -7 -13 -34z"/>
<path d="M9301 7916 c-13 -15 -4 -26 21 -26 21 0 24 25 4 33 -8 3 -19 0 -25
-7z"/>
<path d="M12077 7859 c-48 -39 -47 -62 3 -123 22 -26 40 -52 40 -57 0 -14 -42
-10 -74 6 -15 8 -36 15 -45 14 -10 0 -11 -2 -3 -6 6 -2 10 -8 7 -13 -7 -11 58
-40 92 -40 64 0 68 39 13 109 -22 28 -40 55 -40 60 0 5 16 19 35 31 34 21 47
50 22 50 -7 0 -29 -14 -50 -31z"/>
<path d="M2678 7849 c-34 -25 -37 -68 -7 -110 29 -41 22 -64 -19 -64 -23 0
-32 -4 -32 -16 0 -38 68 -27 95 15 16 24 15 27 -11 75 -25 43 -26 51 -14 66 8
9 25 21 38 26 25 10 21 29 -6 29 -9 0 -29 -10 -44 -21z"/>
<path d="M3615 7863 c-35 -9 -82 -52 -100 -94 -17 -37 -17 -44 -4 -68 19 -34
75 -49 118 -31 40 16 43 46 4 34 -41 -11 -84 -9 -93 6 -22 36 52 127 96 116
14 -4 24 -1 27 8 5 13 -11 37 -22 35 -4 -1 -15 -4 -26 -6z"/>
<path d="M3791 7839 c-72 -72 -41 -169 44 -135 54 22 72 92 34 140 -26 34 -41
33 -78 -5z m69 -48 c0 -52 -71 -83 -78 -34 -5 32 43 79 63 63 8 -7 15 -20 15
-29z"/>
<path d="M8248 7860 c-9 -6 -19 -24 -23 -41 -4 -17 -13 -33 -21 -36 -18 -7
-18 -35 1 -79 19 -45 35 -35 35 22 0 25 7 61 15 81 13 30 17 34 30 23 20 -17
32 -4 19 18 -13 21 -33 25 -56 12z"/>
<path d="M7959 7831 c-76 -76 8 -189 125 -167 57 11 47 36 -12 33 -51 -2 -102
17 -102 39 0 6 20 21 45 33 51 24 62 40 45 70 -16 32 -65 28 -101 -8z m71 -11
c0 -10 -59 -44 -66 -38 -2 3 5 14 16 26 21 23 50 30 50 12z"/>
<path d="M2856 7823 c-39 -42 -62 -108 -48 -138 14 -29 48 -53 90 -61 48 -10
40 13 -12 35 -36 16 -56 36 -56 56 0 3 10 13 21 24 12 11 19 26 16 35 -3 9 -1
18 5 22 6 4 8 3 4 -4 -3 -6 -1 -14 4 -17 17 -10 51 26 48 49 -5 32 -42 32 -72
-1z"/>
<path d="M3981 7786 c-51 -103 -38 -115 38 -35 l48 52 -5 -32 c-6 -40 17 -42
64 -6 44 34 57 32 49 -4 -7 -31 10 -75 24 -66 5 2 8 30 7 61 -1 73 -21 89 -65
56 -38 -28 -41 -28 -41 3 0 27 -10 31 -40 15 -13 -7 -19 -6 -24 5 -10 27 -23
16 -55 -49z"/>
<path d="M4294 7793 c-15 -32 -28 -62 -28 -67 -2 -22 22 -14 54 19 41 40 52
43 48 13 -4 -26 22 -36 43 -16 36 34 74 58 93 58 13 0 17 -3 9 -8 -18 -12 -11
-76 9 -80 15 -3 17 3 12 50 -3 29 -7 59 -10 66 -5 19 -32 14 -72 -13 -36 -24
-37 -24 -44 -5 -8 21 -33 27 -43 10 -10 -17 -25 -11 -25 10 0 36 -18 21 -46
-37z"/>
<path d="M10273 7843 c-25 -5 -31 -28 -10 -36 6 -2 24 0 38 5 16 5 36 5 53 -2
36 -13 46 -13 46 3 0 28 -62 42 -127 30z"/>
<path d="M11608 7823 c-16 -41 -34 -135 -30 -155 2 -10 9 -18 16 -18 9 0 15
21 19 60 6 52 18 91 33 109 2 2 13 -8 25 -22 11 -15 24 -27 28 -27 15 0 8 36
-12 58 -29 31 -65 29 -79 -5z"/>
<path d="M2380 7798 c-12 -24 -39 -65 -60 -93 -20 -27 -35 -56 -33 -62 7 -20
43 -16 43 5 0 9 8 27 18 40 l18 23 1 -42 c1 -23 6 -46 11 -51 19 -19 57 -2 89
40 l32 43 9 -33 c5 -20 16 -34 27 -36 15 -3 17 0 10 19 -4 13 -6 42 -5 64 6
81 5 98 -5 102 -6 1 -20 -19 -32 -45 -13 -27 -41 -69 -62 -93 l-40 -44 -1 46
c0 26 7 66 15 89 8 23 15 49 15 56 0 28 -27 13 -50 -28z"/>
<path d="M7224 7825 c-25 -17 -54 -74 -54 -104 0 -32 35 -61 75 -61 52 0 75
28 75 90 0 76 -45 111 -96 75z m66 -74 c0 -42 -14 -61 -46 -61 -51 0 -54 56
-5 97 33 27 51 14 51 -36z"/>
<path d="M7433 7820 c-12 -5 -34 -28 -50 -51 -25 -38 -26 -43 -12 -67 20 -36
95 -67 143 -58 53 10 44 22 -20 29 -58 6 -94 28 -94 56 1 32 35 62 78 68 25 3
41 10 39 17 -5 14 -55 18 -84 6z"/>
<path d="M9160 7792 c0 -93 -77 -113 -89 -22 -8 55 -25 56 -29 1 -8 -106 108
-124 146 -22 11 31 3 81 -14 81 -10 0 -14 -12 -14 -38z"/>
<path d="M4656 7786 c-45 -42 -49 -82 -10 -92 14 -4 36 -2 49 4 18 8 25 8 29
-4 3 -8 14 -14 24 -14 14 0 19 7 19 28 -1 15 3 39 7 55 11 38 -7 35 -55 -8
-37 -33 -69 -45 -69 -26 0 18 54 61 76 61 15 0 24 6 24 15 0 29 -56 18 -94
-19z"/>
<path d="M11388 7793 c-34 -37 -42 -68 -27 -104 19 -46 109 -82 109 -44 0 8 5
15 11 15 5 0 7 -5 3 -12 -4 -7 -3 -8 4 -4 24 15 12 28 -20 22 -20 -4 -39 -1
-55 9 -31 21 -29 29 11 43 50 18 61 35 46 72 -16 38 -47 39 -82 3z m52 -18 c0
-14 -37 -41 -46 -33 -6 6 26 48 37 48 5 0 9 -7 9 -15z"/>
<path d="M4905 7800 c-4 -6 -15 -8 -25 -5 -14 4 -25 -6 -49 -45 -17 -28 -31
-55 -31 -60 0 -20 23 -9 53 26 29 32 75 64 93 64 3 0 3 -20 0 -44 -8 -51 9
-72 24 -31 14 36 13 78 -2 93 -15 15 -55 16 -63 2z"/>
<path d="M11778 7781 c-36 -42 -54 -90 -41 -110 16 -25 47 -24 73 4 26 28 40
32 40 12 0 -19 37 -51 44 -39 3 6 -2 24 -11 41 -15 25 -16 35 -6 62 16 41 3
59 -42 59 -24 0 -40 -8 -57 -29z m58 -28 c-17 -33 -64 -79 -72 -71 -5 6 19 62
38 86 6 6 19 12 29 12 18 0 18 -2 5 -27z"/>
<path d="M9256 7749 c-11 -55 -8 -81 10 -77 22 4 31 108 10 108 -7 0 -16 -14
-20 -31z"/>
<path d="M12520 7696 c-18 -22 -5 -46 25 -46 23 0 26 4 23 27 -3 32 -29 41
-48 19z"/>
<path d="M2942 7639 c2 -6 8 -10 13 -10 5 0 11 4 13 10 2 6 -4 11 -13 11 -9 0
-15 -5 -13 -11z"/>
<path d="M11526 7498 c-10 -18 -47 -58 -82 -87 -35 -30 -63 -59 -61 -65 8 -25
32 -13 93 46 l66 63 -6 -50 c-4 -27 -9 -70 -12 -95 -3 -25 -23 -119 -46 -210
-48 -196 -63 -354 -33 -349 15 3 18 18 21 95 3 63 17 144 45 255 22 90 43 195
46 233 l6 69 23 -29 c18 -22 26 -26 35 -17 10 10 9 17 -4 31 -9 10 -17 31 -17
46 0 35 -28 96 -44 96 -6 0 -20 -15 -30 -32z"/>
<path d="M12920 7175 c-10 -12 -10 -25 3 -68 45 -150 21 -247 -62 -247 -35 0
-26 43 15 80 25 21 33 35 26 42 -7 7 -23 -2 -51 -27 -32 -29 -41 -45 -41 -69
0 -40 15 -56 53 -56 103 0 145 130 92 284 -9 26 -11 44 -5 50 6 6 10 14 10 18
0 14 -27 9 -40 -7z"/>
<path d="M11903 7118 c-6 -7 -18 -35 -29 -61 -10 -27 -27 -53 -37 -58 -12 -7
-16 -17 -12 -29 3 -11 1 -37 -5 -59 -11 -41 -1 -88 23 -103 23 -15 74 -8 92
12 23 25 12 37 -19 21 -54 -29 -79 10 -58 90 7 31 12 34 43 33 19 0 45 -2 59
-5 17 -3 25 1 25 11 0 10 -16 18 -47 24 -27 5 -48 15 -48 21 0 6 11 34 25 61
14 27 25 50 25 52 0 8 -29 0 -37 -10z"/>
<path d="M13644 7006 l-28 -23 32 -48 c24 -37 29 -52 22 -66 -14 -25 -30 -33
-30 -15 0 9 -7 16 -16 16 -11 0 -14 -8 -12 -32 4 -44 23 -45 64 -4 30 30 35
41 29 64 -3 15 -15 36 -26 48 -26 27 -24 42 6 50 14 3 25 12 25 20 0 22 -36
16 -66 -10z"/>
<path d="M12568 6990 c-11 -33 -52 -60 -90 -60 l-22 0 20 21 c12 11 29 22 40
23 25 4 32 36 7 36 -27 0 -93 -48 -93 -68 0 -29 21 -44 39 -29 12 9 13 9 7 0
-5 -9 -1 -13 13 -13 26 0 52 10 47 19 -3 4 4 7 15 7 21 0 24 -21 13 -113 l-7
-53 -37 0 c-42 0 -70 -24 -70 -61 0 -35 27 -69 55 -69 24 0 75 51 75 75 0 8
10 15 22 17 27 4 36 28 10 28 -19 0 -19 6 -14 135 4 101 2 135 -7 135 -7 0
-17 -14 -23 -30z m-18 -273 c0 -20 -30 -57 -45 -57 -16 0 -31 43 -20 59 9 16
65 14 65 -2z"/>
<path d="M12660 6963 c-27 -42 -28 -49 -16 -67 17 -27 86 -36 86 -12 0 11 -9
16 -30 16 -41 0 -38 16 5 24 62 12 74 86 14 86 -24 0 -35 -8 -59 -47z m70 12
c0 -2 -10 -10 -22 -16 -21 -11 -22 -11 -9 4 13 16 31 23 31 12z"/>
<path d="M12304 6980 c-47 -18 -71 -89 -37 -108 9 -6 29 -6 45 -1 35 10 40 0
42 -79 l1 -56 -34 -2 c-40 -2 -61 -25 -61 -65 0 -29 23 -59 45 -59 16 0 65 56
65 75 0 7 14 15 30 19 33 6 41 26 11 26 -15 0 -19 11 -24 69 -3 39 -11 79 -16
90 -7 13 -8 22 -1 26 5 3 10 10 10 16 0 16 -26 10 -45 -11 -19 -21 -55 -27
-55 -10 0 12 33 46 51 53 9 3 11 8 4 15 -6 6 -19 7 -31 2z m36 -289 c0 -5 -9
-19 -19 -32 -18 -22 -20 -22 -26 -6 -10 25 1 47 25 47 11 0 20 -4 20 -9z"/>
<path d="M12058 6953 c-14 -16 -30 -38 -36 -49 -16 -31 14 -56 64 -53 22 1 45
0 53 -2 10 -3 15 8 17 39 2 48 -9 53 -38 17 -17 -21 -68 -36 -68 -20 0 17 35
55 49 55 25 0 33 11 20 27 -17 20 -32 16 -61 -14z"/>
<path d="M13418 6948 c-45 -48 -72 -106 -57 -124 18 -22 43 -17 84 16 31 25
40 28 53 18 13 -11 15 -10 9 5 -4 11 0 31 10 47 16 28 16 29 -8 49 -34 29 -56
26 -91 -11z m65 -12 c6 -15 -80 -103 -90 -93 -7 8 16 48 45 80 29 31 38 33 45
13z"/>
<path d="M13900 6570 c-33 -68 -35 -70 -72 -70 -27 0 -38 -4 -38 -15 0 -10 10
-15 33 -15 32 0 32 0 29 -43 -6 -76 59 -129 119 -97 31 17 22 29 -20 24 -32
-4 -42 -1 -55 18 -17 24 -21 65 -8 84 7 12 69 23 140 23 32 1 42 5 42 17 0 14
-11 16 -84 12 l-84 -4 29 58 c32 64 35 78 16 78 -7 0 -28 -31 -47 -70z"/>
<path d="M11838 6578 c-12 -26 -116 -124 -123 -117 -2 3 1 22 6 44 22 85 22
85 6 85 -16 0 -27 -27 -47 -117 -6 -28 -17 -54 -24 -56 -8 -3 -12 -31 -11 -83
0 -63 3 -79 15 -79 10 0 14 8 12 28 -10 101 87 199 148 149 23 -19 24 -22 12
-71 -16 -68 -15 -104 0 -99 16 6 42 130 34 162 -3 15 -20 33 -37 41 l-30 16
40 44 c23 25 41 51 41 60 0 23 -29 18 -42 -7z"/>
<path d="M13523 6513 c6 -53 -2 -76 -24 -73 -39 6 -64 -3 -95 -34 -40 -40 -43
-64 -11 -94 32 -30 68 -28 99 6 45 47 61 92 62 167 1 61 -1 70 -18 73 -17 4
-18 -1 -13 -45z m-18 -113 c9 -15 -43 -80 -64 -80 -18 0 -41 18 -41 32 0 5 12
20 26 33 28 26 68 33 79 15z"/>
<path d="M12563 6472 c-37 -19 -39 -28 -17 -60 23 -33 33 -76 22 -95 -13 -23
-33 -21 -51 6 -14 20 -16 21 -22 4 -10 -23 21 -57 51 -57 26 0 64 43 64 72 0
10 -7 32 -15 49 -18 34 -5 72 23 67 10 -2 17 3 17 12 0 21 -34 22 -72 2z"/>
<path d="M11992 6432 c-15 -16 -33 -41 -41 -55 -29 -54 30 -102 104 -87 17 3
30 12 30 20 0 11 -11 14 -46 12 -30 -2 -49 2 -57 11 -10 11 -5 16 26 25 55 17
78 45 64 77 -15 33 -47 32 -80 -3z m37 -33 c-25 -16 -32 -9 -13 12 12 13 20
16 22 9 3 -7 -2 -16 -9 -21z"/>
<path d="M12157 6418 c-32 -43 -47 -73 -47 -92 0 -33 26 -14 50 37 25 50 27
52 63 49 40 -4 47 4 20 24 -30 23 -60 16 -86 -18z"/>
<path d="M12317 6432 c-38 -23 -74 -97 -57 -117 17 -20 38 -19 82 5 l37 19 3
-22 c5 -33 21 -26 30 13 8 37 2 70 -12 70 -4 0 -27 -16 -50 -35 -45 -38 -60
-43 -60 -21 0 28 41 66 71 66 31 0 41 23 13 34 -22 8 -25 8 -57 -12z"/>
<path d="M13665 6432 c-20 -14 -45 -62 -45 -85 0 -47 52 -64 85 -27 16 18 17
25 7 54 -7 19 -11 40 -10 47 3 15 -22 23 -37 11z m19 -69 c8 -19 -14 -37 -28
-23 -10 10 -1 40 13 40 5 0 12 -8 15 -17z"/>
<path d="M12850 6256 c0 -28 -19 -50 -61 -71 -31 -17 -38 -35 -13 -35 20 0 54
18 82 43 26 24 32 87 7 87 -9 0 -15 -9 -15 -24z"/>
<path d="M14371 6209 c-11 -18 -23 -54 -26 -79 -4 -25 -7 -52 -8 -60 -1 -8
-15 -16 -30 -18 -36 -4 -30 -26 8 -30 27 -4 28 -4 22 -58 -4 -41 -2 -54 8 -54
17 0 25 23 25 76 l0 44 46 0 c59 0 55 24 -5 28 l-42 3 7 52 c4 29 14 64 22 79
12 21 13 31 5 39 -9 9 -17 3 -32 -22z"/>
<path d="M11765 6191 c-88 -22 -114 -56 -118 -155 l-2 -60 -49 -10 c-27 -6
-51 -17 -54 -25 -4 -11 5 -13 48 -7 l52 7 -7 -43 c-4 -24 -15 -58 -26 -76 -23
-40 -24 -52 -3 -52 19 0 50 69 59 132 7 44 9 47 31 42 30 -8 34 21 4 31 -17 5
-20 15 -20 61 0 31 5 64 10 75 15 27 63 49 109 49 48 0 62 16 26 30 -14 6 -27
10 -28 9 -1 -1 -15 -4 -32 -8z"/>
<path d="M12344 6063 c-39 -121 -50 -212 -26 -220 8 -3 12 7 12 34 0 21 18 94
40 162 21 69 37 128 34 133 -13 21 -24 0 -60 -109z"/>
<path d="M13563 6138 c-6 -7 -15 -37 -19 -67 -9 -52 -10 -54 -54 -70 -35 -12
-49 -25 -63 -54 -18 -35 -18 -39 -3 -62 20 -30 22 -30 63 -5 46 28 61 56 84
160 19 89 16 128 -8 98z m-43 -176 c0 -10 -53 -62 -63 -62 -13 0 -7 33 10 52
16 18 53 25 53 10z"/>
<path d="M13072 6073 c-22 -94 -35 -191 -28 -218 11 -43 29 -23 31 36 1 30 8
81 15 114 23 114 23 115 8 115 -9 0 -19 -18 -26 -47z"/>
<path d="M13656 6101 c-3 -4 1 -16 8 -27 12 -15 16 -16 30 -5 24 20 20 41 -8
41 -14 0 -27 -4 -30 -9z"/>
<path d="M14525 6047 c-4 -10 -5 -21 -2 -24 4 -3 -5 -14 -18 -25 -29 -23 -32
-58 -7 -81 63 -57 110 54 52 125 -17 21 -19 22 -25 5z m25 -84 c0 -17 -19 -35
-29 -29 -18 12 -12 36 9 36 11 0 20 -3 20 -7z"/>
<path d="M14694 6042 c-17 -11 -41 -63 -45 -97 -6 -49 22 -37 38 17 12 43 33
74 33 49 0 -6 7 -11 15 -11 18 0 20 21 3 38 -14 14 -28 15 -44 4z"/>
<path d="M13783 6001 c-40 -31 -51 -47 -56 -77 -10 -63 24 -75 37 -13 7 37 68
99 98 99 25 0 18 24 -9 28 -12 2 -41 -14 -70 -37z"/>
<path d="M13913 5973 c-24 -27 -43 -57 -43 -70 0 -30 40 -55 81 -51 45 4 51
28 7 28 -46 0 -66 14 -49 34 7 8 18 13 26 10 17 -7 74 22 81 41 9 21 -15 55
-38 55 -12 0 -39 -19 -65 -47z m67 7 c0 -5 -10 -15 -22 -21 -23 -12 -23 -12
-4 10 21 23 26 26 26 11z"/>
<path d="M14129 5991 c-52 -53 -30 -101 46 -101 34 0 47 5 55 20 10 18 8 19
-39 13 -30 -3 -51 -1 -55 6 -11 18 13 50 42 57 39 10 46 15 31 25 -25 16 -50
9 -80 -20z"/>
<path d="M12478 5993 c-41 -48 -49 -96 -19 -113 29 -15 87 -12 105 5 22 23 -5
106 -40 119 -24 9 -29 8 -46 -11z m48 -38 c20 -31 12 -55 -20 -55 -33 0 -38
11 -23 49 14 38 22 39 43 6z"/>
<path d="M14878 5983 c-14 -16 -29 -38 -33 -51 -8 -28 -38 -26 -43 3 -6 32
-19 39 -31 16 -14 -26 0 -57 29 -66 19 -6 17 -12 -29 -103 -40 -79 -71 -165
-71 -196 0 -3 7 -6 15 -6 8 0 17 12 20 28 4 15 11 35 16 45 5 9 16 37 24 61 9
25 32 73 51 108 20 35 42 79 48 98 7 19 22 39 35 45 22 10 25 35 6 42 -6 2
-23 -9 -37 -24z"/>
<path d="M11870 5968 c-25 -41 -36 -96 -22 -110 16 -16 32 1 32 35 0 18 7 43
16 56 14 19 22 22 50 16 26 -4 34 -2 34 8 0 18 -21 27 -61 27 -22 0 -34 -8
-49 -32z"/>
<path d="M11762 5975 c-13 -7 -23 -15 -22 -19 0 -4 -6 -14 -15 -22 -16 -16
-21 -90 -7 -110 22 -33 76 -21 91 20 9 21 -5 125 -18 137 -3 3 -16 0 -29 -6z
m18 -97 c0 -31 -4 -38 -20 -38 -16 0 -20 7 -20 31 0 17 5 40 11 51 15 28 29 7
29 -44z"/>
<path d="M12621 5964 c-23 -30 -28 -86 -8 -102 19 -15 70 -23 86 -13 19 13 6
29 -25 29 -34 0 -48 15 -40 46 5 21 13 26 36 26 34 0 39 14 11 30 -29 15 -37
13 -60 -16z"/>
<path d="M12815 5960 c-38 -40 -26 -65 31 -65 34 0 40 -4 44 -25 3 -14 13 -26
22 -28 15 -3 17 2 12 26 -3 16 -1 40 6 52 19 35 -2 47 -36 21 -15 -11 -38 -21
-52 -21 -25 0 -25 0 -6 21 11 12 26 18 37 15 13 -3 17 0 13 11 -3 8 -6 17 -6
19 0 15 -41 -1 -65 -26z"/>
<path d="M13602 5958 c-7 -7 -12 -16 -12 -21 0 -6 -8 -16 -17 -23 -17 -12 -17
-13 0 -19 26 -11 44 0 50 32 6 33 -4 48 -21 31z"/>
</g>
</svg>
